<svg width="100" height="100" viewBox="0 0 100 100" fill="none" xmlns="http://www.w3.org/2000/svg">
<path d="M59.9574 30.1809C55.5318 27.0423 49.5693 26.4409 43.7558 26.4409C37.1474 26.4396 30.4417 27.4542 25.5928 31.1956C16.2965 38.3702 9.12983 48.5103 7.03543 59.5463C4.00063 75.5476 5.3141 85.1836 43.9381 85.1836C82.3704 85.1836 84.0397 75.4396 80.4772 59.5463C78.0042 48.5103 70.5537 37.6969 59.9574 30.1809Z" fill="#F0ECEC"/>
<path d="M9.6189 9.00039C9.6189 18.8244 24.5685 28.6924 43.0112 28.6924C61.4513 28.6924 76.4008 18.8244 76.4008 9.00039C76.4008 9.00039 61.4513 9.00039 43.0112 9.00039C24.5685 9.00039 9.6189 9.00039 9.6189 9.00039Z" fill="#F0ECEC"/>
<path d="M54.4746 50.6708C51.5554 48.8588 47.7731 47.6548 43.9382 47.6548C39.5814 47.6548 35.0059 49.0975 31.8079 51.2561C25.6762 55.4001 20.9486 61.2575 19.5685 67.6308C17.5658 76.8708 19.1371 81.1895 44.6127 81.1895C69.9617 81.1895 70.3575 76.8095 68.0085 67.6308C66.3773 61.2575 61.4633 55.0121 54.4746 50.6708Z" fill="#888479"/>
<path d="M30.5981 77.8931C30.5981 78.4104 36.3263 78.8291 43.3904 78.8291C50.4555 78.8291 56.1815 78.4104 56.1815 77.8931V70.3691H30.5981V77.8931Z" fill="#CEC9C5"/>
<path d="M57.5164 25.299H28.5033C27.1544 25.299 26.0623 26.3923 26.0623 27.7403C26.0623 29.0883 27.1544 30.1816 28.5033 30.1816H57.5164C58.8653 30.1816 59.9576 29.0883 59.9576 27.7403C59.9576 26.3923 58.8653 25.299 57.5164 25.299Z" fill="#E2D8D8"/>
<path d="M43.3904 69.433C36.3263 69.433 30.5981 69.8517 30.5981 70.369C30.5981 70.885 36.3263 71.3037 43.3904 71.3037C50.4555 71.3037 56.1815 70.885 56.1815 70.369C56.1815 69.8517 50.4555 69.433 43.3904 69.433Z" fill="white"/>
<path d="M43.045 54.3658C42.0699 54.3658 39.9174 62.9605 40.3522 65.9992C40.7855 69.0378 42.6961 68.6912 42.6961 68.6912C45.2142 68.5165 45.821 67.4472 45.821 65.3912C45.821 62.0925 44.433 54.3658 43.045 54.3658Z" fill="#FFF600"/>
<path d="M43.0439 65.3905C42.8512 65.3905 42.696 65.5465 42.696 65.7385V70.0211C42.696 70.2131 42.8512 70.3691 43.0439 70.3691C43.2351 70.3691 43.3903 70.2131 43.3903 70.0211V65.7385C43.3903 65.5465 43.2351 65.3905 43.0439 65.3905Z" fill="black"/>
<path d="M31.808 51.2557C25.6762 55.3997 20.9486 61.257 19.5685 67.6304C18.1992 73.949 18.506 77.9637 26.9773 79.873C23.7872 77.637 23.8986 74.2797 24.8861 69.7224C26.2664 63.349 30.9945 57.4917 37.1257 53.3477C40.3237 51.1877 44.8992 49.7464 49.256 49.7464C50.8142 49.7464 52.3606 49.9544 53.8476 50.3117C51.0232 48.7064 47.508 47.6544 43.9382 47.6544C39.5814 47.6544 35.006 49.097 31.808 51.2557Z" fill="#726D68"/>
<path d="M49.9912 78.5244H46.2595C45.557 78.5244 44.9866 76.9684 44.9866 75.0471C44.9866 73.1271 45.557 71.5711 46.2595 71.5711H49.9912C50.695 71.5711 51.2642 73.1271 51.2642 75.0471C51.2642 76.9684 50.695 78.5244 49.9912 78.5244Z" fill="#E2DFDC"/>
<path d="M67.2741 45.1719C65.6621 45.1719 63.3204 44.0185 61.2141 42.0399C58.2845 39.2879 56.9173 35.9839 58.1616 34.6585C58.5111 34.2865 59.0293 34.1105 59.6595 34.1105C61.2709 34.1105 63.6127 35.2639 65.7188 37.2425C68.6485 39.9945 70.0152 43.2985 68.7715 44.6239C68.422 44.9959 67.9037 45.1719 67.2741 45.1719Z" fill="#F8F6F6"/>
<path d="M63.7743 21.0957C63.2768 21.0957 62.8801 20.9597 62.6222 20.6744C61.591 19.5344 63.1722 16.4251 66.155 13.7304C68.0924 11.9797 69.758 11.2264 70.9706 11.2264C71.6243 11.2264 72.1462 11.4451 72.5076 11.8451C73.5388 12.9851 72.8706 15.1664 69.8883 17.8611C67.6519 19.8811 65.2638 21.0957 63.7743 21.0957Z" fill="#F8F6F6"/>
<path d="M57.2409 29.6025H44.847C43.8319 29.6025 43.0095 28.7799 43.0095 27.7665C43.0095 26.7505 43.8319 25.9279 44.847 25.9279H57.2409C58.2554 25.9279 59.0778 26.7505 59.0778 27.7665C59.0778 28.7799 58.2554 29.6025 57.2409 29.6025Z" fill="#F1ECEC"/>
<mask id="mask0_130_4829" style="mask-type:luminance" maskUnits="userSpaceOnUse" x="6" y="9" width="76" height="77">
<path d="M80.4772 59.5463C78.0042 48.5103 70.5537 37.6969 59.9574 30.1809C59.6673 29.9756 59.3542 29.8089 59.0517 29.6249C59.6001 29.1756 59.9574 28.5036 59.9574 27.7396C59.9574 27.0556 59.6745 26.4396 59.2214 25.9956C69.4662 22.3942 76.4006 15.6889 76.4006 8.99961C76.4006 8.99961 61.4512 8.99961 43.011 8.99961C24.5684 8.99961 9.61876 8.99961 9.61876 8.99961C9.61876 15.6889 16.5532 22.3942 26.7985 25.9956C26.3449 26.4396 26.0621 27.0556 26.0621 27.7396C26.0621 28.7129 26.636 29.5476 27.461 29.9396C26.8132 30.3196 26.1881 30.7356 25.5928 31.1956C16.2965 38.3702 9.12983 48.5103 7.03543 59.5463C4.00063 75.5476 5.3141 85.1836 43.9381 85.1836C82.3704 85.1836 84.0397 75.4396 80.4772 59.5463Z" fill="white"/>
</mask>
<g mask="url(#mask0_130_4829)">
<path d="M9.63078 9.47428C9.63024 9.47162 9.63024 9.46891 9.63024 9.46758C9.63024 9.47024 9.63024 9.47162 9.63078 9.47428ZM9.62984 9.45293C9.62931 9.44893 9.62931 9.44492 9.62931 9.44225C9.62931 9.44625 9.62931 9.44893 9.62984 9.45293ZM9.62824 9.4196C9.62824 9.4156 9.62771 9.41159 9.62771 9.40892C9.62771 9.41292 9.62824 9.4156 9.62824 9.4196ZM9.62717 9.39427C9.62664 9.3916 9.62664 9.38759 9.62664 9.38359C9.62664 9.38759 9.62664 9.39027 9.62717 9.39427ZM9.62504 9.33828C9.62451 9.33295 9.62451 9.32893 9.62451 9.32493C9.62451 9.32893 9.62451 9.33428 9.62504 9.33828ZM9.62411 9.31159C9.62411 9.30359 9.62358 9.29827 9.62358 9.2916C9.62358 9.29693 9.62411 9.30492 9.62411 9.31159ZM9.62304 9.28092C9.62304 9.27559 9.62304 9.27024 9.62251 9.26491C9.62304 9.26891 9.62304 9.27559 9.62304 9.28092ZM9.62091 9.19824C9.62091 9.19024 9.62091 9.18228 9.62038 9.17428C9.62091 9.18228 9.62091 9.18891 9.62091 9.19824ZM9.61931 9.0556C9.61931 9.04627 9.61877 9.03958 9.61877 9.03158C9.61877 9.03958 9.61931 9.0476 9.61931 9.0556Z" fill="#5B2F47"/>
<path d="M25.5928 31.1963C25.6584 31.1456 25.7241 31.095 25.7902 31.0456C25.7245 31.095 25.6584 31.1456 25.5928 31.1963Z" fill="#53233E"/>
<path d="M43.0095 85.1826C12.848 85.06 5.99652 78.8906 6.00012 68.3066C6.00119 65.6546 6.43292 62.7266 7.03546 59.5466C9.12986 48.5106 16.2965 38.3706 25.5928 31.1959C25.6584 31.1453 25.7245 31.0946 25.7903 31.0453C26.3236 30.6466 26.8793 30.2813 27.4527 29.944C27.7709 30.096 28.1272 30.1813 28.5032 30.1813H43.0095V47.676C38.9403 47.8626 34.7793 49.2493 31.8079 51.256C25.6761 55.4 20.9485 61.2573 19.5684 67.6306C19.5668 67.6373 19.5652 67.6453 19.5636 67.652C19.5627 67.656 19.5621 67.66 19.5611 67.664C19.56 67.668 19.5595 67.6706 19.5589 67.6746C17.6136 76.688 19.1121 81.0013 43.0095 81.1826V85.1826Z" fill="#C6BDC0"/>
<path d="M26.796 25.9941C16.8236 22.4888 9.98864 16.0408 9.63344 9.53014V9.52747C9.63291 9.52081 9.63291 9.51546 9.63238 9.50879V9.50749C9.63184 9.49549 9.63131 9.48482 9.63078 9.47415C9.63024 9.47149 9.63024 9.47012 9.63024 9.46745C9.63024 9.46212 9.62984 9.45813 9.62984 9.4528C9.62931 9.4488 9.62931 9.44612 9.62931 9.44212C9.62878 9.43412 9.62877 9.42747 9.62824 9.41947C9.62824 9.41547 9.62771 9.41279 9.62771 9.40879C9.62771 9.40346 9.62717 9.39947 9.62717 9.39414C9.62664 9.39014 9.62664 9.38746 9.62664 9.38346C9.62611 9.3768 9.62611 9.37148 9.62611 9.36615C9.62558 9.36081 9.62557 9.35416 9.62504 9.34883C9.62504 9.34483 9.62504 9.34215 9.62504 9.33815C9.62451 9.33415 9.62451 9.32881 9.62451 9.32481C9.62451 9.32081 9.62411 9.31546 9.62411 9.31146C9.62411 9.30479 9.62358 9.29681 9.62358 9.29147C9.62358 9.28747 9.62304 9.28346 9.62304 9.2808C9.62304 9.27546 9.62304 9.26878 9.62251 9.26478C9.62251 9.26078 9.62251 9.25814 9.62251 9.25547C9.62251 9.24747 9.62197 9.23948 9.62197 9.23281C9.62197 9.23015 9.62197 9.22614 9.62144 9.22481C9.62144 9.21814 9.62144 9.21145 9.62091 9.20612C9.62091 9.20345 9.62091 9.20078 9.62091 9.19811C9.62091 9.18878 9.62091 9.18215 9.62038 9.17415C9.62038 9.17149 9.62038 9.16881 9.62038 9.16615C9.62038 9.16081 9.62038 9.15413 9.61984 9.14746C9.61984 9.1448 9.61984 9.14212 9.61984 9.13945C9.61984 9.13279 9.61984 9.1235 9.61984 9.1155C9.61984 9.11416 9.61984 9.11282 9.61984 9.11016C9.61931 9.10349 9.61931 9.0968 9.61931 9.0888C9.61931 9.08747 9.61931 9.08483 9.61931 9.08216C9.61931 9.07416 9.61931 9.06617 9.61931 9.05684V9.05547C9.61931 9.04747 9.61877 9.03945 9.61877 9.03145C9.61877 9.03011 9.61877 9.02614 9.61877 9.02481C9.61877 9.01547 9.61877 9.00748 9.61877 8.99948C9.61877 8.99948 24.5684 8.99948 43.011 8.99948L43.0094 25.2981H28.5032C27.8386 25.2981 27.236 25.5635 26.796 25.9941Z" fill="#C6BDC0"/>
<path d="M43.0095 81.1826C19.1121 81.0013 17.6136 76.688 19.5589 67.6746C18.2007 73.968 18.5256 77.9693 26.9772 79.8733C23.7871 77.6373 23.8985 74.28 24.886 69.7226C26.2663 63.3493 30.9944 57.492 37.1256 53.348C38.7892 52.2253 40.8251 51.296 43.0095 50.6626V54.3693C42.0188 54.568 39.9225 62.9973 40.3521 65.9986C40.7048 68.472 42.0355 68.7026 42.5193 68.7026C42.6299 68.7026 42.696 68.6906 42.696 68.6906V69.4346C35.9548 69.4613 30.598 69.8693 30.598 70.3693V77.8933C30.598 78.4013 36.122 78.8133 43.0095 78.828V81.1826ZM19.5611 67.664C19.5621 67.66 19.5627 67.656 19.5636 67.652C19.5627 67.656 19.5621 67.6613 19.5611 67.664Z" fill="#736A64"/>
<path d="M43.0094 78.8281C36.122 78.8135 30.598 78.4015 30.598 77.8935V70.3695C30.598 70.8761 36.122 71.2895 43.0094 71.3041V78.8281Z" fill="#ABA1A0"/>
<path d="M43.0095 30.1816H28.5032C28.1272 30.1816 27.7709 30.0963 27.4527 29.9443C27.4559 29.943 27.4584 29.9416 27.4611 29.9403C26.6559 29.5576 26.0897 28.755 26.0627 27.811C26.0627 27.811 26.0627 27.8097 26.0627 27.8083C26.0627 27.8057 26.0627 27.803 26.0627 27.8003C26.0627 27.7977 26.0627 27.795 26.0627 27.7923C26.0621 27.791 26.0621 27.7883 26.0621 27.787C26.0621 27.783 26.0621 27.7776 26.0621 27.7736C26.0621 27.7723 26.0621 27.771 26.0621 27.7697C26.0621 27.7657 26.0621 27.763 26.0621 27.759C26.0621 27.7577 26.0621 27.7563 26.0621 27.755C26.0621 27.7497 26.0621 27.7456 26.0621 27.7403C26.0621 27.735 26.0621 27.731 26.0621 27.7243V27.723C26.0668 27.0456 26.3491 26.4363 26.7985 25.9963C26.7975 25.9963 26.7969 25.9963 26.796 25.995C27.236 25.5643 27.8387 25.299 28.5032 25.299H43.0095V27.767V30.1816Z" fill="#BBADB0"/>
<path d="M43.0094 71.3037C36.122 71.289 30.598 70.8757 30.598 70.369C30.598 69.869 35.9548 69.461 42.696 69.4344V70.021C42.696 70.2024 42.8334 70.3504 43.0094 70.3677V71.3037Z" fill="#D2CCCF"/>
<path d="M42.5193 68.7031C42.0355 68.7031 40.7048 68.4725 40.3521 65.9991C39.9225 62.9978 42.0188 54.5685 43.0095 54.3698V65.3924C42.8335 65.4098 42.696 65.5578 42.696 65.7391V68.6911C42.696 68.6911 42.6299 68.7031 42.5193 68.7031Z" fill="#D2C503"/>
<path d="M43.0095 70.3682C42.8335 70.3508 42.696 70.2028 42.696 70.0215V69.4348V68.6908V65.7388C42.696 65.5575 42.8335 65.4095 43.0095 65.3922V70.3682Z" fill="#060003"/>
<path d="M26.9772 79.873C18.5256 77.969 18.2006 73.9677 19.5589 67.6744C19.5594 67.6704 19.56 67.6677 19.561 67.6637C19.5621 67.661 19.5626 67.6557 19.5636 67.6517C19.5652 67.645 19.5668 67.637 19.5684 67.6304C20.9485 61.257 25.6761 55.3997 31.8078 51.2557C34.7793 49.249 38.9402 47.8624 43.0094 47.6757V50.6624C40.825 51.2957 38.7892 52.225 37.1256 53.3477C30.9944 57.4917 26.2662 63.349 24.886 69.7224C23.8985 74.2797 23.787 77.637 26.9772 79.873Z" fill="#615756"/>
</g>
<path d="M89.5034 58.3766H79.6476C76.7222 58.3766 74.3523 59.8446 74.3523 61.6552V87.9753C74.3523 89.7859 76.7222 91.2539 79.6476 91.2539H89.5034C92.4279 91.2539 94.8003 89.7859 94.8003 87.9753V61.6552C94.8003 59.8446 92.4279 58.3766 89.5034 58.3766Z" fill="#B84024"/>
<path d="M76.6318 58.376H92.5188V46.2395H76.6318V58.376Z" fill="#9F9C95"/>
<path d="M74.3523 82.9785H94.8002V65.9879H74.3523V82.9785Z" fill="white"/>
<path d="M74.3523 74.8135H94.8002V65.9874H74.3523V74.8135Z" fill="#34323F"/>
<path d="M91.0887 47.2016C90.8918 47.2016 90.7319 47.3603 90.7319 47.5589V56.9363C90.7319 57.1349 90.8918 57.2949 91.0887 57.2949C91.2877 57.2949 91.4481 57.1349 91.4481 56.9363V47.5589C91.4481 47.3603 91.2877 47.2016 91.0887 47.2016Z" fill="#EAE5EC"/>
<path d="M88.9173 47.2016C88.7204 47.2016 88.5605 47.3603 88.5605 47.5589V56.9363C88.5605 57.1349 88.7204 57.2949 88.9173 57.2949C89.1168 57.2949 89.2767 57.1349 89.2767 56.9363V47.5589C89.2767 47.3603 89.1168 47.2016 88.9173 47.2016Z" fill="#EAE5EC"/>
<path d="M86.7462 47.2016C86.5498 47.2016 86.3894 47.3603 86.3894 47.5589V56.9363C86.3894 57.1349 86.5498 57.2949 86.7462 57.2949C86.9457 57.2949 87.1055 57.1349 87.1055 56.9363V47.5589C87.1055 47.3603 86.9457 47.2016 86.7462 47.2016Z" fill="#EAE5EC"/>
<path d="M84.5743 47.2016C84.3779 47.2016 84.2175 47.3603 84.2175 47.5589V56.9363C84.2175 57.1349 84.3779 57.2949 84.5743 57.2949C84.7738 57.2949 84.9337 57.1349 84.9337 56.9363V47.5589C84.9337 47.3603 84.7738 47.2016 84.5743 47.2016Z" fill="#EAE5EC"/>
<path d="M82.4028 47.2016C82.2065 47.2016 82.0466 47.3603 82.0466 47.5589V56.9363C82.0466 57.1349 82.2065 57.2949 82.4028 57.2949C82.6022 57.2949 82.7622 57.1349 82.7622 56.9363V47.5589C82.7622 47.3603 82.6022 47.2016 82.4028 47.2016Z" fill="#EAE5EC"/>
<path d="M80.232 47.2016C80.0352 47.2016 79.8752 47.3603 79.8752 47.5589V56.9363C79.8752 57.1349 80.0352 57.2949 80.232 57.2949C80.431 57.2949 80.591 57.1349 80.591 56.9363V47.5589C80.591 47.3603 80.431 47.2016 80.232 47.2016Z" fill="#EAE5EC"/>
<path d="M78.0607 47.2016C77.8637 47.2016 77.7039 47.3603 77.7039 47.5589V56.9363C77.7039 57.1349 77.8637 57.2949 78.0607 57.2949C78.2596 57.2949 78.42 57.1349 78.42 56.9363V47.5589C78.42 47.3603 78.2596 47.2016 78.0607 47.2016Z" fill="#EAE5EC"/>
<path d="M91.8939 89.7139C90.9757 89.7139 90.2319 88.9699 90.2319 88.0525V82.9792H93.5559V88.0525C93.5559 88.9699 92.8122 89.7139 91.8939 89.7139ZM93.5559 65.9885H90.2319V61.5766C90.2319 60.6592 90.9757 59.9152 91.8939 59.9152C92.8122 59.9152 93.5559 60.6592 93.5559 61.5766V65.9885Z" fill="#C66650"/>
<path d="M90.2319 82.9785H93.5559V74.8139H90.2319V82.9785Z" fill="white"/>
<path d="M90.2319 74.8135H93.5559V65.9874H90.2319V74.8135Z" fill="#5D5B65"/>
<mask id="mask1_130_4829" style="mask-type:luminance" maskUnits="userSpaceOnUse" x="74" y="46" width="21" height="46">
<path d="M89.5034 58.3766H92.519V46.2393H76.632V58.3766H79.6476C76.7222 58.3766 74.3523 59.8446 74.3523 61.6552V87.9753C74.3523 89.7859 76.7222 91.2539 79.6476 91.2539H89.5034C92.4279 91.2539 94.8003 89.7859 94.8003 87.9753V61.6552C94.8003 59.8446 92.4279 58.3766 89.5034 58.3766Z" fill="white"/>
</mask>
<g mask="url(#mask1_130_4829)">
<path d="M84.5763 91.2539H79.6476C78.3628 91.2539 77.1847 90.9713 76.2675 90.4993C75.0976 89.8979 74.3523 88.9899 74.3523 87.9753V82.9792H84.5763V91.2539ZM84.5763 65.9886H74.3523V61.6552C74.3523 59.8446 76.7222 58.3766 79.6476 58.3766H84.5763V65.9886Z" fill="#993320"/>
<path d="M84.5763 58.377H76.632V46.2396H84.5763V47.2023C84.5757 47.2023 84.5752 47.2023 84.5743 47.2023C84.3779 47.2023 84.2175 47.3609 84.2175 47.5596V56.9369C84.2175 57.1356 84.3779 57.2956 84.5743 57.2956C84.5752 57.2956 84.5757 57.2956 84.5763 57.2956V58.377ZM82.4028 47.2023C82.2066 47.2023 82.0467 47.3609 82.0467 47.5596V56.9369C82.0467 57.1356 82.2066 57.2956 82.4028 57.2956C82.6023 57.2956 82.7623 57.1356 82.7623 56.9369V47.5596C82.7623 47.3609 82.6023 47.2023 82.4028 47.2023ZM80.232 47.2023C80.0352 47.2023 79.8752 47.3609 79.8752 47.5596V56.9369C79.8752 57.1356 80.0352 57.2956 80.232 57.2956C80.431 57.2956 80.591 57.1356 80.591 56.9369V47.5596C80.591 47.3609 80.431 47.2023 80.232 47.2023ZM78.0607 47.2023C77.8638 47.2023 77.7039 47.3609 77.7039 47.5596V56.9369C77.7039 57.1356 77.8638 57.2956 78.0607 57.2956C78.2596 57.2956 78.42 57.1356 78.42 56.9369V47.5596C78.42 47.3609 78.2596 47.2023 78.0607 47.2023Z" fill="#857D7A"/>
<path d="M74.3523 82.9795H84.5763V74.8149H74.3523V82.9795Z" fill="#D2CCCF"/>
<path d="M74.0642 74.8008H84.2882V65.9747H74.0642V74.8008Z" fill="#2F2835"/>
<path d="M84.5743 57.2949C84.3779 57.2949 84.2175 57.1349 84.2175 56.9363V47.5589C84.2175 47.3603 84.3779 47.2016 84.5743 47.2016C84.5752 47.2016 84.5757 47.2016 84.5763 47.2016V57.2949C84.5757 57.2949 84.5752 57.2949 84.5743 57.2949Z" fill="#C1B7C0"/>
<path d="M82.4028 57.2949C82.2066 57.2949 82.0467 57.1349 82.0467 56.9363V47.5589C82.0467 47.3603 82.2066 47.2016 82.4028 47.2016C82.6023 47.2016 82.7623 47.3603 82.7623 47.5589V56.9363C82.7623 57.1349 82.6023 57.2949 82.4028 57.2949Z" fill="#C1B7C0"/>
<path d="M80.232 57.2949C80.0352 57.2949 79.8752 57.1349 79.8752 56.9363V47.5589C79.8752 47.3603 80.0352 47.2016 80.232 47.2016C80.431 47.2016 80.591 47.3603 80.591 47.5589V56.9363C80.591 57.1349 80.431 57.2949 80.232 57.2949Z" fill="#C1B7C0"/>
<path d="M78.0607 57.2949C77.8638 57.2949 77.7039 57.1349 77.7039 56.9363V47.5589C77.7039 47.3603 77.8638 47.2016 78.0607 47.2016C78.2597 47.2016 78.42 47.3603 78.42 47.5589V56.9363C78.42 57.1349 78.2597 57.2949 78.0607 57.2949Z" fill="#C1B7C0"/>
</g>
</svg>
