<svg width="100" height="100" viewBox="0 0 100 100" fill="none" xmlns="http://www.w3.org/2000/svg">
<path d="M42.3678 83.0117C38.6024 83.0117 30.7651 82.5597 24.3358 79.2157C24.1758 79.1331 24.0171 79.0477 23.8611 78.961H23.8931C15.4544 74.317 13.0371 65.6784 11.8264 58.1771C11.4158 55.6344 11.2784 52.9971 11.2771 50.6117C11.2771 45.8317 11.8264 42.0571 11.8264 42.0571H44.5958H45.3531V82.9864C44.8651 82.9691 44.5958 82.9504 44.5958 82.9504C44.5958 82.9504 43.7611 83.0117 42.3678 83.0117Z" fill="#C8B7BD"/>
<path d="M13.1972 15.7183C12.9932 15.797 12.8918 16.0289 12.9718 16.2329L28.5345 56.2089C28.6145 56.4116 28.8452 56.5129 29.0492 56.4343C29.2532 56.3543 29.3545 56.1236 29.2758 55.9196L13.7118 15.9436C13.6332 15.7409 13.4025 15.6383 13.1972 15.7183Z" fill="#8BC43F"/>
<path d="M18.5772 21.1206C17.3585 23.01 16.5078 24.63 16.6758 24.7393C16.8452 24.8486 17.9718 23.4046 19.1892 21.5153C20.4078 19.626 21.2598 18.006 21.0892 17.8966C20.9212 17.7873 19.7958 19.2313 18.5772 21.1206Z" fill="#8BC43F"/>
<path d="M18.5078 23.0234C17.3891 23.7421 16.5678 24.4621 16.6771 24.6301C16.7865 24.7994 17.7825 24.3541 18.9011 23.6354C20.0211 22.9168 20.8411 22.1967 20.7318 22.0274C20.6238 21.8581 19.6291 22.3034 18.5078 23.0234Z" fill="#8BC43F"/>
<path d="M12.8864 23.336C10.7118 22.768 8.90643 22.4653 8.85443 22.66C8.80509 22.8547 10.5264 23.4733 12.7024 24.0413C14.8771 24.6093 16.6838 24.912 16.7331 24.7174C16.7838 24.5227 15.0611 23.9053 12.8864 23.336Z" fill="#728B4D"/>
<path d="M14.2239 24.6917C12.9119 24.9184 11.8785 25.2637 11.9132 25.4611C11.9465 25.6597 13.0372 25.6357 14.3479 25.4077C15.6585 25.1811 16.6945 24.8371 16.6599 24.6384C16.6252 24.4397 15.5332 24.465 14.2239 24.6917Z" fill="#728B4D"/>
<path d="M20.4758 26.2066C19.2585 28.0959 18.4078 29.7159 18.5758 29.8252C18.7452 29.9346 19.8692 28.4906 21.0892 26.6012C22.3065 24.7119 23.1585 23.0919 22.9905 22.9826C22.8212 22.8733 21.6958 24.3159 20.4758 26.2066Z" fill="#8BC43F"/>
<path d="M20.4092 28.1091C19.2879 28.8277 18.4692 29.5477 18.5772 29.7171C18.6865 29.8864 19.6812 29.4397 20.8012 28.7224C21.9199 28.0024 22.7399 27.2837 22.6319 27.1131C22.5225 26.9437 21.5265 27.3904 20.4092 28.1091Z" fill="#8BC43F"/>
<path d="M19.0678 24.7247C18.8665 24.7114 18.6371 25.7781 18.5558 27.1061C18.4745 28.4341 18.5705 29.5221 18.7705 29.5341C18.9705 29.5461 19.1985 28.4794 19.2811 27.1514C19.3625 25.8234 19.2665 24.7367 19.0678 24.7247Z" fill="#8BC43F"/>
<path d="M22.8252 34.377C22.6239 34.365 22.3959 35.4317 22.3132 36.7597C22.2319 38.0877 22.3279 39.1757 22.5292 39.1864C22.7292 39.201 22.9572 38.133 23.0385 36.805C23.1212 35.477 23.0252 34.3904 22.8252 34.377Z" fill="#8BC43F"/>
<path d="M16.7319 30.853C16.5919 30.997 17.2559 31.8637 18.2132 32.7864C19.1706 33.709 20.0612 34.3424 20.2012 34.1957C20.3399 34.0517 19.6772 33.185 18.7199 32.2624C17.7612 31.3397 16.8692 30.7077 16.7319 30.853Z" fill="#8BC43F"/>
<path d="M14.1839 22.5331C14.0879 22.6317 14.5399 23.2224 15.1945 23.8518C15.8479 24.4811 16.4532 24.9117 16.5492 24.8117C16.6439 24.7144 16.1919 24.1237 15.5385 23.4931C14.8865 22.8651 14.2799 22.4344 14.1839 22.5331Z" fill="#8BC43F"/>
<path d="M14.7852 28.4223C12.6105 27.853 10.8065 27.5503 10.7545 27.7463C10.7038 27.9396 12.4265 28.5583 14.6025 29.1276C16.7772 29.6943 18.5839 29.997 18.6345 29.8023C18.6839 29.609 16.9612 28.989 14.7852 28.4223Z" fill="#728B4D"/>
<path d="M16.1224 29.7773C14.8118 30.004 13.7771 30.3493 13.8118 30.548C13.8464 30.7453 14.9358 30.7213 16.2478 30.4946C17.5584 30.2666 18.5931 29.9227 18.5584 29.724C18.5251 29.5253 17.4344 29.5493 16.1224 29.7773Z" fill="#728B4D"/>
<path d="M22.2838 30.9504C21.0652 32.841 20.2145 34.4597 20.3825 34.5704C20.5532 34.6797 21.6772 33.2357 22.8958 31.3464C24.1145 29.457 24.9665 27.8357 24.7958 27.7277C24.6278 27.6183 23.5038 29.061 22.2838 30.9504Z" fill="#8BC43F"/>
<path d="M22.2158 32.8533C21.0958 33.572 20.2758 34.2933 20.3838 34.4626C20.4918 34.6306 21.4891 34.1853 22.6091 33.4666C23.7278 32.7466 24.5478 32.0279 24.4398 31.8586C24.3305 31.6893 23.3345 32.1346 22.2158 32.8533Z" fill="#8BC43F"/>
<path d="M16.5918 33.1665C14.4171 32.5985 12.6131 32.2959 12.5611 32.4906C12.5105 32.6852 14.2331 33.3025 16.4091 33.8719C18.5851 34.4399 20.3891 34.7439 20.4398 34.5479C20.4905 34.3532 18.7691 33.7345 16.5918 33.1665Z" fill="#728B4D"/>
<path d="M17.9291 34.5225C16.6198 34.7491 15.5851 35.0944 15.6185 35.2931C15.6545 35.4904 16.7438 35.4664 18.0545 35.2398C19.3651 35.0131 20.4011 34.6664 20.3651 34.4691C20.3318 34.2704 19.2425 34.2945 17.9291 34.5225Z" fill="#728B4D"/>
<path d="M24.2972 35.8355C23.0785 37.7248 22.2279 39.3448 22.3972 39.4541C22.5652 39.5635 23.6905 38.1195 24.9092 36.2301C26.1279 34.3408 26.9799 32.7195 26.8092 32.6101C26.6399 32.5021 25.5159 33.9448 24.2972 35.8355Z" fill="#8BC43F"/>
<path d="M24.2278 37.7384C23.1091 38.4571 22.2891 39.1771 22.3971 39.3464C22.5065 39.5144 23.5011 39.0691 24.6211 38.3504C25.7398 37.6317 26.5611 36.9117 26.4518 36.7424C26.3424 36.5731 25.3478 37.0184 24.2278 37.7384Z" fill="#8BC43F"/>
<path d="M18.6065 38.0499C16.4305 37.4819 14.6252 37.1792 14.5745 37.3739C14.5225 37.5686 16.2478 38.1859 18.4225 38.7552C20.5958 39.3232 22.4025 39.6259 22.4545 39.4312C22.5038 39.2365 20.7812 38.6192 18.6065 38.0499Z" fill="#728B4D"/>
<path d="M19.9425 39.4062C18.6318 39.6329 17.5972 39.9782 17.6318 40.1769C17.6665 40.3742 18.7558 40.3502 20.0678 40.1236C21.3785 39.8956 22.4132 39.5516 22.3798 39.3529C22.3438 39.1542 21.2545 39.1782 19.9425 39.4062Z" fill="#728B4D"/>
<path d="M25.9799 40.3433C24.7625 42.2326 23.9119 43.8526 24.0799 43.962C24.2492 44.0713 25.3745 42.6273 26.5932 40.738C27.8105 38.8486 28.6625 37.2286 28.4945 37.1193C28.3252 37.01 27.1999 38.454 25.9799 40.3433Z" fill="#8BC43F"/>
<path d="M25.9131 42.2465C24.7918 42.9652 23.9731 43.6852 24.0824 43.8532C24.1918 44.0239 25.1851 43.5785 26.3051 42.8599C27.4237 42.1399 28.2437 41.4199 28.1357 41.2519C28.0277 41.0826 27.0318 41.5279 25.9131 42.2465Z" fill="#8BC43F"/>
<path d="M20.2892 42.5599C18.1145 41.9919 16.3105 41.6879 16.2585 41.8825C16.2079 42.0772 17.9305 42.6959 20.1065 43.2639C22.2812 43.8332 24.0865 44.1345 24.1385 43.9399C24.1879 43.7465 22.4652 43.1279 20.2892 42.5599Z" fill="#728B4D"/>
<path d="M21.6266 43.9146C20.3159 44.1426 19.2812 44.4879 19.3159 44.6852C19.3506 44.8826 20.4399 44.8599 21.7519 44.6319C23.0626 44.4052 24.0986 44.0599 24.0626 43.8612C24.0292 43.6639 22.9386 43.6866 21.6266 43.9146Z" fill="#728B4D"/>
<path d="M27.9998 45.7358C26.7811 47.6252 25.9304 49.2452 26.0984 49.3545C26.2678 49.4639 27.3918 48.0198 28.6118 46.1305C29.8304 44.2398 30.6811 42.6212 30.5118 42.5105C30.3424 42.4025 29.2184 43.8465 27.9998 45.7358Z" fill="#8BC43F"/>
<path d="M27.9305 47.6383C26.8105 48.357 25.9905 49.077 26.0999 49.2463C26.2079 49.4156 27.2039 48.9703 28.3252 48.2516C29.4439 47.5316 30.2625 46.8116 30.1545 46.6423C30.0452 46.4743 29.0505 46.9183 27.9305 47.6383Z" fill="#8BC43F"/>
<path d="M22.3078 47.9511C20.1332 47.3818 18.3278 47.0791 18.2772 47.2738C18.2278 47.4684 19.9492 48.0871 22.1238 48.6551C24.2998 49.2231 26.1052 49.5271 26.1558 49.3311C26.2052 49.1364 24.4852 48.5191 22.3078 47.9511Z" fill="#728B4D"/>
<path d="M23.6465 49.3066C22.3345 49.5333 21.2998 49.8786 21.3345 50.0773C21.3678 50.2746 22.4598 50.2506 23.7705 50.024C25.0811 49.7973 26.1171 49.4506 26.0825 49.2533C26.0478 49.0546 24.9558 49.0786 23.6465 49.3066Z" fill="#728B4D"/>
<path d="M10.2252 8.00224C10.0372 8.07424 10.6119 9.99823 11.5079 12.2982C12.4025 14.5969 13.2799 16.4022 13.4679 16.3289C13.6545 16.2569 13.0812 14.3329 12.1852 12.0342C11.2905 9.73424 10.4119 7.9289 10.2252 8.00224Z" fill="#8BC43F"/>
<path d="M12.8105 8.36175C12.6105 8.38042 12.6318 10.2111 12.8598 12.4484C13.0865 14.6844 13.4318 16.4817 13.6318 16.4617C13.8318 16.4417 13.8105 14.6111 13.5839 12.3751C13.3559 10.1378 13.0105 8.34042 12.8105 8.36175Z" fill="#8BC43F"/>
<path d="M16.7238 16.3785C15.5038 18.2691 14.6545 19.8891 14.8225 19.9971C14.9918 20.1064 16.1158 18.6625 17.3345 16.7731C18.5545 14.8838 19.4051 13.2638 19.2358 13.1545C19.0678 13.0451 17.9425 14.4891 16.7238 16.3785Z" fill="#8BC43F"/>
<path d="M16.6545 18.2809C15.5345 19.0009 14.7145 19.7195 14.8239 19.8889C14.9332 20.0582 15.9292 19.6128 17.0479 18.8942C18.1679 18.1755 18.9865 17.4555 18.8785 17.2862C18.7692 17.1169 17.7745 17.5622 16.6545 18.2809Z" fill="#8BC43F"/>
<path d="M11.5772 15.2059C10.3692 14.6446 9.32385 14.3353 9.23985 14.5179C9.15319 14.7006 10.0612 15.3046 11.2679 15.8672C12.4732 16.4299 13.5185 16.7393 13.6052 16.5553C13.6892 16.3753 12.7799 15.7699 11.5772 15.2059Z" fill="#728B4D"/>
<path d="M11.0318 18.5945C8.85714 18.0265 7.05181 17.7238 7.00115 17.9185C6.94915 18.1132 8.67181 18.7318 10.8478 19.2998C13.0238 19.8678 14.8291 20.1705 14.8798 19.9745C14.9291 19.7812 13.2078 19.1638 11.0318 18.5945Z" fill="#728B4D"/>
<path d="M12.3705 19.9491C11.0585 20.1771 10.0238 20.5224 10.0572 20.7197C10.0918 20.9184 11.1825 20.8944 12.4945 20.6677C13.8052 20.4397 14.8412 20.0944 14.8052 19.897C14.7718 19.6984 13.6798 19.7224 12.3705 19.9491Z" fill="#728B4D"/>
<path d="M15.2799 14.9102C15.0785 14.8982 14.8492 15.9649 14.7665 17.2929C14.6852 18.6222 14.7825 19.7076 14.9825 19.7196C15.1812 19.7342 15.4105 18.6662 15.4932 17.3382C15.5745 16.0102 15.4785 14.9222 15.2799 14.9102Z" fill="#8BC43F"/>
<path d="M82.3905 12.364C78.8278 13.212 77.1318 18.6427 71.3625 22.884C65.5931 27.1253 57.4491 31.368 53.0371 33.0653C48.6251 34.7613 20.7998 56.82 20.2051 58.6853C19.6105 60.552 20.6278 67.6787 22.8345 69.884C25.0398 72.0907 30.4705 75.992 33.8638 75.3147C37.2571 74.636 64.4065 51.7293 66.2718 48.5053C68.1398 45.2813 74.2838 38.1547 77.9145 35.1013C81.5425 32.0467 89.0091 31.368 91.3838 28.8227C93.7598 26.2774 95.4558 22.2053 91.3838 16.9453C88.9918 13.856 85.9545 11.516 82.3905 12.364Z" fill="#9A8692"/>
<path d="M84.0598 20.6611C82.2118 20.6611 80.7145 19.1625 80.7145 17.3158C80.7145 15.4678 82.2118 13.9705 84.0598 13.9705C85.9078 13.9705 87.4051 15.4678 87.4051 17.3158C87.4051 19.1625 85.9078 20.6611 84.0598 20.6611Z" fill="#AE9EA8"/>
<path d="M36.5411 19.2765C36.5411 19.2765 29.1118 22.4098 29.1118 23.5965C29.1118 24.7832 36.5411 25.7432 36.5411 25.7432C36.5411 25.7432 43.9691 24.7832 43.9691 23.5965C43.9691 22.4098 36.5411 19.2765 36.5411 19.2765Z" fill="#5B794D"/>
<path d="M39.3585 16.9293C35.8265 19.8733 36.7932 24.1133 36.7932 24.1133C36.7932 24.1133 39.2399 21.2879 41.4772 19.7399C43.7159 18.1946 49.8385 16.1066 49.8385 16.1066C49.8385 16.1066 42.8905 13.9879 39.3585 16.9293Z" fill="#8BC43F"/>
<path d="M33.9865 16.9293C30.4531 13.9879 23.5065 16.1066 23.5065 16.1066C23.5065 16.1066 29.6278 18.1946 31.8665 19.7399C34.1025 21.2879 36.5505 24.1133 36.5505 24.1133C36.5505 24.1133 37.5171 19.8733 33.9865 16.9293Z" fill="#8BC43F"/>
<path d="M40.2131 30.5967C35.5571 34.478 36.8304 40.0674 36.8304 40.0674C36.8304 40.0674 40.0598 36.3407 43.0078 34.3021C45.9598 32.2621 54.0331 29.5101 54.0331 29.5101C54.0331 29.5101 44.8718 26.714 40.2131 30.5967Z" fill="#5B794D"/>
<path d="M33.1306 30.5967C28.4732 26.714 19.3119 29.5101 19.3119 29.5101C19.3119 29.5101 27.3839 32.2621 30.3359 34.3021C33.2852 36.3407 36.5106 40.0674 36.5106 40.0674C36.5106 40.0674 37.7879 34.478 33.1306 30.5967Z" fill="#5B794D"/>
<path d="M36.6718 23.0943C36.2851 23.0943 35.9718 23.4077 35.9718 23.7943V56.3397C35.9718 56.7277 36.2851 57.041 36.6718 57.041C37.0585 57.041 37.3731 56.7277 37.3731 56.3397V23.7943C37.3731 23.4077 37.0585 23.0943 36.6718 23.0943Z" fill="#728B4D"/>
<path d="M36.5411 25.7433C36.5411 25.7433 29.1118 27.1992 29.1118 28.9926C29.1118 30.7872 36.5411 35.5312 36.5411 35.5312C36.5411 35.5312 43.9691 30.7872 43.9691 28.9926C43.9691 27.1992 36.5411 25.7433 36.5411 25.7433Z" fill="#8BC43F"/>
<path d="M36.5411 38.4064C36.5411 38.4064 26.5771 40.0851 26.5771 42.1531C26.5771 44.2211 36.5411 49.6904 36.5411 49.6904C36.5411 49.6904 46.5038 44.2211 46.5038 42.1531C46.5038 40.0851 36.5411 38.4064 36.5411 38.4064Z" fill="#8BC43F"/>
<mask id="mask0_130_4830" style="mask-type:luminance" maskUnits="userSpaceOnUse" x="19" y="15" width="36" height="43">
<path d="M38.0865 38.6997C39.2959 37.4277 41.2026 35.5503 43.0079 34.3023C45.9599 32.2623 54.0332 29.5104 54.0332 29.5104C54.0332 29.5104 48.5759 27.8557 43.9426 28.8837C43.7106 27.509 39.2559 26.3517 37.3732 25.9237V25.625C39.3065 25.3357 43.9692 24.5383 43.9692 23.597C43.9692 22.9797 41.9599 21.837 40.0306 20.881C40.5052 20.4704 40.9946 20.073 41.4772 19.7397C43.7159 18.1943 49.8385 16.1063 49.8385 16.1063C49.8385 16.1063 42.8906 13.9877 39.3586 16.929C38.3572 17.7637 37.7266 18.701 37.3239 19.617C36.8466 19.4064 36.5412 19.277 36.5412 19.277C36.5412 19.277 36.3212 19.3704 35.9772 19.521C35.5732 18.6357 34.9519 17.7343 33.9865 16.929C30.4532 13.9877 23.5066 16.1063 23.5066 16.1063C23.5066 16.1063 29.6279 18.1943 31.8666 19.7397C32.3159 20.0503 32.7706 20.4197 33.2159 20.7997C31.2372 21.7717 29.1119 22.961 29.1119 23.597C29.1119 24.585 34.2465 25.413 35.9719 25.665V25.865C34.3132 26.2303 29.5185 27.4064 29.1532 28.8237C24.5772 27.909 19.3119 29.5104 19.3119 29.5104C19.3119 29.5104 27.3839 32.2623 30.3359 34.3023C32.1212 35.537 34.0026 37.3864 35.2146 38.6557C32.5092 39.1944 26.5772 40.5557 26.5772 42.153C26.5772 43.925 33.8799 48.1863 35.9719 49.3717V56.3397C35.9719 56.7277 36.2852 57.041 36.6719 57.041C37.0585 57.041 37.3732 56.7277 37.3732 56.3397V49.221C39.7572 47.8597 46.5039 43.8557 46.5039 42.153C46.5039 40.5997 40.8839 39.2663 38.0865 38.6997Z" fill="white"/>
</mask>
<g mask="url(#mask0_130_4830)">
<path d="M26.6812 41.7832C27.2425 40.7792 29.9732 39.8925 32.4172 39.2792C29.9719 39.8925 27.2439 40.7805 26.6812 41.7832Z" fill="#5A233B"/>
<path d="M35.2146 38.6543C34.0172 37.401 32.1652 35.581 30.3986 34.3463C32.1626 35.5783 34.0172 37.3996 35.2146 38.6543ZM30.3759 34.3303C30.3705 34.3263 30.3639 34.3236 30.3585 34.3196C30.3652 34.3236 30.3705 34.3263 30.3759 34.3303Z" fill="#5A233B"/>
<path d="M35.2146 38.6543C34.0172 37.3996 32.1626 35.5783 30.3986 34.3463C30.3986 34.3463 30.3986 34.3463 30.3972 34.3463C30.3919 34.3423 30.3852 34.3369 30.3786 34.3329C30.3772 34.3316 30.3772 34.3316 30.3759 34.3303C30.3706 34.3263 30.3652 34.3236 30.3586 34.3196C30.3572 34.3183 30.3559 34.317 30.3545 34.317C30.3479 34.3116 30.3425 34.3076 30.3359 34.3023C28.7439 33.2023 25.6652 31.8956 23.1652 30.9249C22.9279 30.8329 22.6972 30.7436 22.4732 30.6583C20.8759 30.0516 19.6292 29.6183 19.3639 29.5276C19.3292 29.5156 19.3119 29.5103 19.3119 29.5103C19.3119 29.5103 22.4959 28.541 26.0639 28.541C27.0786 28.541 28.1226 28.6196 29.1346 28.8196C29.1186 28.877 29.1119 28.9356 29.1119 28.9929C29.1119 30.4823 34.2345 34.0076 35.9719 35.1596V38.509C35.7652 38.5476 35.5092 38.5956 35.2146 38.6543Z" fill="#56613E"/>
<path d="M35.9719 38.5088V35.1594C36.3265 35.3954 36.5412 35.5314 36.5412 35.5314C36.5412 35.5314 36.5879 35.5021 36.6732 35.4461V38.4301C36.5865 38.4141 36.5412 38.4061 36.5412 38.4061C36.5412 38.4061 36.3305 38.4421 35.9719 38.5088Z" fill="#686F3E"/>
<path d="M35.9719 25.665C34.2745 25.417 29.2799 24.6117 29.1159 23.6464C29.2812 24.6091 34.2625 25.4157 35.9719 25.665ZM29.1119 23.5784V23.5771C29.1119 23.5784 29.1119 23.5784 29.1119 23.5784ZM33.2145 20.7997C32.7852 20.4317 32.3479 20.0757 31.9145 19.773C32.3492 20.077 32.7905 20.4277 33.2212 20.7957C33.2185 20.797 33.2172 20.7984 33.2145 20.7997ZM34.0799 17.009C34.0772 17.0064 34.0759 17.005 34.0732 17.0024C34.0745 17.005 34.0772 17.0064 34.0799 17.009ZM34.0385 16.9744C34.0359 16.9717 34.0319 16.9677 34.0292 16.965C34.0319 16.969 34.0359 16.9717 34.0385 16.9744Z" fill="#5A233B"/>
<path d="M35.9719 25.665C34.2625 25.4157 29.2812 24.6091 29.1159 23.6464V23.6451C29.1145 23.6437 29.1145 23.6424 29.1145 23.6397C29.1145 23.6397 29.1145 23.6397 29.1145 23.6384C29.1145 23.6384 29.1145 23.637 29.1145 23.6357C29.1145 23.6357 29.1132 23.6344 29.1132 23.633C29.1132 23.6317 29.1132 23.6317 29.1132 23.6304C29.1132 23.629 29.1132 23.6277 29.1132 23.6277C29.1132 23.6264 29.1132 23.6264 29.1132 23.625C29.1132 23.6237 29.1119 23.6224 29.1119 23.6211C29.1119 23.6197 29.1119 23.6197 29.1119 23.6197C29.1119 23.6184 29.1119 23.6157 29.1119 23.6144C29.1119 23.6131 29.1119 23.6104 29.1119 23.609C29.1119 23.609 29.1119 23.609 29.1119 23.6077C29.1119 23.6064 29.1119 23.605 29.1119 23.6037C29.1119 23.6024 29.1119 23.6024 29.1119 23.6024C29.1119 23.601 29.1119 23.5984 29.1119 23.597C29.1119 23.5957 29.1119 23.5944 29.1119 23.593C29.1119 23.593 29.1119 23.593 29.1119 23.5917V23.5904C29.1119 23.5891 29.1119 23.5891 29.1119 23.5877V23.5864C29.1119 23.5851 29.1119 23.5851 29.1119 23.5851C29.1119 23.5837 29.1119 23.5837 29.1119 23.5824V23.5811C29.1119 23.5797 29.1119 23.5797 29.1119 23.5784C29.1119 23.5784 29.1119 23.5784 29.1119 23.5771V23.5757C29.1119 23.5744 29.1119 23.5744 29.1119 23.573V23.5717C29.1119 23.5717 29.1132 23.5704 29.1132 23.569C29.1132 23.569 29.1132 23.569 29.1132 23.5677V23.5664C29.1132 23.565 29.1132 23.565 29.1132 23.565C29.1132 23.5637 29.1132 23.5624 29.1132 23.5624V23.561C29.1132 23.5597 29.1132 23.5597 29.1145 23.5584C29.1359 23.3877 29.2972 23.1811 29.5599 22.9517C30.2879 22.3144 31.7905 21.4997 33.2159 20.7997C33.2159 20.7997 33.2159 20.7997 33.2145 20.7997C33.2172 20.7984 33.2185 20.797 33.2212 20.7957C34.3639 21.7744 35.4199 22.873 36.0239 23.529C35.9905 23.6104 35.9719 23.701 35.9719 23.7944V25.665ZM36.6652 23.0944C36.6999 22.221 36.6105 20.8891 35.9839 19.5184C36.3239 19.3691 36.5412 19.2771 36.5412 19.2771C36.5425 19.2784 36.5892 19.2984 36.6732 19.333V22.6584C36.6719 22.7317 36.6719 22.8037 36.6732 22.8717V23.0944C36.6719 23.0944 36.6719 23.0944 36.6719 23.0944C36.6692 23.0944 36.6665 23.0944 36.6652 23.0944Z" fill="#56613E"/>
<path d="M36.6732 22.8711C36.6719 22.8031 36.6719 22.7311 36.6732 22.6577V22.8711Z" fill="#7C9D32"/>
<path d="M36.0239 23.5283C35.4199 22.8723 34.3639 21.7737 33.2212 20.795C32.7905 20.427 32.3492 20.0763 31.9145 19.7723C31.9025 19.7643 31.8919 19.7563 31.8799 19.7483C31.8759 19.7457 31.8705 19.7417 31.8665 19.739C29.6279 18.1937 23.5065 16.1057 23.5065 16.1057C23.5065 16.1057 25.9252 15.367 28.6359 15.367C30.5172 15.367 32.5385 15.723 33.9865 16.9283C33.9932 16.935 33.9999 16.9403 34.0079 16.947C34.0105 16.9497 34.0145 16.9523 34.0185 16.9563C34.0212 16.959 34.0252 16.9617 34.0292 16.9643C34.0319 16.967 34.0359 16.971 34.0385 16.9737C34.0425 16.9763 34.0465 16.9803 34.0505 16.983C34.0532 16.9857 34.0572 16.9883 34.0599 16.991C34.0639 16.995 34.0692 16.999 34.0732 17.0017C34.0759 17.0043 34.0772 17.0057 34.0799 17.0083C34.0852 17.0123 34.0905 17.0177 34.0959 17.023C34.0972 17.023 34.0985 17.0243 34.0985 17.0243C34.9999 17.8043 35.5892 18.6697 35.9772 19.5203C35.9799 19.519 35.9812 19.5177 35.9839 19.5177C36.6105 20.8883 36.6999 22.2203 36.6652 23.0937C36.3759 23.0963 36.1279 23.275 36.0239 23.5283Z" fill="#7C9D32"/>
<path d="M35.9719 25.8633V23.7939C35.9719 23.7006 35.9905 23.6099 36.0239 23.5286C36.1279 23.2753 36.3759 23.0966 36.6652 23.0939C36.6665 23.0939 36.6692 23.0939 36.6719 23.0939C36.6719 23.0939 36.6719 23.0939 36.6732 23.0939V25.77C36.5879 25.7526 36.5412 25.7433 36.5412 25.7433C36.5412 25.7433 36.3265 25.7859 35.9719 25.8633Z" fill="#686F3E"/>
<path d="M36.5412 35.5312C36.5412 35.5312 36.3265 35.3952 35.9719 35.1592C34.2345 34.0072 29.1119 30.4819 29.1119 28.9926C29.1119 28.9352 29.1185 28.8766 29.1345 28.8193C29.1399 28.8206 29.1465 28.8219 29.1532 28.8233C29.5185 27.4059 34.3132 26.2299 35.9719 25.8646V25.8632C36.3265 25.7859 36.5412 25.7433 36.5412 25.7433C36.5412 25.7433 36.5879 25.7526 36.6732 25.7699V35.4459C36.5879 35.5019 36.5412 35.5312 36.5412 35.5312Z" fill="#7C9D32"/>
<path d="M36.6732 42.0566H26.5839C26.5985 41.9646 26.6305 41.874 26.6812 41.7833C27.2439 40.7806 29.9719 39.8926 32.4172 39.2793C33.4679 39.0166 34.4652 38.8046 35.2145 38.6553C35.2145 38.6553 35.2145 38.6553 35.2145 38.654C35.5092 38.5953 35.7652 38.5473 35.9719 38.5086C36.3305 38.442 36.5412 38.406 36.5412 38.406C36.5412 38.406 36.5865 38.4139 36.6732 38.4299V42.0566Z" fill="#7C9D32"/>
</g>
<path d="M64.8452 78.9607H23.7519C21.7932 78.9607 20.2052 80.7847 20.2052 83.0341V87.0781C20.2052 89.3261 21.7932 91.8848 23.7519 91.8848H64.8452C66.8052 91.8848 68.3919 89.3261 68.3919 87.0781V83.0341C68.3919 80.7847 66.8052 78.9607 64.8452 78.9607Z" fill="#EAE5EC"/>
<path d="M44.5958 42.0567H11.8265C11.8265 42.0567 10.5918 50.5407 11.8265 58.1767C13.0585 65.8127 15.5264 74.6354 24.3358 79.2154C33.1451 83.7967 44.5958 82.9501 44.5958 82.9501C44.5958 82.9501 56.0478 83.7967 64.8571 79.2154C73.6665 74.6354 76.1331 65.8127 77.3651 58.1767C78.5985 50.5407 77.3651 42.0567 77.3651 42.0567H44.5958Z" fill="#EAE5EC"/>
<mask id="mask1_130_4830" style="mask-type:luminance" maskUnits="userSpaceOnUse" x="11" y="42" width="67" height="50">
<path d="M77.3651 42.0568H11.8265C11.8265 42.0568 10.5918 50.5408 11.8265 58.1768C13.0371 65.6781 15.4545 74.3167 23.8931 78.9607H23.7518C21.7931 78.9607 20.2051 80.7847 20.2051 83.0341V87.0781C20.2051 89.3261 21.7931 91.8848 23.7518 91.8848H64.8451C66.8051 91.8848 68.3918 89.3261 68.3918 87.0781V83.0341C68.3918 80.9341 67.0025 79.2248 65.2238 79.0048C73.7251 74.3714 76.1505 65.7021 77.3651 58.1768C78.5985 50.5408 77.3651 42.0568 77.3651 42.0568Z" fill="white"/>
</mask>
<g mask="url(#mask1_130_4830)">
<path d="M45.3531 91.8848H23.7517C21.7931 91.8848 20.2051 89.3261 20.2051 87.0781V83.0341C20.2051 80.7847 21.7931 78.9607 23.7517 78.9607H23.8611C24.0171 79.0474 24.1757 79.1328 24.3357 79.2154C30.7651 82.5594 38.6024 83.0114 42.3678 83.0114C43.7611 83.0114 44.5958 82.9501 44.5958 82.9501C44.5958 82.9501 44.8651 82.9688 45.3531 82.9861V91.8848Z" fill="#C8B7BD"/>
<path d="M69.0465 84.696C69.0465 84.696 71.9785 90.6787 75.5958 90.6787C79.2118 90.6787 88.7745 84.696 88.7745 84.696C88.7745 84.696 79.2118 78.712 75.5958 78.712C71.9785 78.712 69.0465 84.696 69.0465 84.696Z" fill="#728B4D"/>
<path d="M59.3212 78.712C55.7026 78.712 46.1412 84.696 46.1412 84.696C46.1412 84.696 55.7026 90.6787 59.3212 90.6787C62.9372 90.6787 65.8692 84.696 65.8692 84.696C65.8692 84.696 62.9372 78.712 59.3212 78.712Z" fill="#728B4D"/>
<path d="M67.4571 84.6956C67.4571 84.6956 62.5585 87.097 62.5585 90.057C62.5585 93.0197 67.4571 100.848 67.4571 100.848C67.4571 100.848 72.3571 93.0197 72.3571 90.057C72.3571 87.097 67.4571 84.6956 67.4571 84.6956Z" fill="#8BC43F"/>
<path d="M62.5585 79.3326C62.5585 82.294 67.4571 84.6953 67.4571 84.6953C67.4571 84.6953 72.3571 82.294 72.3571 79.3326C72.3571 76.3713 67.4571 68.542 67.4571 68.542C67.4571 68.542 62.5585 76.3713 62.5585 79.3326Z" fill="#8BC43F"/>
<mask id="mask2_130_4830" style="mask-type:luminance" maskUnits="userSpaceOnUse" x="46" y="68" width="43" height="33">
<path d="M64.9039 86.353C65.5132 85.4157 65.8692 84.6956 65.8692 84.6956C65.8692 84.6956 65.5132 83.9743 64.9039 83.0383C66.1626 84.057 67.4572 84.6956 67.4572 84.6956C67.4572 84.6956 68.7532 84.057 70.0132 83.0356C69.4039 83.973 69.0466 84.6956 69.0466 84.6956C69.0466 84.6956 69.4039 85.417 70.0132 86.3543C68.7532 85.3343 67.4572 84.6956 67.4572 84.6956C67.4572 84.6956 66.1626 85.333 64.9039 86.353ZM88.7746 84.6956C88.7746 84.6956 79.2119 78.7117 75.5959 78.7117C74.3292 78.7117 73.1506 79.4516 72.1492 80.405C72.2799 80.0583 72.3572 79.6996 72.3572 79.333C72.3572 76.3716 67.4572 68.5423 67.4572 68.5423C67.4572 68.5423 62.5586 76.3716 62.5586 79.333C62.5586 79.6996 62.6359 80.0583 62.7666 80.4036C61.7652 79.4503 60.5866 78.7117 59.3212 78.7117C55.7026 78.7117 46.1412 84.6956 46.1412 84.6956C46.1412 84.6956 55.7026 90.6783 59.3212 90.6783C60.5866 90.6783 61.7652 89.9397 62.7666 88.9863C62.6359 89.333 62.5586 89.6903 62.5586 90.057C62.5586 93.0197 67.4572 100.848 67.4572 100.848C67.4572 100.848 72.3572 93.0197 72.3572 90.057C72.3572 89.6903 72.2799 89.333 72.1492 88.9863C73.1506 89.9397 74.3292 90.6783 75.5959 90.6783C79.2119 90.6783 88.7746 84.6956 88.7746 84.6956Z" fill="white"/>
</mask>
<g mask="url(#mask2_130_4830)">
<path d="M59.3212 90.6787C55.7026 90.6787 46.1412 84.696 46.1412 84.696C46.1412 84.696 55.7026 78.712 59.3212 78.712C59.3266 78.712 59.3332 78.712 59.3399 78.712C59.3412 78.712 59.3439 78.712 59.3452 78.712C59.3506 78.7134 59.3546 78.7134 59.3599 78.7134C59.3612 78.7134 59.3626 78.7134 59.3639 78.7134C59.3706 78.7134 59.3759 78.7134 59.3826 78.7134C59.3839 78.7134 59.3866 78.7134 59.3892 78.7134C59.3932 78.7134 59.3972 78.7134 59.3999 78.7134C59.4026 78.7134 59.4066 78.7134 59.4092 78.7134C59.4106 78.7134 59.4132 78.7134 59.4146 78.7134C60.6439 78.7494 61.7879 79.4734 62.7652 80.4027C63.1506 81.416 64.0212 82.3267 64.9092 83.0454C65.5119 83.9734 65.8652 84.6867 65.8692 84.696C65.8666 84.7027 65.5119 85.4174 64.9092 86.3454C64.0212 87.064 63.1506 87.9747 62.7652 88.9894C61.7946 89.9121 60.6599 90.632 59.4399 90.676H59.4386C59.4306 90.6774 59.4226 90.6774 59.4146 90.6774C59.4132 90.6774 59.4106 90.6774 59.4092 90.6774C59.4066 90.6774 59.4026 90.6774 59.3999 90.6774C59.3959 90.6774 59.3932 90.6774 59.3892 90.6774C59.3879 90.6774 59.3839 90.6787 59.3826 90.6787C59.3759 90.6787 59.3706 90.6787 59.3652 90.6787C59.3626 90.6787 59.3612 90.6787 59.3599 90.6787C59.3546 90.6787 59.3506 90.6787 59.3452 90.6787C59.3439 90.6787 59.3412 90.6787 59.3399 90.6787C59.3332 90.6787 59.3266 90.6787 59.3212 90.6787Z" fill="#686F3E"/>
<path d="M67.4572 100.848C67.4572 100.848 66.4012 99.1597 65.2692 97.0543C64.3705 95.3823 63.4239 93.4463 62.9225 91.885C62.6959 91.1797 62.5585 90.5517 62.5585 90.057C62.5585 89.6903 62.6359 89.333 62.7665 88.9863C62.7665 88.9877 62.7652 88.9877 62.7652 88.989C63.1505 87.9743 64.0212 87.0637 64.9092 86.345C64.9079 86.3477 64.9065 86.3503 64.9039 86.353C66.1625 85.333 67.4572 84.6956 67.4572 84.6956C67.4572 84.6956 67.4572 84.6956 67.4585 84.6956V100.846C67.4572 100.848 67.4572 100.848 67.4572 100.848Z" fill="#7C9D32"/>
<path d="M67.4572 84.6953C67.4479 84.69 66.1572 84.0527 64.9039 83.038C64.9065 83.0393 64.9079 83.042 64.9092 83.0447C64.0212 82.326 63.1505 81.4153 62.7652 80.402C62.7665 80.402 62.7665 80.4033 62.7665 80.4033C62.6359 80.058 62.5585 79.6993 62.5585 79.3326C62.5585 76.3713 67.4572 68.542 67.4572 68.542C67.4572 68.542 67.4572 68.542 67.4585 68.5433V84.694C67.4572 84.6953 67.4572 84.6953 67.4572 84.6953Z" fill="#7C9D32"/>
</g>
</g>
</svg>
