<svg width="100" height="100" viewBox="0 0 100 100" fill="none" xmlns="http://www.w3.org/2000/svg">
<path d="M45.0165 88.3232C44.719 88.3232 44.4169 88.3176 44.1115 88.3052C44.1092 88.3052 44.107 88.3063 44.1059 88.3063C42.3917 88.2331 40.5919 87.9344 39.173 87.1771C42.5112 85.8664 46.0533 84.5783 49.3261 84.0384V87.9649C48.5282 88.0967 46.8771 88.3232 45.0165 88.3232ZM49.3261 79.8968C44.5905 79.5835 41.1678 78.559 38.2083 78.1398C38.3447 78.1308 38.4236 78.1296 38.4236 78.1296C38.4236 78.1296 37.9424 78.0395 37.2155 77.9538C37.2222 77.929 37.2301 77.9043 37.238 77.8783H37.2403C38.6941 73.0954 41.5848 70.9699 41.9668 67.3004C41.9713 67.2565 41.9758 67.2125 41.9792 67.1686C41.9803 67.1674 41.9804 67.1663 41.9804 67.1652C41.9804 67.1584 41.9815 67.1505 41.9815 67.1426C41.9826 67.1415 41.9826 67.1393 41.9826 67.1381C41.9826 67.1314 41.9837 67.1235 41.9837 67.1167C41.9837 67.1156 41.9837 67.1133 41.9849 67.1122C41.9849 67.1043 41.986 67.0976 41.986 67.0897C41.986 67.0886 41.986 67.0874 41.986 67.0863C41.9882 67.0604 41.9905 67.0333 41.9916 67.0074C41.9916 67.0063 41.9928 67.0052 41.9928 67.004C41.9928 66.9961 41.9928 66.9894 41.9939 66.9815C41.9939 66.9792 41.9939 66.977 41.9939 66.9747C41.995 66.9691 41.995 66.9623 41.995 66.9556C41.995 66.9533 41.9961 66.9511 41.9961 66.9477C41.9961 66.942 41.9961 66.9364 41.9973 66.9297C41.9973 66.9274 41.9973 66.924 41.9973 66.9218C41.9973 66.915 41.9984 66.9094 41.9984 66.9026C41.9984 66.9004 41.9984 66.8981 41.9984 66.8958C41.9995 66.8789 42.0007 66.8609 42.0007 66.8429C42.0007 66.8429 42.0007 66.8418 42.0018 66.8418C42.0018 66.8339 42.0018 66.826 42.0018 66.817C42.0029 66.8147 42.0029 66.8124 42.0029 66.8102C42.0029 66.8034 42.0029 66.7978 42.0029 66.791C42.0029 66.7888 42.004 66.7854 42.004 66.7831C42.004 66.7764 42.004 66.7708 42.004 66.7651C42.004 66.7617 42.004 66.7595 42.004 66.7561C42.0052 66.7505 42.0052 66.7448 42.0052 66.7381C42.0052 66.7358 42.0052 66.7324 42.0052 66.7302C42.0052 66.7245 42.0063 66.7178 42.0063 66.7121C42.0063 66.7088 42.0063 66.7065 42.0063 66.7031C42.0063 66.6952 42.0063 66.6862 42.0074 66.6783V66.6772C42.0074 66.6682 42.0074 66.6603 42.0074 66.6513C42.0074 66.6479 42.0074 66.6457 42.0074 66.6434C42.0074 66.6366 42.0074 66.631 42.0074 66.6243C42.0085 66.6209 42.0085 66.6186 42.0085 66.6152C42.0085 66.6096 42.0085 66.6039 42.0085 66.5983C42.0085 66.5949 42.0085 66.5916 42.0085 66.5882C42.0085 66.5825 42.0085 66.5769 42.0085 66.5713C42.0085 66.5679 42.0085 66.5645 42.0085 66.5611C42.0085 66.5555 42.0085 66.5498 42.0085 66.5442C42.0085 66.5408 42.0085 66.5386 42.0085 66.5341C42.0085 66.5285 42.0097 66.5228 42.0097 66.516C42.0097 66.5138 42.0097 66.5104 42.0097 66.5082C42.0097 66.4992 42.0097 66.4901 42.0097 66.4811C42.0097 66.4777 42.0097 66.4732 42.0097 66.4687C42.0097 66.4676 42.0097 66.4665 42.0097 66.4653C42.0097 66.4619 42.0097 66.4586 42.0097 66.4563C42.0097 66.454 42.0097 66.4529 42.0097 66.4518C42.0097 66.4428 42.0097 66.4349 42.0085 66.427C42.0085 66.4248 42.0085 66.4225 42.0085 66.4214C42.0085 66.418 42.0085 66.4157 42.0085 66.4135C42.0085 66.4112 42.0085 66.4101 42.0085 66.4079C42.0085 66.4 42.0085 66.3909 42.0085 66.3819C42.0085 66.3819 42.0085 66.3797 42.0085 66.3785C42.0085 66.3763 42.0085 66.3729 42.0085 66.3696C42.0085 66.3684 42.0085 66.3662 42.0085 66.3639C42.0085 66.3605 42.0085 66.356 42.0085 66.3515C42.0085 66.3515 42.0085 66.3504 42.0085 66.3492C42.0085 66.3459 42.0085 66.3425 42.0085 66.3391C42.0085 66.338 42.0085 66.3357 42.0085 66.3335C42.0085 66.3312 42.0085 66.3278 42.0085 66.3256C42.0085 66.3233 42.0085 66.3222 42.0085 66.3199C42.0085 66.3109 42.0074 66.3019 42.0074 66.2929C42.0074 66.2929 42.0074 66.2918 42.0074 66.2906C42.0074 66.2873 42.0074 66.2828 42.0074 66.2783C42.0074 66.2771 42.0074 66.2771 42.0074 66.276C42.0074 66.2681 42.0074 66.2591 42.0074 66.2512C42.0074 66.2478 42.0074 66.2456 42.0074 66.2422C42.0074 66.2399 42.0074 66.2388 42.0074 66.2365C42.0074 66.2343 42.0074 66.2321 42.0063 66.2287C42.0063 66.2253 42.0063 66.2208 42.0063 66.2174C42.0063 66.2151 42.0063 66.2129 42.0063 66.2106C42.0063 66.2084 42.0063 66.2061 42.0063 66.2039C42.0063 66.2016 42.0063 66.1994 42.0063 66.196C42.0063 66.1949 42.0063 66.1937 42.0063 66.1915C42.0063 66.187 42.0063 66.1813 42.0063 66.1757C42.0052 66.1746 42.0052 66.1723 42.0052 66.1701C42.0052 66.1689 42.0052 66.1667 42.0052 66.1656C42.0052 66.1633 42.0052 66.1599 42.0052 66.1577C42.0052 66.1554 42.0052 66.152 42.0052 66.1498C42.0052 66.1475 42.0052 66.1453 42.0052 66.1442C42.0052 66.1408 42.0052 66.1385 42.0052 66.1363C42.0052 66.1317 42.0052 66.1284 42.004 66.1238C42.004 66.1205 42.004 66.1171 42.004 66.1137C42.004 66.1126 42.004 66.1126 42.004 66.1126C42.004 66.1081 42.004 66.1058 42.004 66.1013C42.004 66.1002 42.004 66.0991 42.004 66.0979C42.004 66.0923 42.004 66.0855 42.0029 66.0788C42.0029 66.0788 42.0029 66.0777 42.0029 66.0765C42.0029 66.0686 42.0029 66.0607 42.0029 66.0529C41.8891 62.1005 40.3248 51.9081 38.4845 44.4789C37.8342 41.8531 37.149 39.5732 36.4807 38.0348C36.3409 37.7114 36.4074 37.4398 36.6249 37.211C36.6317 37.2121 36.6373 37.2132 36.6441 37.2155C37.7125 36.0941 42.3658 35.9984 43.9289 35.9984C44.2512 35.9984 44.4428 36.0017 44.4428 36.0017C44.4609 36.0457 44.48 36.0885 44.4992 36.1313C45.9868 39.4616 48.5642 40.2595 49.3261 40.4263V79.8968Z" fill="#5A2F4E"/>
<path d="M37.2076 77.8839C37.2076 77.8839 16.08 81.7832 12.0397 84.0643C10.5025 84.9377 10.8035 86.6169 11.0965 87.8543C11.376 89.0917 12.9053 90.0869 14.7242 90.0508C21.4974 89.9043 35.3019 89.8558 42.5304 88.6612C49.7476 87.4655 49.9223 82.8302 48.8348 79.5C47.754 76.1708 37.2076 77.8839 37.2076 77.8839Z" fill="#FFA47C"/>
<path d="M87.0294 84.2746C82.9757 82.0149 61.8289 78.2215 61.8289 78.2215C61.8289 78.2215 51.278 76.5626 50.2164 79.8962C49.1412 83.2298 49.3362 87.8651 56.5568 89.0259C63.7932 90.1822 77.592 90.1608 84.3697 90.2769C86.1876 90.3017 87.7158 89.2998 87.9885 88.0601C88.2759 86.8193 88.5689 85.1412 87.0294 84.2746Z" fill="#FFA47C"/>
<path d="M68.0161 36.0787C63.6017 37.12 56.2932 37.7072 56.7158 41.2831C57.2421 45.7144 59.8364 45.098 67.2689 42.6411C74.6991 40.1866 82.5678 37.8695 81.3157 34.1448C80.0613 30.4246 72.4283 35.0362 68.0161 36.0787Z" fill="#FFA47C"/>
<path d="M31.1309 36.0787C26.7187 35.0362 19.0856 30.4246 17.8324 34.1448C16.5792 37.8695 24.4478 40.1866 31.8769 42.6411C39.3105 45.098 41.9048 45.7144 42.4311 41.2831C42.8549 37.7072 35.5453 37.12 31.1309 36.0787Z" fill="#FFA47C"/>
<path d="M78.9434 27.1124C77.2721 31.5009 76.5226 32.9784 76.0065 35.9886C76.0065 35.9886 78.1286 39.9048 80.7748 36.9025C82.3627 35.0993 83.2789 31.6395 84.034 27.2634C84.7327 23.2175 85.4134 16.9087 85.4134 16.9087L83.2496 16.1254C83.2496 16.1254 80.6181 22.725 78.9434 27.1124Z" fill="#FFA47C"/>
<path d="M83.724 12.6097C82.7322 15.0181 82.4032 14.3397 82.4257 15.9062C82.4426 17.2957 83.6564 17.4073 84.9885 17.2349C85.8292 17.1244 86.4873 15.8836 86.7533 13.8258C87.0215 11.76 84.4047 10.961 83.724 12.6097Z" fill="#FFA47C"/>
<path d="M52.7195 29.6342C52.751 28.2097 46.6957 28.0485 46.6732 29.4742C46.5842 34.7598 44.4958 36.0028 44.4958 36.0028C44.4958 36.0028 44.4992 41.7291 49.5966 41.9105C54.4471 42.0818 54.6861 36.0152 54.6861 36.0152C54.6861 36.0152 52.5865 35.2973 52.7195 29.6342Z" fill="#FFA47C"/>
<path d="M49.5966 13.2484C45.6769 13.2484 41.977 17.4081 42.4977 22.4773C43.0465 27.8316 46.9324 32.0635 49.5966 32.0635C52.1999 32.0635 56.1072 27.746 56.6977 22.4773C57.2624 17.4138 53.5208 13.2484 49.5966 13.2484Z" fill="#FFCAAA"/>
<path d="M54.6332 36.0143C53.8758 40.0635 49.5437 40.4659 49.5437 40.4659C49.5437 40.4659 46.1887 40.0635 44.443 36.0019C44.443 36.0019 35.5105 35.8047 36.4808 38.035C39.1112 44.0925 42.0098 61.669 42.0098 66.4813C42.0098 71.2958 37.7825 73.3119 36.6724 80.359C36.589 80.8819 36.5304 81.5074 36.4921 82.2162C36.0435 90.698 49.8333 87.8748 49.8333 87.8748C49.8333 87.8748 63.7516 91.2727 62.5097 81.5254C62.4545 81.0972 62.4488 80.705 62.4184 80.359C61.7647 73.0178 56.9728 71.2958 56.9728 66.4813C56.9728 61.669 59.948 45.3322 62.5875 38.035C63.2321 36.2555 54.6332 36.0143 54.6332 36.0143Z" fill="#6B3B55"/>
<path d="M86.6418 83.6551C86.6418 83.6551 83.3645 82.1337 71.9876 81.1194C59.2853 79.9913 55.7274 80.184 50.2243 79.9462C44.701 79.6994 40.9131 78.445 37.6426 78.0664C35.5611 77.832 33.4807 78.4372 33.4446 80.3249C33.4198 81.7291 34.62 83.2021 36.182 83.3734C36.6993 83.4286 37.5728 83.3937 38.7482 83.3587C41.125 83.2877 44.7404 83.2167 49.1638 83.8929C55.7725 84.9061 63.5431 89.0861 68.5356 90.3415C73.5237 91.5947 79.9182 91.2161 83.9765 90.5861C88.028 89.9516 90.6167 86.5853 86.6418 83.6551Z" fill="#FFBD95"/>
<path d="M38.4237 78.13C38.4237 78.13 31.4781 76.8182 30.5314 79.4971C29.5825 82.1737 34.0972 83.6534 38.2952 83.4573C38.2952 83.4573 33.767 82.6617 34.2223 80.3874C34.6686 78.1762 38.4237 78.13 38.4237 78.13Z" fill="#FFBD95"/>
<path d="M61.1055 78.1706C57.8316 78.5493 54.0449 79.8047 48.5215 80.0504C43.0173 80.2882 39.4628 80.0955 26.7594 81.2236C15.3836 82.239 12.1018 83.7593 12.1018 83.7593C8.12692 86.6906 10.719 90.0569 14.7694 90.6914C18.8265 91.3203 25.2211 91.699 30.2125 90.4469C35.2028 89.1914 42.9723 85.0114 49.5843 83.9971C54.0077 83.3221 57.6231 83.3919 59.9988 83.4629C61.1742 83.4979 62.0465 83.5328 62.5638 83.4776C64.1281 83.3074 65.3306 81.8333 65.3046 80.4291C65.2652 78.5414 63.187 77.9362 61.1055 78.1706Z" fill="#FFCAAA"/>
<path d="M60.3243 78.2347C60.3243 78.2347 64.0783 78.2809 64.5201 80.4921C64.9799 82.7663 60.454 83.562 60.454 83.562C64.6486 83.7569 69.1611 82.2783 68.2178 79.6017C67.27 76.9229 60.3243 78.2347 60.3243 78.2347Z" fill="#FFCAAA"/>
<path d="M49.5966 13.2491C45.6769 13.2491 41.977 17.4088 42.4977 22.478C42.5214 22.7259 42.5867 22.9558 42.6273 23.1959C43.4263 19.523 46.3881 16.8351 49.529 16.8351C52.7556 16.8351 55.8176 19.665 56.5062 23.4844C56.5715 23.1485 56.6594 22.8239 56.6977 22.478C57.2624 17.4144 53.5208 13.2491 49.5966 13.2491Z" fill="#3B0500"/>
<path d="M77.1594 12.5881L89.8425 17.123L90.5796 15.0596L77.8976 10.5234L77.1594 12.5881Z" fill="black"/>
<path d="M79.1316 9.16678C77.6632 8.64047 76.0482 9.40681 75.5207 10.8753C74.9967 12.3415 75.763 13.9587 77.2326 14.485C78.6966 15.0102 80.3138 14.2427 80.8367 12.7743C81.3642 11.3069 80.599 9.69195 79.1316 9.16678Z" fill="black"/>
<path d="M91.161 13.4332C89.6937 12.9092 88.0776 13.6755 87.5524 15.1417C87.0284 16.6091 87.7925 18.2252 89.2587 18.7492C90.7283 19.2767 92.3444 18.5114 92.8695 17.043C93.3936 15.5745 92.6295 13.9584 91.161 13.4332Z" fill="black"/>
<path d="M84.6752 11.3484C83.4998 11.3383 82.8484 11.5896 82.8337 12.9477C82.8202 14.3068 82.889 15.64 84.0655 15.6513C85.2421 15.6626 85.72 14.309 86.2857 13.0761C86.8537 11.8353 85.8529 11.3597 84.6752 11.3484Z" fill="#FFBD95"/>
<path d="M82.1248 12.5379C81.5456 12.3271 82.0167 13.0755 81.8668 15.4839C81.8014 16.5241 82.5734 17.2848 82.8991 17.2307C83.2259 17.1755 83.9043 16.0203 83.1831 15.2652C82.4235 14.4707 83.1143 12.8974 82.1248 12.5379Z" fill="#FFBD95"/>
<path d="M15.8973 16.1254L13.7335 16.9087C13.7335 16.9087 14.4142 23.2175 15.113 27.2646C15.868 31.6395 16.7843 35.0993 18.3722 36.9025C21.0184 39.9048 23.1405 35.9886 23.1405 35.9886C22.6243 32.9784 21.8749 31.5009 20.2035 27.1124C18.5288 22.725 15.8973 16.1254 15.8973 16.1254Z" fill="#FFA47C"/>
<path d="M12.3937 13.8258C12.6597 15.8836 13.3178 17.1256 14.1586 17.2349C15.4907 17.4073 16.7044 17.2957 16.7213 15.9062C16.7439 14.3397 16.4148 15.0181 15.4219 12.6097C14.7424 10.961 12.1255 11.76 12.3937 13.8258Z" fill="#FFA47C"/>
<path d="M8.5675 15.0604L9.30456 17.125L21.9877 12.5889L21.2495 10.5243L8.5675 15.0604Z" fill="black"/>
<path d="M20.0143 9.16625C18.5481 9.69142 17.784 11.3064 18.3092 12.7737C18.8333 14.2422 20.4505 15.0085 21.9156 14.4845C23.384 13.9582 24.1504 12.341 23.6263 10.8747C23.0989 9.40628 21.4839 8.63994 20.0143 9.16625Z" fill="black"/>
<path d="M7.98587 13.4332C6.51741 13.9584 5.75332 15.5745 6.2785 17.043C6.80255 18.5114 8.41862 19.2767 9.88821 18.7492C11.3544 18.2252 12.1185 16.6091 11.5945 15.1417C11.0693 13.6755 9.45321 12.9092 7.98587 13.4332Z" fill="black"/>
<path d="M14.4718 11.3484C13.2941 11.3597 12.2944 11.8353 12.8613 13.0761C13.4271 14.309 13.9049 15.6626 15.0815 15.6513C16.2581 15.64 16.3268 14.3068 16.3133 12.9477C16.2986 11.5896 15.6472 11.3383 14.4718 11.3484Z" fill="#FFBD95"/>
<path d="M17.0222 12.5379C16.0327 12.8974 16.7235 14.4707 15.9639 15.2652C15.2438 16.0203 15.9211 17.1755 16.2479 17.2307C16.5736 17.2848 17.3456 16.5241 17.2802 15.4839C17.1304 13.0755 17.6014 12.3271 17.0222 12.5379Z" fill="#FFBD95"/>
<mask id="mask0_130_4832" style="mask-type:luminance" maskUnits="userSpaceOnUse" x="6" y="9" width="88" height="83">
<path d="M91.1609 13.433C90.0587 13.0397 88.8743 13.3733 88.1304 14.1848L86.76 13.6934C86.795 13.1975 86.6643 12.7805 86.4343 12.4605C86.4524 11.6795 85.6308 11.3571 84.6751 11.3481C83.7149 11.3402 83.112 11.5172 82.9125 12.3185L80.9932 11.631C80.92 10.5468 80.2201 9.55623 79.1315 9.16629C77.663 8.63999 76.048 9.40633 75.5206 10.8748C74.9965 12.341 75.7629 13.9582 77.2325 14.4845C78.3426 14.8824 79.5372 14.5353 80.281 13.7047L81.8915 14.2817C81.8971 14.6299 81.8948 15.0165 81.8667 15.4842C81.8058 16.4466 82.4572 17.1611 82.8144 17.2209C81.9963 19.281 80.1999 23.8194 78.9433 27.1124C77.8839 29.8938 77.1942 31.5066 76.7005 33.0821C73.9079 33.8236 70.4672 35.4995 68.016 36.0788C66.3108 36.48 64.1763 36.8169 62.2199 37.2812C60.6906 36.232 55.1401 36.0314 54.686 36.0168V36.0156C54.686 36.0156 52.814 35.3687 52.7194 30.5171C54.5958 28.8052 56.3212 25.8378 56.6976 22.4771C57.2623 17.4136 53.5207 13.2482 49.5965 13.2482C45.6768 13.2482 41.9769 17.4079 42.4976 22.4771C42.8582 25.9967 44.6603 29.0193 46.61 30.6872C46.2505 34.9461 44.4958 36.0032 44.4958 36.0032L44.5003 36.1204L44.4428 36.0021C44.4428 36.0021 37.9333 35.8624 36.644 37.2159C34.7676 36.7842 32.7548 36.4619 31.1308 36.0788C28.6808 35.4995 25.2389 33.8236 22.4463 33.0821C21.9526 31.5066 21.2629 29.8938 20.2035 27.1124C18.9469 23.8194 17.1505 19.281 16.3323 17.2209C16.6896 17.1611 17.341 16.4466 17.2801 15.4842C17.252 15.0165 17.2497 14.6299 17.2553 14.2817L18.8669 13.7047C19.6096 14.5353 20.8042 14.8824 21.9154 14.4845C23.3839 13.9582 24.1503 12.341 23.6262 10.8748C23.0988 9.40633 21.4838 8.63999 20.0142 9.16629C18.9255 9.55623 18.2268 10.5468 18.1535 11.631L16.2343 12.3185C16.0348 11.5172 15.4319 11.3402 14.4717 11.3481C13.516 11.3571 12.6944 11.6795 12.7136 12.4593C12.4825 12.7805 12.3518 13.1975 12.3879 13.6934L11.0175 14.1848C10.2736 13.3733 9.08807 13.0397 7.98587 13.433C6.51741 13.9582 5.75332 15.5743 6.2785 17.0428C6.80255 18.5113 8.41862 19.2765 9.88821 18.7491C10.9893 18.3557 11.6937 17.3482 11.7556 16.2483L12.877 15.8471C13.1148 16.4466 13.4123 16.8602 13.7504 17.0721C13.8575 18.0436 14.4773 23.5816 15.1129 27.2646C15.868 31.6396 16.7843 35.0994 18.3722 36.9026C18.9548 37.563 19.5093 37.8763 20.0232 37.9811C22.719 39.7133 27.3723 41.1536 31.8769 42.6412C34.7507 43.5913 36.8954 44.2607 38.4833 44.4748C40.3947 52.1913 42.0096 62.8898 42.0096 66.4815C42.0096 70.6773 38.7988 72.7509 37.2402 77.8787L37.2075 77.8843C37.2075 77.8843 37.1252 77.899 36.9686 77.9283C35.0178 77.7198 31.6932 77.6206 30.7138 79.1556C25.7359 80.1721 19.054 81.6327 14.9878 82.9141C12.8883 83.3998 12.1016 83.7593 12.1016 83.7593C8.12675 86.6906 10.7188 90.0569 14.7692 90.6914C18.8264 91.3203 25.2209 91.699 30.2123 90.4469C31.0857 90.2271 32.0482 89.9138 33.0715 89.5475C36.6407 89.3571 39.9934 89.081 42.5303 88.6617C43.1062 88.5659 43.6212 88.442 44.1115 88.3056C47.1025 88.4318 49.8332 87.8751 49.8332 87.8751C49.8332 87.8751 51.7862 88.3518 54.1642 88.4363C54.8584 88.6809 55.6529 88.8804 56.5568 89.0257C59.3416 89.4709 63.1023 89.7403 67.058 89.9104C67.5697 90.075 68.069 90.2249 68.5355 90.3421C73.5236 91.5953 79.9181 91.2166 83.9764 90.5866C84.6582 90.4796 85.2938 90.2902 85.8686 90.0434C86.4929 89.8394 87.0215 89.5115 87.4013 89.1046C89.0208 87.7015 89.2597 85.585 86.6417 83.6556C86.6417 83.6556 85.1575 82.9727 80.7735 82.2176C76.8347 81.2044 71.948 80.1789 68.1197 79.4193C67.306 77.7908 64.0727 77.8122 62.0294 78.0072C60.7063 72.5785 56.9726 70.7336 56.9726 66.4815C56.9726 62.8098 58.7059 52.4268 60.7007 44.4703C62.283 44.2505 64.4164 43.5834 67.2688 42.6412C71.7745 41.1536 76.4267 39.7133 79.1236 37.9811C79.6375 37.8763 80.192 37.563 80.7746 36.9026C82.3625 35.0994 83.2788 31.6396 84.0339 27.2646C84.6695 23.5816 85.2893 18.0436 85.3964 17.0721C85.7356 16.8602 86.032 16.4466 86.2698 15.8471L87.3912 16.2483C87.4531 17.3482 88.1575 18.3557 89.2586 18.7491C90.7281 19.2765 92.3443 18.5113 92.8694 17.0428C93.3935 15.5743 92.6294 13.9582 91.1609 13.433Z" fill="white"/>
</mask>
<g mask="url(#mask0_130_4832)">
<path d="M33.0783 89.5479C34.9401 88.8795 37.0138 88.0242 39.1731 87.1778C40.5919 87.9351 42.3917 88.2338 44.1059 88.307C43.6179 88.4434 43.104 88.5662 42.5304 88.662C42.5236 88.6632 42.5157 88.6643 42.5078 88.6654C42.5022 88.6665 42.4977 88.6677 42.492 88.6688C42.4887 88.6688 42.4864 88.6688 42.4842 88.6699C42.3884 88.6857 42.2903 88.7015 42.1911 88.7161C42.1878 88.7172 42.1832 88.7172 42.1799 88.7184C42.1731 88.7195 42.1675 88.7206 42.1607 88.7218C42.1539 88.7229 42.1461 88.724 42.1393 88.7251C42.1382 88.7251 42.137 88.7251 42.1359 88.7251C39.652 89.1094 36.4627 89.3664 33.0783 89.5479Z" fill="#D0836D"/>
<path d="M15.0082 82.9092C19.0293 81.6436 25.5883 80.2055 30.5392 79.1912C30.591 79.1811 30.6429 79.1698 30.6947 79.1597C30.6293 79.2645 30.5741 79.3772 30.5313 79.4978C30.3487 80.0128 30.369 80.4828 30.5482 80.9054C29.3818 80.9978 28.1241 81.1037 26.7593 81.2243C20.9373 81.7439 17.2351 82.3964 15.0082 82.9092Z" fill="#D0836D"/>
<path d="M36.9731 77.9277C36.9731 77.9277 36.9731 77.9277 36.972 77.9277C37.0396 77.9153 37.0926 77.9052 37.132 77.8984C37.0937 77.9052 37.0407 77.9153 36.9731 77.9277ZM37.2075 77.8838L37.238 77.8793C37.2199 77.8827 37.2098 77.8838 37.2075 77.8838Z" fill="#B9ADB5"/>
<path d="M37.2155 77.9541C37.1377 77.9451 37.0565 77.9361 36.9731 77.9271C37.0408 77.9147 37.0937 77.9045 37.1321 77.8978C37.1817 77.8887 37.2076 77.8842 37.2076 77.8842V77.8831C37.2098 77.8831 37.22 77.882 37.238 77.8786C37.2301 77.9045 37.2222 77.9293 37.2155 77.9541Z" fill="#D0836D"/>
<path d="M41.9815 67.144C41.9826 67.1429 41.9826 67.1417 41.9826 67.1395C41.9826 67.1406 41.9826 67.1429 41.9815 67.144ZM41.9837 67.1181C41.9837 67.117 41.9849 67.1147 41.9849 67.1136C41.9837 67.1147 41.9837 67.117 41.9837 67.1181ZM42.0007 66.8442C42.0007 66.8442 42.0007 66.8442 42.0018 66.8431C42.0007 66.8431 42.0007 66.8442 42.0007 66.8442ZM42.0074 66.6797C42.0074 66.6797 42.0074 66.6797 42.0074 66.6786V66.6797ZM42.0074 66.6256C42.0085 66.6234 42.0085 66.6188 42.0085 66.6166C42.0085 66.62 42.0085 66.6222 42.0074 66.6256ZM42.0085 66.5456C42.0085 66.5422 42.0085 66.5388 42.0085 66.5354C42.0085 66.5399 42.0085 66.5422 42.0085 66.5456ZM42.0085 66.3833C42.0085 66.3822 42.0085 66.381 42.0085 66.3799C42.0085 66.381 42.0085 66.3833 42.0085 66.3833ZM42.0074 66.2943C42.0074 66.2931 42.0074 66.2931 42.0074 66.292C42.0074 66.2931 42.0074 66.2943 42.0074 66.2943ZM42.0074 66.2796C42.0074 66.2796 42.0074 66.2785 42.0074 66.2774C42.0074 66.2785 42.0074 66.2785 42.0074 66.2796ZM42.0074 66.2526C42.0074 66.2492 42.0074 66.2458 42.0074 66.2435C42.0074 66.2469 42.0074 66.2492 42.0074 66.2526ZM42.0052 66.159C42.0052 66.1556 42.0052 66.1534 42.0052 66.1511C42.0052 66.1534 42.0052 66.1568 42.0052 66.159ZM42.0029 66.0542C41.8891 62.1007 40.3248 51.9094 38.4845 44.4803C40.3248 51.9094 41.8891 62.1019 42.0029 66.0542ZM31.8769 42.6422C31.8612 42.6365 31.8465 42.632 31.8307 42.6264C31.8465 42.632 31.8623 42.6377 31.8769 42.6422ZM31.0993 36.0718C31.0914 36.0696 31.0824 36.0685 31.0745 36.0662C31.0835 36.0685 31.0914 36.0696 31.0993 36.0718ZM31.008 36.0493C31.0035 36.0482 30.999 36.047 30.9934 36.0459C30.9979 36.047 31.0035 36.0482 31.008 36.0493Z" fill="#B9ADB5"/>
<path d="M38.4845 44.4795C38.4833 44.4784 38.4833 44.4761 38.4833 44.475C36.9619 44.2699 34.9311 43.6466 32.2376 42.7597C32.1192 42.7214 31.9986 42.6819 31.8769 42.6414C31.8623 42.6369 31.8465 42.6312 31.8307 42.6256C27.3577 41.1492 22.745 39.7179 20.0537 38.0004C20.1766 38.0241 20.2983 38.0354 20.4166 38.0354C22.0316 38.0354 23.1405 35.9888 23.1405 35.9888C22.9523 34.8866 22.7326 33.9906 22.4474 33.0823C25.1669 33.8047 28.5027 35.414 30.9393 36.0316C30.9415 36.0327 30.9438 36.0327 30.946 36.0338C30.9528 36.035 30.9584 36.0361 30.9652 36.0383C30.9708 36.0395 30.9765 36.0406 30.9821 36.0429C30.9855 36.0429 30.99 36.044 30.9934 36.0451C30.999 36.0462 31.0035 36.0474 31.008 36.0485C31.0114 36.0496 31.0148 36.0508 31.0182 36.0519C31.0261 36.053 31.0328 36.0552 31.0407 36.0564C31.0441 36.0575 31.0463 36.0586 31.0497 36.0586C31.0565 36.0609 31.0621 36.062 31.0689 36.0643C31.0711 36.0643 31.0734 36.0643 31.0745 36.0654C31.0824 36.0676 31.0914 36.0688 31.0993 36.071C31.1016 36.0722 31.1038 36.0722 31.1061 36.0733C31.1139 36.0744 31.123 36.0767 31.1309 36.0789C32.7492 36.461 34.7541 36.7821 36.6249 37.2115C36.4074 37.4403 36.3409 37.7119 36.4807 38.0354C37.149 39.5737 37.8342 41.8536 38.4845 44.4795Z" fill="#D0836D"/>
<path d="M44.4992 36.1318C44.48 36.089 44.4608 36.0462 44.4428 36.0022L44.498 36.1172C44.4992 36.1217 44.4992 36.1273 44.4992 36.1318ZM44.4958 36.0033C44.4958 36.0033 46.2482 34.9485 46.6089 30.6964C46.61 30.6975 46.6111 30.6986 46.6134 30.6998C46.2539 34.9564 44.4958 36.0033 44.4958 36.0033ZM42.616 23.3428C42.5698 23.0723 42.5314 22.7973 42.5021 22.5201C42.5021 22.5212 42.5021 22.5212 42.5021 22.5223C42.5314 22.7984 42.5698 23.0723 42.616 23.3428Z" fill="#B9ADB5"/>
<path d="M49.3261 40.4268C48.5642 40.26 45.9868 39.4621 44.4992 36.1318C44.4992 36.1273 44.4992 36.1217 44.498 36.1172L44.5003 36.1205L44.4958 36.0033C44.4958 36.0033 46.2539 34.9564 46.6134 30.6998C47.5296 31.483 48.4786 31.9631 49.3261 32.0499V40.4268Z" fill="#D0836D"/>
<path d="M49.3261 32.0498C48.4786 31.963 47.5296 31.4829 46.6134 30.6997C46.6111 30.6985 46.61 30.6974 46.6089 30.6963C46.6089 30.6929 46.6089 30.6895 46.61 30.6873C44.8361 29.1703 43.1851 26.5309 42.6295 23.4182C42.6295 23.4171 42.6295 23.4148 42.6283 23.4126C42.6283 23.4081 42.6272 23.4036 42.6261 23.399C42.625 23.3934 42.625 23.3889 42.6239 23.3833C42.6227 23.3799 42.6227 23.3765 42.6216 23.3743C42.6205 23.3652 42.6193 23.3574 42.6171 23.3483C42.6171 23.3461 42.6171 23.3438 42.616 23.3427C42.5698 23.0722 42.5314 22.7984 42.5021 22.5222C42.5292 22.7533 42.5889 22.9697 42.6272 23.1951C43.4093 19.6022 46.2618 16.9504 49.3261 16.8377V32.0498Z" fill="#D0A292"/>
<path d="M34.1917 80.6357C34.1962 80.5546 34.2052 80.4723 34.2221 80.3878C34.6042 78.4967 37.4047 78.1891 38.2083 78.1406C41.1678 78.5598 44.5904 79.5843 49.326 79.8976V80.008C49.0612 80.0249 48.7941 80.0396 48.5213 80.0508C44.2805 80.2345 41.1959 80.1624 34.1917 80.6357Z" fill="#D09781"/>
<path d="M30.5482 80.9043C30.369 80.4817 30.3487 80.0117 30.5313 79.4967C30.5741 79.3761 30.6294 79.2634 30.6947 79.1586C30.7015 79.1575 30.7071 79.1563 30.7139 79.1552C31.3946 78.088 33.209 77.8107 34.9074 77.8107C35.6523 77.8107 36.3747 77.8637 36.9687 77.9279C36.9698 77.9268 36.9709 77.9268 36.972 77.9268C36.9732 77.9268 36.9732 77.9268 36.9732 77.9268C37.0566 77.9358 37.1377 77.9448 37.2155 77.9538C37.9424 78.0395 38.4236 78.1296 38.4236 78.1296C38.4236 78.1296 38.3447 78.1308 38.2083 78.1398C37.4048 78.1883 34.6043 78.4959 34.2222 80.387C34.2053 80.4715 34.1963 80.5538 34.1918 80.6349C33.0828 80.7093 31.8747 80.7984 30.5482 80.9043Z" fill="#D09781"/>
<path d="M22.4294 91.2754C19.5961 91.2754 16.8688 91.0173 14.7692 90.6916C12.1389 90.2802 10.1238 88.716 10.1227 86.8666C10.1216 85.8681 10.7087 84.7873 12.1017 83.7595C12.1017 83.7595 12.1017 83.7595 12.1028 83.7595C12.1084 83.7572 12.8973 83.3977 14.9879 82.9143C14.9946 82.9131 15.0014 82.9109 15.0082 82.9086C17.2351 82.3959 20.9373 81.7433 26.7593 81.2238C28.1241 81.1032 29.3818 80.9973 30.5482 80.9049C31.8747 80.7989 33.0828 80.7099 34.1918 80.6355C41.196 80.1622 44.2805 80.2343 48.5214 80.0506C48.7941 80.0393 49.0612 80.0247 49.3261 80.0078V84.039C46.0533 84.5788 42.5112 85.867 39.173 87.1777C37.0137 88.024 34.9401 88.8794 33.0783 89.5477C33.076 89.5477 33.0738 89.5477 33.0715 89.5477C32.0561 89.9117 31.1015 90.2216 30.2338 90.4414C30.227 90.4437 30.2191 90.4448 30.2124 90.447C27.804 91.0511 25.071 91.2754 22.4294 91.2754Z" fill="#D0A292"/>
<path d="M42.6272 23.1953C42.5889 22.9699 42.5292 22.7535 42.5021 22.5225C42.5021 22.5214 42.5021 22.5214 42.5021 22.5202C42.501 22.5067 42.4987 22.4921 42.4976 22.4774C42.4638 22.1517 42.448 21.8283 42.4492 21.5105C42.4548 17.0036 45.7602 13.4288 49.326 13.2553V16.838C46.2618 16.9507 43.4093 19.6025 42.6272 23.1953Z" fill="#33040A"/>
<path d="M20.6149 28.1835C20.6127 28.1779 20.6104 28.1711 20.6082 28.1655C20.6104 28.1723 20.6127 28.1779 20.6149 28.1835ZM15.1107 27.2492C15.1096 27.2447 15.1096 27.2402 15.1085 27.2357C15.1096 27.2391 15.1096 27.2447 15.1107 27.2492Z" fill="#B9ADB5"/>
<path d="M15.0916 27.1387C14.4661 23.4748 13.862 18.0845 13.7527 17.0859C13.8665 18.1239 14.4695 23.4929 15.0916 27.1387Z" fill="#C6BFBB"/>
<path d="M18.5548 22.8564C17.9845 21.3993 17.4233 19.9759 16.9646 18.8173C17.4233 19.9759 17.9845 21.3981 18.5548 22.8564Z" fill="#C6BFBB"/>
<path d="M20.2035 27.1123C19.7065 25.8118 19.1261 24.3162 18.5547 22.8557C19.1261 24.3162 19.7065 25.8106 20.2035 27.1123Z" fill="#B9ADB5"/>
<path d="M17.2802 15.4843C17.252 15.0256 17.2464 14.6267 17.2509 14.2829L18.3147 13.902L17.2554 14.2818C17.2498 14.6301 17.252 15.0166 17.2802 15.4843ZM17.3433 11.9219L18.1502 11.6323C18.1502 11.6334 18.1502 11.6334 18.1502 11.6334L17.3433 11.9219Z" fill="#C6BFBB"/>
<path d="M20.4166 38.0352C20.2982 38.0352 20.1765 38.0239 20.0537 38.0002C20.0435 37.9946 20.0334 37.9878 20.0233 37.9811C19.5094 37.8763 18.9549 37.5629 18.3722 36.9025C16.7843 35.0993 15.868 31.6395 15.113 27.2646C15.113 27.2589 15.1118 27.2533 15.1107 27.2488C15.1096 27.2443 15.1096 27.2386 15.1085 27.2353C15.1073 27.2319 15.1073 27.2296 15.1073 27.2262C15.1017 27.1969 15.0972 27.1676 15.0916 27.1383C14.4695 23.4925 13.8665 18.1236 13.7527 17.0856C13.8823 17.1656 14.0175 17.2163 14.1584 17.2344C14.4503 17.2727 14.7377 17.2963 15.007 17.2963C15.4037 17.2963 15.7632 17.2445 16.0506 17.1059C16.1205 17.1769 16.1904 17.2208 16.2479 17.231C16.2591 17.2332 16.2704 17.2344 16.2828 17.2344C16.2997 17.2344 16.3166 17.2321 16.3358 17.2287C16.5071 17.6604 16.7212 18.2013 16.9646 18.8166C17.4233 19.9752 17.9845 21.3986 18.5548 22.8558C19.1262 24.3163 19.7066 25.8119 20.2036 27.1124C20.3399 27.4697 20.4695 27.8089 20.5946 28.1301C20.5946 28.1312 20.5957 28.1323 20.5957 28.1335C20.5991 28.1425 20.6025 28.1526 20.607 28.1616C20.607 28.1628 20.6082 28.1639 20.6082 28.165C20.6104 28.1707 20.6127 28.1774 20.6149 28.183C20.6172 28.1898 20.6205 28.1966 20.6228 28.2044L20.6239 28.2056C21.4511 30.3412 22.0214 31.7252 22.4463 33.0821C22.7325 33.9904 22.9523 34.8864 23.1405 35.9886C23.1405 35.9886 22.0315 38.0352 20.4166 38.0352Z" fill="#D0836D"/>
<path d="M15.0071 17.2969C14.7377 17.2969 14.4503 17.2732 14.1584 17.2349C14.0176 17.2169 13.8823 17.1662 13.7527 17.0861C13.7516 17.0816 13.7516 17.0771 13.7504 17.0726C13.4123 16.8607 13.1148 16.4471 12.877 15.8476L14.2294 15.3641C14.465 15.5444 14.7388 15.6515 15.0668 15.6515C15.0724 15.6515 15.0769 15.6515 15.0814 15.6515C15.7227 15.6459 16.0349 15.2469 16.1836 14.6654L16.2941 14.6259C16.2343 14.8637 16.1374 15.0846 15.9639 15.266C15.3711 15.887 15.7238 16.7785 16.0506 17.1064C15.7633 17.245 15.4038 17.2969 15.0071 17.2969ZM12.3812 13.6973L12.3879 13.6939C12.353 13.2082 12.4781 12.7979 12.699 12.479C12.708 12.6548 12.7598 12.8532 12.8613 13.0763C12.921 13.2037 12.9785 13.3333 13.036 13.4629L12.3812 13.6973Z" fill="#D0836D"/>
<path d="M11.7557 16.249C11.776 15.8839 11.7253 15.5086 11.5945 15.1423C11.4638 14.776 11.2655 14.4549 11.0175 14.1855L11.7287 13.9308L12.3812 13.6975L13.036 13.4631C13.3763 14.2227 13.7133 14.9699 14.2294 15.3643L12.877 15.8478L12.3361 16.0416L11.7557 16.249ZM16.1836 14.6656C16.3087 14.1799 16.3189 13.5668 16.3132 12.9481C16.311 12.7035 16.2873 12.4939 16.2434 12.3158L17.3433 11.9225L18.1502 11.634C18.1243 12.0093 18.1739 12.397 18.3091 12.7745C18.4365 13.1295 18.6258 13.4428 18.8625 13.7065L18.3148 13.9026L17.2509 14.2835C17.2689 13.0168 17.4368 12.5051 17.1731 12.5051C17.1326 12.5051 17.083 12.5164 17.0221 12.539C16.258 12.8173 16.4958 13.8181 16.2941 14.6261L16.1836 14.6656Z" fill="#04000A"/>
<path d="M20.971 14.6494C20.1686 14.6494 19.4 14.3023 18.867 13.705L18.8624 13.7061C18.6258 13.4424 18.4364 13.1291 18.3091 12.7741C18.1739 12.3966 18.1243 12.0089 18.1502 11.6336C18.1502 11.6336 18.1502 11.6336 18.1502 11.6325L18.1536 11.6313C18.2167 10.6937 18.7497 9.82366 19.5972 9.35483C19.5995 9.3537 19.6006 9.35257 19.6029 9.35145C19.6051 9.35032 19.6074 9.34919 19.6085 9.34806C19.6119 9.34693 19.6153 9.3447 19.6186 9.34358C19.6198 9.34245 19.6209 9.34132 19.622 9.34132C19.7404 9.27708 19.8655 9.22073 19.9962 9.1734L19.9973 9.17227C20.003 9.17002 20.0086 9.16889 20.0142 9.16663C20.3286 9.05393 20.6498 9.00097 20.9654 9.00097C22.1251 9.00097 23.2115 9.7211 23.6262 10.8751C23.7389 11.1896 23.7919 11.5119 23.7908 11.8286C23.7885 12.986 23.0684 14.0713 21.9155 14.4849C21.7633 14.539 21.61 14.5796 21.4579 14.6066C21.4534 14.6077 21.45 14.6077 21.4455 14.6089C21.4455 14.6089 21.4444 14.6089 21.4432 14.6089C21.2855 14.6359 21.1277 14.6494 20.971 14.6494Z" fill="#04000A"/>
<path d="M17.0209 16.5967C17.19 16.2991 17.3072 15.916 17.2801 15.4843C17.3083 15.9182 17.1911 16.3014 17.0209 16.5967ZM14.4379 11.3494C14.439 11.3494 14.439 11.3494 14.439 11.3494H14.4379Z" fill="#C6BFBB"/>
<path d="M8.93479 18.916C7.77625 18.916 6.69098 18.1959 6.2785 17.0429C6.1658 16.7274 6.11168 16.4051 6.11281 16.0884C6.11394 14.9299 6.83297 13.8457 7.98588 13.4332C8.29918 13.3216 8.61923 13.2687 8.93366 13.2687C9.72593 13.2687 10.4844 13.6045 11.0175 14.1849C11.2654 14.4543 11.4638 14.7755 11.5945 15.1417C11.7252 15.508 11.7759 15.8833 11.7556 16.2484C11.7556 16.2552 11.7545 16.2608 11.7545 16.2676C11.6858 17.354 10.9904 18.348 9.90514 18.7425C9.8995 18.7447 9.89385 18.747 9.88822 18.7492C9.57266 18.8619 9.25147 18.916 8.93479 18.916Z" fill="#04000A"/>
<path d="M15.0668 15.6514C14.7388 15.6514 14.4649 15.5443 14.2294 15.364C13.7132 14.9695 13.3763 14.2223 13.0359 13.4627C12.9785 13.3331 12.921 13.2035 12.8613 13.0762C12.7598 12.853 12.708 12.6547 12.699 12.4789C12.7035 12.4721 12.708 12.4665 12.7136 12.4597C12.6945 11.69 13.4969 11.3654 14.4379 11.3496H14.439C14.4424 11.3496 14.4447 11.3496 14.4481 11.3496C14.4481 11.3496 14.4492 11.3496 14.4503 11.3496C14.4537 11.3496 14.4559 11.3496 14.4593 11.3496C14.4604 11.3496 14.4616 11.3496 14.4627 11.3496C14.4661 11.3496 14.4683 11.3496 14.4717 11.3485C14.4943 11.3485 14.5157 11.3485 14.5382 11.3485C15.4589 11.3485 16.0394 11.5356 16.2343 12.3189L16.2433 12.3155C16.2873 12.4935 16.3109 12.7032 16.3132 12.9477C16.3188 13.5664 16.3087 14.1795 16.1836 14.6653C16.0348 15.2468 15.7227 15.6457 15.0814 15.6514C15.0769 15.6514 15.0724 15.6514 15.0668 15.6514Z" fill="#D09781"/>
<path d="M16.2828 17.2344C16.2704 17.2344 16.2591 17.2332 16.2479 17.231C16.1904 17.2208 16.1205 17.1769 16.0506 17.1059C15.7238 16.7779 15.3711 15.8865 15.9639 15.2655C16.1374 15.0841 16.2343 14.8632 16.2941 14.6254C16.4958 13.8173 16.258 12.8166 17.0221 12.5382C17.0829 12.5157 17.1325 12.5044 17.1731 12.5044C17.4368 12.5044 17.2689 13.016 17.2509 14.2828C17.2464 14.6265 17.252 15.0255 17.2802 15.4842C17.3072 15.9158 17.19 16.299 17.021 16.5965C16.8136 16.9571 16.5285 17.1882 16.3324 17.2208C16.3335 17.2242 16.3346 17.2265 16.3358 17.2287C16.3166 17.2321 16.2997 17.2344 16.2828 17.2344Z" fill="#D09781"/>
</g>
</svg>
