<svg width="100" height="100" viewBox="0 0 100 100" fill="none" xmlns="http://www.w3.org/2000/svg">
<path d="M75.6525 41.5338C75.3344 41.7238 75.2363 42.1447 75.4316 42.4717C75.6274 42.7998 76.045 42.9107 76.3633 42.7206C76.6814 42.5294 76.7795 42.1097 76.5842 41.7827C76.3876 41.4557 75.9708 41.3426 75.6525 41.5338Z" fill="#923B5E"/>
<path d="M72.1968 43.6021C71.8786 43.7922 71.7805 44.2142 71.9757 44.5411C72.1716 44.8681 72.5892 44.979 72.9075 44.7889C73.2256 44.5977 73.3238 44.178 73.1284 43.851C72.9318 43.524 72.515 43.4109 72.1968 43.6021Z" fill="#923B5E"/>
<path d="M68.7407 45.6729C68.4225 45.863 68.3244 46.2838 68.5198 46.6108C68.7155 46.9378 69.1331 47.0487 69.4514 46.8575C69.7695 46.6685 69.8677 46.2465 69.6723 45.9207C69.4757 45.5926 69.0589 45.4817 68.7407 45.6729Z" fill="#923B5E"/>
<path d="M65.2843 47.7422C64.966 47.9323 64.868 48.3532 65.0633 48.6802C65.2591 49.0071 65.6768 49.118 65.9949 48.9268C66.3132 48.7379 66.4113 48.317 66.2159 47.99C66.0193 47.6619 65.6025 47.551 65.2843 47.7422Z" fill="#923B5E"/>
<path d="M61.8285 49.8098C61.5102 50.0011 61.4121 50.4208 61.6075 50.7489C61.8033 51.0747 62.221 51.1879 62.5391 50.9967C62.8574 50.8066 62.9555 50.3857 62.7601 50.0588C62.5644 49.7318 62.1466 49.6198 61.8285 49.8098Z" fill="#923B5E"/>
<path d="M58.3723 51.8792C58.0541 52.0704 57.9559 52.4901 58.1513 52.8182C58.3471 53.1441 58.7648 53.2572 59.0829 53.066C59.4012 52.8759 59.4993 52.4551 59.3039 52.1292C59.1082 51.8011 58.6906 51.6891 58.3723 51.8792Z" fill="#923B5E"/>
<path d="M54.9162 53.9495C54.598 54.1407 54.4999 54.5605 54.6952 54.8886C54.8911 55.2144 55.3087 55.3275 55.6268 55.1363C55.9451 54.9451 56.0432 54.5254 55.8479 54.1984C55.6521 53.8714 55.2345 53.7594 54.9162 53.9495Z" fill="#923B5E"/>
<path d="M51.4601 56.0184C51.142 56.2096 51.0439 56.6293 51.2392 56.9574C51.435 57.2833 51.8526 57.3953 52.1709 57.2052C52.489 57.014 52.5871 56.5942 52.3918 56.2673C52.196 55.9403 51.7784 55.8283 51.4601 56.0184Z" fill="#923B5E"/>
<path d="M48.0039 58.0867C47.6858 58.2779 47.5877 58.6977 47.7843 59.0258C47.9788 59.3516 48.3964 59.4636 48.7147 59.2736C49.0328 59.0824 49.1309 58.6626 48.9357 58.3356C48.7398 58.0086 48.3222 57.8955 48.0039 58.0867Z" fill="#923B5E"/>
<path d="M44.548 60.157C44.2297 60.3471 44.1316 60.768 44.3283 61.0961C44.5228 61.4219 44.9404 61.5339 45.2586 61.3439C45.5768 61.1527 45.675 60.7329 45.4796 60.4059C45.2839 60.079 44.8661 59.9658 44.548 60.157Z" fill="#923B5E"/>
<path d="M41.0921 62.2261C40.7738 62.4162 40.6757 62.8382 40.8724 63.1652C41.0668 63.4921 41.4844 63.603 41.8027 63.413C42.1209 63.2218 42.2191 62.802 42.0237 62.475C41.8279 62.148 41.4102 62.036 41.0921 62.2261Z" fill="#923B5E"/>
<path d="M37.6359 64.2966C37.3176 64.4866 37.2195 64.9075 37.4162 65.2345C37.6107 65.5615 38.0284 65.6724 38.3465 65.4823C38.6648 65.2911 38.7629 64.8702 38.5675 64.5444C38.3718 64.2162 37.954 64.1054 37.6359 64.2966Z" fill="#923B5E"/>
<path d="M34.1798 66.3659C33.8615 66.556 33.7634 66.9769 33.9602 67.3039C34.1546 67.6308 34.5723 67.7417 34.8904 67.5516C35.2087 67.3604 35.3068 66.9395 35.1114 66.6137C34.9157 66.2856 34.498 66.1747 34.1798 66.3659Z" fill="#923B5E"/>
<path d="M30.7236 68.4362C30.4055 68.6263 30.3069 69.0472 30.504 69.3742C30.6984 69.7011 31.1161 69.812 31.4338 69.6219C31.7525 69.4319 31.8506 69.0098 31.6552 68.684C31.4595 68.3559 31.0419 68.245 30.7236 68.4362Z" fill="#923B5E"/>
<path d="M27.2675 70.5039C26.9493 70.6951 26.8513 71.116 27.0479 71.443C27.2432 71.77 27.66 71.882 27.9781 71.6908C28.2964 71.5007 28.3945 71.0798 28.1992 70.754C28.0034 70.4259 27.5858 70.3139 27.2675 70.5039Z" fill="#923B5E"/>
<path d="M23.8114 72.5725C23.4933 72.7637 23.3952 73.1835 23.5918 73.5116C23.7872 73.8375 24.2039 73.9506 24.5222 73.7594C24.8403 73.5693 24.9384 73.1484 24.7432 72.8226C24.5473 72.4945 24.1297 72.3825 23.8114 72.5725Z" fill="#923B5E"/>
<path d="M50.2085 26.9287C49.8262 26.9287 49.516 27.2341 49.516 27.6109C49.516 27.9876 49.8262 28.292 50.2085 28.292C50.5886 28.292 50.8988 27.9876 50.8988 27.6109C50.8988 27.2341 50.5886 26.9287 50.2085 26.9287Z" fill="#923B5E"/>
<path d="M50.2085 31.0196C49.8262 31.0196 49.516 31.324 49.516 31.7007C49.516 32.0775 49.8262 32.3818 50.2085 32.3818C50.5886 32.3818 50.8988 32.0775 50.8988 31.7007C50.8988 31.324 50.5886 31.0196 50.2085 31.0196Z" fill="#923B5E"/>
<path d="M50.2085 35.1085C49.8262 35.1085 49.516 35.4128 49.516 35.7896C49.516 36.1664 49.8262 36.4707 50.2085 36.4707C50.5886 36.4707 50.8988 36.1664 50.8988 35.7896C50.8988 35.4128 50.5886 35.1085 50.2085 35.1085Z" fill="#923B5E"/>
<path d="M50.2085 39.1982C49.8262 39.1982 49.516 39.5037 49.516 39.8793C49.516 40.2572 49.8262 40.5615 50.2085 40.5615C50.5886 40.5615 50.8988 40.2572 50.8988 39.8793C50.8988 39.5037 50.5886 39.1982 50.2085 39.1982Z" fill="#923B5E"/>
<path d="M50.2085 43.2861C49.8262 43.2861 49.516 43.5916 49.516 43.9683C49.516 44.3451 49.8262 44.6494 50.2085 44.6494C50.5886 44.6494 50.8988 44.3451 50.8988 43.9683C50.8988 43.5916 50.5886 43.2861 50.2085 43.2861Z" fill="#923B5E"/>
<path d="M50.2085 47.3759C49.8262 47.3759 49.516 47.6814 49.516 48.0582C49.516 48.4349 49.8262 48.7393 50.2085 48.7393C50.5886 48.7393 50.8988 48.4349 50.8988 48.0582C50.8988 47.6814 50.5886 47.3759 50.2085 47.3759Z" fill="#923B5E"/>
<path d="M50.2085 51.4658C49.8262 51.4658 49.516 51.7701 49.516 52.1469C49.516 52.5236 49.8262 52.8291 50.2085 52.8291C50.5886 52.8291 50.8988 52.5236 50.8988 52.1469C50.8988 51.7701 50.5886 51.4658 50.2085 51.4658Z" fill="#923B5E"/>
<path d="M50.2085 55.5558C49.8262 55.5558 49.516 55.8601 49.516 56.2357C49.516 56.6125 49.8262 56.918 50.2085 56.918C50.5886 56.918 50.8988 56.6125 50.8988 56.2357C50.8988 55.8601 50.5886 55.5558 50.2085 55.5558Z" fill="#923B5E"/>
<path d="M50.2085 59.6446C49.8262 59.6446 49.516 59.9501 49.516 60.3269C49.516 60.7036 49.8262 61.0068 50.2085 61.0068C50.5886 61.0068 50.8988 60.7036 50.8988 60.3269C50.8988 59.9501 50.5886 59.6446 50.2085 59.6446Z" fill="#923B5E"/>
<path d="M50.2085 63.7333C49.8262 63.7333 49.516 64.0388 49.516 64.4156C49.516 64.7923 49.8262 65.0967 50.2085 65.0967C50.5886 65.0967 50.8988 64.7923 50.8988 64.4156C50.8988 64.0388 50.5886 63.7333 50.2085 63.7333Z" fill="#923B5E"/>
<path d="M50.2085 67.8232C49.8262 67.8232 49.516 68.1275 49.516 68.5043C49.516 68.881 49.8262 69.1865 50.2085 69.1865C50.5886 69.1865 50.8988 68.881 50.8988 68.5043C50.8988 68.1275 50.5886 67.8232 50.2085 67.8232Z" fill="#923B5E"/>
<path d="M50.2085 71.912C49.8262 71.912 49.516 72.2175 49.516 72.5932C49.516 72.9699 49.8262 73.2754 50.2085 73.2754C50.5886 73.2754 50.8988 72.9699 50.8988 72.5932C50.8988 72.2175 50.5886 71.912 50.2085 71.912Z" fill="#923B5E"/>
<path d="M50.2085 76.0009C49.8262 76.0009 49.516 76.3064 49.516 76.6832C49.516 77.0599 49.8262 77.3643 50.2085 77.3643C50.5886 77.3643 50.8988 77.0599 50.8988 76.6832C50.8988 76.3064 50.5886 76.0009 50.2085 76.0009Z" fill="#923B5E"/>
<path d="M50.2085 80.0908C49.8262 80.0908 49.516 80.3951 49.516 80.7719C49.516 81.1486 49.8262 81.4541 50.2085 81.4541C50.5886 81.4541 50.8988 81.1486 50.8988 80.7719C50.8988 80.3951 50.5886 80.0908 50.2085 80.0908Z" fill="#923B5E"/>
<path d="M50.2085 84.1817C49.8262 84.1817 49.516 84.4861 49.516 84.8628C49.516 85.2396 49.8262 85.5439 50.2085 85.5439C50.5886 85.5439 50.8988 85.2396 50.8988 84.8628C50.8988 84.4861 50.5886 84.1817 50.2085 84.1817Z" fill="#923B5E"/>
<path d="M50.2085 88.2704C49.8262 88.2704 49.516 88.5759 49.516 88.9516C49.516 89.3294 49.8262 89.6338 50.2085 89.6338C50.5886 89.6338 50.8988 89.3294 50.8988 88.9516C50.8988 88.5759 50.5886 88.2704 50.2085 88.2704Z" fill="#923B5E"/>
<path d="M24.5332 41.5322C24.2137 41.3421 23.7961 41.4541 23.6007 41.7811C23.4049 42.1092 23.5056 42.5301 23.8248 42.7202C24.1452 42.9114 24.5628 42.7994 24.7585 42.4701C24.953 42.1443 24.8536 41.7234 24.5332 41.5322Z" fill="#923B5E"/>
<path d="M28.0035 43.6015C27.6845 43.4114 27.2668 43.5234 27.0724 43.8504C26.8765 44.1785 26.976 44.5994 27.2955 44.7894C27.6159 44.9807 28.0336 44.8686 28.2289 44.5405C28.4234 44.2136 28.324 43.7927 28.0035 43.6015Z" fill="#923B5E"/>
<path d="M31.4749 45.6719C31.1545 45.4807 30.7367 45.5928 30.5424 45.9197C30.347 46.2478 30.4464 46.6698 30.7668 46.8588C31.0859 47.05 31.5036 46.938 31.6993 46.6099C31.8938 46.2829 31.7944 45.8631 31.4749 45.6719Z" fill="#923B5E"/>
<path d="M34.9456 47.7414C34.6251 47.5502 34.2084 47.6622 34.013 47.9892C33.8173 48.3184 33.918 48.7382 34.2372 48.9294C34.5562 49.1206 34.9739 49.0075 35.1697 48.6793C35.3654 48.3524 35.2647 47.9315 34.9456 47.7414Z" fill="#923B5E"/>
<path d="M38.4158 49.8103C38.0963 49.6191 37.6791 49.7311 37.4833 50.058C37.288 50.3873 37.3882 50.807 37.7078 50.9982C38.0283 51.1883 38.4454 51.0763 38.6403 50.7482C38.8356 50.4212 38.7362 50.0004 38.4158 49.8103Z" fill="#923B5E"/>
<path d="M41.8866 51.8796C41.5671 51.6884 41.1495 51.8016 40.955 52.1285C40.7596 52.4555 40.8586 52.8764 41.1781 53.0676C41.4985 53.2577 41.9162 53.1457 42.112 52.8175C42.3065 52.4906 42.207 52.0697 41.8866 51.8796Z" fill="#923B5E"/>
<path d="M45.3581 53.9489C45.0377 53.7577 44.62 53.8709 44.4256 54.1978C44.2298 54.5248 44.3292 54.9457 44.6496 55.1369C44.9692 55.327 45.3869 55.215 45.5821 54.8869C45.7766 54.5599 45.6772 54.139 45.3581 53.9489Z" fill="#923B5E"/>
<path d="M48.8284 56.0183C48.508 55.8271 48.0916 55.9402 47.8958 56.2661C47.7005 56.5942 47.8 57.015 48.1204 57.2063C48.4394 57.3963 48.8572 57.2843 49.0529 56.9562C49.2483 56.6292 49.1479 56.2084 48.8284 56.0183Z" fill="#923B5E"/>
<path d="M52.2988 58.0861C51.9793 57.896 51.5617 58.008 51.3663 58.335C51.1706 58.6631 51.2713 59.084 51.5904 59.2741C51.9108 59.4653 52.3275 59.3521 52.5229 59.0252C52.7187 58.6982 52.6192 58.2773 52.2988 58.0861Z" fill="#923B5E"/>
<path d="M55.7692 60.1554C55.4501 59.9654 55.0325 60.0774 54.838 60.4043C54.6422 60.7325 54.7416 61.1533 55.0611 61.3434C55.3817 61.5346 55.7993 61.4215 55.9945 61.0945C56.189 60.7675 56.0896 60.3466 55.7692 60.1554Z" fill="#923B5E"/>
<path d="M59.2409 62.2266C58.9204 62.0366 58.5027 62.1474 58.3084 62.4744C58.113 62.8025 58.2124 63.2234 58.5328 63.4135C58.8519 63.6047 59.2696 63.4927 59.4653 63.1646C59.6598 62.8376 59.5604 62.4167 59.2409 62.2266Z" fill="#923B5E"/>
<path d="M62.7113 64.295C62.3909 64.1049 61.9732 64.2158 61.7787 64.5428C61.583 64.8709 61.6824 65.2918 62.0028 65.4818C62.3223 65.673 62.7401 65.561 62.9353 65.2329C63.1312 64.9059 63.0304 64.4862 62.7113 64.295Z" fill="#923B5E"/>
<path d="M66.1817 66.3653C65.8626 66.1752 65.445 66.2861 65.2491 66.6131C65.0538 66.9412 65.1542 67.3609 65.4737 67.5521C65.7941 67.7433 66.2103 67.6313 66.4062 67.3032C66.6015 66.9763 66.5012 66.5565 66.1817 66.3653Z" fill="#923B5E"/>
<path d="M69.6524 68.4353C69.3329 68.2441 68.9153 68.3561 68.7208 68.6842C68.5254 69.0112 68.6248 69.432 68.944 69.6232C69.2644 69.8133 69.682 69.7013 69.8778 69.3732C70.0722 69.0462 69.9728 68.6265 69.6524 68.4353Z" fill="#923B5E"/>
<path d="M73.124 70.5046C72.8036 70.3134 72.3859 70.4254 72.1915 70.7535C71.9957 71.0816 72.0951 71.5014 72.4155 71.6926C72.735 71.8827 73.1527 71.7706 73.348 71.4425C73.5425 71.1156 73.4431 70.6947 73.124 70.5046Z" fill="#923B5E"/>
<path d="M76.594 72.573C76.2736 72.3818 75.8559 72.4949 75.6615 72.8219C75.4661 73.1489 75.5656 73.5697 75.886 73.7609C76.205 73.951 76.6227 73.839 76.8185 73.5109C77.0139 73.1839 76.9135 72.763 76.594 72.573Z" fill="#923B5E"/>
<path d="M53.7803 22.6725C53.4634 22.4836 53.0481 22.5956 52.8523 22.9225C52.6569 23.2495 52.7528 23.6693 53.0688 23.8594C53.3862 24.0483 53.8016 23.9363 53.9969 23.6093C54.1927 23.2835 54.0963 22.8626 53.7803 22.6725Z" fill="#923B5E"/>
<path d="M57.2144 24.7327C56.8984 24.5426 56.483 24.6546 56.2876 24.9805C56.091 25.3097 56.1869 25.7295 56.5029 25.9184C56.8202 26.1085 57.2356 25.9954 57.4324 25.6684C57.6276 25.3414 57.5305 24.9217 57.2144 24.7327Z" fill="#923B5E"/>
<path d="M60.6483 26.791C60.3323 26.602 59.9168 26.7152 59.7215 27.041C59.5249 27.368 59.6207 27.7877 59.9381 27.9778C60.2541 28.1667 60.6695 28.0536 60.8662 27.7266C61.0616 27.4008 60.9656 26.981 60.6483 26.791Z" fill="#923B5E"/>
<path d="M64.0837 28.8496C63.7663 28.6607 63.3509 28.7727 63.1555 29.0985C62.9589 29.4266 63.0562 29.8464 63.3722 30.0353C63.6881 30.2254 64.1035 30.1134 64.3003 29.7864C64.4955 29.4594 64.3997 29.0397 64.0837 28.8496Z" fill="#923B5E"/>
<path d="M67.5178 30.9093C67.2004 30.7204 66.7851 30.8324 66.5897 31.1583C66.394 31.4864 66.4903 31.9061 66.8063 32.0962C67.1232 32.2863 67.5386 32.1731 67.7343 31.845C67.9297 31.5192 67.8338 31.0994 67.5178 30.9093Z" fill="#923B5E"/>
<path d="M70.9517 32.9681C70.6357 32.778 70.2203 32.8911 70.0244 33.2181C69.8278 33.5451 69.9242 33.9648 70.2402 34.1538C70.557 34.3438 70.9724 34.2307 71.1692 33.9037C71.3649 33.5767 71.2677 33.1581 70.9517 32.9681Z" fill="#923B5E"/>
<path d="M74.3857 35.0274C74.0697 34.8373 73.6542 34.9504 73.4585 35.2763C73.2619 35.6044 73.3581 36.023 73.675 36.2131C73.991 36.4032 74.4065 36.2912 74.6031 35.9631C74.799 35.6372 74.7026 35.2163 74.3857 35.0274Z" fill="#923B5E"/>
<path d="M77.8205 37.0867C77.5036 36.8966 77.0881 37.0087 76.8924 37.3356C76.6957 37.6626 76.793 38.0835 77.109 38.2724C77.425 38.4614 77.8403 38.3494 78.037 38.0224C78.2328 37.6954 78.1365 37.2768 77.8205 37.0867Z" fill="#923B5E"/>
<path d="M80.6637 42.7367C80.2814 42.7367 79.9707 43.0444 79.9707 43.4234C79.9707 43.8036 80.2814 44.1113 80.6637 44.1113C81.0437 44.1113 81.3539 43.8036 81.3539 43.4234C81.3539 43.0444 81.0437 42.7367 80.6637 42.7367Z" fill="#923B5E"/>
<path d="M80.6637 46.8607C80.2814 46.8607 79.9707 47.1696 79.9707 47.5486C79.9707 47.9287 80.2814 48.2354 80.6637 48.2354C81.0437 48.2354 81.3539 47.9287 81.3539 47.5486C81.3539 47.1696 81.0437 46.8607 80.6637 46.8607Z" fill="#923B5E"/>
<path d="M80.6637 50.9837C80.2814 50.9837 79.9707 51.2915 79.9707 51.6705C79.9707 52.0506 80.2814 52.3584 80.6637 52.3584C81.0437 52.3584 81.3539 52.0506 81.3539 51.6705C81.3539 51.2915 81.0437 50.9837 80.6637 50.9837Z" fill="#923B5E"/>
<path d="M80.6637 55.1066C80.2814 55.1066 79.9707 55.4155 79.9707 55.7957C79.9707 56.1747 80.2814 56.4824 80.6637 56.4824C81.0437 56.4824 81.3539 56.1747 81.3539 55.7957C81.3539 55.4155 81.0437 55.1066 80.6637 55.1066Z" fill="#923B5E"/>
<path d="M80.6637 59.2318C80.2814 59.2318 79.9707 59.5395 79.9707 59.9186C79.9707 60.2976 80.2814 60.6064 80.6637 60.6064C81.0437 60.6064 81.3539 60.2976 81.3539 59.9186C81.3539 59.5395 81.0437 59.2318 80.6637 59.2318Z" fill="#923B5E"/>
<path d="M80.6637 63.355C80.2814 63.355 79.9707 63.6616 79.9707 64.0417C79.9707 64.4208 80.2814 64.7285 80.6637 64.7285C81.0437 64.7285 81.3539 64.4208 81.3539 64.0417C81.3539 63.6616 81.0437 63.355 80.6637 63.355Z" fill="#923B5E"/>
<path d="M80.6637 67.4789C80.2814 67.4789 79.9707 67.7855 79.9707 68.1668C79.9707 68.5446 80.2814 68.8535 80.6637 68.8535C81.0437 68.8535 81.3539 68.5446 81.3539 68.1668C81.3539 67.7855 81.0437 67.4789 80.6637 67.4789Z" fill="#923B5E"/>
<path d="M80.6637 71.6021C80.2814 71.6021 79.9707 71.9087 79.9707 72.2888C79.9707 72.6678 80.2814 72.9756 80.6637 72.9756C81.0437 72.9756 81.3539 72.6678 81.3539 72.2888C81.3539 71.9087 81.0437 71.6021 80.6637 71.6021Z" fill="#923B5E"/>
<path d="M77.109 77.4404C76.793 77.6305 76.6957 78.0503 76.8924 78.3772C77.0881 78.7042 77.5036 78.8162 77.8205 78.6261C78.1365 78.4372 78.2328 78.0174 78.037 77.6905C77.8403 77.3635 77.425 77.2515 77.109 77.4404Z" fill="#923B5E"/>
<path d="M73.675 79.5003C73.3581 79.6892 73.2619 80.109 73.4585 80.4359C73.6542 80.7629 74.0697 80.8761 74.3857 80.686C74.7026 80.4959 74.799 80.0773 74.6031 79.7503C74.4065 79.4233 73.991 79.3102 73.675 79.5003Z" fill="#923B5E"/>
<path d="M70.2402 81.5576C69.9242 81.7477 69.8278 82.1674 70.0244 82.4944C70.2203 82.8214 70.6357 82.9334 70.9517 82.7433C71.2677 82.5544 71.3649 82.1346 71.1692 81.8088C70.9724 81.4807 70.557 81.3675 70.2402 81.5576Z" fill="#923B5E"/>
<path d="M66.8063 83.6166C66.4903 83.8067 66.394 84.2264 66.5897 84.5534C66.7851 84.8793 67.2004 84.9913 67.5178 84.8035C67.8338 84.6134 67.9297 84.1925 67.7343 83.8667C67.5386 83.5397 67.1232 83.4277 66.8063 83.6166Z" fill="#923B5E"/>
<path d="M63.3722 85.6761C63.0562 85.865 62.9589 86.2848 63.1555 86.6117C63.3509 86.9387 63.7663 87.0518 64.0837 86.8618C64.3997 86.6717 64.4955 86.2531 64.3003 85.9261C64.1035 85.5991 63.6881 85.486 63.3722 85.6761Z" fill="#923B5E"/>
<path d="M59.9381 87.7343C59.6207 87.9244 59.5249 88.343 59.7215 88.6723C59.9168 88.9981 60.3323 89.1101 60.6483 88.92C60.9656 88.7311 61.0616 88.3113 60.8662 87.9855C60.6695 87.6574 60.2541 87.5443 59.9381 87.7343Z" fill="#923B5E"/>
<path d="M56.5029 89.7922C56.1869 89.9823 56.091 90.4021 56.2876 90.729C56.483 91.0549 56.8984 91.168 57.2144 90.9779C57.5305 90.7879 57.6276 90.3693 57.4324 90.0423C57.2356 89.7153 56.8202 89.6033 56.5029 89.7922Z" fill="#923B5E"/>
<path d="M53.0688 91.8518C52.7528 92.0408 52.6569 92.4605 52.8523 92.7875C53.0481 93.1145 53.4634 93.2276 53.7803 93.0376C54.0963 92.8475 54.1927 92.4289 53.9969 92.1019C53.8016 91.7749 53.3862 91.6618 53.0688 91.8518Z" fill="#923B5E"/>
<path d="M47.3456 91.8518C47.0296 91.6618 46.6141 91.7749 46.4175 92.1019C46.2221 92.4289 46.3181 92.8475 46.6354 93.0376C46.9514 93.2276 47.3669 93.1145 47.5621 92.7875C47.7589 92.4605 47.6629 92.0408 47.3456 91.8518Z" fill="#923B5E"/>
<path d="M43.9115 89.7922C43.5955 89.6033 43.1801 89.7153 42.9833 90.0423C42.7881 90.3693 42.884 90.7879 43.2012 90.9779C43.5172 91.168 43.9327 91.0549 44.1281 90.729C44.3247 90.4021 44.2288 89.9823 43.9115 89.7922Z" fill="#923B5E"/>
<path d="M40.4791 87.7344C40.1617 87.5443 39.7463 87.6574 39.551 87.9855C39.3542 88.3114 39.4515 88.7311 39.7675 88.9201C40.0835 89.1102 40.499 88.9982 40.6943 88.6712C40.8909 88.3431 40.7951 87.9244 40.4791 87.7344Z" fill="#923B5E"/>
<path d="M37.045 85.6761C36.729 85.486 36.3123 85.5991 36.1169 85.9261C35.9212 86.2531 36.0175 86.6717 36.3335 86.8618C36.6504 87.0518 37.0658 86.9387 37.2616 86.6117C37.457 86.2848 37.361 85.865 37.045 85.6761Z" fill="#923B5E"/>
<path d="M33.6111 83.616C33.2951 83.427 32.8797 83.5391 32.683 83.866C32.4872 84.1919 32.5836 84.6127 32.8996 84.8017C33.2164 84.9906 33.6318 84.8786 33.8277 84.5528C34.0243 84.2258 33.9271 83.8061 33.6111 83.616Z" fill="#923B5E"/>
<path d="M30.1771 81.5576C29.8611 81.3675 29.4457 81.4807 29.249 81.8088C29.0532 82.1346 29.1496 82.5544 29.4665 82.7433C29.7825 82.9334 30.1979 82.8214 30.3937 82.4944C30.5903 82.1663 30.494 81.7477 30.1771 81.5576Z" fill="#923B5E"/>
<path d="M26.7432 79.5003C26.4272 79.3102 26.0118 79.4233 25.815 79.7503C25.6193 80.0773 25.7156 80.4959 26.0325 80.686C26.3485 80.8761 26.7639 80.7629 26.9598 80.4359C27.1564 80.109 27.06 79.6892 26.7432 79.5003Z" fill="#923B5E"/>
<path d="M23.31 77.4407C22.9931 77.2517 22.5776 77.3637 22.3819 77.6907C22.1852 78.0166 22.2825 78.4374 22.5985 78.6264C22.9145 78.8165 23.3299 78.7033 23.5256 78.3775C23.7223 78.0505 23.626 77.6308 23.31 77.4407Z" fill="#923B5E"/>
<path d="M19.7558 71.6021C19.3756 71.6021 19.0649 71.9087 19.0649 72.2888C19.0649 72.6678 19.3756 72.9756 19.7558 72.9756C20.1381 72.9756 20.4483 72.6678 20.4483 72.2888C20.4483 71.9087 20.1381 71.6021 19.7558 71.6021Z" fill="#923B5E"/>
<path d="M19.7558 67.4789C19.3756 67.4789 19.0649 67.7855 19.0649 68.1668C19.0649 68.5446 19.3756 68.8535 19.7558 68.8535C20.1381 68.8535 20.4483 68.5446 20.4483 68.1668C20.4483 67.7855 20.1381 67.4789 19.7558 67.4789Z" fill="#923B5E"/>
<path d="M19.7558 63.355C19.3756 63.355 19.0649 63.6616 19.0649 64.0417C19.0649 64.4208 19.3756 64.7285 19.7558 64.7285C20.1381 64.7285 20.4483 64.4208 20.4483 64.0417C20.4483 63.6616 20.1381 63.355 19.7558 63.355Z" fill="#923B5E"/>
<path d="M19.7558 59.2318C19.3756 59.2318 19.0649 59.5395 19.0649 59.9186C19.0649 60.2976 19.3756 60.6064 19.7558 60.6064C20.1381 60.6064 20.4483 60.2976 20.4483 59.9186C20.4483 59.5395 20.1381 59.2318 19.7558 59.2318Z" fill="#923B5E"/>
<path d="M19.7558 55.1066C19.3756 55.1066 19.0649 55.4155 19.0649 55.7945C19.0649 56.1747 19.3756 56.4824 19.7558 56.4824C20.1381 56.4824 20.4483 56.1747 20.4483 55.7945C20.4483 55.4155 20.1381 55.1066 19.7558 55.1066Z" fill="#923B5E"/>
<path d="M19.7558 50.9837C19.3756 50.9837 19.0649 51.2915 19.0649 51.6705C19.0649 52.0506 19.3756 52.3584 19.7558 52.3584C20.1381 52.3584 20.4483 52.0506 20.4483 51.6705C20.4483 51.2915 20.1381 50.9837 19.7558 50.9837Z" fill="#923B5E"/>
<path d="M19.7558 46.8607C19.3756 46.8607 19.0649 47.1696 19.0649 47.5486C19.0649 47.9287 19.3756 48.2354 19.7558 48.2354C20.1381 48.2354 20.4483 47.9287 20.4483 47.5486C20.4483 47.1696 20.1381 46.8607 19.7558 46.8607Z" fill="#923B5E"/>
<path d="M19.7558 42.7367C19.3756 42.7367 19.0649 43.0444 19.0649 43.4234C19.0649 43.8036 19.3756 44.1113 19.7558 44.1113C20.1381 44.1113 20.4483 43.8036 20.4483 43.4234C20.4483 43.0444 20.1381 42.7367 19.7558 42.7367Z" fill="#923B5E"/>
<path d="M22.5985 37.0867C22.2825 37.2768 22.1852 37.6954 22.3819 38.0224C22.5776 38.3494 22.9931 38.4614 23.31 38.2724C23.626 38.0835 23.7223 37.6626 23.5256 37.3356C23.3299 37.0087 22.9145 36.8966 22.5985 37.0867Z" fill="#923B5E"/>
<path d="M26.0325 35.0274C25.7156 35.2163 25.6193 35.6372 25.815 35.9631C26.0118 36.2912 26.4272 36.4032 26.7432 36.2131C27.06 36.023 27.1564 35.6044 26.9598 35.2763C26.7639 34.9504 26.3485 34.8373 26.0325 35.0274Z" fill="#923B5E"/>
<path d="M29.4665 32.9681C29.1496 33.1581 29.0532 33.5767 29.249 33.9037C29.4457 34.2307 29.8611 34.3438 30.1771 34.1538C30.494 33.9648 30.5903 33.5451 30.3937 33.2181C30.1979 32.8911 29.7825 32.778 29.4665 32.9681Z" fill="#923B5E"/>
<path d="M32.8996 30.9093C32.5836 31.0994 32.4872 31.5192 32.683 31.845C32.8797 32.1731 33.2951 32.2863 33.6111 32.0962C33.9271 31.9061 34.0243 31.4864 33.8277 31.1583C33.6318 30.8324 33.2164 30.7204 32.8996 30.9093Z" fill="#923B5E"/>
<path d="M36.3335 28.8496C36.0175 29.0397 35.9212 29.4594 36.1169 29.7864C36.3123 30.1134 36.729 30.2254 37.045 30.0353C37.361 29.8464 37.457 29.4266 37.2616 29.0985C37.0658 28.7727 36.6495 28.6607 36.3335 28.8496Z" fill="#923B5E"/>
<path d="M39.7675 26.791C39.4515 26.981 39.3542 27.4008 39.551 27.7266C39.7463 28.0536 40.1617 28.1667 40.4791 27.9778C40.7951 27.7877 40.8909 27.368 40.6943 27.041C40.499 26.7152 40.0835 26.602 39.7675 26.791Z" fill="#923B5E"/>
<path d="M43.2012 24.7327C42.884 24.9217 42.7881 25.3414 42.9833 25.6684C43.1801 25.9954 43.5955 26.1085 43.9115 25.9184C44.2288 25.7283 44.3247 25.3097 44.1281 24.9816C43.9327 24.6546 43.5172 24.5426 43.2012 24.7327Z" fill="#923B5E"/>
<path d="M46.6354 22.6725C46.3181 22.8626 46.2221 23.2823 46.4175 23.6093C46.6141 23.9363 47.0296 24.0483 47.3456 23.8594C47.6629 23.6693 47.7589 23.2495 47.5621 22.9225C47.3669 22.5956 46.9514 22.4836 46.6354 22.6725Z" fill="#923B5E"/>
<path d="M50.207 92.3596C49.1366 92.3596 48.269 93.2602 48.269 94.3735C48.269 95.4868 49.1366 96.3896 50.207 96.3896C51.2802 96.3896 52.1485 95.4868 52.1485 94.3735C52.1485 93.2602 51.2802 92.3596 50.207 92.3596Z" fill="white"/>
<path d="M50.2073 95.8237C49.4507 95.8237 48.835 95.1731 48.835 94.3732C48.835 93.5745 49.4507 92.925 50.2073 92.925C50.9657 92.925 51.5831 93.5745 51.5831 94.3732C51.5831 95.1731 50.9657 95.8237 50.2073 95.8237ZM50.2073 91.7936C48.8271 91.7936 47.7036 92.9511 47.7036 94.3732C47.7036 95.7965 48.8271 96.9551 50.2073 96.9551C51.5898 96.9551 52.7145 95.7965 52.7145 94.3732C52.7145 92.9511 51.5898 91.7936 50.2073 91.7936Z" fill="#923B5E"/>
<path d="M19.7566 74.1C18.6835 74.1 17.8164 75.0006 17.8164 76.1128C17.8164 77.2272 18.6835 78.1289 19.7566 78.1289C20.8262 78.1289 21.6968 77.2272 21.6968 76.1128C21.6968 75.0006 20.8262 74.1 19.7566 74.1Z" fill="white"/>
<path d="M19.7567 77.5649C18.9986 77.5649 18.3821 76.9143 18.3821 76.1144C18.3821 75.3168 18.9986 74.6674 19.7567 74.6674C20.5146 74.6674 21.1311 75.3168 21.1311 76.1144C21.1311 76.9143 20.5146 77.5649 19.7567 77.5649ZM19.7567 73.536C18.3751 73.536 17.2507 74.6923 17.2507 76.1144C17.2507 77.5389 18.3751 78.6963 19.7567 78.6963C21.1381 78.6963 22.2625 77.5389 22.2625 76.1144C22.2625 74.6923 21.1381 73.536 19.7567 73.536Z" fill="#923B5E"/>
<path d="M19.7566 37.579C18.684 37.579 17.8164 38.4819 17.8164 39.5963C17.8164 40.7073 18.684 41.6113 19.7566 41.6113C20.8262 41.6113 21.6968 40.7073 21.6968 39.5963C21.6968 38.4819 20.8262 37.579 19.7566 37.579Z" fill="white"/>
<path d="M19.7567 41.0473C18.9986 41.0473 18.3821 40.3968 18.3821 39.598C18.3821 38.797 18.9986 38.1464 19.7567 38.1464C20.5146 38.1464 21.1311 38.797 21.1311 39.598C21.1311 40.3968 20.5146 41.0473 19.7567 41.0473ZM19.7567 37.015C18.3751 37.015 17.2507 38.1736 17.2507 39.598C17.2507 41.0202 18.3751 42.1787 19.7567 42.1787C21.1381 42.1787 22.2625 41.0202 22.2625 39.598C22.2625 38.1736 21.1381 37.015 19.7567 37.015Z" fill="#923B5E"/>
<path d="M80.6623 74.0998C79.5919 74.0998 78.7234 75.0027 78.7234 76.116C78.7234 77.227 79.5919 78.1299 80.6623 78.1299C81.7353 78.1299 82.6038 77.227 82.6038 76.116C82.6038 75.0027 81.7353 74.0998 80.6623 74.0998Z" fill="white"/>
<path d="M80.6623 77.5649C79.9048 77.5649 79.2891 76.9155 79.2891 76.1167C79.2891 75.3179 79.9048 74.6662 80.6623 74.6662C81.4211 74.6662 82.0381 75.3179 82.0381 76.1167C82.0381 76.9155 81.4211 77.5649 80.6623 77.5649ZM80.6623 73.5348C79.2812 73.5348 78.1577 74.6934 78.1577 76.1167C78.1577 77.54 79.2812 78.6963 80.6623 78.6963C82.0448 78.6963 83.1695 77.54 83.1695 76.1167C83.1695 74.6934 82.0448 73.5348 80.6623 73.5348Z" fill="#923B5E"/>
<path d="M80.6623 37.5813C79.5919 37.5813 78.7234 38.483 78.7234 39.5963C78.7234 40.7085 79.5919 41.6113 80.6623 41.6113C81.7353 41.6113 82.6038 40.7085 82.6038 39.5963C82.6038 38.483 81.7353 37.5813 80.6623 37.5813Z" fill="white"/>
<path d="M80.6623 41.0473C79.9048 41.0473 79.2891 40.3968 79.2891 39.598C79.2891 38.7981 79.9048 38.1487 80.6623 38.1487C81.4211 38.1487 82.0381 38.7981 82.0381 39.598C82.0381 40.3968 81.4211 41.0473 80.6623 41.0473ZM80.6623 37.0173C79.2812 37.0173 78.1577 38.1747 78.1577 39.598C78.1577 41.0202 79.2812 42.1787 80.6623 42.1787C82.0448 42.1787 83.1695 41.0202 83.1695 39.598C83.1695 38.1747 82.0448 37.0173 80.6623 37.0173Z" fill="#923B5E"/>
<path d="M50.207 20.174C49.1366 20.174 48.269 21.0746 48.269 22.1879C48.269 23.3001 49.1366 24.2041 50.207 24.2041C51.2802 24.2041 52.1485 23.3001 52.1485 22.1879C52.1485 21.0746 51.2802 20.174 50.207 20.174Z" fill="white"/>
<path d="M50.2073 23.6381C49.4507 23.6381 48.835 22.9876 48.835 22.1877C48.835 21.39 49.4507 20.7395 50.2073 20.7395C50.9657 20.7395 51.5831 21.39 51.5831 22.1877C51.5831 22.9876 50.9657 23.6381 50.2073 23.6381ZM50.2073 19.6081C48.8271 19.6081 47.7036 20.7655 47.7036 22.1877C47.7036 23.6121 48.8271 24.7695 50.2073 24.7695C51.5898 24.7695 52.7145 23.6121 52.7145 22.1877C52.7145 20.7655 51.5898 19.6081 50.2073 19.6081Z" fill="#923B5E"/>
<path d="M37.4405 77.87C37.4405 77.87 15.6708 81.8865 11.5089 84.2375C9.9245 85.1381 10.2347 86.868 10.5366 88.1431C10.8248 89.4194 12.4017 90.4433 14.2755 90.4093C21.2549 90.2555 35.4761 90.2057 42.9252 88.9736C50.3611 87.7426 50.5401 82.9681 49.4206 79.5366C48.3069 76.105 37.4405 77.87 37.4405 77.87Z" fill="#FFA47C"/>
<path d="M88.7733 84.454C84.5969 82.1256 62.8086 78.2188 62.8086 78.2188C62.8086 78.2188 51.9374 76.5081 50.8435 79.9442C49.7342 83.3792 49.9367 88.1548 57.3769 89.3507C64.8328 90.5421 79.0513 90.5183 86.0332 90.6382C87.9058 90.6631 89.48 89.6313 89.7612 88.3539C90.0582 87.0766 90.36 85.3467 88.7733 84.454Z" fill="#FFA47C"/>
<path d="M38.7266 37.4296C35.0165 37.4273 35.2957 44.9772 34.7645 49.6204C34.2306 54.2603 30.4298 62.627 34.3889 63.4609C38.3488 64.2936 39.7719 55.9619 41.3881 48.0636C43.0048 40.163 43.3238 37.4318 38.7266 37.4296Z" fill="#FFA47C"/>
<path d="M33.1079 59.8774C30.7182 61.9252 29.8078 63.3678 26.8079 67.167C23.8136 70.9651 19.3676 76.7817 19.3676 76.7817L21.2017 78.2842C21.2017 78.2842 26.4224 74.3446 29.6332 71.5886C33.1048 68.6062 35.6792 65.9677 36.4371 63.6122C37.6923 59.6839 33.1079 59.8774 33.1079 59.8774Z" fill="#FFBD95"/>
<path d="M20.2294 76.2528C18.8453 76.2562 17.5931 76.7065 16.2076 78.338C14.8221 79.974 12.524 83.806 13.1913 84.1658C13.8565 84.5245 15.0268 82.2707 16.5391 81.2253C18.7458 79.6979 20.2595 80.3326 21.1183 78.9625C21.8824 77.7542 21.6149 76.2528 20.2294 76.2528Z" fill="#FFBD95"/>
<path d="M18.5756 80.0544C17.5268 80.9991 16.8586 81.9574 17.0863 82.2006C17.3139 82.4394 18.3467 81.868 19.3963 80.9222C20.4438 79.9774 21.1102 79.0169 20.8848 78.7759C20.6568 78.5394 19.6261 79.1096 18.5756 80.0544Z" fill="#FFBD95"/>
<path d="M61.3268 37.965C56.7297 37.9661 57.0488 40.6985 58.6641 48.6002C60.2807 56.4974 61.7038 64.8268 65.6646 63.9952C69.6224 63.1613 65.8237 54.7958 65.2881 50.1559C64.7578 45.5115 65.037 37.9616 61.3268 37.965Z" fill="#FFA47C"/>
<path d="M66.9461 60.414C66.9461 60.414 62.3608 60.2205 63.616 64.1476C64.373 66.5055 66.9483 69.1416 70.4198 72.1229C73.6298 74.8812 78.8501 78.8174 78.8501 78.8174L80.6842 77.3171C80.6842 77.3171 76.2395 71.5017 73.2439 67.7002C70.2466 63.9044 69.3362 62.4618 66.9461 60.414Z" fill="#FFBD95"/>
<path d="M79.8225 76.787C78.4384 76.787 78.1709 78.2872 78.9341 79.4978C79.7938 80.8657 81.3075 80.231 83.5151 81.7584C85.0279 82.806 86.1977 85.0587 86.8629 84.7C87.5271 84.3391 85.232 80.507 83.8434 78.8721C82.4588 77.2418 81.2071 76.7892 79.8225 76.787Z" fill="#FFBD95"/>
<path d="M81.4776 80.589C80.428 79.6443 79.396 79.0729 79.1675 79.3105C78.9431 79.5515 79.6094 80.5132 80.6569 81.4568C81.7074 82.4026 82.7385 82.9717 82.9661 82.7341C83.1924 82.4932 82.5251 81.5348 81.4776 80.589Z" fill="#FFBD95"/>
<path d="M53.4225 28.158C53.4557 26.6905 47.2167 26.5231 47.1932 27.9917C47.1017 33.4382 44.9493 34.7201 44.9493 34.7201C44.9493 34.7201 44.9525 40.6181 50.2052 40.8059C55.2027 40.9824 55.448 34.7337 55.448 34.7337C55.448 34.7337 53.2878 33.9937 53.4225 28.158Z" fill="#FFA47C"/>
<path d="M50.2052 11.2746C46.167 11.2746 42.3539 15.5592 42.8899 20.784C43.4556 26.3007 47.4598 30.6611 50.2052 30.6611C52.8879 30.6611 56.9153 26.2136 57.5218 20.784C58.1042 15.566 54.2482 11.2746 50.2052 11.2746Z" fill="#FFCAAA"/>
<path d="M63.4159 80.4182C62.741 72.8571 57.8045 71.0819 57.8045 66.1218C57.8045 61.1652 60.6409 47.1641 63.3633 39.6437C64.025 37.8096 55.395 34.7311 55.395 34.7311C54.6135 38.9037 50.1498 39.3189 50.1498 39.3189C50.1498 39.3189 46.6937 38.9037 44.895 34.7187C44.895 34.7187 36.1421 36.7212 37.1423 39.018C39.8536 45.2588 42.3882 61.1652 42.3882 66.1218C42.3882 71.0819 38.0314 73.158 36.889 80.4182C36.8041 80.959 36.7422 81.604 36.7034 82.3337C36.2416 91.0727 50.4495 88.1627 50.4495 88.1627C50.4495 88.1627 64.7886 91.6678 63.5101 81.6232C63.4539 81.1819 63.4474 80.7792 63.4159 80.4182Z" fill="#FFA47C"/>
<path d="M87.9589 84.6401C87.9589 84.6401 84.5823 83.2269 72.8609 82.2856C59.7724 81.2357 56.1073 81.4156 50.4362 81.1961C44.746 80.9675 40.8435 79.7999 37.4723 79.448C35.3288 79.2319 33.1844 79.7943 33.1469 81.5491C33.1213 82.8513 34.3587 84.2226 35.9687 84.3787C36.5026 84.4296 37.4038 84.3979 38.6174 84.3651C41.0662 84.3006 44.7892 84.235 49.3445 84.8618C56.1537 85.802 64.1588 89.6838 69.3031 90.8515C74.444 92.0168 81.0326 91.6627 85.2134 91.08C89.3855 90.4917 92.0572 87.3645 87.9589 84.6401Z" fill="#FFBD95"/>
<path d="M38.2782 79.509C38.2782 79.509 31.1216 78.2905 30.1462 80.7796C29.1695 83.2641 33.821 84.6388 38.1456 84.4589C38.1456 84.4589 33.4794 83.7178 33.9501 81.6044C34.4088 79.5509 38.2782 79.509 38.2782 79.509Z" fill="#FFBD95"/>
<path d="M62.814 79.448C59.4397 79.7999 55.5394 80.9675 49.8483 81.1961C44.1767 81.4156 40.5142 81.2357 27.4258 82.2856C15.7038 83.2269 12.3242 84.6401 12.3242 84.6401C8.22822 87.3645 10.8989 90.4917 15.0709 91.08C19.2519 91.6627 25.8401 92.0168 30.9822 90.8515C36.1243 89.6838 44.1294 85.802 50.9431 84.8618C55.4983 84.235 59.2209 84.3006 61.6693 84.3651C62.8829 84.3979 63.7831 84.4296 64.3166 84.3787C65.9275 84.2226 67.1663 82.8513 67.1398 81.5491C67.1 79.7943 64.9565 79.2319 62.814 79.448Z" fill="#FFBD95"/>
<path d="M62.0096 79.509C62.0096 79.509 65.8767 79.5509 66.3319 81.6044C66.8061 83.7178 62.1435 84.4589 62.1435 84.4589C66.4645 84.6388 71.1152 83.2641 70.1416 80.7796C69.1649 78.2905 62.0096 79.509 62.0096 79.509Z" fill="#FFBD95"/>
<path d="M50.2052 11.2734C46.167 11.2734 42.3539 15.558 42.8899 20.7828C42.9151 21.0385 42.9836 21.275 43.0234 21.5228C43.8477 17.7393 46.8985 14.9685 50.1367 14.9685C53.4602 14.9685 56.6148 17.8864 57.325 21.8203C57.3936 21.4718 57.4833 21.1392 57.5218 20.7828C58.1042 15.5648 54.2482 11.2734 50.2052 11.2734Z" fill="#3B0500"/>
<path d="M50.1983 84.2031C48.6259 84.2031 47.3522 85.4782 47.3522 87.0509C47.3522 88.6235 48.6259 89.8975 50.1983 89.8975C51.7717 89.8975 53.0458 88.6235 53.0458 87.0509C53.0458 85.4782 51.7717 84.2031 50.1983 84.2031Z" fill="#FF0004"/>
<path d="M50.3485 71.0928C48.7766 71.0928 47.5001 72.3656 47.5001 73.9382C47.5001 75.5132 48.7766 76.7871 50.3485 76.7871C51.9211 76.7871 53.1947 75.5132 53.1947 73.9382C53.1947 72.3656 51.9211 71.0928 50.3485 71.0928Z" fill="#FF5B04"/>
<path d="M50.3485 59.6641C48.7766 59.6641 47.5001 60.938 47.5001 62.5118C47.5001 64.0833 48.7766 65.3584 50.3485 65.3584C51.9211 65.3584 53.1947 64.0833 53.1947 62.5118C53.1947 60.938 51.9211 59.6641 50.3485 59.6641Z" fill="#FFFF04"/>
<path d="M50.3485 44.647C48.7766 44.647 47.5001 45.9221 47.5001 47.4959C47.5001 49.0685 48.7766 50.3447 50.3485 50.3447C51.9211 50.3447 53.1947 49.0685 53.1947 47.4959C53.1947 45.9221 51.9211 44.647 50.3485 44.647Z" fill="#00C404"/>
<path d="M50.3485 33.4696C48.7766 33.4696 47.5001 34.7447 47.5001 36.3173C47.5001 37.8922 48.7766 39.165 50.3485 39.165C51.9211 39.165 53.1947 37.8922 53.1947 36.3173C53.1947 34.7447 51.9211 33.4696 50.3485 33.4696Z" fill="#00B3FF"/>
<path d="M50.2086 19.251C48.6353 19.251 47.3624 20.5272 47.3624 22.0998C47.3624 23.6725 48.6353 24.9453 50.2086 24.9453C51.7819 24.9453 53.0556 23.6725 53.0556 22.0998C53.0556 20.5272 51.7819 19.251 50.2086 19.251Z" fill="#000CFF"/>
<path d="M50.2051 8.42674C48.633 8.42674 47.358 9.70185 47.358 11.2734C47.358 12.846 48.633 14.1211 50.2051 14.1211C51.7775 14.1211 53.0526 12.846 53.0526 11.2734C53.0526 9.70185 51.7775 8.42674 50.2051 8.42674Z" fill="#C400FF"/>
<mask id="mask0_130_4833" style="mask-type:luminance" maskUnits="userSpaceOnUse" x="10" y="8" width="80" height="84">
<path d="M16.5391 81.2255C17.1702 80.7899 17.7368 80.5376 18.2552 80.3577C17.3965 81.1961 16.8829 81.9835 17.0863 82.2007C17.1393 82.2573 17.2405 82.2641 17.3722 82.237C16.4255 82.4915 15.5425 82.7438 14.7483 82.9905C15.2698 82.3852 15.8686 81.6894 16.5391 81.2255ZM29.6333 71.5893C33.1049 68.607 35.6793 65.9685 36.4372 63.613C36.5322 63.3165 36.5839 63.0506 36.6162 62.7995C38.4667 61.1488 39.5773 56.8053 40.5837 51.9991C41.6655 57.7364 42.3881 63.4828 42.3881 66.1224C42.3881 70.4455 39.0788 72.5816 37.4736 77.8652L37.4404 77.8709C37.4404 77.8709 25.3251 80.1065 17.4429 82.2177C17.8862 82.0921 18.6353 81.6079 19.3964 80.9223C19.9987 80.3792 20.4659 79.8361 20.72 79.4232C20.8637 79.2987 20.9984 79.1527 21.1182 78.9627C21.3003 78.6742 21.4205 78.3687 21.4846 78.07C22.6005 77.2226 26.8622 73.9675 29.6333 71.5893ZM70.4199 72.1222C73.191 74.5038 77.4528 77.7566 78.5687 78.604C78.6315 78.9027 78.7521 79.2082 78.9341 79.4978C79.0535 79.6879 79.1882 79.8339 79.3333 79.9572C79.5874 80.3713 80.0555 80.9143 80.6569 81.4563C80.9362 81.7075 81.2124 81.9292 81.4746 82.1193C74.3401 80.3385 64.7651 78.5757 63.0724 78.2669C61.7665 72.4707 57.8044 70.5711 57.8044 66.1224C57.8044 63.5745 58.557 58.6325 59.6553 53.4122C60.6143 57.8643 61.6993 61.7846 63.4371 63.3335C63.4693 63.5847 63.521 63.8505 63.6161 64.147C64.3731 66.5048 66.9484 69.141 70.4199 72.1222ZM83.5151 81.7584C84.0056 82.0978 84.4555 82.5639 84.8688 83.0267C84.2795 82.8558 83.6512 82.6827 82.9904 82.5074C82.9184 82.1623 82.4667 81.5457 81.7958 80.8895C82.3151 81.0705 82.8831 81.3205 83.5151 81.7584ZM89.9676 87.18C90.0714 86.1573 89.907 85.0915 88.7734 84.4545C88.3102 84.1954 87.6208 83.9171 86.778 83.6286C86.256 82.2788 84.8254 80.0285 83.8434 78.8722C82.6179 77.4296 81.4966 76.9114 80.2954 76.8085C79.1543 75.3184 75.7101 70.8302 73.244 67.6996C70.4641 64.1798 69.4653 62.6784 67.4314 60.8467C67.3607 57.7738 65.6366 53.1792 65.2875 50.1561C64.8734 46.5288 64.9455 41.1478 63.2329 38.9563C62.1589 37.2015 55.923 34.9229 55.4466 34.7498L55.4478 34.7339C55.4478 34.7339 53.5209 34.0675 53.4224 29.069C55.3559 27.3029 57.1348 24.2469 57.5215 20.7837C57.967 16.791 55.8111 13.347 52.964 11.9475C53.0171 11.7314 53.0525 11.5074 53.0525 11.2743C53.0525 9.70278 51.7774 8.42768 50.205 8.42768C48.6329 8.42768 47.3579 9.70278 47.3579 11.2743C47.3579 11.5085 47.3941 11.7325 47.4472 11.9509C44.6155 13.3504 42.4796 16.7887 42.8897 20.7837C43.261 24.4087 45.1181 27.5246 47.1268 29.2421C46.7577 33.6308 44.9492 34.7203 44.9492 34.7203L44.9537 34.8403L44.8949 34.7192C44.8949 34.7192 39.0301 36.0633 37.4545 37.8102C35.0804 39.3851 35.2249 45.5942 34.7644 49.622C34.4162 52.6463 32.6938 57.2398 32.6218 60.3126C30.5889 62.1444 29.5892 63.6458 26.8079 67.1678C24.3423 70.2961 20.8968 74.7855 19.7566 76.2745C18.5557 76.3774 17.4327 76.8945 16.2076 78.3382C15.1116 79.6313 13.4512 82.2935 13.1317 83.5301C12.4554 83.7779 11.903 84.0155 11.5088 84.2384C10.3266 84.9105 10.2007 86.043 10.3363 87.1043C9.96419 89.0016 12.1417 90.667 15.0709 91.08C19.2519 91.6627 25.84 92.0168 30.9821 90.8515C32.0574 90.6071 33.2618 90.2405 34.55 89.8117C37.7087 89.6182 40.638 89.3523 42.9251 88.9745C43.5186 88.876 44.0498 88.7482 44.5536 88.6079C45.7103 88.6565 46.8284 88.6079 47.7742 88.5253C48.2736 89.3444 49.1677 89.8977 50.1983 89.8977C51.2205 89.8977 52.1098 89.3546 52.6114 88.5457C53.2844 88.635 54.0699 88.7131 54.9087 88.7425C55.6255 88.996 56.4444 89.2007 57.3769 89.3512C59.9522 89.7619 63.3411 90.0278 66.9542 90.2043C67.7849 90.4623 68.5748 90.6863 69.3031 90.8515C74.4439 92.0168 81.0325 91.6627 85.2134 91.08C86.093 90.9567 86.8982 90.7134 87.5956 90.3921C88.548 90.0764 89.2905 89.4813 89.6175 88.7618C89.9224 88.273 90.0573 87.7378 89.9676 87.18Z" fill="white"/>
</mask>
<g mask="url(#mask0_130_4833)">
<path d="M15.0555 91.0791C15.0537 91.078 15.0523 91.078 15.0511 91.078C15.0523 91.078 15.0541 91.078 15.0555 91.0791ZM15.0395 91.0768C15.0382 91.0757 15.0369 91.0757 15.0351 91.0757C15.0369 91.0757 15.0377 91.0757 15.0395 91.0768ZM15.021 91.0734C15.0192 91.0734 15.017 91.0734 15.0148 91.0723C15.017 91.0734 15.0188 91.0734 15.021 91.0734ZM14.9715 91.0667C14.9688 91.0655 14.9662 91.0655 14.9635 91.0655C14.9662 91.0655 14.9684 91.0655 14.9715 91.0667ZM14.9574 91.0644C14.9533 91.0633 14.9494 91.0633 14.9463 91.0621C14.9498 91.0633 14.9533 91.0633 14.9574 91.0644ZM14.9366 91.061C14.934 91.0599 14.9313 91.0599 14.9291 91.0599C14.9313 91.0599 14.934 91.061 14.9366 91.061ZM14.9211 91.0587C14.9189 91.0576 14.9167 91.0576 14.9141 91.0576C14.9162 91.0576 14.9189 91.0576 14.9211 91.0587ZM14.8849 91.0531C14.8835 91.052 14.8826 91.0519 14.8814 91.0519C14.8822 91.0519 14.8835 91.052 14.8849 91.0531ZM14.8677 91.0497C14.8668 91.0497 14.8663 91.0497 14.8654 91.0497C14.8659 91.0497 14.8672 91.0497 14.8677 91.0497ZM14.8499 91.0474C14.8491 91.0463 14.8487 91.0463 14.8478 91.0463C14.8482 91.0463 14.8491 91.0474 14.8499 91.0474ZM14.7987 91.0384C14.7982 91.0384 14.7982 91.0384 14.7982 91.0384H14.7987Z" fill="#632F44"/>
<path d="M31.0507 90.8368C31.0551 90.8357 31.0595 90.8357 31.0635 90.8345C31.0591 90.8357 31.0551 90.8357 31.0507 90.8368ZM31.082 90.83C31.0829 90.83 31.0843 90.83 31.0851 90.8289C31.0843 90.83 31.0834 90.83 31.082 90.83Z" fill="#5B233B"/>
<path d="M34.5557 89.8115C36.3186 89.2232 38.246 88.5104 40.2437 87.8044C41.5562 88.3237 43.0827 88.5466 44.5483 88.6088C44.0457 88.7491 43.5163 88.8759 42.925 88.9743C40.6392 89.3522 37.7126 89.6181 34.5557 89.8115Z" fill="#DA8363"/>
<path d="M17.0837 82.1977C17.0721 82.1853 17.0633 82.1706 17.0566 82.1547C17.0633 82.1706 17.0726 82.1853 17.0837 82.1977ZM16.5391 81.2258C17.1698 80.7903 17.7435 80.53 18.2614 80.349C18.2583 80.3524 18.2548 80.3558 18.2513 80.3592C17.7342 80.5391 17.1685 80.7914 16.5391 81.2258ZM15.314 79.5152C15.627 79.0671 15.9349 78.6598 16.2076 78.3385C15.9349 78.6598 15.6273 79.0671 15.314 79.5152ZM37.4404 77.8712L37.471 77.8656C37.4519 77.869 37.4413 77.8701 37.4404 77.8712ZM16.8829 77.6246C16.8852 77.6223 16.8883 77.6201 16.8904 77.6178C16.8878 77.6201 16.8857 77.6223 16.8829 77.6246Z" fill="#5B233B"/>
<path d="M42.3876 66.0439C42.3739 63.3704 41.6548 57.6818 40.5839 52.0021C40.5848 51.9987 40.5853 51.9965 40.5862 51.9931C41.658 57.6761 42.3739 63.3693 42.3876 66.0439ZM34.7621 49.6386C34.763 49.6341 34.7634 49.6284 34.7643 49.6228C34.7634 49.6284 34.763 49.633 34.7621 49.6386ZM34.7643 49.6228C34.7882 49.4112 34.8107 49.194 34.832 48.9722C34.8107 49.194 34.7887 49.4112 34.7643 49.6228Z" fill="#5B233B"/>
<path d="M34.8351 48.9402C34.8355 48.9345 34.8364 48.9277 34.8369 48.9209C34.8364 48.9277 34.8355 48.9334 34.8351 48.9402Z" fill="#832F4B"/>
<path d="M10.3323 87.0723C10.2037 86.0246 10.3372 84.9136 11.4942 84.246C11.4946 84.246 11.4951 84.2449 11.496 84.2449C11.4999 84.2426 11.5043 84.2404 11.5088 84.2381C11.9021 84.0163 12.4532 83.7787 13.1277 83.5321C13.0419 83.8613 13.0512 84.0899 13.1913 84.1657C13.2399 84.1917 13.2907 84.2042 13.3442 84.2042C13.7027 84.2042 14.1768 83.6532 14.7497 82.989C14.7492 82.989 14.7487 82.9902 14.7483 82.9902C15.5327 82.7469 16.4039 82.4969 17.3373 82.2457C17.3907 82.2366 17.4504 82.2208 17.5154 82.1982C25.2323 80.1379 36.9321 77.9645 37.4245 77.8728C37.4258 77.8728 37.4267 77.8728 37.4276 77.8728C37.428 77.8728 37.4285 77.8728 37.4285 77.8717C37.4315 77.8717 37.4343 77.8717 37.436 77.8706C37.4364 77.8706 37.4369 77.8706 37.4373 77.8706H37.4378C37.4382 77.8706 37.4387 77.8706 37.4391 77.8706H37.4395C37.4399 77.8706 37.4399 77.8706 37.4399 77.8706H37.4404C37.4413 77.8694 37.4519 77.8683 37.4709 77.8649C37.3281 78.3344 37.1995 78.8277 37.0873 79.3504C36.4221 79.2792 35.5457 79.2102 34.638 79.2102C32.7098 79.2102 30.6387 79.5213 30.146 80.7794C29.9599 81.2523 29.978 81.6845 30.1583 82.0737C29.2952 82.1382 28.3861 82.2084 27.4258 82.2853C15.7038 83.2266 12.3242 84.6398 12.3242 84.6398C11.1202 85.4408 10.5007 86.2758 10.3323 87.0723Z" fill="#DA8363"/>
<path d="M36.6259 62.79C36.9866 60.0113 33.8275 59.8767 33.2109 59.8767C33.1447 59.8767 33.1079 59.8778 33.1079 59.8778C32.9391 60.0226 32.7773 60.1652 32.6222 60.3044C32.6952 57.2892 34.3534 52.8133 34.7436 49.7914C34.7436 49.7891 34.744 49.7868 34.7445 49.7846C34.7445 49.7823 34.7449 49.7789 34.7454 49.7767C34.7458 49.7744 34.7463 49.7721 34.7463 49.7687C34.7467 49.7665 34.7472 49.7631 34.7472 49.7608C34.748 49.7563 34.7484 49.7518 34.7489 49.7472L34.7493 49.7461C34.7507 49.7348 34.7521 49.7223 34.7538 49.711C34.7538 49.7099 34.7538 49.711 34.7538 49.7099C34.7542 49.7042 34.7551 49.6986 34.756 49.6929C34.7573 49.6805 34.7586 49.6692 34.76 49.6579C34.76 49.6567 34.7604 49.6567 34.7604 49.6556C34.7609 49.6511 34.7613 49.6454 34.7621 49.6409C34.7621 49.6398 34.7621 49.6386 34.7621 49.6375C34.763 49.6318 34.7635 49.6273 34.7644 49.6217C34.7887 49.4101 34.8108 49.1928 34.832 48.9711C34.8328 48.962 34.8337 48.9519 34.8351 48.9428C34.8351 48.9417 34.8351 48.9417 34.8351 48.9405C34.8356 48.9338 34.8365 48.9281 34.8369 48.9213C35.2156 44.9207 35.2139 39.3259 37.4364 37.8223C37.0965 38.2047 36.9632 38.6063 37.1421 39.0182C38.4087 41.9338 39.6369 46.9595 40.5862 51.9919C40.5853 51.9953 40.5849 51.9976 40.584 52.001C40.584 52.001 40.584 51.9999 40.5836 51.9987C39.5791 56.797 38.4711 61.1325 36.6259 62.79Z" fill="#DA8363"/>
<path d="M21.489 78.0674C21.6896 77.1204 21.2826 76.2526 20.2294 76.2526C20.0708 76.2526 19.9139 76.2594 19.7583 76.2718C20.9003 74.7807 24.3432 70.2946 26.808 67.1674C29.5892 63.6454 30.5889 62.144 32.6218 60.3123C32.6218 60.31 32.6218 60.3066 32.6222 60.3044C32.7773 60.1652 32.9391 60.0226 33.1079 59.8778C33.1079 59.8778 33.1447 59.8767 33.2109 59.8767C33.8275 59.8767 36.9866 60.0113 36.6259 62.7901C36.6229 62.7935 36.6192 62.7968 36.6162 62.7991C36.5858 63.039 36.5371 63.2913 36.45 63.5707C36.446 63.5854 36.4416 63.599 36.4372 63.6126C36.1539 64.4928 35.6169 65.4127 34.875 66.3743C34.6159 66.7104 34.3322 67.0509 34.0255 67.3971C32.857 68.7141 31.3556 70.1091 29.6333 71.589C26.8654 73.9649 22.6111 77.2143 21.489 78.0674Z" fill="#DA9777"/>
<path d="M13.3442 84.2051C13.2907 84.2051 13.2399 84.1926 13.1913 84.1666C13.0512 84.0908 13.0419 83.8623 13.1277 83.533C13.1289 83.5319 13.1303 83.5319 13.1316 83.5308C13.3716 82.6019 14.3683 80.8686 15.314 79.5154C15.6273 79.0674 15.9349 78.6601 16.2076 78.3388C16.4343 78.0718 16.6575 77.8364 16.8785 77.6294C16.8799 77.6282 16.8811 77.6271 16.8829 77.6248C16.8856 77.6226 16.8878 77.6203 16.8904 77.6181C16.894 77.6147 16.8971 77.6113 16.9006 77.609C16.901 77.6079 16.9015 77.6079 16.9019 77.6067C17.8662 76.7129 18.7855 76.3588 19.7566 76.2751C19.7569 76.2751 19.7574 76.274 19.7583 76.2728C19.9138 76.2604 20.0708 76.2536 20.2294 76.2536C21.2826 76.2536 21.6896 77.1214 21.489 78.0684C21.4876 78.0684 21.4859 78.0695 21.4846 78.0706C21.4205 78.3693 21.3003 78.6748 21.1182 78.9633C21.0011 79.15 20.8693 79.2937 20.7292 79.4158C20.9154 79.1104 20.9803 78.8796 20.8848 78.7766C20.85 78.7404 20.7964 78.7234 20.7266 78.7234C20.3412 78.7234 19.4657 79.2552 18.5756 80.0551C18.4664 80.1535 18.3617 80.252 18.2614 80.3493C17.7435 80.5303 17.1697 80.7905 16.5391 81.2261C16.5356 81.2295 16.5321 81.2318 16.5285 81.234C15.8721 81.69 15.2853 82.3677 14.7722 82.9628C14.7646 82.9719 14.7571 82.9809 14.7497 82.99C14.1768 83.6541 13.7027 84.2051 13.3442 84.2051Z" fill="#DA9777"/>
<path d="M17.2409 82.2529C17.1834 82.2529 17.1366 82.2405 17.1034 82.2156C17.0973 82.2111 17.0915 82.2065 17.0862 82.2009C17.0853 82.1997 17.0844 82.1986 17.0836 82.1975C17.0725 82.185 17.0632 82.1703 17.0566 82.1545C17.0561 82.1534 17.0557 82.1522 17.0553 82.1511C17.0553 82.1511 17.0553 82.1511 17.0553 82.15C17.0549 82.15 17.0544 82.1488 17.054 82.1477V82.1466C17.0535 82.1466 17.0535 82.1454 17.0535 82.1454C16.958 81.8705 17.4583 81.1362 18.2552 80.3578C18.2538 80.3578 18.2526 80.359 18.2512 80.359C18.2547 80.3556 18.2582 80.3522 18.2614 80.3488C18.3616 80.2515 18.4664 80.153 18.5756 80.0546C19.4657 79.2547 20.3411 78.7229 20.7266 78.7229C20.7964 78.7229 20.8499 78.7399 20.8848 78.7761C20.9803 78.8791 20.9153 79.1099 20.7292 79.4154C20.7262 79.4176 20.723 79.4199 20.7199 79.4233C20.5064 79.7706 20.1419 80.2096 19.6734 80.6633C19.5846 80.7493 19.4922 80.8364 19.3963 80.9224C19.345 80.9688 19.2938 81.014 19.2425 81.0582C19.2407 81.0604 19.2389 81.0616 19.2377 81.0627C19.2368 81.0638 19.2359 81.0638 19.235 81.065C18.5306 81.6748 17.8548 82.1013 17.4428 82.2178C17.4671 82.2122 17.4915 82.2054 17.5153 82.1986C17.4504 82.2213 17.3907 82.2371 17.3373 82.2461C17.3487 82.2439 17.3607 82.2405 17.3721 82.2371C17.324 82.2473 17.2802 82.2529 17.2409 82.2529Z" fill="#DA9777"/>
<path d="M42.3846 66.3584C42.3846 66.3561 42.385 66.3539 42.385 66.3516C42.385 66.3539 42.385 66.3561 42.3846 66.3584ZM42.3877 66.2158C42.3877 66.2124 42.3877 66.2091 42.3877 66.2045C42.3877 66.2079 42.3877 66.2124 42.3877 66.2158ZM44.9528 34.8522C44.9333 34.8081 44.9139 34.764 44.8949 34.7199L44.9524 34.8387C44.9524 34.8432 44.9528 34.8477 44.9528 34.8522ZM44.9492 34.721C44.9492 34.721 46.755 33.6326 47.1259 29.2529C47.1276 29.2541 47.1294 29.2552 47.1308 29.2563C46.7612 33.6416 44.9492 34.721 44.9492 34.721ZM43.0881 22.0821C43.0037 21.6691 42.9379 21.2471 42.8929 20.8183C42.9379 21.246 43.0037 21.6691 43.0881 22.0821ZM42.8929 20.8161C42.8924 20.8104 42.8915 20.8048 42.8911 20.7991V20.8002C42.892 20.8059 42.8924 20.8104 42.8929 20.8161Z" fill="#5B233B"/>
<path d="M50.1497 39.3193C50.1497 39.3193 46.767 38.9132 44.9528 34.8514C44.9528 34.8469 44.9524 34.8424 44.9524 34.8378L44.9537 34.8401L44.9492 34.7202C44.9492 34.7202 46.7613 33.6408 47.1308 29.2555C48.1773 30.1493 49.265 30.6607 50.205 30.6607C50.2067 30.6607 50.2081 30.6607 50.2094 30.6607V33.4734C48.7019 33.5469 47.5002 34.7926 47.5002 36.3177C47.5002 37.8451 48.7019 39.0897 50.2094 39.1621V39.3125C50.1705 39.3182 50.1497 39.3193 50.1497 39.3193Z" fill="#DA8363"/>
<path d="M50.2051 30.6621C49.265 30.6621 48.1774 30.1507 47.1308 29.2569C47.1295 29.2558 47.1276 29.2546 47.1259 29.2535C47.1264 29.2501 47.1269 29.2467 47.1269 29.2433C45.367 27.7374 43.7225 25.159 43.0931 22.1042C43.0922 22.1008 43.0914 22.0974 43.0909 22.094C43.09 22.0906 43.0891 22.0861 43.0882 22.0827C43.0038 21.6697 42.938 21.2466 42.8929 20.8189C42.8929 20.8178 42.8929 20.8178 42.8929 20.8166C42.8925 20.811 42.892 20.8065 42.8911 20.8008C42.918 21.0508 42.9843 21.2828 43.0233 21.5249C43.8475 17.7415 46.8983 14.9707 50.1365 14.9707C50.1608 14.9707 50.1852 14.9707 50.2095 14.9707V19.2531C50.2095 19.2531 50.209 19.2531 50.2086 19.2531C48.6352 19.2531 47.3624 20.5293 47.3624 22.1019C47.3624 23.6746 48.6352 24.9474 50.2086 24.9474C50.209 24.9474 50.2095 24.9474 50.2095 24.9474V30.6621C50.2081 30.6621 50.2068 30.6621 50.2051 30.6621Z" fill="#DAA288"/>
<path d="M45.4946 88.6279C45.1856 88.6279 44.8709 88.6223 44.5536 88.6087C44.5519 88.6087 44.5501 88.6098 44.5484 88.6098C43.0828 88.5476 41.5563 88.3247 40.2437 87.8054C42.7284 86.9263 45.3209 86.0596 47.8391 85.4589C47.5315 85.9137 47.3521 86.4613 47.3521 87.0519C47.3521 87.5916 47.5024 88.0962 47.7635 88.5261C47.0799 88.5861 46.3068 88.6279 45.4946 88.6279ZM50.1421 81.1844C44.9377 80.9434 41.2421 79.9252 38.0644 79.5179C38.1996 79.5111 38.2779 79.51 38.2779 79.51C38.2779 79.51 37.8055 79.4296 37.0872 79.3516C37.1995 78.8289 37.3281 78.3356 37.4709 77.866H37.4735C39.0138 72.7951 42.1233 70.6239 42.3721 66.6369C42.3721 66.6357 42.3721 66.6357 42.3721 66.6346C42.373 66.6267 42.3735 66.6176 42.3739 66.6097C42.3739 66.6086 42.3739 66.6075 42.3739 66.6063C42.3744 66.5984 42.3748 66.5905 42.3752 66.5826C42.3752 66.5814 42.3756 66.5792 42.3756 66.578C42.3761 66.5701 42.3765 66.5622 42.377 66.5531C42.377 66.5531 42.377 66.552 42.377 66.5509C42.3784 66.5237 42.3797 66.4966 42.381 66.4683C42.381 66.4672 42.381 66.4649 42.381 66.4638C42.3814 66.4558 42.3814 66.4491 42.3819 66.4411C42.3819 66.4389 42.3823 66.4366 42.3823 66.4343C42.3823 66.4276 42.3828 66.4208 42.3828 66.414C42.3832 66.4117 42.3832 66.4095 42.3832 66.4072C42.3837 66.4004 42.3837 66.3936 42.3837 66.3868C42.3841 66.3846 42.3841 66.3823 42.3841 66.3789C42.3841 66.3721 42.3846 66.3653 42.3846 66.3585C42.3849 66.3563 42.3849 66.354 42.3849 66.3518C42.3854 66.3337 42.3858 66.3156 42.3863 66.2974C42.3863 66.2952 42.3863 66.2929 42.3863 66.2907C42.3863 66.2839 42.3867 66.2771 42.3867 66.2703C42.3867 66.2669 42.3867 66.2635 42.3867 66.2601C42.3872 66.2545 42.3872 66.2488 42.3872 66.2431C42.3872 66.2397 42.3872 66.2364 42.3872 66.233C42.3876 66.2273 42.3876 66.2216 42.3876 66.216C42.3876 66.2126 42.3876 66.2081 42.3876 66.2047C42.3876 66.199 42.3876 66.1934 42.3876 66.1888C42.3876 66.1843 42.3876 66.1809 42.3881 66.1775C42.3881 66.1719 42.3881 66.1651 42.3881 66.1594C42.3881 66.156 42.3881 66.1538 42.3881 66.1504C42.3881 66.1413 42.3881 66.1323 42.3881 66.1232C42.3881 66.113 42.3881 66.1029 42.3881 66.0927C42.3881 66.0915 42.3881 66.0915 42.3881 66.0904C42.3881 66.0859 42.3881 66.0814 42.3881 66.0768C42.3881 66.0757 42.3881 66.0746 42.3881 66.0746C42.3881 66.07 42.3881 66.0655 42.3881 66.0621C42.3881 66.0599 42.3881 66.0587 42.3881 66.0565C42.3881 66.0531 42.3881 66.0497 42.3876 66.0451V66.044C42.3739 63.3694 41.658 57.6762 40.5862 51.9931C39.6369 46.9607 38.4087 41.935 37.1421 39.0193C36.9631 38.6075 37.0965 38.2059 37.4364 37.8234C37.4426 37.8201 37.4488 37.8155 37.4545 37.811C39.0141 36.0811 44.7773 34.7472 44.893 34.72H44.8935C44.8939 34.72 44.8939 34.72 44.8944 34.72C44.8948 34.72 44.8948 34.72 44.8948 34.72C44.9138 34.7641 44.9333 34.8083 44.9527 34.8524C46.7669 38.9141 50.1496 39.3203 50.1496 39.3203C50.1496 39.3203 50.1704 39.3192 50.2094 39.3135V44.6515C48.7018 44.7239 47.5001 45.9695 47.5001 47.4969C47.5001 49.0221 48.7018 50.2689 50.2094 50.3424V59.6686C48.7018 59.741 47.5001 60.9855 47.5001 62.5129C47.5001 64.038 48.7018 65.2837 50.2094 65.3561V71.0969C48.7018 71.1693 47.5001 72.4138 47.5001 73.9389C47.5001 75.4663 48.7018 76.7109 50.2094 76.7844V81.181C50.1872 81.1822 50.1642 81.1833 50.1421 81.1844Z" fill="#DA8363"/>
<path d="M33.9198 81.8105C33.9242 81.7438 33.9344 81.6748 33.9499 81.6046C34.3432 79.843 37.2468 79.5613 38.0645 79.5172C41.2421 79.9245 44.9377 80.9428 50.1422 81.1837C50.0445 81.1883 49.9468 81.1928 49.8482 81.1962C45.2498 81.375 41.9718 81.2901 33.9198 81.8105Z" fill="#DA9777"/>
<path d="M30.1584 82.0742C29.978 81.685 29.9599 81.2528 30.146 80.7799C30.6387 79.5218 32.7098 79.2106 34.638 79.2106C35.5457 79.2106 36.4221 79.2797 37.0873 79.3509C37.8055 79.429 38.278 79.5093 38.278 79.5093C38.278 79.5093 38.1997 79.5105 38.0645 79.5173C37.2468 79.5614 34.3432 79.8431 33.9499 81.6047C33.9344 81.6748 33.9242 81.7439 33.9198 81.8106C32.7694 81.8853 31.5218 81.9724 30.1584 82.0742Z" fill="#DA9777"/>
<path d="M22.9665 91.6221C20.0455 91.6221 17.2356 91.3822 15.0709 91.0801C15.0657 91.0801 15.0608 91.079 15.0555 91.079C15.0541 91.0779 15.0523 91.0779 15.0511 91.0779C15.0471 91.0767 15.043 91.0767 15.0395 91.0767C15.0377 91.0756 15.0369 91.0756 15.0351 91.0756C15.0303 91.0745 15.0258 91.0745 15.021 91.0733C15.0188 91.0733 15.017 91.0733 15.0148 91.0722C15.0122 91.0722 15.0094 91.0722 15.0064 91.0711C15.0042 91.0711 15.0015 91.0711 14.9989 91.0699C14.9962 91.0699 14.9936 91.0699 14.9909 91.0688C14.9869 91.0688 14.9834 91.0677 14.9799 91.0677C14.9767 91.0666 14.9741 91.0666 14.9715 91.0666C14.9684 91.0654 14.9662 91.0654 14.9635 91.0654C14.9614 91.0643 14.9595 91.0643 14.9574 91.0643C14.9533 91.0632 14.9498 91.0632 14.9463 91.062C14.9428 91.062 14.9396 91.0609 14.9366 91.0609C14.934 91.0609 14.9313 91.0598 14.9291 91.0598C14.9264 91.0586 14.9238 91.0586 14.9211 91.0586C14.9189 91.0575 14.9162 91.0575 14.9141 91.0575C14.9104 91.0564 14.9065 91.0564 14.903 91.0552C14.9012 91.0552 14.899 91.0552 14.8972 91.0541C14.8928 91.0541 14.8888 91.053 14.8849 91.053C14.8835 91.0519 14.8822 91.0519 14.8814 91.0519C14.877 91.0507 14.8721 91.0507 14.8677 91.0496C14.8672 91.0496 14.8659 91.0496 14.8654 91.0496C14.8605 91.0485 14.8552 91.0473 14.8499 91.0473C14.8491 91.0473 14.8482 91.0462 14.8478 91.0462C14.8429 91.0462 14.838 91.0451 14.8332 91.0439C14.8327 91.0439 14.8323 91.0439 14.8318 91.0439C14.8208 91.0417 14.8097 91.0405 14.7987 91.0383H14.7982C12.0082 90.5631 9.97561 88.9429 10.3363 87.1044C10.3349 87.0931 10.3336 87.0829 10.3323 87.0727C10.5007 86.2762 11.1202 85.4412 12.3242 84.6402C12.3242 84.6402 15.7038 83.2271 27.4258 82.2857C28.3861 82.2088 29.2952 82.1387 30.1583 82.0742C31.5218 81.9723 32.7694 81.8852 33.9198 81.8106C41.9718 81.2901 45.2498 81.375 49.8483 81.1962C49.9468 81.1928 50.0446 81.1883 50.1422 81.1838C50.1643 81.1826 50.1872 81.1815 50.2094 81.1804V84.2035C50.2058 84.2035 50.2023 84.2035 50.1983 84.2035C49.2162 84.2035 48.3505 84.7013 47.8391 85.4582C45.3209 86.059 42.7284 86.9256 40.2438 87.8047C38.2461 88.5107 36.3187 89.2235 34.5558 89.8118C34.5541 89.8118 34.5518 89.8118 34.55 89.8118C33.3024 90.2271 32.1339 90.5846 31.0851 90.8278C31.0843 90.829 31.0829 90.829 31.082 90.829C31.0758 90.8301 31.0697 90.8312 31.0635 90.8335C31.0595 90.8346 31.0551 90.8346 31.0507 90.8358C31.0467 90.8369 31.0423 90.838 31.0382 90.8391C31.0317 90.8403 31.025 90.8425 31.0184 90.8437C31.0157 90.8437 31.0131 90.8448 31.0104 90.8448C31.0011 90.8471 30.9919 90.8493 30.9821 90.8516C29.9109 91.0948 28.7759 91.2713 27.6141 91.3947C26.0867 91.5553 24.5111 91.6221 22.9665 91.6221Z" fill="#DA9777"/>
<path d="M42.8609 20.4486C42.8583 20.4079 42.8557 20.3671 42.8534 20.3275C42.8557 20.3683 42.8583 20.4079 42.8609 20.4486ZM42.8428 20.0809C42.8428 20.073 42.8428 20.0673 42.8423 20.0605C42.8428 20.0662 42.8428 20.0741 42.8428 20.0809ZM42.8397 19.9282C42.8397 19.927 42.8397 19.9248 42.8397 19.9236C42.8397 19.9259 42.8397 19.927 42.8397 19.9282Z" fill="#5B233B"/>
<path d="M43.0232 21.5234C42.9843 21.2813 42.918 21.0494 42.891 20.7993V20.7982C42.8906 20.7937 42.8901 20.7892 42.8897 20.7835C42.8884 20.7744 42.8875 20.7654 42.8866 20.7552C42.8866 20.7541 42.8862 20.7518 42.8862 20.7496C42.8853 20.7416 42.8843 20.7337 42.884 20.7258C42.8836 20.7247 42.8836 20.7224 42.8831 20.7201C42.8813 20.7009 42.8796 20.6817 42.8778 20.6624C42.8778 20.6613 42.8778 20.6613 42.8778 20.6613C42.8769 20.6511 42.876 20.6421 42.8751 20.633C42.8751 20.6319 42.8751 20.6308 42.8751 20.6296C42.8725 20.6002 42.8699 20.5697 42.8676 20.5402C42.8655 20.5097 42.8632 20.4792 42.8609 20.4486C42.8583 20.4079 42.8557 20.3683 42.8535 20.3275C42.8517 20.297 42.8504 20.2676 42.849 20.2382C42.849 20.237 42.849 20.2359 42.849 20.2359C42.8481 20.2155 42.8472 20.1963 42.8464 20.1759C42.846 20.1669 42.8455 20.1578 42.8455 20.1488C42.8455 20.1465 42.8451 20.1443 42.8451 20.1431C42.8451 20.1352 42.8446 20.1273 42.8442 20.1194C42.8442 20.1182 42.8442 20.116 42.8442 20.1148C42.8437 20.1058 42.8437 20.0956 42.8433 20.0865C42.8433 20.0854 42.8433 20.0832 42.8428 20.0809C42.8428 20.0741 42.8428 20.0662 42.8424 20.0605C42.8424 20.056 42.8424 20.0526 42.8424 20.0492C42.8419 20.0447 42.8419 20.039 42.8419 20.0345C42.8419 20.03 42.8416 20.0255 42.8416 20.0209C42.8416 20.0164 42.8416 20.0119 42.8411 20.0074C42.8411 19.9983 42.8411 19.9904 42.8407 19.9813C42.8407 19.9779 42.8407 19.9746 42.8407 19.9712C42.8407 19.9655 42.8402 19.9598 42.8402 19.9542C42.8402 19.9519 42.8402 19.9497 42.8402 19.9463C42.8402 19.9406 42.8398 19.935 42.8398 19.9282C42.8398 19.927 42.8398 19.9259 42.8398 19.9236C42.7934 16.3043 44.8167 13.2552 47.4396 11.954C47.7446 13.1986 48.8671 14.1218 50.205 14.1218C50.2067 14.1218 50.208 14.1218 50.2094 14.1218V14.9692C50.1851 14.9692 50.1607 14.9692 50.1364 14.9692C46.8982 14.9692 43.8474 17.74 43.0232 21.5234Z" fill="#3D0400"/>
<path d="M50.1983 89.8975C50.193 89.8975 50.1877 89.8975 50.1819 89.8975C50.1807 89.8963 50.1793 89.8963 50.178 89.8963C50.1726 89.8963 50.1674 89.8963 50.1621 89.8963C50.1612 89.8963 50.1603 89.8963 50.159 89.8963C50.155 89.8963 50.151 89.8963 50.1471 89.8963C50.1444 89.8963 50.1422 89.8963 50.1399 89.8963C50.1373 89.8963 50.1343 89.8963 50.1316 89.8963C50.1263 89.8963 50.1214 89.8963 50.1161 89.8963C50.1153 89.8952 50.1144 89.8952 50.1135 89.8952C49.1186 89.8658 48.2599 89.3216 47.7742 88.5251C47.7707 88.5251 47.7672 88.5251 47.7635 88.5251C47.5024 88.0951 47.3522 87.5905 47.3522 87.0509C47.3522 86.4603 47.5316 85.9127 47.8391 85.4578C48.3505 84.7009 49.2163 84.2031 50.1983 84.2031C50.2023 84.2031 50.2058 84.2031 50.2094 84.2031V89.8975C50.2058 89.8975 50.2023 89.8975 50.1983 89.8975Z" fill="#DA0003"/>
<path d="M50.2093 76.7842C48.7017 76.7106 47.5 75.4661 47.5 73.9387C47.5 72.4136 48.7017 71.169 50.2093 71.0966V76.7842Z" fill="#DA4903"/>
<path d="M50.2093 65.3555C48.7017 65.2831 47.5 64.0374 47.5 62.5123C47.5 60.9849 48.7017 59.7403 50.2093 59.6679V65.3555Z" fill="#DACC03"/>
<path d="M50.2093 50.3408C48.7017 50.2673 47.5 49.0205 47.5 47.4953C47.5 45.9679 48.7017 44.7223 50.2093 44.6499V50.3408Z" fill="#0E9D03"/>
<path d="M50.2093 39.1631C48.7017 39.0907 47.5 37.8461 47.5 36.3187C47.5 34.7936 48.7017 33.5479 50.2093 33.4744V39.1631Z" fill="#0E8FCC"/>
<path d="M50.2083 24.9463C48.635 24.9463 47.3622 23.6735 47.3622 22.1008C47.3622 20.5282 48.635 19.2519 50.2083 19.2519C50.2088 19.2519 50.2092 19.2519 50.2092 19.2519V24.9463C50.2092 24.9463 50.2088 24.9463 50.2083 24.9463Z" fill="#0E0ACC"/>
<path d="M50.2051 14.1221C48.8672 14.1221 47.7447 13.1989 47.4397 11.9543C47.4424 11.9532 47.4446 11.952 47.4473 11.9509C47.3956 11.7371 47.3593 11.5176 47.358 11.2879C47.358 11.2834 47.358 11.2789 47.358 11.2743C47.358 9.70282 48.633 8.42772 50.2051 8.42772C50.2068 8.42772 50.2081 8.42772 50.2095 8.42772V14.1221C50.2081 14.1221 50.2068 14.1221 50.2051 14.1221Z" fill="#AB00CC"/>
</g>
</svg>
