<svg width="100" height="100" viewBox="0 0 100 100" fill="none" xmlns="http://www.w3.org/2000/svg">
<path d="M75.0766 32.9881C74.7338 33.1848 74.6184 33.6242 74.8174 33.9693C75.0153 34.312 75.4523 34.4322 75.7951 34.2355C76.1366 34.0388 76.2521 33.5994 76.0542 33.2567C75.8575 32.9116 75.4181 32.7902 75.0766 32.9881Z" fill="#9A478E"/>
<path d="M71.3629 35.1258C71.0213 35.3225 70.9047 35.7618 71.1026 36.107C71.3005 36.4497 71.7386 36.5699 72.0814 36.3732C72.423 36.1776 72.5384 35.7371 72.3417 35.3932C72.1426 35.0504 71.7045 34.9291 71.3629 35.1258Z" fill="#9A478E"/>
<path d="M67.6491 37.2646C67.3063 37.4613 67.1909 37.9006 67.3899 38.2457C67.5866 38.5885 68.0248 38.7098 68.3676 38.5131C68.7091 38.3152 68.8246 37.8759 68.6267 37.5331C68.4288 37.188 67.9906 37.0679 67.6491 37.2646Z" fill="#9A478E"/>
<path d="M63.9341 39.4031C63.5925 39.5998 63.477 40.0391 63.6749 40.3831C63.8728 40.727 64.311 40.846 64.6525 40.6493C64.9953 40.4526 65.1107 40.0132 64.9128 39.6705C64.715 39.3254 64.2768 39.2052 63.9341 39.4031Z" fill="#9A478E"/>
<path d="M60.2215 41.54C59.8787 41.7367 59.7621 42.176 59.9612 42.5211C60.159 42.8639 60.596 42.9852 60.9388 42.7885C61.2815 42.5918 61.397 42.1524 61.1991 41.8085C61.0012 41.4646 60.5631 41.3433 60.2215 41.54Z" fill="#9A478E"/>
<path d="M56.5064 43.6786C56.1649 43.8753 56.0494 44.3146 56.2473 44.6586C56.4452 45.0025 56.8833 45.1226 57.2249 44.9259C57.5677 44.728 57.6831 44.2887 57.4852 43.946C57.2862 43.6008 56.8492 43.4819 56.5064 43.6786Z" fill="#9A478E"/>
<path d="M52.7927 45.8151C52.45 46.013 52.3346 46.4523 52.5336 46.7962C52.7315 47.1402 53.1685 47.2603 53.5112 47.0636C53.8528 46.8669 53.9694 46.4276 53.7715 46.0848C53.5737 45.7397 53.1355 45.6184 52.7927 45.8151Z" fill="#9A478E"/>
<path d="M49.079 47.9539C48.7374 48.1506 48.6208 48.59 48.8187 48.9351C49.0165 49.2778 49.4547 49.398 49.7963 49.2013C50.139 49.0046 50.2545 48.5652 50.0578 48.2213C49.8587 47.8774 49.4217 47.7572 49.079 47.9539Z" fill="#9A478E"/>
<path d="M45.3653 50.0917C45.0225 50.2884 44.9071 50.7278 45.1061 51.0717C45.3028 51.4157 45.741 51.537 46.0837 51.3403C46.4253 51.1424 46.5407 50.7031 46.3429 50.3591C46.145 50.0152 45.7068 49.895 45.3653 50.0917Z" fill="#9A478E"/>
<path d="M41.6502 52.2294C41.3087 52.4261 41.1932 52.8666 41.3911 53.2093C41.589 53.5533 42.0271 53.6734 42.3687 53.4767C42.7115 53.28 42.8269 52.8407 42.6302 52.4979C42.4312 52.1528 41.993 52.0327 41.6502 52.2294Z" fill="#9A478E"/>
<path d="M37.9376 54.3675C37.5949 54.5642 37.4794 55.0035 37.6773 55.3486C37.8752 55.6914 38.3134 55.8127 38.6549 55.6148C38.9977 55.4181 39.1131 54.9788 38.9152 54.6348C38.7174 54.2909 38.2792 54.1708 37.9376 54.3675Z" fill="#9A478E"/>
<path d="M34.2226 56.5058C33.8811 56.7025 33.7656 57.1419 33.9635 57.4858C34.1614 57.8297 34.5995 57.951 34.9411 57.7543C35.2839 57.5565 35.3993 57.1171 35.2014 56.7744C35.0024 56.4293 34.5654 56.3091 34.2226 56.5058Z" fill="#9A478E"/>
<path d="M30.5089 58.6431C30.1662 58.841 30.0507 59.2803 30.2498 59.6243C30.4477 59.9682 30.8847 60.0872 31.2274 59.8905C31.569 59.6938 31.6856 59.2544 31.4877 58.9117C31.2898 58.5666 30.8517 58.4464 30.5089 58.6431Z" fill="#9A478E"/>
<path d="M26.7951 60.7812C26.4536 60.9779 26.3381 61.4172 26.536 61.7623C26.7327 62.1051 27.172 62.2264 27.5136 62.0297C27.8552 61.833 27.9718 61.3936 27.7739 61.0497C27.5749 60.7058 27.1379 60.5845 26.7951 60.7812Z" fill="#9A478E"/>
<path d="M23.0814 62.9202C22.7387 63.1169 22.6233 63.5562 22.8223 63.9001C23.019 64.2441 23.4572 64.3642 23.7999 64.1663C24.1415 63.9696 24.2569 63.5303 24.0591 63.1875C23.8612 62.8424 23.423 62.7235 23.0814 62.9202Z" fill="#9A478E"/>
<path d="M49.5607 18.9196C49.1626 18.9196 48.8398 19.2341 48.8398 19.624C48.8398 20.0127 49.1626 20.3271 49.5607 20.3271C49.9564 20.3271 50.2804 20.0127 50.2804 19.624C50.2804 19.2341 49.9564 18.9196 49.5607 18.9196Z" fill="#9A478E"/>
<path d="M49.5607 23.1421C49.1626 23.1421 48.8398 23.4577 48.8398 23.8464C48.8398 24.2363 49.1626 24.5508 49.5607 24.5508C49.9564 24.5508 50.2804 24.2363 50.2804 23.8464C50.2804 23.4577 49.9564 23.1421 49.5607 23.1421Z" fill="#9A478E"/>
<path d="M49.5607 27.3679C49.1626 27.3679 48.8398 27.6835 48.8398 28.0722C48.8398 28.4621 49.1626 28.7754 49.5607 28.7754C49.9564 28.7754 50.2804 28.4621 50.2804 28.0722C50.2804 27.6835 49.9564 27.3679 49.5607 27.3679Z" fill="#9A478E"/>
<path d="M49.5607 31.5915C49.1626 31.5915 48.8398 31.906 48.8398 32.2958C48.8398 32.6845 49.1626 32.999 49.5607 32.999C49.9564 32.999 50.2804 32.6845 50.2804 32.2958C50.2804 31.906 49.9564 31.5915 49.5607 31.5915Z" fill="#9A478E"/>
<path d="M49.5607 35.8181C49.1626 35.8181 48.8398 36.1314 48.8398 36.5212C48.8398 36.9111 49.1626 37.2256 49.5607 37.2256C49.9564 37.2256 50.2804 36.9111 50.2804 36.5212C50.2804 36.1314 49.9564 35.8181 49.5607 35.8181Z" fill="#9A478E"/>
<path d="M49.5607 40.0405C49.1626 40.0405 48.8398 40.355 48.8398 40.7437C48.8398 41.1336 49.1626 41.4492 49.5607 41.4492C49.9564 41.4492 50.2804 41.1336 50.2804 40.7437C50.2804 40.355 49.9564 40.0405 49.5607 40.0405Z" fill="#9A478E"/>
<path d="M49.5607 44.2663C49.1626 44.2663 48.8398 44.5808 48.8398 44.9695C48.8398 45.3593 49.1626 45.6738 49.5607 45.6738C49.9564 45.6738 50.2804 45.3593 50.2804 44.9695C50.2804 44.5808 49.9564 44.2663 49.5607 44.2663Z" fill="#9A478E"/>
<path d="M49.5607 48.4919C49.1626 48.4919 48.8398 48.8064 48.8398 49.1951C48.8398 49.5838 49.1626 49.8994 49.5607 49.8994C49.9564 49.8994 50.2804 49.5838 50.2804 49.1951C50.2804 48.8064 49.9564 48.4919 49.5607 48.4919Z" fill="#9A478E"/>
<path d="M49.5607 52.7143C49.1626 52.7143 48.8398 53.0288 48.8398 53.4187C48.8398 53.8074 49.1626 54.123 49.5607 54.123C49.9564 54.123 50.2804 53.8074 50.2804 53.4187C50.2804 53.0288 49.9564 52.7143 49.5607 52.7143Z" fill="#9A478E"/>
<path d="M49.5607 56.9409C49.1626 56.9409 48.8398 57.2554 48.8398 57.6452C48.8398 58.0339 49.1626 58.3496 49.5607 58.3496C49.9564 58.3496 50.2804 58.0339 50.2804 57.6452C50.2804 57.2554 49.9564 56.9409 49.5607 56.9409Z" fill="#9A478E"/>
<path d="M49.5607 61.1635C49.1626 61.1635 48.8398 61.4792 48.8398 61.8679C48.8398 62.2578 49.1626 62.5723 49.5607 62.5723C49.9564 62.5723 50.2804 62.2578 50.2804 61.8679C50.2804 61.4792 49.9564 61.1635 49.5607 61.1635Z" fill="#9A478E"/>
<path d="M49.5607 65.3882C49.1626 65.3882 48.8398 65.7038 48.8398 66.0925C48.8398 66.4812 49.1626 66.7969 49.5607 66.7969C49.9564 66.7969 50.2804 66.4812 50.2804 66.0925C50.2804 65.7038 49.9564 65.3882 49.5607 65.3882Z" fill="#9A478E"/>
<path d="M49.5607 69.6137C49.1626 69.6137 48.8398 69.9282 48.8398 70.3181C48.8398 70.7068 49.1626 71.0225 49.5607 71.0225C49.9564 71.0225 50.2804 70.7068 50.2804 70.3181C50.2804 69.9282 49.9564 69.6137 49.5607 69.6137Z" fill="#9A478E"/>
<path d="M49.5607 73.8372C49.1626 73.8372 48.8398 74.1528 48.8398 74.5427C48.8398 74.9314 49.1626 75.2471 49.5607 75.2471C49.9564 75.2471 50.2804 74.9314 50.2804 74.5427C50.2804 74.1528 49.9564 73.8372 49.5607 73.8372Z" fill="#9A478E"/>
<path d="M49.5607 78.0622C49.1626 78.0622 48.8398 78.3779 48.8398 78.7666C48.8398 79.1564 49.1626 79.4697 49.5607 79.4697C49.9564 79.4697 50.2804 79.1564 50.2804 78.7666C50.2804 78.3779 49.9564 78.0622 49.5607 78.0622Z" fill="#9A478E"/>
<path d="M23.8116 32.9871C23.4676 32.7904 23.0295 32.9117 22.8316 33.2556C22.6337 33.5996 22.7515 34.0401 23.0954 34.2368C23.4394 34.4335 23.8775 34.3121 24.0754 33.9682C24.2721 33.6243 24.1555 33.1838 23.8116 32.9871Z" fill="#9A478E"/>
<path d="M27.5406 35.1261C27.1978 34.9282 26.7597 35.0495 26.5618 35.3922C26.3639 35.7374 26.4817 36.1779 26.8257 36.3734C27.1696 36.5713 27.6077 36.4511 27.8056 36.106C28.0023 35.7621 27.8845 35.3228 27.5406 35.1261Z" fill="#9A478E"/>
<path d="M31.271 37.2635C30.9271 37.0668 30.4889 37.1881 30.2922 37.532C30.0943 37.8771 30.2121 38.3165 30.5549 38.5132C30.8988 38.7099 31.3381 38.5886 31.5348 38.2434C31.7327 37.9007 31.6149 37.4614 31.271 37.2635Z" fill="#9A478E"/>
<path d="M35.0001 39.402C34.6573 39.2053 34.218 39.3255 34.0225 39.6694C33.8234 40.0134 33.9412 40.4539 34.2851 40.6506C34.6291 40.8473 35.0672 40.7271 35.2651 40.382C35.4618 40.0381 35.344 39.5987 35.0001 39.402Z" fill="#9A478E"/>
<path d="M38.7315 41.5402C38.3864 41.3423 37.9482 41.4636 37.7515 41.8076C37.5536 42.1527 37.6714 42.592 38.0153 42.7887C38.3581 42.9866 38.7974 42.8653 38.9953 42.5202C39.192 42.1763 39.0742 41.7369 38.7315 41.5402Z" fill="#9A478E"/>
<path d="M42.4606 43.6774C42.1166 43.4807 41.6785 43.6009 41.4806 43.9448C41.2839 44.2899 41.4017 44.7293 41.7444 44.926C42.0884 45.1227 42.5265 45.0025 42.7244 44.6574C42.9223 44.3147 42.8045 43.8753 42.4606 43.6774Z" fill="#9A478E"/>
<path d="M46.1897 45.8152C45.8469 45.6185 45.4087 45.7399 45.2109 46.0838C45.013 46.4277 45.1308 46.8682 45.4747 47.0649C45.8186 47.2616 46.2568 47.1403 46.4547 46.7952C46.6514 46.4513 46.5348 46.0119 46.1897 45.8152Z" fill="#9A478E"/>
<path d="M49.9199 47.9542C49.5771 47.7563 49.1378 47.8764 48.9411 48.2204C48.7432 48.5655 48.861 49.0048 49.2049 49.2015C49.5477 49.3994 49.987 49.2793 50.1837 48.9341C50.3816 48.5902 50.2638 48.1509 49.9199 47.9542Z" fill="#9A478E"/>
<path d="M53.6502 50.0906C53.3062 49.8939 52.8681 50.0152 52.6714 50.3592C52.4735 50.7043 52.5901 51.1436 52.934 51.3403C53.278 51.537 53.7161 51.4157 53.914 51.0706C54.1107 50.7278 53.9929 50.2873 53.6502 50.0906Z" fill="#9A478E"/>
<path d="M57.3804 52.2295C57.0353 52.0328 56.5971 52.1529 56.4004 52.4969C56.2026 52.8408 56.3203 53.2813 56.6643 53.478C57.0082 53.6747 57.4464 53.5534 57.6443 53.2083C57.841 52.8655 57.7232 52.425 57.3804 52.2295Z" fill="#9A478E"/>
<path d="M61.1096 54.3673C60.7657 54.1694 60.3275 54.2895 60.1296 54.6346C59.9329 54.9786 60.0507 55.4179 60.3935 55.6146C60.7374 55.8125 61.1756 55.6923 61.3735 55.3472C61.5713 55.0033 61.4535 54.564 61.1096 54.3673Z" fill="#9A478E"/>
<path d="M64.8387 56.5047C64.4959 56.308 64.0578 56.4293 63.8599 56.7732C63.662 57.1184 63.7798 57.5577 64.1237 57.7544C64.4677 57.9511 64.9058 57.8298 65.1037 57.4847C65.3004 57.1419 65.1838 56.7014 64.8387 56.5047Z" fill="#9A478E"/>
<path d="M68.5689 58.6433C68.225 58.4466 67.7868 58.5667 67.5901 58.9106C67.3923 59.2546 67.51 59.6951 67.854 59.8918C68.1967 60.0885 68.6361 59.9683 68.834 59.6232C69.0307 59.2793 68.9129 58.84 68.5689 58.6433Z" fill="#9A478E"/>
<path d="M72.2992 60.7814C71.9553 60.5835 71.5171 60.7048 71.3192 61.0488C71.1214 61.3939 71.2403 61.8332 71.5831 62.0299C71.927 62.2278 72.3652 62.1065 72.5631 61.7614C72.7598 61.4175 72.642 60.9781 72.2992 60.7814Z" fill="#9A478E"/>
<path d="M76.0283 62.9187C75.6855 62.722 75.2462 62.8421 75.0495 63.186C74.8516 63.5311 74.9694 63.9705 75.3133 64.1672C75.6573 64.3639 76.0954 64.2437 76.2933 63.8986C76.49 63.5559 76.3722 63.1154 76.0283 62.9187Z" fill="#9A478E"/>
<path d="M22.7868 67.9789C22.4252 67.7704 21.9718 67.8811 21.7739 68.2251C21.576 68.5702 21.7067 69.0166 22.0683 69.2251C22.4288 69.4335 22.881 69.3216 23.0801 68.9777C23.278 68.6338 23.1472 68.1862 22.7868 67.9789Z" fill="#9A478E"/>
<path d="M26.7044 70.2375C26.344 70.0302 25.8905 70.1409 25.6926 70.4848C25.4936 70.8288 25.6243 71.2763 25.9859 71.4848C26.3463 71.6933 26.7998 71.5814 26.9989 71.2375C27.1968 70.8935 27.066 70.446 26.7044 70.2375Z" fill="#9A478E"/>
<path d="M30.6232 72.4942C30.2616 72.2869 29.8081 72.3988 29.6102 72.7427C29.4123 73.0854 29.5431 73.5342 29.9035 73.7427C30.2651 73.9512 30.7174 73.8393 30.9164 73.4942C31.1143 73.1514 30.9836 72.7026 30.6232 72.4942Z" fill="#9A478E"/>
<path d="M34.5406 74.7553C34.1802 74.5468 33.7255 74.6587 33.5277 75.0003C33.3298 75.3454 33.4605 75.793 33.8221 76.0014C34.1825 76.2099 34.636 76.098 34.8339 75.7541C35.0318 75.4113 34.901 74.9626 34.5406 74.7553Z" fill="#9A478E"/>
<path d="M38.4595 77.0138C38.0979 76.8065 37.6444 76.9173 37.4465 77.26C37.2486 77.6051 37.3794 78.0527 37.7398 78.2612C38.1002 78.4697 38.5549 78.3578 38.7528 78.0138C38.9506 77.6699 38.8199 77.2223 38.4595 77.0138Z" fill="#9A478E"/>
<path d="M42.3769 79.2717C42.0165 79.0644 41.5619 79.1751 41.364 79.5179C41.1661 79.8618 41.2969 80.3106 41.6573 80.5191C42.0189 80.7275 42.4724 80.6156 42.6702 80.2705C42.8681 79.9278 42.7374 79.479 42.3769 79.2717Z" fill="#9A478E"/>
<path d="M46.2946 81.5298C45.9342 81.3225 45.4807 81.4333 45.2828 81.7772C45.0849 82.1211 45.2145 82.5699 45.5761 82.7784C45.9365 82.9857 46.39 82.875 46.5891 82.5298C46.7869 82.1871 46.6562 81.7383 46.2946 81.5298Z" fill="#9A478E"/>
<path d="M52.8257 81.5298C52.4641 81.7383 52.3333 82.1871 52.5312 82.5298C52.7303 82.875 53.1837 82.9857 53.5441 82.7784C53.9057 82.5699 54.0365 82.1211 53.8374 81.7772C53.6396 81.4333 53.1861 81.3225 52.8257 81.5298Z" fill="#9A478E"/>
<path d="M56.7443 79.2717C56.3827 79.479 56.2532 79.9278 56.451 80.2705C56.6489 80.6156 57.1024 80.7275 57.4628 80.5191C57.8244 80.3106 57.9551 79.8618 57.7561 79.5179C57.5582 79.1751 57.1059 79.0644 56.7443 79.2717Z" fill="#9A478E"/>
<path d="M60.6631 77.0138C60.3015 77.2223 60.172 77.6699 60.3699 78.0138C60.5677 78.3578 61.0212 78.4697 61.3816 78.2612C61.7432 78.0527 61.874 77.6051 61.6749 77.26C61.477 76.9173 61.0247 76.8065 60.6631 77.0138Z" fill="#9A478E"/>
<path d="M64.5818 74.7553C64.2214 74.9626 64.0907 75.4113 64.2886 75.7541C64.4864 76.098 64.9399 76.2099 65.3015 76.0014C65.6619 75.793 65.7927 75.3454 65.5948 75.0003C65.3969 74.6587 64.9434 74.5468 64.5818 74.7553Z" fill="#9A478E"/>
<path d="M68.5007 72.4942C68.1403 72.7026 68.0084 73.1514 68.2062 73.4942C68.4053 73.8393 68.8588 73.9512 69.2204 73.7427C69.5808 73.5342 69.7116 73.0854 69.5137 72.7427C69.3158 72.3988 68.8623 72.2869 68.5007 72.4942Z" fill="#9A478E"/>
<path d="M72.4194 70.2375C72.0589 70.446 71.9282 70.8935 72.1261 71.2375C72.324 71.5814 72.7774 71.6933 73.1379 71.4848C73.4995 71.2763 73.6302 70.8288 73.4323 70.4848C73.2333 70.1409 72.781 70.0302 72.4194 70.2375Z" fill="#9A478E"/>
<path d="M76.3381 67.9789C75.9776 68.1862 75.8469 68.6338 76.0448 68.9777C76.2427 69.3216 76.6961 69.4335 77.0577 69.2251C77.4182 69.0166 77.5489 68.5702 77.351 68.2251C77.1531 67.8811 76.6997 67.7704 76.3381 67.9789Z" fill="#9A478E"/>
<path d="M80.3238 61.5777C79.9269 61.5777 79.6041 61.9146 79.6041 62.3315C79.6041 62.7473 79.9269 63.083 80.3238 63.083C80.7207 63.083 81.0435 62.7473 81.0435 62.3315C81.0435 61.9146 80.7207 61.5777 80.3238 61.5777Z" fill="#9A478E"/>
<path d="M80.3238 57.0611C79.9269 57.0611 79.6041 57.398 79.6041 57.8149C79.6041 58.2295 79.9269 58.5664 80.3238 58.5664C80.7207 58.5664 81.0435 58.2295 81.0435 57.8149C81.0435 57.398 80.7207 57.0611 80.3238 57.0611Z" fill="#9A478E"/>
<path d="M80.3238 52.5445C79.9269 52.5445 79.6041 52.8814 79.6041 53.2983C79.6041 53.7129 79.9269 54.0498 80.3238 54.0498C80.7207 54.0498 81.0435 53.7129 81.0435 53.2983C81.0435 52.8814 80.7207 52.5445 80.3238 52.5445Z" fill="#9A478E"/>
<path d="M80.3238 48.0269C79.9269 48.0269 79.6041 48.3638 79.6041 48.7796C79.6041 49.1954 79.9269 49.5322 80.3238 49.5322C80.7207 49.5322 81.0435 49.1954 81.0435 48.7796C81.0435 48.3638 80.7207 48.0269 80.3238 48.0269Z" fill="#9A478E"/>
<path d="M80.3238 43.5103C79.9269 43.5103 79.6041 43.8472 79.6041 44.263C79.6041 44.6788 79.9269 45.0156 80.3238 45.0156C80.7207 45.0156 81.0435 44.6788 81.0435 44.263C81.0435 43.8472 80.7207 43.5103 80.3238 43.5103Z" fill="#9A478E"/>
<path d="M80.3238 38.9935C79.9269 38.9935 79.6041 39.3292 79.6041 39.7462C79.6041 40.162 79.9269 40.5 80.3238 40.5C80.7207 40.5 81.0435 40.162 81.0435 39.7462C81.0435 39.3292 80.7207 38.9935 80.3238 38.9935Z" fill="#9A478E"/>
<path d="M80.3226 34.4761C79.9269 34.4761 79.6041 34.8118 79.6041 35.2288C79.6041 35.6446 79.9269 35.9814 80.3226 35.9814C80.7207 35.9814 81.0435 35.6446 81.0435 35.2288C81.0435 34.8118 80.7207 34.4761 80.3226 34.4761Z" fill="#9A478E"/>
<path d="M77.0577 28.3351C76.6961 28.1278 76.2427 28.2385 76.0448 28.5824C75.8469 28.9264 75.9776 29.374 76.3381 29.5824C76.6997 29.7909 77.1531 29.679 77.351 29.3363C77.5489 28.9912 77.4182 28.5436 77.0577 28.3351Z" fill="#9A478E"/>
<path d="M73.1379 26.0761C72.7774 25.8688 72.324 25.9796 72.1261 26.3247C71.9282 26.6674 72.0589 27.1162 72.4194 27.3247C72.781 27.5331 73.2344 27.4213 73.4323 27.0773C73.6302 26.7334 73.4995 26.2846 73.1379 26.0761Z" fill="#9A478E"/>
<path d="M69.2204 23.8175C68.8588 23.6102 68.4053 23.7209 68.2062 24.0649C68.0084 24.4088 68.1403 24.8564 68.5007 25.0649C68.8623 25.2733 69.3158 25.1614 69.5137 24.8187C69.7116 24.4736 69.5808 24.026 69.2204 23.8175Z" fill="#9A478E"/>
<path d="M65.3015 21.5577C64.9399 21.3504 64.4864 21.4612 64.2874 21.8063C64.0907 22.149 64.2214 22.5978 64.5819 22.8051C64.9435 23.0136 65.3969 22.9017 65.5948 22.5589C65.7927 22.215 65.6619 21.7662 65.3015 21.5577Z" fill="#9A478E"/>
<path d="M61.3816 19.2998C61.0212 19.0937 60.5677 19.2044 60.3699 19.5483C60.172 19.8911 60.3015 20.3398 60.6631 20.5483C61.0247 20.7568 61.477 20.6449 61.6749 20.301C61.874 19.957 61.7432 19.5083 61.3816 19.2998Z" fill="#9A478E"/>
<path d="M57.4628 17.0411C57.1024 16.8338 56.6489 16.9446 56.451 17.2885C56.2532 17.6324 56.3827 18.08 56.7443 18.2885C57.1059 18.497 57.5582 18.3851 57.7561 18.0423C57.9551 17.6972 57.8244 17.2496 57.4628 17.0411Z" fill="#9A478E"/>
<path d="M53.5441 14.7822C53.1837 14.5749 52.7303 14.6856 52.5312 15.0307C52.3333 15.3735 52.4641 15.8222 52.8257 16.0307C53.1861 16.2392 53.6396 16.1273 53.8374 15.7834C54.0365 15.4394 53.9057 14.9907 53.5441 14.7822Z" fill="#9A478E"/>
<path d="M45.5761 14.7822C45.2145 14.9907 45.0849 15.4394 45.2828 15.7834C45.4807 16.1273 45.9342 16.2392 46.2946 16.0307C46.6562 15.8222 46.7869 15.3735 46.5891 15.0307C46.39 14.6856 45.9365 14.5749 45.5761 14.7822Z" fill="#9A478E"/>
<path d="M41.6573 17.0411C41.2969 17.2496 41.1661 17.6972 41.364 18.0423C41.5619 18.3851 42.0165 18.497 42.3769 18.2885C42.7374 18.08 42.8681 17.6324 42.6702 17.2885C42.4724 16.9446 42.0189 16.8338 41.6573 17.0411Z" fill="#9A478E"/>
<path d="M37.7398 19.301C37.3794 19.5083 37.2486 19.957 37.4465 20.301C37.6444 20.6449 38.0979 20.7568 38.4595 20.5483C38.8199 20.3398 38.9506 19.8911 38.7528 19.5483C38.5549 19.2044 38.1002 19.0937 37.7398 19.301Z" fill="#9A478E"/>
<path d="M33.8221 21.5577C33.4605 21.7662 33.3298 22.215 33.5277 22.5589C33.7255 22.9017 34.1802 23.0136 34.5406 22.8051C34.901 22.5978 35.0318 22.149 34.8339 21.8063C34.636 21.4612 34.1825 21.3504 33.8221 21.5577Z" fill="#9A478E"/>
<path d="M29.9035 23.8175C29.5431 24.026 29.4123 24.4736 29.6102 24.8187C29.8081 25.1614 30.2616 25.2733 30.6232 25.0649C30.9836 24.8564 31.1143 24.4076 30.9164 24.0649C30.7186 23.7209 30.2651 23.6102 29.9035 23.8175Z" fill="#9A478E"/>
<path d="M25.9859 26.0761C25.6243 26.2846 25.4936 26.7334 25.6926 27.0773C25.8905 27.4213 26.344 27.5331 26.7044 27.3247C27.066 27.1162 27.1968 26.6674 26.9989 26.3247C26.7998 25.9796 26.3463 25.8688 25.9859 26.0761Z" fill="#9A478E"/>
<path d="M22.0671 28.3351C21.7066 28.5436 21.5759 28.9912 21.7738 29.3363C21.9717 29.679 22.4251 29.7909 22.7867 29.5824C23.1472 29.374 23.2779 28.9264 23.08 28.5824C22.881 28.2385 22.4287 28.1278 22.0671 28.3351Z" fill="#9A478E"/>
<path d="M18.8023 34.4761C18.4053 34.4761 18.0814 34.8118 18.0814 35.2288C18.0814 35.6446 18.4053 35.9814 18.8023 35.9814C19.198 35.9814 19.5219 35.6446 19.5219 35.2288C19.5219 34.8118 19.198 34.4761 18.8023 34.4761Z" fill="#9A478E"/>
<path d="M18.8023 38.9935C18.4053 38.9935 18.0814 39.3292 18.0814 39.7462C18.0814 40.162 18.4053 40.5 18.8023 40.5C19.198 40.5 19.5219 40.162 19.5219 39.7462C19.5219 39.3292 19.198 38.9935 18.8023 38.9935Z" fill="#9A478E"/>
<path d="M18.8023 43.5103C18.4053 43.5103 18.0814 43.8472 18.0814 44.263C18.0814 44.6788 18.4053 45.0156 18.8023 45.0156C19.198 45.0156 19.5219 44.6788 19.5219 44.263C19.5219 43.8472 19.198 43.5103 18.8023 43.5103Z" fill="#9A478E"/>
<path d="M18.8023 48.0269C18.4053 48.0269 18.0814 48.3638 18.0814 48.7796C18.0814 49.1954 18.4053 49.5322 18.8023 49.5322C19.198 49.5322 19.5219 49.1954 19.5219 48.7796C19.5219 48.3638 19.198 48.0269 18.8023 48.0269Z" fill="#9A478E"/>
<path d="M18.8023 52.5445C18.4053 52.5445 18.0814 52.8814 18.0814 53.2983C18.0814 53.7129 18.4053 54.0498 18.8023 54.0498C19.198 54.0498 19.5219 53.7129 19.5219 53.2983C19.5219 52.8814 19.198 52.5445 18.8023 52.5445Z" fill="#9A478E"/>
<path d="M18.8023 57.0611C18.4053 57.0611 18.0814 57.398 18.0814 57.8149C18.0814 58.2307 18.4053 58.5664 18.8023 58.5664C19.198 58.5664 19.5219 58.2307 19.5219 57.8149C19.5219 57.398 19.198 57.0611 18.8023 57.0611Z" fill="#9A478E"/>
<path d="M18.8023 61.5777C18.4053 61.5777 18.0814 61.9146 18.0814 62.3315C18.0814 62.7473 18.4053 63.083 18.8023 63.083C19.198 63.083 19.5219 62.7473 19.5219 62.3315C19.5219 61.9146 19.198 61.5777 18.8023 61.5777Z" fill="#9A478E"/>
<path d="M49.5596 85.6083C48.8046 85.6083 48.1909 84.997 48.1909 84.2431C48.1909 83.4881 48.8046 82.8757 49.5596 82.8757C50.3169 82.8757 50.9306 83.4881 50.9306 84.2431C50.9306 84.997 50.3169 85.6083 49.5596 85.6083ZM49.5596 81.6978C48.1556 81.6978 47.0131 82.8403 47.0131 84.2431C47.0131 85.646 48.1556 86.7861 49.5596 86.7861C50.9659 86.7861 52.1085 85.646 52.1085 84.2431C52.1085 82.8403 50.9659 81.6978 49.5596 81.6978Z" fill="#9A478E"/>
<path d="M18.8022 67.8788C18.0448 67.8788 17.4276 67.2639 17.4276 66.5101C17.4276 65.7586 18.0448 65.1462 18.8022 65.1462C19.5572 65.1462 20.172 65.7586 20.172 66.5101C20.172 67.2639 19.5572 67.8788 18.8022 67.8788ZM18.8022 63.9683C17.3946 63.9683 16.2498 65.1085 16.2498 66.5101C16.2498 67.9141 17.3946 69.0566 18.8022 69.0566C20.2062 69.0566 21.3499 67.9141 21.3499 66.5101C21.3499 65.1085 20.2062 63.9683 18.8022 63.9683Z" fill="#9A478E"/>
<path d="M18.8022 32.4149C18.0448 32.4149 17.4276 31.8024 17.4276 31.0486C17.4276 30.2936 18.0448 29.6799 18.8022 29.6799C19.5572 29.6799 20.172 30.2936 20.172 31.0486C20.172 31.8024 19.5572 32.4149 18.8022 32.4149ZM18.8022 28.5021C17.3946 28.5021 16.2498 29.6446 16.2498 31.0486C16.2498 32.4514 17.3946 33.5928 18.8022 33.5928C20.2074 33.5928 21.3499 32.4514 21.3499 31.0486C21.3499 29.6446 20.2074 28.5021 18.8022 28.5021Z" fill="#9A478E"/>
<path d="M80.3239 67.8846C79.5677 67.8846 78.9529 67.2686 78.9529 66.5113C78.9529 65.7586 79.5677 65.1461 80.3239 65.1461C81.0812 65.1461 81.6973 65.7586 81.6973 66.5113C81.6973 67.2686 81.0812 67.8846 80.3239 67.8846ZM80.3239 63.9683C78.9187 63.9683 77.775 65.1096 77.775 66.5113C77.775 67.9176 78.9187 69.0625 80.3239 69.0625C81.7302 69.0625 82.8751 67.9176 82.8751 66.5113C82.8751 65.1096 81.7302 63.9683 80.3239 63.9683Z" fill="#9A478E"/>
<path d="M80.3239 32.4149C79.5677 32.4149 78.9529 31.8024 78.9529 31.0486C78.9529 30.2936 79.5677 29.6811 80.3239 29.6811C81.0812 29.6811 81.6961 30.2936 81.6961 31.0486C81.6961 31.8024 81.0812 32.4149 80.3239 32.4149ZM80.3239 28.5033C78.9187 28.5033 77.775 29.6458 77.775 31.0486C77.775 32.4514 78.9187 33.5928 80.3239 33.5928C81.7302 33.5928 82.8751 32.4514 82.8751 31.0486C82.8751 29.6458 81.7302 28.5033 80.3239 28.5033Z" fill="#9A478E"/>
<path d="M49.5596 15.5136C48.8046 15.5136 48.1909 14.8975 48.1909 14.1402C48.1909 13.3875 48.8046 12.775 49.5596 12.775C50.3169 12.775 50.9306 13.3875 50.9306 14.1402C50.9306 14.8975 50.3169 15.5136 49.5596 15.5136ZM49.5596 11.5972C48.1556 11.5972 47.0131 12.7385 47.0131 14.1402C47.0131 15.5465 48.1556 16.6914 49.5596 16.6914C50.9659 16.6914 52.1085 15.5465 52.1085 14.1402C52.1085 12.7385 50.9659 11.5972 49.5596 11.5972Z" fill="#9A478E"/>
<path d="M61.0519 76.9079C60.9212 76.9079 60.7869 76.942 60.6632 77.0127C60.3016 77.2212 60.1721 77.6688 60.37 78.0127C60.4995 78.2388 60.741 78.3649 60.9942 78.3649C61.125 78.3649 61.2592 78.3307 61.3817 78.26C61.7433 78.0516 61.8741 77.604 61.675 77.2589C61.5455 77.0339 61.304 76.9079 61.0519 76.9079ZM60.5737 41.445C60.4536 41.445 60.3323 41.4757 60.2216 41.5393C59.8788 41.736 59.7622 42.1753 59.9612 42.5204C60.0943 42.7513 60.337 42.882 60.5855 42.882C60.7056 42.882 60.827 42.8514 60.9389 42.7878C61.2816 42.5911 61.397 42.1517 61.1992 41.8078C61.0661 41.5758 60.8234 41.445 60.5737 41.445ZM75.43 32.8938C75.3099 32.8938 75.1885 32.9244 75.0766 32.988C74.7339 33.1847 74.6185 33.6241 74.8175 33.9692C74.9506 34.2 75.1921 34.3296 75.4406 34.3296C75.5619 34.3296 75.6832 34.3002 75.7951 34.2354C76.1367 34.0387 76.2521 33.5993 76.0543 33.2566C75.9212 33.0246 75.6785 32.8938 75.43 32.8938ZM60.9954 19.1954C60.7422 19.1954 60.5007 19.3214 60.37 19.5475C60.1721 19.8903 60.3016 20.3391 60.6632 20.5475C60.7869 20.6182 60.9212 20.6524 61.0519 20.6524C61.304 20.6524 61.5455 20.5263 61.675 20.3002C61.8741 19.9563 61.7433 19.5075 61.3817 19.299C61.2592 19.2295 61.1261 19.1954 60.9954 19.1954Z" fill="#B0BCF7"/>
<path d="M75.4405 34.3301C75.192 34.3301 74.9505 34.2005 74.8174 33.9696C74.6184 33.6245 74.7338 33.1852 75.0766 32.9885C75.1885 32.9249 75.3098 32.8943 75.4299 32.8943C75.6784 32.8943 75.9211 33.025 76.0542 33.2571C76.2521 33.5998 76.1366 34.0391 75.7951 34.2358C75.6832 34.3006 75.5618 34.3301 75.4405 34.3301Z" fill="#A29FE8"/>
<path d="M60.5854 42.8828C60.3369 42.8828 60.0943 42.7521 59.9612 42.5212C59.7621 42.1761 59.8787 41.7368 60.2215 41.5401C60.3322 41.4765 60.4535 41.4458 60.5737 41.4458C60.8234 41.4458 61.066 41.5766 61.1991 41.8086C61.397 42.1525 61.2815 42.5919 60.9388 42.7886C60.8269 42.8522 60.7056 42.8828 60.5854 42.8828Z" fill="#A29FE8"/>
<path d="M60.7492 55.7109C60.6279 55.7109 60.5054 55.6803 60.3935 55.6155C60.3276 55.5778 60.2698 55.5319 60.2216 55.4777C60.2216 55.1562 60.2216 54.8334 60.2216 54.5083C60.3605 54.3564 60.5549 54.2728 60.7551 54.2728C60.8753 54.2728 60.9978 54.3034 61.1096 54.3682C61.4536 54.5649 61.5714 55.0042 61.3735 55.3481C61.2404 55.5802 60.9978 55.7109 60.7492 55.7109Z" fill="#A29FE8"/>
<path d="M60.9941 78.3652C60.7409 78.3652 60.4994 78.2392 60.3699 78.0131C60.172 77.6691 60.3015 77.2215 60.6631 77.0131C60.7868 76.9424 60.9211 76.9082 61.0518 76.9082C61.3039 76.9082 61.5453 77.0343 61.6749 77.2592C61.874 77.6043 61.7432 78.0519 61.3816 78.2604C61.2591 78.3311 61.1248 78.3652 60.9941 78.3652Z" fill="#A29FE8"/>
<path d="M79.6065 35.29C79.6041 35.27 79.6041 35.2488 79.6041 35.2288C79.6041 34.8118 79.9269 34.4761 80.3226 34.4761C80.7113 34.4761 81.0282 34.7965 81.0435 35.1982C80.5405 35.2382 80.0588 35.2677 79.6065 35.29Z" fill="#A29FE8"/>
<path d="M61.0518 20.6533C60.9211 20.6533 60.7868 20.6192 60.6631 20.5485C60.3015 20.34 60.172 19.8912 60.3699 19.5485C60.5006 19.3223 60.742 19.1963 60.9953 19.1963C61.126 19.1963 61.2591 19.2305 61.3816 19.3C61.7432 19.5084 61.874 19.9572 61.6749 20.3011C61.5453 20.5273 61.3039 20.6533 61.0518 20.6533Z" fill="#A29FE8"/>
<path d="M57.1332 18.3936C57.0025 18.3936 56.8682 18.3594 56.7445 18.2887C56.5325 18.1674 56.4006 17.9636 56.3665 17.7457C56.4501 17.5349 56.5372 17.3146 56.6268 17.0873C56.7528 16.9896 56.9118 16.9365 57.0755 16.9365C57.2063 16.9365 57.3405 16.9707 57.463 17.0414C57.8246 17.2499 57.9554 17.6974 57.7563 18.0426C57.6268 18.2687 57.3853 18.3936 57.1332 18.3936Z" fill="#A29FE8"/>
<path d="M80.3239 33.5928C79.5064 33.5928 78.7773 33.2064 78.3109 32.6069C79.6831 32.561 81.1213 32.4785 82.5241 32.3348C82.08 33.0875 81.2603 33.5928 80.3239 33.5928Z" fill="#A29FE8"/>
<path d="M53.2133 81.4248C53.0826 81.4248 52.9483 81.459 52.8258 81.5297C52.4642 81.7382 52.3335 82.1869 52.5313 82.5297C52.6621 82.757 52.9035 82.883 53.1568 82.883C53.2875 82.883 53.4218 82.8489 53.5443 82.7782C53.9059 82.5697 54.0366 82.121 53.8376 81.777C53.708 81.5509 53.4666 81.4248 53.2133 81.4248ZM57.1332 79.1669C57.0025 79.1669 56.8682 79.201 56.7445 79.2717C56.3829 79.479 56.2534 79.9278 56.4512 80.2706C56.5808 80.4979 56.8223 80.6239 57.0755 80.6239C57.2062 80.6239 57.3405 80.5897 57.463 80.5191C57.8246 80.3106 57.9554 79.8618 57.7563 79.5179C57.6267 79.2929 57.3853 79.1669 57.1332 79.1669ZM56.8611 43.5827C56.7398 43.5827 56.6185 43.6134 56.5066 43.6782C56.165 43.8749 56.0496 44.3142 56.2475 44.6581C56.3806 44.8902 56.6232 45.0197 56.8717 45.0197C56.9919 45.0197 57.1144 44.9903 57.2251 44.9255C57.5678 44.7276 57.6833 44.2883 57.4854 43.9455C57.3511 43.7135 57.1097 43.5827 56.8611 43.5827ZM76.6691 28.2294C76.4159 28.2294 76.1756 28.3554 76.0448 28.5816C75.847 28.9255 75.9777 29.3731 76.3381 29.5816C76.4618 29.6523 76.5961 29.6864 76.7268 29.6864C76.9801 29.6864 77.2203 29.5604 77.3511 29.3354C77.549 28.9903 77.4182 28.5427 77.0578 28.3342C76.9341 28.2636 76.7999 28.2294 76.6691 28.2294ZM72.7504 25.9703C72.4983 25.9703 72.2569 26.0963 72.1261 26.3237C71.9282 26.6664 72.059 27.1152 72.4194 27.3236C72.5431 27.3943 72.6774 27.4285 72.8081 27.4285C73.0602 27.4285 73.3016 27.3024 73.4324 27.0763C73.6302 26.7324 73.4995 26.2836 73.1379 26.0751C73.0154 26.0045 72.8811 25.9703 72.7504 25.9703ZM68.8317 23.7123C68.5784 23.7123 68.337 23.8384 68.2062 24.0645C68.0083 24.4085 68.1403 24.856 68.5007 25.0645C68.6244 25.1352 68.7586 25.1694 68.8894 25.1694C69.1414 25.1694 69.3829 25.0445 69.5136 24.8184C69.7115 24.4732 69.5808 24.0257 69.2204 23.8172C69.0967 23.7465 68.9624 23.7123 68.8317 23.7123ZM64.9129 21.4532C64.6597 21.4532 64.4194 21.5792 64.2875 21.8066C64.0908 22.1493 64.2215 22.5981 64.582 22.8054C64.7056 22.8761 64.8399 22.9102 64.9707 22.9102C65.2239 22.9102 65.4642 22.7854 65.5949 22.5592C65.7928 22.2153 65.6621 21.7665 65.3016 21.558C65.178 21.4874 65.0437 21.4532 64.9129 21.4532ZM49.7116 56.9549C49.6644 56.9443 49.615 56.9396 49.5643 56.9396V54.1234C49.5667 54.1234 49.569 54.1234 49.5726 54.1234C49.6032 54.7747 49.635 55.4496 49.6668 56.1446C49.6786 56.4119 49.6939 56.6828 49.7116 56.9549Z" fill="#C281C2"/>
<path d="M56.8716 45.0205C56.623 45.0205 56.3804 44.8909 56.2473 44.6589C56.0494 44.315 56.1649 43.8756 56.5064 43.6789C56.6183 43.6141 56.7397 43.5835 56.861 43.5835C57.1095 43.5835 57.351 43.7143 57.4852 43.9463C57.6831 44.2891 57.5677 44.7284 57.2249 44.9263C57.1142 44.9911 56.9917 45.0205 56.8716 45.0205Z" fill="#BB73BB"/>
<path d="M49.5643 54.123V53.9558C49.5667 54.0111 49.569 54.0665 49.5726 54.123C49.569 54.123 49.5667 54.123 49.5643 54.123Z" fill="#BB73BB"/>
<path d="M49.5643 58.3496V56.9409C49.615 56.9409 49.6644 56.9456 49.7116 56.9562C49.7422 57.4014 49.7799 57.8514 49.8235 58.3001C49.7434 58.3319 49.655 58.3484 49.5643 58.3496Z" fill="#BB73BB"/>
<path d="M49.5643 62.5723V61.1635C49.9589 61.1659 50.2805 61.4804 50.2805 61.8679C50.2805 62.2566 49.9589 62.5699 49.5643 62.5723Z" fill="#BB73BB"/>
<path d="M49.5643 66.7969V65.3882C49.9589 65.3905 50.2805 65.705 50.2805 66.0925C50.2805 66.48 49.9589 66.7945 49.5643 66.7969Z" fill="#BB73BB"/>
<path d="M49.5643 71.0225V69.6137C49.9589 69.6161 50.2805 69.9294 50.2805 70.3181C50.2805 70.7056 49.9589 71.0201 49.5643 71.0225Z" fill="#BB73BB"/>
<path d="M49.5643 75.2471V73.8372C49.9589 73.8395 50.2805 74.154 50.2805 74.5427C50.2805 74.9302 49.9589 75.2447 49.5643 75.2471Z" fill="#BB73BB"/>
<path d="M49.5643 79.4697V78.0622C49.9589 78.0646 50.2805 78.379 50.2805 78.7666C50.2805 79.1552 49.9589 79.4685 49.5643 79.4697Z" fill="#BB73BB"/>
<path d="M57.0176 53.5723C56.934 53.5723 56.848 53.557 56.7667 53.5263C56.7538 53.054 56.7408 52.6123 56.7267 52.2001C56.8197 52.1565 56.9222 52.1341 57.0259 52.1341C57.146 52.1341 57.2673 52.1647 57.3804 52.2295C57.7232 52.425 57.8409 52.8656 57.6442 53.2083C57.51 53.4415 57.2673 53.5723 57.0176 53.5723Z" fill="#BB73BB"/>
<path d="M60.2215 55.4775C60.0165 55.2537 59.9706 54.9133 60.1296 54.6354C60.1567 54.5883 60.1873 54.5458 60.2215 54.5082C60.2215 54.8332 60.2215 55.156 60.2215 55.4775Z" fill="#BB73BB"/>
<path d="M53.1566 82.8838C52.9034 82.8838 52.6619 82.7578 52.5312 82.5304C52.3333 82.1877 52.4641 81.7389 52.8257 81.5304C52.9482 81.4598 53.0824 81.4256 53.2132 81.4256C53.4664 81.4256 53.7079 81.5516 53.8374 81.7778C54.0365 82.1217 53.9057 82.5705 53.5441 82.779C53.4216 82.8496 53.2874 82.8838 53.1566 82.8838Z" fill="#BB73BB"/>
<path d="M57.0753 80.624C56.822 80.624 56.5806 80.498 56.451 80.2707C56.2532 79.9279 56.3827 79.4791 56.7443 79.2718C56.868 79.2012 57.0023 79.167 57.133 79.167C57.3851 79.167 57.6265 79.293 57.7561 79.518C57.9551 79.862 57.8244 80.3107 57.4628 80.5192C57.3403 80.5899 57.206 80.624 57.0753 80.624Z" fill="#BB73BB"/>
<path d="M76.7268 29.6875C76.596 29.6875 76.4617 29.6533 76.3381 29.5827C75.9776 29.3742 75.8469 28.9266 76.0448 28.5827C76.1755 28.3565 76.4158 28.2305 76.6691 28.2305C76.7998 28.2305 76.9341 28.2647 77.0577 28.3353C77.4182 28.5438 77.5489 28.9914 77.351 29.3365C77.2203 29.5615 76.98 29.6875 76.7268 29.6875Z" fill="#BB73BB"/>
<path d="M72.8081 27.4287C72.6773 27.4287 72.543 27.3946 72.4194 27.3239C72.0589 27.1154 71.9282 26.6666 72.1261 26.3239C72.2568 26.0966 72.4983 25.9705 72.7503 25.9705C72.8811 25.9705 73.0154 26.0047 73.1379 26.0754C73.4995 26.2838 73.6302 26.7326 73.4323 27.0765C73.3016 27.3027 73.0601 27.4287 72.8081 27.4287Z" fill="#BB73BB"/>
<path d="M68.8894 25.1699C68.7587 25.1699 68.6244 25.1358 68.5007 25.0651C68.1403 24.8566 68.0084 24.409 68.2062 24.0651C68.337 23.8389 68.5785 23.7129 68.8317 23.7129C68.9624 23.7129 69.0967 23.7471 69.2204 23.8177C69.5808 24.0262 69.7116 24.4738 69.5137 24.8189C69.3829 25.0451 69.1415 25.1699 68.8894 25.1699Z" fill="#BB73BB"/>
<path d="M64.9705 22.9102C64.8398 22.9102 64.7055 22.876 64.5819 22.8053C64.2214 22.598 64.0907 22.1492 64.2874 21.8065C64.4193 21.5792 64.6596 21.4531 64.9128 21.4531C65.0436 21.4531 65.1778 21.4873 65.3015 21.558C65.6619 21.7664 65.7927 22.2152 65.5948 22.5591C65.4641 22.7853 65.2238 22.9102 64.9705 22.9102Z" fill="#BB73BB"/>
<path d="M49.5643 85.6094V82.8768C50.3182 82.8791 50.9306 83.4916 50.9306 84.2442C50.9306 84.9969 50.3182 85.607 49.5643 85.6094Z" fill="#C281C2"/>
<path d="M56.3664 17.7451C56.3428 17.592 56.3687 17.4318 56.4512 17.2881C56.4971 17.208 56.5572 17.1409 56.6267 17.0867C56.5371 17.314 56.45 17.5343 56.3664 17.7451Z" fill="#BB73BB"/>
<path d="M53.8268 15.8018C53.8327 15.7429 53.8374 15.684 53.8409 15.6263L53.9269 15.5026C53.9175 15.5992 53.8892 15.6946 53.8374 15.7829C53.8338 15.79 53.8303 15.7959 53.8268 15.8018Z" fill="#BB73BB"/>
<path d="M49.5643 86.7861V85.6083C50.3182 85.6059 50.9306 84.9958 50.9306 84.2431C50.9306 83.4905 50.3182 82.878 49.5643 82.8757V81.6978C50.9683 81.7002 52.1085 82.8415 52.1085 84.2431C52.1085 85.6436 50.9683 86.7838 49.5643 86.7861Z" fill="#BB73BB"/>
<path d="M80.3238 32.4141C79.5676 32.4141 78.9528 31.8016 78.9528 31.0478C78.9528 30.2928 79.5676 29.6803 80.3238 29.6803C81.0811 29.6803 81.696 30.2928 81.696 31.0478C81.696 31.8016 81.0811 32.4141 80.3238 32.4141Z" fill="#C281C2"/>
<path d="M78.3109 32.6055C77.9753 32.1756 77.775 31.6337 77.775 31.0472C77.775 29.6443 78.9187 28.5018 80.3239 28.5018C81.7302 28.5018 82.8751 29.6443 82.8751 31.0472C82.8751 31.516 82.7467 31.9553 82.5241 32.3334C81.1213 32.4771 79.6831 32.5595 78.3109 32.6055ZM80.3239 29.6797C79.5677 29.6797 78.9529 30.2922 78.9529 31.0472C78.9529 31.801 79.5677 32.4135 80.3239 32.4135C81.0812 32.4135 81.6961 31.801 81.6961 31.0472C81.6961 30.2922 81.0812 29.6797 80.3239 29.6797Z" fill="#BB73BB"/>
<path d="M57.7903 23.8174L53.2179 23.4864C53.2179 23.4864 51.6372 23.2791 51.6031 19.232C51.596 18.2131 47.3298 18.2296 47.3439 19.2508C47.3969 22.729 46.1084 23.6949 45.9081 23.8221L41.3357 23.9128C41.3357 23.9128 42.5548 36.252 42.9317 38.7514C43.3098 41.2508 42.7197 47.7078 42.7197 47.7078H49.543L56.2697 47.7549C56.2697 47.7549 55.7762 41.2508 56.1566 38.7514C56.5359 36.252 57.7903 23.8174 57.7903 23.8174Z" fill="#FFCAAA"/>
<path d="M49.4724 10.2082C47.066 10.2082 44.7998 12.7583 45.1167 15.8631C45.4523 19.1481 47.8351 21.7441 49.4724 21.7441C51.0648 21.7441 53.4594 19.0928 53.8198 15.8631C54.1673 12.7606 51.8728 10.2082 49.4724 10.2082Z" fill="#FFDBC7"/>
<path d="M49.4465 8.93195C47.589 8.93313 45.5749 10.2311 45.0531 11.5986C44.5007 13.0427 44.7386 15.429 44.7386 15.429L45.3558 16.1016C45.3558 16.1016 45.7503 13.3807 46.3864 13.0109C46.5878 12.8931 47.8057 12.283 47.8057 12.283C47.8057 12.283 52.2698 13.1487 52.7127 13.5939C53.3169 14.197 53.5784 16.0026 53.5784 16.0026L54.2356 15.0592C54.2356 15.0592 54.4123 12.3466 53.6891 11.1958C53.1732 10.369 51.3899 8.93195 49.4465 8.93195Z" fill="#8D3B26"/>
<path d="M70.5052 25.8315C66.3816 24.9587 57.669 22.4605 56.093 24.7561C56.093 24.7561 55.4723 26.3015 56.3262 27.2826C57.9434 29.1236 69.391 28.9552 70.3992 28.4534C71.4122 27.9516 72.027 26.1566 70.5052 25.8315Z" fill="#FFCAAA"/>
<path d="M81.7667 27.0497C78.1048 26.3607 71.2485 24.9519 69.5147 26.2099C69.5147 26.2099 68.6136 27.3324 69.2108 28.0638C70.3356 29.4372 81.0141 29.1804 82.0612 28.8212C83.1107 28.4667 83.1154 27.3029 81.7667 27.0497Z" fill="#FFCAAA"/>
<path d="M84.7997 26.9468C83.5524 26.5864 82.7762 26.7807 82.0766 27.2436C81.3793 27.7065 81.7479 28.5546 82.5395 28.9067C83.4299 29.3037 83.9788 28.4756 85.5983 28.5051C86.7114 28.5239 88.0542 29.2636 88.2721 28.8643C88.4829 28.4568 86.04 27.299 84.7997 26.9468Z" fill="#FFCAAA"/>
<path d="M84.1836 28.5998C83.3391 28.4762 82.6265 28.5351 82.5947 28.7306C82.5582 28.9261 83.2178 29.1876 84.0635 29.3124C84.9057 29.4349 85.6159 29.3784 85.6489 29.1817C85.6854 28.9815 85.027 28.7223 84.1836 28.5998Z" fill="#FFCAAA"/>
<path d="M28.569 25.8315C27.0484 26.1566 27.6597 27.9516 28.6738 28.4534C29.6844 28.9552 41.1308 29.1236 42.748 27.2826C43.6019 26.3015 42.9788 24.7561 42.9788 24.7561C41.4052 22.4605 32.6903 24.9587 28.569 25.8315Z" fill="#FFCAAA"/>
<path d="M17.3065 27.0485C15.9578 27.3029 15.9625 28.4667 17.0132 28.8212C18.0615 29.1804 28.7399 29.4372 29.8624 28.0638C30.4619 27.3324 29.5585 26.2099 29.5585 26.2099C27.8247 24.9519 20.9696 26.3607 17.3065 27.0485Z" fill="#FFCAAA"/>
<path d="M16.9953 27.2429C16.2992 26.78 15.5195 26.5857 14.2745 26.9461C13.0319 27.2983 10.5925 28.4561 10.8034 28.8636C11.0177 29.2629 12.3652 28.5232 13.4759 28.5044C14.1426 28.4926 14.6279 28.6257 15.0307 28.7588C15.6055 28.9484 16.0118 29.1393 16.5372 28.906C17.3287 28.5539 17.6915 27.7058 16.9953 27.2429Z" fill="#FFCAAA"/>
<path d="M14.8893 28.5998C14.0483 28.7223 13.3887 28.9815 13.4229 29.1817C13.4571 29.3784 14.1697 29.4349 15.0118 29.3124C15.8563 29.1876 16.5124 28.9261 16.4794 28.7306C16.4488 28.5351 15.7362 28.4762 14.8893 28.5998Z" fill="#FFCAAA"/>
<path d="M44.9883 65.0399C43.1179 64.9692 42.6526 66.6359 42.6526 66.6359C42.4147 67.6182 42.4147 73.4497 42.3617 74.9598C42.3087 76.4698 43.1462 82.3802 42.9636 84.0881C42.9495 84.2365 41.7433 87.1105 40.3994 88.3461C40.0001 88.7195 39.7787 89.193 39.7598 89.6158C39.7386 90.2189 39.8976 90.5522 40.7115 90.5651C41.5243 90.5793 42.6786 90.0669 43.1038 89.531C44.7539 87.4556 45.5655 87.7301 45.9942 87.0575C46.3087 86.5546 46.1085 85.7018 46.1085 85.7018L45.9742 85.2978C45.8623 84.7147 45.304 83.385 45.4901 82.2106C45.6986 80.8808 46.8305 76.425 47.0778 74.0222C47.3228 71.6205 47.4135 69.0681 47.3181 68.3296C47.2204 67.5923 46.8611 65.1164 44.9883 65.0399Z" fill="#FFCAAA"/>
<path d="M56.1307 83.6069C55.947 81.9002 56.7856 75.9897 56.7314 74.4785C56.6796 72.9685 56.6796 67.1369 56.4416 66.1558C56.4416 66.1558 55.9752 64.4891 54.1036 64.5598C52.2332 64.6352 51.8727 67.1099 51.775 67.8495C51.6796 68.5869 51.7703 71.1381 52.0176 73.5421C52.2614 75.9449 53.3969 80.3996 53.6042 81.7294C53.7891 82.9037 53.2296 84.2311 53.1177 84.8165L52.9835 85.2205C52.9835 85.2205 52.7832 86.0733 53.1036 86.5739C53.5288 87.2488 54.3404 86.9744 55.9894 89.0521C56.4134 89.5857 57.57 90.0969 58.3804 90.0827C59.1943 90.0686 59.3533 89.7364 59.3309 89.1346C59.3144 88.7117 59.0954 88.2382 58.6937 87.866C57.351 86.6281 56.1448 83.7565 56.1307 83.6069Z" fill="#FFCAAA"/>
<path d="M45.9081 44.6408C45.0954 44.7868 43.9116 44.947 43.1425 46.2862C42.3698 47.6231 42.2391 49.5854 42.1213 55.3428C42.0035 61.1001 42.3828 66.9034 42.8527 67.5288C43.3239 68.1578 43.7243 68.6042 44.7773 68.6631C45.6784 68.7102 47.0777 68.5571 47.3604 67.8398C47.6395 67.1272 49.0341 61.2061 49.2614 56.1449C49.4888 51.0824 49.7809 47.0742 48.9705 45.6855C48.159 44.2957 46.7196 44.4912 45.9081 44.6408Z" fill="#FFCAAA"/>
<path d="M55.7881 46.2862C55.0154 44.947 53.8328 44.7868 53.0213 44.6408C52.2074 44.4912 50.7692 44.2957 49.9589 45.6855C49.1462 47.0742 49.4383 51.0824 49.6668 56.1449C49.8929 61.2061 51.2875 67.1272 51.5702 67.8398C51.8505 68.5571 53.2498 68.7102 54.152 68.6631C55.2062 68.6042 55.6031 68.1578 56.0755 67.5288C56.5454 66.9034 56.9235 61.1001 56.8081 55.3428C56.6903 49.5854 56.5584 47.6231 55.7881 46.2862Z" fill="#FFCAAA"/>
<path d="M38.3017 55.709C38.0532 55.709 37.8105 55.5782 37.6774 55.3474C37.4796 55.0023 37.595 54.5629 37.9377 54.3662C38.0485 54.3026 38.1698 54.272 38.2899 54.272C38.5326 54.272 38.7681 54.3945 38.9048 54.6148C38.9048 54.868 38.9048 55.1212 38.9048 55.3721C38.8447 55.4699 38.7611 55.5535 38.6551 55.6136C38.5432 55.6784 38.4219 55.709 38.3017 55.709Z" fill="#8F7FBA"/>
<path d="M23.449 34.3301C23.3289 34.3301 23.2076 34.2994 23.0957 34.2358C22.7517 34.0391 22.634 33.5986 22.8318 33.2547C22.9649 33.0227 23.2088 32.8919 23.4573 32.8919C23.5774 32.8919 23.6999 32.9225 23.8118 32.9861C24.1557 33.1828 24.2724 33.6234 24.0757 33.9673C23.9426 34.1993 23.6987 34.3301 23.449 34.3301Z" fill="#8F7FBA"/>
<path d="M38.37 42.8828C38.2487 42.8828 38.1274 42.8522 38.0155 42.7874C37.6715 42.5907 37.5538 42.1514 37.7516 41.8063C37.8847 41.5742 38.1262 41.4435 38.3759 41.4435C38.496 41.4435 38.6185 41.4741 38.7316 41.5389C39.0744 41.7356 39.1921 42.1749 38.9954 42.5189C38.8623 42.7521 38.6185 42.8828 38.37 42.8828Z" fill="#8F7FBA"/>
<path d="M38.1286 78.3643C37.9979 78.3643 37.8636 78.3301 37.7399 78.2594C37.3795 78.0509 37.2488 77.6034 37.4466 77.2583C37.5774 77.0333 37.8177 76.9073 38.0709 76.9073C38.2016 76.9073 38.3359 76.9414 38.4596 77.0121C38.82 77.2206 38.9508 77.6681 38.7529 78.0121C38.6221 78.2382 38.3807 78.3643 38.1286 78.3643Z" fill="#8F7FBA"/>
<path d="M41.9885 18.3926C41.7364 18.3926 41.495 18.2677 41.3642 18.0416C41.1664 17.6965 41.2971 17.2489 41.6575 17.0404C41.7812 16.9697 41.9155 16.9356 42.0462 16.9356C42.2123 16.9356 42.3737 16.9909 42.502 17.0922C42.5892 17.3137 42.674 17.5292 42.7553 17.7365C42.7247 17.9568 42.5916 18.1641 42.3772 18.2877C42.2535 18.3584 42.1192 18.3926 41.9885 18.3926Z" fill="#8F7FBA"/>
<path d="M38.0709 20.6523C37.8177 20.6523 37.5774 20.5263 37.4466 20.3002C37.2488 19.9562 37.3795 19.5075 37.7399 19.3002C37.8636 19.2295 37.9979 19.1953 38.1286 19.1953C38.3807 19.1953 38.6221 19.3214 38.7529 19.5475C38.9508 19.8903 38.82 20.339 38.4596 20.5475C38.3359 20.6182 38.2016 20.6523 38.0709 20.6523Z" fill="#8F7FBA"/>
<path d="M19.449 34.8975C19.0497 34.8727 18.6339 34.8421 18.2052 34.8056C18.3348 34.6054 18.5538 34.4746 18.8024 34.4746C19.0862 34.4746 19.3324 34.6466 19.449 34.8975Z" fill="#8F7FBA"/>
<path d="M18.8024 33.5918C17.8648 33.5918 17.0438 33.0865 16.601 32.3338C18.0026 32.4775 19.4431 32.56 20.8141 32.6059C20.3477 33.2055 19.6198 33.5918 18.8024 33.5918Z" fill="#8F7FBA"/>
<path d="M42.0156 53.5703C41.7671 53.5703 41.5245 53.4408 41.3914 53.2087C41.1935 52.866 41.3089 52.4254 41.6505 52.2287C41.7624 52.164 41.8837 52.1333 42.0038 52.1333C42.0721 52.1333 42.1393 52.1439 42.2041 52.1628C42.1888 52.5939 42.1758 53.0568 42.1628 53.555C42.1134 53.5656 42.0651 53.5703 42.0156 53.5703Z" fill="#A35C96"/>
<path d="M38.9049 55.373C38.9049 55.1222 38.9049 54.8689 38.9049 54.6157C38.9084 54.6227 38.912 54.6286 38.9155 54.6345C39.0521 54.8725 39.0392 55.1563 38.9049 55.373Z" fill="#A35C96"/>
<path d="M49.5608 54.123C49.4902 54.123 49.4218 54.1124 49.3571 54.0948C49.3794 53.626 49.4006 53.1702 49.4195 52.7285C49.4489 52.7226 49.4784 52.719 49.5078 52.7167C49.5255 53.1183 49.5443 53.5318 49.5644 53.9558V54.123C49.5632 54.123 49.562 54.123 49.5608 54.123Z" fill="#A35C96"/>
<path d="M49.5608 58.3477C49.3924 58.3477 49.2369 58.2911 49.1144 58.1957C49.1521 57.8047 49.1839 57.4148 49.211 57.0273C49.3146 56.9707 49.4336 56.9389 49.5608 56.9389C49.562 56.9389 49.5632 56.9389 49.5643 56.9389V58.3477C49.5632 58.3477 49.562 58.3477 49.5608 58.3477Z" fill="#A35C96"/>
<path d="M49.5609 62.5723C49.1628 62.5723 48.8401 62.2578 48.8401 61.8679C48.8401 61.4792 49.1628 61.1635 49.5609 61.1635C49.5621 61.1635 49.5633 61.1635 49.5645 61.1635V62.5723C49.5633 62.5723 49.5621 62.5723 49.5609 62.5723Z" fill="#A35C96"/>
<path d="M49.5609 66.7959C49.1628 66.7959 48.8401 66.4802 48.8401 66.0915C48.8401 65.7029 49.1628 65.3872 49.5609 65.3872C49.5621 65.3872 49.5633 65.3872 49.5645 65.3872V66.7959C49.5633 66.7959 49.5621 66.7959 49.5609 66.7959Z" fill="#A35C96"/>
<path d="M49.5609 71.0225C49.1628 71.0225 48.8401 70.7068 48.8401 70.3181C48.8401 69.9282 49.1628 69.6137 49.5609 69.6137C49.5621 69.6137 49.5633 69.6137 49.5645 69.6137V71.0225C49.5633 71.0225 49.5621 71.0225 49.5609 71.0225Z" fill="#A35C96"/>
<path d="M49.5609 75.2461C49.1628 75.2461 48.8401 74.9304 48.8401 74.5417C48.8401 74.1519 49.1628 73.8362 49.5609 73.8362C49.5621 73.8362 49.5633 73.8362 49.5645 73.8362V75.2461C49.5633 75.2461 49.5621 75.2461 49.5609 75.2461Z" fill="#A35C96"/>
<path d="M49.5609 79.4697C49.1628 79.4697 48.8401 79.1564 48.8401 78.7666C48.8401 78.3779 49.1628 78.0622 49.5609 78.0622C49.5621 78.0622 49.5633 78.0622 49.5645 78.0622V79.4697C49.5633 79.4697 49.5621 79.4697 49.5609 79.4697Z" fill="#A35C96"/>
<path d="M42.0992 45.0195C41.9791 45.0195 41.8566 44.9901 41.7447 44.9253C41.4019 44.7286 41.2841 44.2893 41.4808 43.9441C41.6139 43.7121 41.8577 43.5814 42.1063 43.5814C42.2264 43.5814 42.3489 43.612 42.4608 43.6768C42.8047 43.8747 42.9225 44.314 42.7246 44.6567C42.5915 44.8888 42.3489 45.0195 42.0992 45.0195Z" fill="#A35C96"/>
<path d="M42.0462 80.624C41.9155 80.624 41.7812 80.5899 41.6575 80.5192C41.2971 80.3107 41.1664 79.862 41.3642 79.518C41.495 79.293 41.7364 79.167 41.9885 79.167C42.1192 79.167 42.2535 79.2012 42.3772 79.2718C42.5645 79.3802 42.6893 79.5522 42.7388 79.7418C42.747 79.8196 42.7541 79.8973 42.7612 79.975C42.7541 80.0763 42.7247 80.1776 42.6705 80.2707C42.5397 80.498 42.2983 80.624 42.0462 80.624Z" fill="#A35C96"/>
<path d="M45.9637 82.8828C45.833 82.8828 45.6987 82.8487 45.5762 82.778C45.5314 82.7521 45.4902 82.7226 45.4525 82.6896C45.4537 82.5283 45.4655 82.3681 45.4902 82.2103C45.5196 82.0242 45.5668 81.7745 45.628 81.4788C45.7152 81.4435 45.8106 81.4246 45.9072 81.4246C46.0379 81.4246 46.1722 81.4588 46.2947 81.5295C46.6563 81.7379 46.787 82.1867 46.5891 82.5295C46.4584 82.7568 46.2169 82.8828 45.9637 82.8828Z" fill="#A35C96"/>
<path d="M49.5596 85.6084C48.8046 85.6084 48.1909 84.9971 48.1909 84.2433C48.1909 83.4883 48.8046 82.8758 49.5596 82.8758C49.5619 82.8758 49.5631 82.8758 49.5643 82.8758V85.6084C49.5631 85.6084 49.5619 85.6084 49.5596 85.6084Z" fill="#A9679B"/>
<path d="M42.7551 17.7363C42.6738 17.529 42.589 17.3135 42.5018 17.092C42.5678 17.145 42.6255 17.211 42.6703 17.2876C42.7515 17.4277 42.7775 17.5856 42.7551 17.7363Z" fill="#A35C96"/>
<path d="M34.1522 22.9102C33.9001 22.9102 33.6586 22.7853 33.5279 22.5591C33.33 22.2152 33.4608 21.7664 33.8224 21.558C33.9449 21.4873 34.0791 21.4531 34.2099 21.4531C34.4631 21.4531 34.7034 21.5792 34.8341 21.8065C35.032 22.1492 34.9013 22.598 34.5409 22.8053C34.4172 22.876 34.2829 22.9102 34.1522 22.9102Z" fill="#A35C96"/>
<path d="M30.2346 25.1689C29.9813 25.1689 29.7411 25.0441 29.6103 24.8179C29.4125 24.4728 29.5432 24.0253 29.9036 23.8168C30.0273 23.7461 30.1616 23.7119 30.2923 23.7119C30.5444 23.7119 30.7858 23.838 30.9166 24.0641C31.1144 24.4069 30.9837 24.8556 30.6233 25.0641C30.4996 25.1348 30.3653 25.1689 30.2346 25.1689Z" fill="#A35C96"/>
<path d="M22.3984 29.6865C22.1463 29.6865 21.9048 29.5605 21.7741 29.3355C21.7329 29.2625 21.7058 29.1848 21.6917 29.1058C21.8106 29.107 21.9296 29.107 22.0485 29.107C22.4125 29.107 22.7812 29.1047 23.1522 29.0976C23.1051 29.2919 22.979 29.471 22.787 29.5817C22.6634 29.6524 22.5291 29.6865 22.3984 29.6865Z" fill="#A35C96"/>
<path d="M49.5597 86.7861C48.1557 86.7861 47.0132 85.646 47.0132 84.2431C47.0132 82.8403 48.1557 81.6978 49.5597 81.6978C49.5621 81.6978 49.5632 81.6978 49.5644 81.6978V82.8757C49.5632 82.8757 49.5621 82.8757 49.5597 82.8757C48.8047 82.8757 48.191 83.4881 48.191 84.2431C48.191 84.997 48.8047 85.6083 49.5597 85.6083C49.5621 85.6083 49.5632 85.6083 49.5644 85.6083V86.7861C49.5632 86.7861 49.5621 86.7861 49.5597 86.7861Z" fill="#A35C96"/>
<path d="M18.8024 32.4141C18.0451 32.4141 17.4279 31.8016 17.4279 31.0478C17.4279 30.2927 18.0451 29.6791 18.8024 29.6791C19.5574 29.6791 20.1723 30.2927 20.1723 31.0478C20.1723 31.8016 19.5574 32.4141 18.8024 32.4141Z" fill="#A9679B"/>
<path d="M20.8141 32.6055C19.443 32.5595 18.0025 32.4771 16.6009 32.3334C16.3783 31.9553 16.2499 31.516 16.2499 31.0472C16.2499 30.1485 16.7187 29.3558 17.4266 28.9035C18.0273 28.9847 19.1239 29.0542 20.4266 29.086C20.9896 29.5536 21.35 30.2592 21.35 31.0472C21.35 31.6337 21.1498 32.1756 20.8141 32.6055ZM18.8023 29.6785C18.0449 29.6785 17.4277 30.2922 17.4277 31.0472C17.4277 31.801 18.0449 32.4135 18.8023 32.4135C19.5573 32.4135 20.1721 31.801 20.1721 31.0472C20.1721 30.2922 19.5573 29.6785 18.8023 29.6785Z" fill="#A35C96"/>
<path d="M49.4737 47.8594C49.4679 47.8594 49.4608 47.8594 49.4549 47.8594C49.4514 47.8075 49.4478 47.7569 49.4431 47.7074H49.4855C49.4808 47.7569 49.4773 47.8087 49.4737 47.8594Z" fill="#A9679B"/>
<path d="M49.456 47.8672C49.4548 47.8648 49.4548 47.8625 49.4548 47.8601C49.4608 47.8601 49.4679 47.8601 49.4738 47.8601C49.4738 47.8625 49.4738 47.8636 49.4726 47.8648C49.4667 47.8648 49.4619 47.866 49.456 47.8672Z" fill="#A35C96"/>
<path d="M49.4643 47.9971C49.4619 47.9535 49.4584 47.9099 49.4561 47.8663C49.4619 47.8651 49.4667 47.864 49.4725 47.864C49.4702 47.9076 49.4666 47.9523 49.4643 47.9971Z" fill="#A35C96"/>
<path d="M49.4726 21.7441C48.8071 21.7441 48.0167 21.3142 47.2924 20.584C46.2358 19.518 45.3159 17.8125 45.1169 15.8631C45.1169 15.8549 45.1157 15.8466 45.1145 15.8396L45.356 16.1022C45.356 16.1022 45.7505 13.3814 46.3866 13.0115C46.588 12.8937 47.8059 12.2836 47.8059 12.2836C47.8059 12.2836 48.6068 12.4391 49.5644 12.6523V21.7406C49.5338 21.743 49.502 21.7441 49.4726 21.7441Z" fill="#DAAF9F"/>
<path d="M45.3559 16.1016L45.1144 15.8389L44.7387 15.429C44.7387 15.429 44.5008 13.0427 45.0532 11.5986C45.575 10.2311 47.5891 8.93313 49.4466 8.93195C49.4855 8.93195 49.5255 8.93195 49.5644 8.93313V12.6516C48.6068 12.4384 47.8058 12.283 47.8058 12.283C47.8058 12.283 46.5879 12.8931 46.3865 13.0109C45.7505 13.3807 45.3559 16.1016 45.3559 16.1016Z" fill="#7F2F1E"/>
<path d="M33.2959 28.7881C31.3195 28.7881 29.6293 28.6833 28.9379 28.5325C29.3878 28.4029 29.7117 28.2486 29.8625 28.0637C30.462 27.3323 29.5586 26.2098 29.5586 26.2098C29.3183 26.0354 28.9803 25.9118 28.5657 25.8317C28.5669 25.8317 28.568 25.8305 28.5692 25.8305C31.4561 25.2192 36.5975 23.8105 39.9591 23.8105C40.462 23.8105 40.9261 23.8423 41.336 23.9129C42.0969 24.0437 42.6728 24.3087 42.9791 24.7551C42.9791 24.7551 43.6022 26.3005 42.7482 27.2816C42.548 27.5089 42.197 27.7068 41.7341 27.8752C39.8919 28.5513 36.27 28.7881 33.2959 28.7881Z" fill="#DAA288"/>
<path d="M22.0486 29.1064C21.9296 29.1064 21.8107 29.1064 21.6917 29.1053C21.2559 29.1029 20.8307 29.097 20.4267 29.0864C19.124 29.0546 18.0274 28.9851 17.4267 28.9038C17.2359 28.8768 17.0957 28.8497 17.0132 28.8214C16.9461 28.799 16.8825 28.7731 16.8236 28.7437C17.4055 28.3385 17.601 27.6447 16.9956 27.2419C16.9602 27.2183 16.9249 27.1948 16.8884 27.1724C17.0097 27.1206 17.1487 27.0793 17.3065 27.0487C19.912 26.5599 24.1322 25.706 26.9767 25.706C27.5774 25.706 28.1169 25.7437 28.5656 25.832C28.9802 25.9121 29.3183 26.0358 29.5586 26.2101C29.5586 26.2101 30.462 27.3326 29.8625 28.064C29.7117 28.249 29.3878 28.4033 28.9378 28.5328C27.6658 28.8991 25.3866 29.0593 23.1522 29.097C22.7812 29.1041 22.4125 29.1064 22.0486 29.1064Z" fill="#DAA288"/>
<path d="M16.1722 29.0059C16.3783 28.9128 16.4937 28.815 16.4796 28.7302C16.4595 28.6042 16.1545 28.5347 15.714 28.5347C15.4725 28.5347 15.1898 28.5559 14.8895 28.5995C14.8035 28.6124 14.7199 28.6254 14.6386 28.6407C14.3359 28.563 13.9849 28.5029 13.5585 28.5029C13.5314 28.5029 13.5043 28.5029 13.476 28.5041C12.6009 28.5182 11.5785 28.9811 11.0791 28.9811C10.9448 28.9811 10.8482 28.9481 10.8035 28.8633C10.5926 28.4558 13.032 27.298 14.2746 26.9458C14.7198 26.8162 15.1062 26.7585 15.4501 26.7585C16.0179 26.7585 16.4713 26.9163 16.8883 27.1731C16.9248 27.1955 16.9601 27.219 16.9955 27.2426C17.6009 27.6454 17.4054 28.3392 16.8235 28.7444C16.7363 28.8056 16.6398 28.8598 16.5373 28.9057C16.4101 28.9623 16.2899 28.9941 16.1722 29.0059Z" fill="#DAA288"/>
<path d="M14.1874 29.377C13.7493 29.377 13.4454 29.3086 13.423 29.1814C13.3924 29.0024 13.9201 28.7751 14.6386 28.6408C14.7198 28.6255 14.8035 28.6125 14.8895 28.5996C15.1898 28.556 15.4725 28.5348 15.714 28.5348C16.1545 28.5348 16.4595 28.6043 16.4796 28.7303C16.4937 28.8151 16.3783 28.9129 16.1721 29.0059C15.9059 29.1273 15.489 29.2415 15.0119 29.3122C14.7128 29.3558 14.4301 29.377 14.1874 29.377Z" fill="#DAA288"/>
<path d="M40.7446 90.5645C40.7329 90.5645 40.7223 90.5645 40.7117 90.5645C39.8978 90.5515 39.7388 90.2182 39.76 89.6151C39.7788 89.1923 40.0002 88.7188 40.3995 88.3454C41.7435 87.1098 42.9496 84.2358 42.9637 84.0874C43.0473 83.3136 42.9201 81.6752 42.7611 79.9744C42.7541 79.8966 42.747 79.8189 42.7387 79.7412C42.5526 77.7647 42.3336 75.7541 42.3618 74.9591C42.4125 73.5127 42.4137 68.1028 42.6233 66.7848C42.6963 67.1652 42.7741 67.4208 42.853 67.528C43.3241 68.157 43.7246 68.6034 44.7776 68.6623C44.8742 68.667 44.9767 68.6693 45.0827 68.6693C45.886 68.6693 46.9036 68.5127 47.2699 68.0027C47.2911 68.131 47.3065 68.2429 47.3182 68.3289C47.4136 69.0674 47.323 71.6199 47.078 74.0215C46.8659 76.0875 46.0002 79.6681 45.628 81.4785C45.5668 81.7741 45.5197 82.0238 45.4902 82.2099C45.4655 82.3678 45.4537 82.528 45.4525 82.6893C45.4455 83.727 45.8777 84.7918 45.9743 85.2971L46.1086 85.7011C46.1086 85.7011 46.3088 86.5539 45.9943 87.0568C45.5656 87.7294 44.7541 87.4549 43.1039 89.5303C42.6846 90.0592 41.5538 90.5645 40.7446 90.5645Z" fill="#DAA288"/>
<path d="M45.0826 68.6689C44.9766 68.6689 44.8741 68.6666 44.7776 68.6619C43.7246 68.603 43.3241 68.1566 42.8529 67.5276C42.774 67.4204 42.6963 67.1648 42.6233 66.7844C42.2687 64.9293 42.0237 60.1201 42.1215 55.3415C42.1356 54.7008 42.1486 54.1059 42.1627 53.5547C42.1757 53.0565 42.1886 52.5936 42.204 52.1625C42.2947 49.5924 42.4383 48.1425 42.7693 47.1319C42.873 46.8138 42.9966 46.5382 43.1427 46.285C43.9118 44.9458 45.0956 44.7856 45.9083 44.6395C46.178 44.5901 46.5173 44.5347 46.8789 44.5347C47.6068 44.5347 48.4289 44.7561 48.9707 45.6843C49.224 46.1177 49.37 46.808 49.443 47.7067C49.4478 47.7561 49.4513 47.8068 49.4548 47.8586C49.4548 47.861 49.4548 47.8633 49.456 47.8657C49.4584 47.9093 49.4619 47.9528 49.4642 47.9964C49.4018 48.9882 49.4159 50.2061 49.4642 51.5936C49.4513 51.9599 49.436 52.3392 49.4195 52.7279C49.4006 53.1696 49.3794 53.6254 49.3571 54.0942C49.3264 54.7538 49.2935 55.4381 49.2616 56.1436C49.2487 56.4357 49.231 56.7302 49.211 57.027C49.1839 57.4145 49.1521 57.8044 49.1144 58.1955C48.6821 62.6878 47.6021 67.2202 47.3606 67.8386C47.337 67.8974 47.3076 67.9516 47.2699 68.0023C46.9036 68.5123 45.8859 68.6689 45.0826 68.6689Z" fill="#DAA288"/>
<path d="M49.5644 53.9561C49.5444 53.532 49.5255 53.1186 49.5079 52.7169C49.4914 52.3318 49.4761 51.9572 49.4643 51.5945C49.416 50.2069 49.4019 48.989 49.4643 47.9973C49.4667 47.9525 49.4702 47.9078 49.4725 47.8642C49.4737 47.863 49.4737 47.8618 49.4737 47.8595C49.4773 47.8088 49.4808 47.757 49.4855 47.7075C49.5055 47.4578 49.5314 47.2234 49.5644 47.0067V53.9561Z" fill="#DAA288"/>
</svg>
