<svg width="100" height="100" viewBox="0 0 100 100" fill="none" xmlns="http://www.w3.org/2000/svg">
<path d="M81.4862 25.0214C78.0231 24.0873 72.3697 45.2632 69.8354 43.663C66.8841 41.7979 75.4708 13.6176 69.8354 12.5927C64.7087 11.6606 63.8611 41.021 60.2027 41.021C57.4066 41.021 60.9785 8.99969 56.0091 8.99969C50.2607 8.99969 53.213 41.7979 50.1056 41.952C48.0642 42.0544 46.4809 27.8164 46.0671 24.71C45.6523 21.6015 44.8227 14.3005 42.0266 14.9211C39.2326 15.5428 39.8522 21.7578 40.0063 25.3286C40.1625 28.9026 41.5601 39.9328 41.5601 43.3516C41.5601 46.7694 42.0266 59.5053 37.9871 59.8167C33.9487 60.1302 30.8423 52.2908 24.3181 50.2347C21.3975 49.3153 16.8609 51.896 17.9491 53.6049C19.0352 55.3128 25.4053 58.8857 27.5807 61.0611C29.753 63.2355 34.7245 72.2476 36.2793 75.0426C37.833 77.8387 41.9907 78.9913 45.2892 80.7899C46.9981 81.7209 46.0671 91.5098 46.0671 91.5098H72.0097C72.0097 91.5098 70.455 79.7016 72.0097 77.5273C73.5624 75.354 75.5183 59.4261 75.5816 57.3848C76.0471 42.161 85.5246 26.1086 81.4862 25.0214Z" fill="#FFA47C"/>
<path d="M41.16 66.4675C40.9194 66.3946 40.6597 66.5445 40.5816 66.8021C40.5046 67.0607 40.6396 67.3277 40.8803 67.4005C41.1231 67.4734 41.3827 67.3235 41.4598 67.0659C41.5368 66.8073 41.4018 66.5403 41.16 66.4675Z" fill="white"/>
<path d="M41.9992 63.668C41.7585 63.5951 41.4988 63.745 41.4218 64.0026C41.3447 64.2601 41.4788 64.5282 41.7205 64.6021C41.9622 64.6739 42.2219 64.525 42.2989 64.2654C42.376 64.0089 42.2419 63.7397 41.9992 63.668Z" fill="white"/>
<path d="M42.8393 60.8688C42.5976 60.7971 42.339 60.9469 42.2619 61.2055C42.1838 61.462 42.3178 61.7301 42.5585 61.8019C42.8013 61.8747 43.062 61.7249 43.138 61.4684C43.2161 61.2098 43.081 60.9427 42.8393 60.8688Z" fill="white"/>
<path d="M43.6795 58.0705C43.4367 57.9976 43.1771 58.1475 43.1011 58.404C43.024 58.6626 43.157 58.9307 43.3988 59.0035C43.6415 59.0753 43.9012 58.9254 43.9772 58.6668C44.0542 58.4103 43.9212 58.1422 43.6795 58.0705Z" fill="white"/>
<path d="M44.5186 55.2728C44.2769 55.1989 44.0172 55.3488 43.9412 55.6074C43.8631 55.8639 43.9972 56.1331 44.2378 56.2038C44.4806 56.2777 44.7403 56.1278 44.8173 55.8703C44.8944 55.6127 44.7603 55.3446 44.5186 55.2728Z" fill="white"/>
<path d="M45.3589 52.4731C45.1162 52.4013 44.8565 52.5512 44.7795 52.8087C44.7024 53.0663 44.8364 53.3333 45.0782 53.4072C45.3188 53.4779 45.5795 53.3291 45.6566 53.0716C45.7336 52.814 45.5996 52.5459 45.3589 52.4731Z" fill="white"/>
<path d="M46.196 49.6746C45.9553 49.6017 45.6957 49.7506 45.6197 50.0092C45.5416 50.2667 45.6756 50.5348 45.9163 50.6066C46.159 50.6794 46.4187 50.5295 46.4968 50.272C46.5739 50.0144 46.4398 49.7463 46.196 49.6746Z" fill="white"/>
<path d="M49.2253 46.7269C48.9857 46.7596 48.8221 46.9918 48.858 47.2398C48.8928 47.4911 49.1145 47.6673 49.3551 47.6335C49.5926 47.5987 49.7573 47.3676 49.7203 47.1174C49.6855 46.8683 49.4638 46.692 49.2253 46.7269Z" fill="white"/>
<path d="M51.8155 46.3567C51.577 46.3915 51.4123 46.6216 51.4472 46.8718C51.483 47.1209 51.7047 47.2982 51.9443 47.2644C52.1818 47.2296 52.3465 46.9995 52.3106 46.7472C52.2757 46.4992 52.053 46.3229 51.8155 46.3567Z" fill="white"/>
<path d="M54.4046 45.9876C54.166 46.0224 54.0014 46.2525 54.0373 46.5027C54.0731 46.7518 54.2948 46.9281 54.5333 46.8943C54.7719 46.8616 54.9366 46.6294 54.9007 46.3803C54.8648 46.1301 54.6431 45.9549 54.4046 45.9876Z" fill="white"/>
<path d="M57.0815 45.9207C56.8409 45.9207 56.6456 46.1266 56.6456 46.3799C56.6456 46.6321 56.8409 46.8369 57.0815 46.8369C57.3222 46.8369 57.5164 46.6321 57.5164 46.3799C57.5164 46.1266 57.3222 45.9207 57.0815 45.9207Z" fill="white"/>
<path d="M59.696 45.9207C59.4554 45.9207 59.2601 46.1266 59.2601 46.3799C59.2601 46.6321 59.4554 46.8369 59.696 46.8369C59.9378 46.8369 60.133 46.6321 60.133 46.3799C60.133 46.1266 59.9378 45.9207 59.696 45.9207Z" fill="white"/>
<path d="M62.3126 45.9207C62.073 45.9207 61.8767 46.1266 61.8767 46.3799C61.8767 46.6321 62.073 46.8369 62.3126 46.8369C62.5543 46.8369 62.7486 46.6321 62.7486 46.3799C62.7486 46.1266 62.5543 45.9207 62.3126 45.9207Z" fill="white"/>
<path d="M65.0085 46.4902C64.791 46.3867 64.5261 46.487 64.4163 46.7139C64.3086 46.9419 64.3941 47.2111 64.6116 47.3156C64.829 47.4211 65.094 47.3198 65.2016 47.0929C65.3114 46.8649 65.2248 46.5947 65.0085 46.4902Z" fill="white"/>
<path d="M67.3665 47.623C67.149 47.5185 66.8841 47.6188 66.7754 47.8468C66.6656 48.0737 66.7521 48.3439 66.9696 48.4474C67.187 48.5508 67.4509 48.4516 67.5617 48.2236C67.6704 47.9956 67.5828 47.7254 67.3665 47.623Z" fill="white"/>
<path d="M69.7256 48.7559C69.5071 48.6504 69.2411 48.7517 69.1324 48.9776C69.0237 49.2066 69.1113 49.4758 69.3277 49.5814C69.5461 49.6848 69.8111 49.5845 69.9188 49.3555C70.0285 49.1285 69.942 48.8594 69.7256 48.7559Z" fill="white"/>
<path d="M71.5063 52.4384C71.254 52.4078 71.0239 52.5873 70.9901 52.8437C70.9563 53.1002 71.1336 53.3346 71.3838 53.3673C71.634 53.4 71.8651 53.2185 71.8978 52.962C71.9316 52.7055 71.7543 52.4712 71.5063 52.4384Z" fill="white"/>
<path d="M71.142 55.2239C70.8908 55.1912 70.6596 55.3716 70.6258 55.6281C70.5931 55.8846 70.7704 56.1179 71.0206 56.1517C71.2697 56.1833 71.5009 56.0028 71.5336 55.7474C71.5684 55.4909 71.3922 55.2566 71.142 55.2239Z" fill="white"/>
<path d="M70.779 58.0074C70.5277 57.9747 70.2955 58.1562 70.2628 58.4127C70.2301 58.6682 70.4064 58.9036 70.6565 58.9342C70.9067 58.969 71.1378 58.7885 71.1716 58.531C71.2043 58.2745 71.0281 58.0401 70.779 58.0074Z" fill="white"/>
<path d="M70.4147 60.7919C70.1635 60.7592 69.9334 60.9408 69.8997 61.1973C69.8659 61.4538 70.0421 61.687 70.2934 61.7208C70.5435 61.7535 70.7747 61.572 70.8074 61.3155C70.8412 61.0579 70.6638 60.8236 70.4147 60.7919Z" fill="white"/>
<path d="M70.0508 63.5764C69.8006 63.5436 69.5694 63.7231 69.5367 63.9817C69.5029 64.2382 69.6803 64.4725 69.9294 64.5052C70.1806 64.5369 70.4107 64.3553 70.4445 64.0988C70.4772 63.8434 70.2999 63.6091 70.0508 63.5764Z" fill="white"/>
<path d="M69.6876 66.3612C69.4374 66.3274 69.2052 66.5079 69.1725 66.7644C69.1398 67.0209 69.316 67.2563 69.5662 67.2879C69.8164 67.3217 70.0475 67.1402 70.0802 66.8847C70.114 66.6272 69.9378 66.3939 69.6876 66.3612Z" fill="white"/>
<path d="M69.3245 69.1456C69.0733 69.1129 68.8432 69.2934 68.8094 69.5488C68.7757 69.8053 68.9519 70.0396 69.2032 70.0723C69.4533 70.1051 69.6834 69.9246 69.7182 69.6681C69.7499 69.4116 69.5736 69.1773 69.3245 69.1456Z" fill="white"/>
<path d="M68.9603 71.9289C68.7102 71.8972 68.4801 72.0788 68.4463 72.3352C68.4115 72.5907 68.5877 72.825 68.84 72.8577C69.0901 72.8894 69.3202 72.7089 69.354 72.4524C69.3867 72.1959 69.2094 71.9616 68.9603 71.9289Z" fill="white"/>
<path d="M67.6146 74.574C67.4352 74.7587 67.4373 75.0532 67.6178 75.2284C67.7993 75.4036 68.0938 75.3952 68.2732 75.2094C68.4527 75.0237 68.4516 74.7313 68.2701 74.5561C68.0885 74.3808 67.794 74.3882 67.6146 74.574Z" fill="white"/>
<path d="M65.6628 76.5934C65.4833 76.7802 65.4865 77.0726 65.6681 77.2478C65.8496 77.4231 66.143 77.4146 66.3225 77.2299C66.5019 77.0441 66.4998 76.7507 66.3183 76.5755C66.1367 76.3992 65.8433 76.4066 65.6628 76.5934Z" fill="white"/>
<path d="M63.7122 78.6129C63.5328 78.7997 63.5349 79.0931 63.7165 79.2683C63.898 79.4436 64.1915 79.4351 64.3709 79.2504C64.5514 79.0636 64.5493 78.7701 64.3667 78.5949C64.1851 78.4186 63.8917 78.426 63.7122 78.6129Z" fill="white"/>
<path d="M61.7617 80.6313C61.5823 80.8192 61.5844 81.1116 61.7649 81.2879C61.9475 81.4631 62.242 81.4547 62.4214 81.2699C62.6008 81.0821 62.5987 80.7897 62.4172 80.6145C62.2356 80.4382 61.9422 80.4456 61.7617 80.6313Z" fill="white"/>
<path d="M59.81 82.6507C59.6306 82.8375 59.6337 83.1299 59.8153 83.3051C59.9968 83.4803 60.2903 83.4729 60.4697 83.2871C60.6502 83.1014 60.647 82.8069 60.4655 82.6338C60.2839 82.4564 59.9905 82.4649 59.81 82.6507Z" fill="white"/>
<path d="M55.875 82.9585C55.7114 83.1506 55.7283 83.4346 55.9141 83.5939C56.0988 83.7523 56.3827 83.7259 56.5463 83.5338C56.7099 83.3417 56.6941 83.0567 56.5094 82.8983C56.3236 82.739 56.0407 82.7675 55.875 82.9585Z" fill="white"/>
<path d="M53.8652 81.2358C53.7016 81.4269 53.7175 81.7119 53.9032 81.8702C54.088 82.0296 54.3719 82.0011 54.5355 81.81C54.7012 81.6179 54.6854 81.3329 54.4996 81.1746C54.3138 81.0163 54.0299 81.0437 53.8652 81.2358Z" fill="white"/>
<path d="M51.8555 79.5119C51.6908 79.703 51.7067 79.9869 51.8925 80.1453C52.0782 80.3046 52.3611 80.2772 52.5247 80.0851C52.6894 79.894 52.6725 79.6091 52.4878 79.4507C52.3041 79.2903 52.0191 79.3198 51.8555 79.5119Z" fill="white"/>
<path d="M49.8448 77.7881C49.6801 77.9792 49.697 78.2652 49.8817 78.4225C50.0675 78.5819 50.3514 78.5544 50.515 78.3634C50.6797 78.1713 50.6628 77.8852 50.4781 77.7269C50.2923 77.5696 50.0084 77.596 49.8448 77.7881Z" fill="white"/>
<path d="M47.8341 76.067C47.6705 76.257 47.6874 76.5409 47.871 76.7003C48.0557 76.8597 48.3397 76.8312 48.5033 76.6401C48.6679 76.447 48.6532 76.1641 48.4674 76.0047C48.2816 75.8464 47.9977 75.8728 47.8341 76.067Z" fill="white"/>
<path d="M45.8222 74.3423C45.6597 74.5344 45.6744 74.8183 45.8602 74.9767C46.046 75.135 46.3289 75.1086 46.4935 74.9175C46.6582 74.7244 46.6413 74.4404 46.4566 74.2811C46.2719 74.1227 45.9879 74.1502 45.8222 74.3423Z" fill="white"/>
<path d="M43.8135 72.6161C43.6489 72.8082 43.6657 73.0932 43.8505 73.2526C44.0362 73.4109 44.3191 73.3835 44.4827 73.1914C44.6474 73.0003 44.6315 72.7143 44.4458 72.557C44.2611 72.3987 43.9771 72.4261 43.8135 72.6161Z" fill="white"/>
<path d="M41.8018 70.8955C41.6381 71.0866 41.654 71.3705 41.8398 71.5299C42.0234 71.6882 42.3084 71.6608 42.472 71.4687C42.6356 71.2776 42.6219 70.9937 42.4361 70.8343C42.2504 70.6749 41.9675 70.7034 41.8018 70.8955Z" fill="white"/>
<path d="M48.9107 51.2151C48.6817 51.3248 48.5825 51.5919 48.6891 51.8093C48.7957 52.0278 49.0659 52.1144 49.2929 52.0035C49.5208 51.8938 49.6201 51.6288 49.5134 51.4103C49.4079 51.1908 49.1366 51.1042 48.9107 51.2151Z" fill="white"/>
<path d="M50.0611 53.5837C49.8321 53.6934 49.734 53.9594 49.8395 54.179C49.9451 54.3964 50.2163 54.4819 50.4433 54.3721C50.6713 54.2624 50.7694 53.9953 50.6628 53.7768C50.5562 53.5594 50.286 53.4739 50.0611 53.5837Z" fill="white"/>
<path d="M51.2108 55.9514C50.9828 56.0622 50.8846 56.3282 50.9902 56.5456C51.0957 56.7641 51.367 56.8507 51.5939 56.7399C51.8208 56.6301 51.919 56.363 51.8135 56.1456C51.7069 55.9271 51.4356 55.8416 51.2108 55.9514Z" fill="white"/>
<path d="M52.3602 58.3185C52.1322 58.4294 52.034 58.6954 52.1396 58.9139C52.2462 59.1313 52.5164 59.2178 52.7444 59.107C52.9703 58.9983 53.0695 58.7312 52.9639 58.5128C52.8573 58.2953 52.586 58.2088 52.3602 58.3185Z" fill="white"/>
<path d="M53.5107 60.6865C53.2827 60.7973 53.1845 61.0633 53.2901 61.2818C53.3956 61.4992 53.6669 61.5868 53.8938 61.4771C54.1208 61.3662 54.22 61.0992 54.1134 60.8807C54.0068 60.6632 53.7366 60.5767 53.5107 60.6865Z" fill="white"/>
<path d="M55.6133 60.2809C55.3621 60.2725 55.152 60.4582 55.1436 60.6968C55.1351 60.9364 55.3336 61.1359 55.5858 61.1433C55.8392 61.1517 56.0503 60.966 56.0576 60.7274C56.0661 60.4889 55.8677 60.2894 55.6133 60.2809Z" fill="white"/>
<path d="M55.6987 57.6899C55.4486 57.6815 55.2364 57.8683 55.229 58.1069C55.2206 58.3454 55.4211 58.546 55.6713 58.5544C55.9235 58.5629 56.1368 58.376 56.1431 58.1375C56.1515 57.8979 55.9531 57.6984 55.6987 57.6899Z" fill="white"/>
<path d="M55.7853 55.0991C55.533 55.0928 55.3219 55.2786 55.3135 55.5171C55.305 55.7557 55.5056 55.9551 55.7579 55.9636C56.0091 55.972 56.2223 55.7863 56.2286 55.5467C56.2371 55.3081 56.0386 55.1076 55.7853 55.0991Z" fill="white"/>
<path d="M55.8708 52.5113C55.6185 52.5039 55.4074 52.6886 55.3989 52.9272C55.3905 53.1657 55.591 53.3652 55.8423 53.3737C56.0945 53.3832 56.3077 53.1964 56.3141 52.9578C56.3215 52.7193 56.1241 52.5187 55.8708 52.5113Z" fill="white"/>
<path d="M55.9563 49.9215C55.7029 49.9141 55.4929 50.0998 55.4845 50.3384C55.4771 50.5759 55.6766 50.7764 55.9278 50.7859C56.1811 50.7933 56.3932 50.6065 56.4006 50.3679C56.407 50.1294 56.2096 49.9299 55.9563 49.9215Z" fill="white"/>
<path d="M57.3845 61.7646C57.1597 61.6538 56.8884 61.7351 56.7808 61.9504C56.6731 62.1647 56.7702 62.4307 56.9961 62.5436C57.222 62.6555 57.4932 62.5742 57.6009 62.3589C57.7086 62.1436 57.6115 61.8765 57.3845 61.7646Z" fill="white"/>
<path d="M58.5498 59.4295C58.3249 59.3176 58.0537 59.4 57.946 59.6153C57.8383 59.8296 57.9365 60.0956 58.1613 60.2074C58.3872 60.3214 58.6574 60.2391 58.7661 60.0248C58.8727 59.8085 58.7756 59.5425 58.5498 59.4295Z" fill="white"/>
<path d="M59.7139 57.0963C59.4891 56.9823 59.2189 57.0657 59.1112 57.2799C59.0035 57.4963 59.1007 57.7613 59.3265 57.8742C59.5535 57.9871 59.8237 57.9048 59.9303 57.6895C60.039 57.4741 59.9409 57.2092 59.7139 57.0963Z" fill="white"/>
<path d="M60.8803 54.7604C60.6545 54.6495 60.3842 54.7308 60.2766 54.9461C60.1689 55.1604 60.2671 55.4264 60.4909 55.5404C60.7178 55.6512 60.9891 55.5699 61.0967 55.3546C61.2023 55.1404 61.1062 54.8744 60.8803 54.7604Z" fill="white"/>
<path d="M62.0456 52.426C61.8207 52.3141 61.5495 52.3964 61.4418 52.6118C61.3341 52.826 61.4312 53.092 61.6561 53.205C61.883 53.3189 62.1543 53.2345 62.2619 53.0213C62.3675 52.8049 62.2714 52.54 62.0456 52.426Z" fill="white"/>
<path d="M63.2108 50.0922C62.9849 49.9792 62.7137 50.0616 62.6071 50.2758C62.5004 50.4911 62.5976 50.7571 62.8213 50.8701C63.0483 50.983 63.3185 50.9017 63.4272 50.6854C63.5328 50.4711 63.4356 50.2051 63.2108 50.0922Z" fill="white"/>
<path d="M57.6494 62.7181C57.4573 62.9028 57.4436 63.1994 57.6178 63.382C57.793 63.5657 58.0896 63.5635 58.2838 63.3788C58.4759 63.1941 58.4918 62.8964 58.3165 62.7138C58.1424 62.5323 57.8437 62.5333 57.6494 62.7181Z" fill="white"/>
<path d="M59.7467 60.709C59.5535 60.8948 59.5398 61.1924 59.714 61.3761C59.8881 61.5576 60.1868 61.5576 60.3811 61.3719C60.5753 61.1871 60.5869 60.8884 60.4127 60.7058C60.2386 60.5232 59.9409 60.5253 59.7467 60.709Z" fill="white"/>
<path d="M61.8441 58.7056C61.6509 58.8904 61.6361 59.1891 61.8103 59.3696C61.9866 59.5522 62.2842 59.5511 62.4774 59.3675C62.6706 59.1827 62.6853 58.8851 62.5112 58.7014C62.336 58.5199 62.0372 58.5209 61.8441 58.7056Z" fill="white"/>
<path d="M63.9413 56.6995C63.7471 56.8821 63.7344 57.1819 63.9086 57.3634C64.0827 57.5471 64.3804 57.545 64.5746 57.3603C64.7667 57.1756 64.7815 56.8789 64.6063 56.6953C64.4321 56.5127 64.1344 56.5137 63.9413 56.6995Z" fill="white"/>
<path d="M66.0365 54.6934C65.8444 54.8782 65.8296 55.1758 66.0038 55.3595C66.18 55.541 66.4777 55.541 66.6709 55.3553C66.8651 55.1705 66.8788 54.8718 66.7036 54.6892C66.5294 54.5066 66.2307 54.5087 66.0365 54.6934Z" fill="white"/>
<path d="M68.136 52.6862C67.9418 52.8719 67.9271 53.1685 68.1012 53.3511C68.2754 53.5337 68.5752 53.5327 68.7673 53.348C68.9604 53.1633 68.9752 52.8656 68.8 52.683C68.6258 52.5014 68.3271 52.5014 68.136 52.6862Z" fill="white"/>
<path d="M58.8579 66.5006C58.6489 66.3665 58.3692 66.4309 58.233 66.6431C58.0958 66.8542 58.1528 67.136 58.3597 67.2711C58.5676 67.4052 58.8473 67.3397 58.9845 67.1276C59.1228 66.9165 59.0658 66.6346 58.8579 66.5006Z" fill="white"/>
<path d="M61.1126 67.9599C60.9046 67.8248 60.6249 67.8892 60.4898 68.1003C60.3505 68.3124 60.4064 68.5943 60.6154 68.7283C60.8233 68.8634 61.1031 68.798 61.2392 68.5869C61.3765 68.3758 61.3205 68.0929 61.1126 67.9599Z" fill="white"/>
<path d="M63.3671 69.4153C63.1592 69.2812 62.8795 69.3456 62.7423 69.5567C62.6051 69.7699 62.6621 70.0507 62.8689 70.1858C63.0769 70.3178 63.3566 70.2555 63.4948 70.0433C63.631 69.8322 63.5751 69.5504 63.3671 69.4153Z" fill="white"/>
<path d="M65.6217 70.8731C65.4138 70.7401 65.134 70.8045 64.9979 71.0156C64.8607 71.2278 64.9177 71.5085 65.1246 71.6426C65.3314 71.7766 65.6122 71.7133 65.7484 71.5011C65.8866 71.2879 65.8286 71.0082 65.6217 70.8731Z" fill="white"/>
<path d="M56.4365 67.3957C56.1853 67.4273 56.0059 67.6448 56.0365 67.8844C56.066 68.1219 56.294 68.2897 56.5442 68.2591C56.7954 68.2264 56.9749 68.0079 56.9442 67.7704C56.9157 67.5318 56.6867 67.3651 56.4365 67.3957Z" fill="white"/>
<path d="M56.7606 69.9833C56.5105 70.016 56.331 70.2335 56.3595 70.4731C56.3912 70.7116 56.6181 70.8784 56.8693 70.8467C57.1195 70.8151 57.2989 70.5966 57.2694 70.3591C57.2398 70.1205 57.0129 69.9527 56.7606 69.9833Z" fill="white"/>
<path d="M57.0868 72.5701C56.8356 72.6028 56.6561 72.8213 56.6846 73.0598C56.7152 73.2984 56.9432 73.4651 57.1944 73.4324C57.4446 73.4018 57.6251 73.1833 57.5934 72.9458C57.5639 72.7062 57.3359 72.5394 57.0868 72.5701Z" fill="white"/>
<path d="M57.4108 75.1592C57.1596 75.1899 56.9801 75.4084 57.0107 75.6458C57.0403 75.8854 57.2683 76.0522 57.5184 76.0206C57.7686 75.991 57.948 75.7714 57.9185 75.5329C57.89 75.2933 57.6599 75.1265 57.4108 75.1592Z" fill="white"/>
<path d="M57.7349 77.7481C57.4837 77.7777 57.3053 77.9962 57.3349 78.2347C57.3655 78.4733 57.5924 78.6411 57.8436 78.6094C58.0938 78.5778 58.2732 78.3593 58.2447 78.1207C58.213 77.8832 57.9851 77.7144 57.7349 77.7481Z" fill="white"/>
<path d="M58.0609 80.335C57.8086 80.3656 57.6291 80.5841 57.6587 80.8226C57.6883 81.0612 57.9173 81.229 58.1685 81.1973C58.4187 81.1646 58.5971 80.9472 58.5675 80.7086C58.538 80.4701 58.31 80.3033 58.0609 80.335Z" fill="white"/>
<path d="M52.4552 65.0625C52.1997 65.148 52.0573 65.414 52.1375 65.6525C52.2198 65.891 52.49 66.0167 52.7476 65.9312C53.003 65.8457 53.1434 65.5807 53.0632 65.3422C52.9829 65.1015 52.7106 64.9759 52.4552 65.0625Z" fill="white"/>
<path d="M49.6801 65.9955C49.4246 66.082 49.2843 66.3459 49.3645 66.5855C49.4447 66.8251 49.717 66.9497 49.9725 66.8631C50.2279 66.7776 50.3693 66.5137 50.2881 66.2752C50.2078 66.0356 49.9355 65.91 49.6801 65.9955Z" fill="white"/>
<path d="M46.9051 66.9277C46.6496 67.0143 46.5082 67.2781 46.5895 67.5167C46.6697 67.7563 46.942 67.8819 47.1975 67.7964C47.4529 67.7109 47.5954 67.446 47.5141 67.2064C47.4328 66.9668 47.1616 66.8422 46.9051 66.9277Z" fill="white"/>
<path d="M44.1301 67.8598C43.8747 67.9453 43.7343 68.2102 43.8146 68.4498C43.8948 68.6894 44.1671 68.815 44.4225 68.7285C44.678 68.643 44.8205 68.3791 44.7402 68.1395C44.659 67.901 44.3877 67.7743 44.1301 67.8598Z" fill="white"/>
<path d="M47.0414 46.3797C46.0387 46.3797 45.226 47.1914 45.226 48.1952C45.226 49.199 46.0387 50.0107 47.0414 50.0107C48.0452 50.0107 48.858 49.199 48.858 48.1952C48.858 47.1914 48.0452 46.3797 47.0414 46.3797Z" fill="white"/>
<path d="M42.6134 18.6414C41.6106 18.6414 40.7958 19.4531 40.7958 20.4569C40.7958 21.4607 41.6106 22.2734 42.6134 22.2734C43.6151 22.2734 44.4289 21.4607 44.4289 20.4569C44.4289 19.4531 43.6151 18.6414 42.6134 18.6414Z" fill="white"/>
<path d="M23.3766 51.6043C22.3738 51.6043 21.561 52.4181 21.561 53.4198C21.561 54.4246 22.3738 55.2363 23.3766 55.2363C24.3814 55.2363 25.1931 54.4246 25.1931 53.4198C25.1931 52.4181 24.3814 51.6043 23.3766 51.6043Z" fill="white"/>
<path d="M55.5182 13.866C54.5144 13.866 53.7017 14.6798 53.7017 15.6825C53.7017 16.6863 54.5144 17.498 55.5182 17.498C56.521 17.498 57.3337 16.6863 57.3337 15.6825C57.3337 14.6798 56.521 13.866 55.5182 13.866Z" fill="white"/>
<path d="M68.8758 16.826C67.873 16.826 67.0603 17.6387 67.0603 18.6425C67.0603 19.6452 67.873 20.458 68.8758 20.458C69.8796 20.458 70.6924 19.6452 70.6924 18.6425C70.6924 17.6387 69.8796 16.826 68.8758 16.826Z" fill="white"/>
<path d="M79.6084 28.4537C78.6067 28.4537 77.7919 29.2675 77.7919 30.2703C77.7919 31.2741 78.6067 32.0879 79.6084 32.0879C80.6112 32.0879 81.4239 31.2741 81.4239 30.2703C81.4239 29.2675 80.6112 28.4537 79.6084 28.4537Z" fill="white"/>
<path d="M56.0133 44.5622C55.0106 44.5622 54.1968 45.3771 54.1968 46.3798C54.1968 47.3815 55.0106 48.1953 56.0133 48.1953C57.0161 48.1953 57.8288 47.3815 57.8288 46.3798C57.8288 45.3771 57.0161 44.5622 56.0133 44.5622Z" fill="white"/>
<path d="M55.7652 62.9039C54.7635 62.9039 53.9486 63.7177 53.9486 64.7205C53.9486 65.7243 54.7635 66.5381 55.7652 66.5381C56.7679 66.5381 57.5817 65.7243 57.5817 64.7205C57.5817 63.7177 56.7679 62.9039 55.7652 62.9039Z" fill="white"/>
<path d="M64.75 45.0721C63.7462 45.0721 62.9324 45.8848 62.9324 46.8876C62.9324 47.8914 63.7462 48.7041 64.75 48.7041C65.7517 48.7041 66.5644 47.8914 66.5644 46.8876C66.5644 45.8848 65.7517 45.0721 64.75 45.0721Z" fill="white"/>
<path d="M71.1884 48.7039C70.1846 48.7039 69.3718 49.5177 69.3718 50.5204C69.3718 51.5232 70.1846 52.3359 71.1884 52.3359C72.1901 52.3359 73.0039 51.5232 73.0039 50.5204C73.0039 49.5177 72.1901 48.7039 71.1884 48.7039Z" fill="white"/>
<path d="M68.3819 72.0788C67.3792 72.0788 66.5643 72.8905 66.5643 73.8933C66.5643 74.8971 67.3792 75.7119 68.3819 75.7119C69.3847 75.7119 70.1985 74.8971 70.1985 73.8933C70.1985 72.8905 69.3847 72.0788 68.3819 72.0788Z" fill="white"/>
<path d="M58.384 82.031C57.3812 82.031 56.5685 82.8437 56.5685 83.8464C56.5685 84.8513 57.3812 85.6641 58.384 85.6641C59.3888 85.6641 60.2016 84.8513 60.2016 83.8464C60.2016 82.8437 59.3888 82.031 58.384 82.031Z" fill="white"/>
<path d="M40.7959 67.7587C39.7931 67.7587 38.9803 68.5714 38.9803 69.5742C38.9803 70.5769 39.7931 71.3896 40.7959 71.3896C41.8007 71.3896 42.6135 70.5769 42.6135 69.5742C42.6135 68.5714 41.8007 67.7587 40.7959 67.7587Z" fill="white"/>
<path d="M46.027 44.6718C45.7779 44.7067 45.6037 44.9452 45.6407 45.2017C45.6755 45.4592 45.9088 45.6397 46.1579 45.6039C46.4102 45.568 46.5843 45.3315 46.5463 45.0729C46.5104 44.8154 46.2772 44.6359 46.027 44.6718Z" fill="white"/>
<path d="M45.6333 41.8771C45.3831 41.9129 45.21 42.1504 45.2459 42.4069C45.2829 42.6645 45.5151 42.845 45.7642 42.8102C46.0154 42.7743 46.1885 42.5378 46.1537 42.2803C46.1157 42.0227 45.8845 41.8433 45.6333 41.8771Z" fill="white"/>
<path d="M45.2386 39.0849C44.9895 39.1208 44.8154 39.3583 44.8512 39.6148C44.8882 39.8723 45.1215 40.0528 45.3716 40.0169C45.6218 39.981 45.7959 39.7446 45.759 39.4871C45.722 39.2285 45.4898 39.049 45.2386 39.0849Z" fill="white"/>
<path d="M44.8448 36.2892C44.5957 36.3261 44.4216 36.5626 44.4574 36.8191C44.4933 37.0766 44.7276 37.2571 44.9757 37.2223C45.2269 37.1864 45.4011 36.9499 45.3652 36.6924C45.3282 36.4338 45.096 36.2544 44.8448 36.2892Z" fill="white"/>
<path d="M44.451 33.4971C44.2019 33.5319 44.0278 33.7684 44.0636 34.0249C44.0995 34.2835 44.3328 34.464 44.5819 34.4281C44.8342 34.3911 45.0073 34.1557 44.9703 33.8982C44.9344 33.6396 44.7001 33.4612 44.451 33.4971Z" fill="white"/>
<path d="M44.0563 30.7031C43.8082 30.739 43.6341 30.9755 43.67 31.232C43.7059 31.4895 43.9391 31.67 44.1882 31.6341C44.4394 31.5993 44.6125 31.3618 44.5756 31.1043C44.5397 30.8467 44.3075 30.6673 44.0563 30.7031Z" fill="white"/>
<path d="M43.6627 27.9084C43.4136 27.9443 43.2406 28.1807 43.2764 28.4372C43.3123 28.6948 43.5456 28.8753 43.7947 28.8404C44.0438 28.8045 44.219 28.5681 44.1821 28.3106C44.1462 28.053 43.914 27.8736 43.6627 27.9084Z" fill="white"/>
<path d="M43.269 25.1143C43.0199 25.1502 42.8457 25.3866 42.8826 25.6441C42.9175 25.9017 43.1518 26.0811 43.4009 26.0452C43.65 26.0104 43.8242 25.7729 43.7883 25.5154C43.7524 25.2578 43.5191 25.0784 43.269 25.1143Z" fill="white"/>
<path d="M42.8752 22.3215C42.6251 22.3574 42.4509 22.5938 42.4879 22.8513C42.5248 23.1089 42.757 23.2883 43.0061 23.2535C43.2563 23.2176 43.4304 22.9812 43.3946 22.7236C43.3587 22.4661 43.1254 22.2866 42.8752 22.3215Z" fill="white"/>
<path d="M55.9658 42.6901C55.7146 42.6943 55.513 42.9064 55.5162 43.1629C55.5214 43.4205 55.7304 43.6253 55.9816 43.621C56.235 43.6179 56.4376 43.4046 56.4323 43.1482C56.4281 42.8906 56.2202 42.6858 55.9658 42.6901Z" fill="white"/>
<path d="M55.9194 39.896C55.6682 39.9003 55.4665 40.1124 55.4708 40.3689C55.475 40.6286 55.684 40.8323 55.9363 40.8281C56.1885 40.8238 56.3912 40.6117 56.3859 40.3552C56.3828 40.0976 56.1727 39.8929 55.9194 39.896Z" fill="white"/>
<path d="M55.8729 37.1031C55.6217 37.1074 55.4212 37.3195 55.4244 37.576C55.4275 37.8346 55.6376 38.0383 55.8888 38.0341C56.1411 38.0309 56.3437 37.8188 56.3395 37.5612C56.3353 37.3037 56.1273 37.0989 55.8729 37.1031Z" fill="white"/>
<path d="M55.8275 34.3072C55.5753 34.3114 55.3737 34.5236 55.3779 34.78C55.3821 35.0397 55.5911 35.2434 55.8433 35.2392C56.0946 35.235 56.2983 35.0228 56.293 34.7663C56.2898 34.5088 56.0798 34.303 55.8275 34.3072Z" fill="white"/>
<path d="M55.781 31.5153C55.5276 31.5195 55.3271 31.7306 55.3324 31.9871C55.3355 32.2457 55.5445 32.4504 55.7957 32.4462C56.0491 32.442 56.2507 32.2309 56.2464 31.9734C56.2422 31.7158 56.0343 31.511 55.781 31.5153Z" fill="white"/>
<path d="M55.7347 28.7203C55.4813 28.7245 55.2797 28.9366 55.285 29.1942C55.2892 29.4517 55.4982 29.6565 55.7495 29.6523C56.0028 29.6481 56.2044 29.4359 56.2012 29.1794C56.1959 28.9219 55.9869 28.716 55.7347 28.7203Z" fill="white"/>
<path d="M55.6881 25.9264C55.4348 25.9306 55.2342 26.1417 55.2385 26.3982C55.2427 26.6557 55.4506 26.8616 55.7019 26.8574C55.9562 26.8531 56.1578 26.642 56.1536 26.3834C56.1494 26.1259 55.9414 25.9222 55.6881 25.9264Z" fill="white"/>
<path d="M55.6417 23.1324C55.3894 23.1366 55.1868 23.3498 55.191 23.6063C55.1963 23.8638 55.4042 24.0686 55.6565 24.0644C55.9098 24.0602 56.1114 23.848 56.1082 23.5915C56.1029 23.334 55.894 23.1281 55.6417 23.1324Z" fill="white"/>
<path d="M55.5952 20.3384C55.343 20.3426 55.1414 20.5548 55.1456 20.8113C55.1498 21.0688 55.3577 21.2747 55.6089 21.2704C55.8644 21.2662 56.0649 21.0541 56.0607 20.7965C56.0554 20.539 55.8486 20.3353 55.5952 20.3384Z" fill="white"/>
<path d="M55.5488 17.5446C55.2965 17.5488 55.0939 17.7609 55.0981 18.0185C55.1023 18.276 55.3123 18.4797 55.5636 18.4755C55.8169 18.4713 56.0185 18.2602 56.0143 18.0037C56.0101 17.7461 55.801 17.5414 55.5488 17.5446Z" fill="white"/>
<path d="M65.1351 43.7406C64.886 43.7047 64.6538 43.8715 64.6179 44.1143C64.582 44.3571 64.7583 44.584 65.0074 44.6199C65.2565 44.6568 65.4887 44.4901 65.5246 44.2473C65.5605 44.0045 65.3853 43.7776 65.1351 43.7406Z" fill="white"/>
<path d="M65.5225 41.1031C65.2734 41.0662 65.0401 41.233 65.0053 41.4757C64.9694 41.7196 65.1436 41.9465 65.3927 41.9834C65.6439 42.0193 65.8761 41.8525 65.912 41.6087C65.9458 41.366 65.7716 41.139 65.5225 41.1031Z" fill="white"/>
<path d="M65.9098 38.4665C65.6596 38.4296 65.4274 38.5964 65.3915 38.8381C65.3567 39.0819 65.5309 39.3078 65.78 39.3447C66.0301 39.3806 66.2634 39.2149 66.2972 38.9711C66.3341 38.7294 66.16 38.5024 65.9098 38.4665Z" fill="white"/>
<path d="M66.2962 35.8275C66.0471 35.7917 65.8138 35.9574 65.779 36.2001C65.7431 36.444 65.9172 36.6709 66.1663 36.7068C66.4176 36.7437 66.6487 36.577 66.6857 36.3342C66.7205 36.0904 66.5453 35.8634 66.2962 35.8275Z" fill="white"/>
<path d="M66.6836 33.1899C66.4334 33.1529 66.2012 33.3197 66.1653 33.5625C66.1305 33.8063 66.3046 34.0322 66.5537 34.0691C66.8039 34.1061 67.0372 33.9382 67.072 33.6955C67.1069 33.4527 66.9327 33.2268 66.6836 33.1899Z" fill="white"/>
<path d="M67.0699 30.5535C66.8208 30.5165 66.5885 30.6833 66.5526 30.925C66.5167 31.1688 66.692 31.3947 66.9411 31.4317C67.1912 31.4676 67.4245 31.3008 67.4593 31.058C67.4942 30.8163 67.32 30.5894 67.0699 30.5535Z" fill="white"/>
<path d="M67.4572 27.9145C67.2081 27.8775 66.9759 28.0443 66.94 28.287C66.9041 28.5309 67.0783 28.7578 67.3284 28.7937C67.5775 28.8306 67.8108 28.6639 67.8456 28.4211C67.8804 28.1773 67.7063 27.9514 67.4572 27.9145Z" fill="white"/>
<path d="M67.8435 25.2777C67.5955 25.2397 67.3611 25.4076 67.3273 25.6503C67.2915 25.8942 67.4646 26.12 67.7137 26.157C67.9649 26.1939 68.1971 26.0272 68.2319 25.7833C68.2689 25.5406 68.0937 25.3147 67.8435 25.2777Z" fill="white"/>
<path d="M68.2299 22.6404C67.9808 22.6034 67.7486 22.7692 67.7127 23.0119C67.6789 23.2557 67.8521 23.4816 68.1012 23.5186C68.3524 23.5545 68.5846 23.3877 68.6205 23.1449C68.6564 22.9032 68.4811 22.6752 68.2299 22.6404Z" fill="white"/>
<path d="M68.6183 20.0003C68.3681 19.9644 68.137 20.1312 68.1 20.374C68.0641 20.6178 68.2383 20.8437 68.4895 20.8806C68.7397 20.9176 68.9708 20.7508 69.0078 20.507C69.0415 20.2642 68.8674 20.0372 68.6183 20.0003Z" fill="white"/>
<path d="M72.3686 47.4364C72.1375 47.3383 71.8672 47.4512 71.767 47.6866C71.6667 47.9241 71.7754 48.1964 72.0076 48.2935C72.2399 48.3917 72.5101 48.2798 72.6103 48.0434C72.7106 47.8048 72.6019 47.5346 72.3686 47.4364Z" fill="white"/>
<path d="M73.4558 44.8622C73.2226 44.7641 72.9513 44.877 72.8521 45.1145C72.7529 45.3499 72.8605 45.6222 73.0938 45.7214C73.326 45.8196 73.5952 45.7066 73.6965 45.4692C73.7968 45.2317 73.6881 44.9615 73.4558 44.8622Z" fill="white"/>
<path d="M74.5408 42.2874C74.3086 42.1892 74.0373 42.3011 73.9381 42.5376C73.8378 42.7761 73.9465 43.0474 74.1788 43.1445C74.412 43.2437 74.6823 43.1318 74.7825 42.8943C74.8818 42.6568 74.7741 42.3845 74.5408 42.2874Z" fill="white"/>
<path d="M75.6259 39.7129C75.3948 39.6158 75.1245 39.7255 75.0232 39.9641C74.924 40.2005 75.0327 40.4728 75.2649 40.571C75.4982 40.6692 75.7684 40.5562 75.8687 40.3208C75.9679 40.0812 75.8602 39.81 75.6259 39.7129Z" fill="white"/>
<path d="M76.7131 37.1379C76.4809 37.0398 76.2106 37.1516 76.1093 37.3902C76.0112 37.6266 76.1188 37.899 76.35 37.9961C76.5843 38.0953 76.8535 37.9834 76.9527 37.7449C77.054 37.5084 76.9442 37.2372 76.7131 37.1379Z" fill="white"/>
<path d="M77.7982 34.562C77.565 34.4659 77.2948 34.5767 77.1966 34.8142C77.0963 35.0517 77.204 35.323 77.4362 35.4211C77.6695 35.5204 77.9397 35.4064 78.0389 35.171C78.1392 34.9324 78.0315 34.6601 77.7982 34.562Z" fill="white"/>
<path d="M78.8843 31.9891C78.6521 31.8909 78.3819 32.0028 78.2816 32.2403C78.1813 32.4768 78.2901 32.7501 78.5223 32.8472C78.7545 32.9454 79.0247 32.8335 79.126 32.596C79.2253 32.3585 79.1176 32.0873 78.8843 31.9891Z" fill="white"/>
<path d="M37.9069 67.7119C37.7275 67.8881 37.7159 68.17 37.8847 68.342C38.0536 68.5151 38.3365 68.5099 38.5159 68.3325C38.6964 68.1563 38.707 67.8734 38.5381 67.7003C38.3703 67.5293 38.0863 67.5346 37.9069 67.7119Z" fill="white"/>
<path d="M36.0777 65.8476C35.8982 66.0239 35.8866 66.3057 36.0555 66.4799C36.2233 66.6509 36.5073 66.6445 36.6867 66.4693C36.8672 66.292 36.8767 66.0091 36.7089 65.837C36.541 65.665 36.2582 65.6703 36.0777 65.8476Z" fill="white"/>
<path d="M34.2484 63.9838C34.069 64.1611 34.0574 64.4429 34.2273 64.6139C34.3951 64.786 34.678 64.7817 34.8575 64.6044C35.039 64.4271 35.0496 64.1453 34.8817 63.9732C34.7118 63.8022 34.43 63.8075 34.2484 63.9838Z" fill="white"/>
<path d="M32.4193 62.1205C32.2399 62.2957 32.2293 62.5786 32.3971 62.7506C32.5671 62.9237 32.8489 62.9174 33.0294 62.7411C33.2099 62.5648 33.2204 62.2809 33.0516 62.1089C32.8827 61.9368 32.6009 61.9421 32.4193 62.1205Z" fill="white"/>
<path d="M30.5911 60.2561C30.4106 60.4334 30.4011 60.7152 30.5689 60.8873C30.7367 61.0583 31.0207 61.0541 31.2001 60.8767C31.3806 60.6994 31.3912 60.4176 31.2233 60.2455C31.0544 60.0745 30.7716 60.0788 30.5911 60.2561Z" fill="white"/>
<path d="M28.7617 58.3925C28.5812 58.5677 28.5717 58.8506 28.7395 59.0216C28.9095 59.1947 29.1924 59.1894 29.3718 59.0132C29.5523 58.8358 29.5629 58.554 29.394 58.3809C29.2251 58.2088 28.9422 58.2152 28.7617 58.3925Z" fill="white"/>
<path d="M26.9337 56.5279C26.7543 56.7042 26.7437 56.987 26.9115 57.1601C27.0794 57.3311 27.3633 57.3259 27.5438 57.1496C27.7232 56.9723 27.7338 56.6894 27.5649 56.5184C27.3971 56.3453 27.1131 56.3506 26.9337 56.5279Z" fill="white"/>
<path d="M25.1045 54.6633C24.925 54.8406 24.9145 55.1235 25.0834 55.2945C25.2512 55.4655 25.5341 55.4613 25.7145 55.284C25.895 55.1066 25.9045 54.8259 25.7357 54.6528C25.5678 54.4818 25.2839 54.486 25.1045 54.6633Z" fill="white"/>
</svg>
