<svg width="100" height="100" viewBox="0 0 100 100" fill="none" xmlns="http://www.w3.org/2000/svg">
<path d="M23.2837 29.6194C23.2837 29.6194 23.9898 51.1114 28.9078 58.4419C33.8249 65.7711 50.1067 69.5996 50.1067 69.5996C50.1067 69.5996 52.3296 53.3556 47.4117 46.025C42.495 38.6958 23.2837 29.6194 23.2837 29.6194Z" fill="#D3478E"/>
<path d="M35.3661 51.0244C27.3215 47.3946 6.21338 49.828 6.21338 49.828C6.21338 49.828 18.1592 67.7095 26.205 71.3374C34.2499 74.9683 50.0993 69.6232 50.0993 69.6232C50.0993 69.6232 43.4125 54.6534 35.3661 51.0244Z" fill="#FF97FF"/>
<path d="M52.8023 46.025C47.8844 53.3556 50.1069 69.5996 50.1069 69.5996C50.1069 69.5996 66.3891 65.7711 71.3063 58.4419C76.2242 51.1114 76.9303 29.6194 76.9303 29.6194C76.9303 29.6194 57.719 38.6958 52.8023 46.025Z" fill="#D3478E"/>
<path d="M64.8479 51.0244C56.8015 54.6534 50.1146 69.6232 50.1146 69.6232C50.1146 69.6232 65.9642 74.9683 74.0091 71.3374C82.0547 67.7095 94 49.828 94 49.828C94 49.828 72.8928 47.3946 64.8479 51.0244Z" fill="#FF97FF"/>
<path d="M38.7366 48.5222C38.7366 57.3489 50.125 69.5996 50.125 69.5996C50.125 69.5996 61.0206 57.3489 61.0206 48.5222C61.0206 39.6952 50.125 21.4548 50.125 21.4548C50.125 21.4548 38.7366 39.6952 38.7366 48.5222Z" fill="#FF7CFF"/>
<mask id="mask0_130_4837" style="mask-type:luminance" maskUnits="userSpaceOnUse" x="6" y="21" width="89" height="52">
<path d="M74.6465 49.1712C76.5767 40.3008 76.9303 29.6199 76.9303 29.6199C76.9303 29.6199 66.5732 34.5166 59.1216 40.0192C56.0001 31.2955 50.125 21.4554 50.125 21.4554C50.125 21.4554 44.0834 31.1354 40.8018 39.8054C33.375 34.3899 23.2838 29.6199 23.2838 29.6199C23.2838 29.6199 23.6375 40.3008 25.5676 49.1712C16.5915 48.6346 6.2135 49.829 6.2135 49.829C6.2135 49.829 18.1594 67.7105 26.2051 71.3384C34.25 74.9693 50.0994 69.6242 50.0994 69.6242L50.086 69.5951L50.1069 69.6002L50.1215 69.5963L50.125 69.6002L50.1273 69.5971L50.1147 69.6242C50.1147 69.6242 65.9643 74.9693 74.0092 71.3384C82.0548 67.7105 94.0001 49.829 94.0001 49.829C94.0001 49.829 83.6227 48.6346 74.6465 49.1712Z" fill="white"/>
</mask>
<g mask="url(#mask0_130_4837)">
<path d="M50.0549 69.5273C50.0542 69.5254 50.053 69.5234 50.0522 69.5215C50.053 69.5223 50.0542 69.5234 50.0549 69.5242V69.5273ZM40.0362 54.4003C38.5644 52.9572 36.9934 51.7607 35.3661 51.0262C32.9626 49.9414 29.391 49.3986 25.5669 49.1699C23.6544 40.3771 23.2901 29.8087 23.2838 29.6234C23.2838 29.6226 23.2838 29.6226 23.2838 29.6214V29.6207C23.2842 29.6207 23.2842 29.6207 23.2842 29.6207C23.2842 29.6207 23.2842 29.6207 23.2842 29.6214C23.2842 29.6214 23.2846 29.6214 23.2849 29.6214C23.4019 29.6769 33.4166 34.421 40.7998 39.8043C39.5762 43.0364 38.7366 46.1263 38.7366 48.5235C38.7366 50.3798 39.2402 52.3871 40.0362 54.4003Z" fill="#AF3974"/>
<path d="M33.4431 72.6025C30.7862 72.6025 28.2442 72.2591 26.2051 71.3385C18.1594 67.7106 6.2135 49.8291 6.2135 49.8291C6.2135 49.8291 13.1305 49.0336 20.555 49.0336C22.2243 49.0336 23.9196 49.0737 25.5676 49.1713C25.5673 49.1705 25.5673 49.1705 25.5669 49.1693C29.391 49.3979 32.9626 49.9408 35.3662 51.0255C36.9934 51.7601 38.5644 52.9565 40.0362 54.3996C42.8461 61.5113 49.2972 68.6946 50.0522 69.5208C50.053 69.5228 50.0542 69.5248 50.0549 69.5267V69.6396C49.3731 69.8651 40.9454 72.6025 33.4431 72.6025Z" fill="#D279CF"/>
<path d="M50.0549 69.5234C50.0541 69.5226 50.0529 69.5215 50.0521 69.5207C49.2971 68.6945 42.846 61.5112 40.0361 54.3995C39.2402 52.3863 38.7366 50.379 38.7366 48.5227C38.7366 46.1255 39.5762 43.0356 40.7998 39.8035C40.8006 39.8043 40.801 39.8043 40.8017 39.8054C41.0909 39.0418 41.401 38.2703 41.7271 37.4988L48.6236 49.3655L44.851 55.9437C44.5724 56.4261 44.7408 57.0477 45.2244 57.3266C45.3833 57.4159 45.556 57.4596 45.726 57.4596C46.0785 57.4596 46.4207 57.2762 46.6085 56.9509L48.9352 52.8938L48.9494 57.7837C48.9494 58.3397 49.4057 58.7938 49.9644 58.7938C49.9947 58.7938 50.025 58.7917 50.0549 58.789V69.5234ZM48.9147 45.8332L42.7374 35.2047C44.8812 30.5201 47.3779 26.0865 48.8506 23.5768L48.9147 45.8332Z" fill="#D263CF"/>
</g>
<path d="M32.2481 17.1564C31.9687 16.6747 31.3471 16.5107 30.864 16.7885C30.382 17.0718 30.2132 17.6898 30.4965 18.1754L53.0989 57.0662C53.3766 57.5474 53.9998 57.7127 54.4837 57.4337C54.9642 57.1484 55.129 56.5292 54.8501 56.0457L32.2481 17.1564Z" fill="#0E090E"/>
<path d="M28.9932 13.8617C27.7858 14.566 27.3763 16.111 28.0785 17.3196C28.7812 18.529 30.3309 18.9402 31.5407 18.239C32.747 17.534 33.1597 15.9851 32.4554 14.7772C31.7524 13.5678 30.2074 13.1587 28.9932 13.8617Z" fill="#0E090E"/>
<path d="M54.266 57.5606L70.4695 85.4443L70.905 85.1906L54.7015 57.3064L54.266 57.5606Z" fill="#0E090E"/>
<path d="M54.1937 56.0586C54.1056 56.0586 54.0203 56.0129 53.973 55.9327L50.9554 50.7515L50.9527 49.7334L54.4133 55.6758C54.4833 55.7977 54.442 55.9535 54.3208 56.0239C54.2807 56.0471 54.237 56.0586 54.1937 56.0586ZM48.919 47.2535L32.0615 18.307C31.9903 18.1851 32.0316 18.029 32.1524 17.9585C32.193 17.9341 32.237 17.9231 32.2807 17.9231C32.3684 17.9231 32.4538 17.9695 32.5014 18.0501L48.9158 46.2361L48.919 47.2535Z" fill="#3E3A3E"/>
<path d="M30.5786 16.8281C29.7792 16.8281 29.1307 16.1805 29.1307 15.3807C29.1307 14.5812 29.7792 13.9325 30.5786 13.9325C31.3785 13.9325 32.0264 14.5812 32.0264 15.3807C32.0264 16.1805 31.3785 16.8281 30.5786 16.8281Z" fill="#3E3A3E"/>
<path d="M68.6137 16.5489C68.1283 16.2731 67.5082 16.4372 67.2288 16.9247L44.8508 55.9434C44.5722 56.4257 44.7406 57.0474 45.2242 57.3263C45.7112 57.6021 46.3301 57.4341 46.6083 56.9506L68.9879 17.9319C69.2653 17.4475 69.0969 16.8283 68.6137 16.5489Z" fill="#1F1A24"/>
<path d="M70.2137 13.4661C68.9995 12.7721 67.4565 13.1892 66.7613 14.4029C66.0649 15.6155 66.4839 17.1636 67.6957 17.8608C68.9094 18.5535 70.4576 18.1366 71.1515 16.922C71.8472 15.709 71.4282 14.1652 70.2137 13.4661Z" fill="#1F1A24"/>
<path d="M28.959 85.177L29.3957 85.4268L45.4427 57.451L45.0063 57.2011L28.959 85.177Z" fill="#1F1A24"/>
<path d="M45.546 56.2373C45.5031 56.2373 45.4594 56.2274 45.4197 56.2043C45.2981 56.1339 45.2564 55.9785 45.3256 55.8569L48.9256 49.5969L48.9283 50.6132L45.7671 56.1106C45.7202 56.1921 45.6345 56.2373 45.546 56.2373ZM50.9446 47.1072L50.9419 46.0911L67.0326 18.1113C67.0798 18.0298 67.1655 17.9834 67.254 17.9834C67.2969 17.9834 67.3403 17.9944 67.3799 18.0176C67.5019 18.0873 67.5436 18.243 67.474 18.365L50.9446 47.1072Z" fill="#4C4850"/>
<path d="M68.9559 16.4121C68.1564 16.4121 67.5081 15.7646 67.5081 14.964C67.5081 14.1649 68.1564 13.5164 68.9559 13.5164C69.7557 13.5164 70.4037 14.1649 70.4037 14.964C70.4037 15.7646 69.7557 16.4121 68.9559 16.4121Z" fill="#4C4850"/>
<path d="M49.8317 11.7856C49.273 11.7897 48.8173 12.2398 48.8193 12.8028L48.9492 57.7839C48.9492 58.3399 49.4055 58.7939 49.9642 58.7939C50.5229 58.7892 50.9753 58.3348 50.9753 57.7757L50.8467 12.7957C50.8455 12.2379 50.3891 11.7856 49.8317 11.7856Z" fill="#34323F"/>
<path d="M49.6751 8.3156C48.2764 8.32164 47.1493 9.45474 47.1532 10.8527C47.1571 12.2517 48.2942 13.3829 49.6916 13.3809C51.0895 13.3726 52.2214 12.2376 52.2159 10.8396C52.2108 9.44064 51.0765 8.31359 49.6751 8.3156Z" fill="#34323F"/>
<path d="M49.7126 58.7947L49.8031 91.0459L50.3067 91.044L50.2162 58.7927L49.7126 58.7947Z" fill="#34323F"/>
<path d="M50.3692 57.5684C50.2291 57.5684 50.1146 57.4546 50.1146 57.3145V13.773C50.1146 13.6317 50.2291 13.5179 50.3692 13.5179C50.5096 13.5179 50.6238 13.6317 50.6238 13.773V57.3145C50.6238 57.4546 50.5096 57.5684 50.3692 57.5684Z" fill="#5D5B65"/>
<path d="M50.2672 11.7842C49.4673 11.7842 48.8193 11.1366 48.8193 10.3368C48.8193 9.53714 49.4673 8.88851 50.2672 8.88851C51.067 8.88851 51.715 9.53714 51.715 10.3368C51.715 11.1366 51.067 11.7842 50.2672 11.7842Z" fill="#5D5B65"/>
</svg>
