<svg width="100" height="100" viewBox="0 0 100 100" fill="none" xmlns="http://www.w3.org/2000/svg">
<path d="M28.6752 23.6615C24.0569 25.1182 18.9522 29.7613 17.6487 32.0906C15.9725 35.0786 16.0821 39.5885 16.6179 41.8861C17.6691 46.4056 20.914 54.1669 21.5046 59.2569C22.4613 67.4742 23.0798 76.4745 23.9914 80.6828C25.0577 85.6145 29.3818 91.9431 37.0302 90.8823C45.7771 89.6659 47.5048 83.918 46.8982 78.6942C46.2893 73.4713 43.373 62.7819 44.2245 57.6781C45.0749 52.5756 47.784 39.8129 48.1115 35.8088C48.4498 31.6757 48.3048 27.2586 45.4378 24.3905C42.8876 21.8403 35.2692 21.5793 28.6752 23.6615Z" fill="#FFA47C"/>
<path d="M42.9005 9.32616C40.0153 9.32616 37.6766 12.3877 37.6766 16.1605C37.6766 19.9351 40.0153 22.9961 42.9005 22.9961C45.7868 22.9961 48.1244 19.9351 48.1244 16.1605C48.1244 12.3877 45.7868 9.32616 42.9005 9.32616Z" fill="#FFA47C"/>
<path d="M34.5262 11.9073C32.8565 11.9073 31.5024 14.1223 31.5024 16.857C31.5024 19.5909 32.8565 21.8086 34.5262 21.8086C36.198 21.8086 37.551 19.5909 37.551 16.857C37.551 14.1223 36.198 11.9073 34.5262 11.9073Z" fill="#FFA47C"/>
<path d="M28.4788 15.3995C27.0904 15.3995 25.9662 17.242 25.9662 19.515C25.9662 21.7884 27.0904 23.6318 28.4788 23.6318C29.8683 23.6318 30.9925 21.7884 30.9925 19.515C30.9925 17.242 29.8683 15.3995 28.4788 15.3995Z" fill="#FFA47C"/>
<path d="M23.4513 19.5147C22.2938 19.5147 21.3542 21.0524 21.3542 22.9499C21.3542 24.8463 22.2938 26.3848 23.4513 26.3848C24.611 26.3848 25.5484 24.8463 25.5484 22.9499C25.5484 21.0524 24.611 19.5147 23.4513 19.5147Z" fill="#FFA47C"/>
<path d="M18.7138 23.6322C17.5541 23.6322 16.6178 25.1698 16.6178 27.0674C16.6178 28.9624 17.5541 30.498 18.7138 30.498C19.8713 30.498 20.8109 28.9624 20.8109 27.0674C20.8109 25.1698 19.8713 23.6322 18.7138 23.6322Z" fill="#FFA47C"/>
<path d="M35.7717 62.9541C35.6161 63.1538 35.6504 63.4436 35.8501 63.5972C36.0466 63.7528 36.3376 63.7183 36.4933 63.5166C36.6512 63.3178 36.6157 63.028 36.4182 62.8724C36.2174 62.7188 35.9296 62.7532 35.7717 62.9541Z" fill="white"/>
<path d="M34.071 65.1272C33.9143 65.3298 33.9497 65.6155 34.1494 65.7715C34.3481 65.9259 34.638 65.8927 34.7926 65.6909C34.9504 65.4922 34.915 65.2011 34.7153 65.0467C34.5166 64.8907 34.2278 64.9263 34.071 65.1272Z" fill="white"/>
<path d="M32.3712 67.3028C32.2155 67.5025 32.2499 67.7894 32.4485 67.9451C32.6472 68.1018 32.9349 68.0662 33.0917 67.8679C33.2495 67.6657 33.2141 67.3779 33.0154 67.2215C32.8168 67.0646 32.5269 67.1011 32.3712 67.3028Z" fill="white"/>
<path d="M30.6703 69.4773C30.5124 69.677 30.5479 69.9655 30.7476 70.1215C30.9462 70.278 31.2362 70.2415 31.3908 70.0419C31.5486 69.8414 31.5132 69.5523 31.3135 69.3967C31.1148 69.2407 30.826 69.2751 30.6703 69.4773Z" fill="white"/>
<path d="M28.9694 71.6528C28.8126 71.8533 28.847 72.1411 29.0467 72.298C29.2453 72.4527 29.5342 72.4183 29.6899 72.2174C29.8477 72.0178 29.8123 71.7279 29.6137 71.5732C29.4139 71.4163 29.1251 71.4532 28.9694 71.6528Z" fill="white"/>
<path d="M27.2686 73.8266C27.1107 74.0263 27.1461 74.314 27.3459 74.47C27.5445 74.6245 27.8333 74.59 27.989 74.3904C28.1469 74.1908 28.1115 73.9008 27.9117 73.7453C27.7131 73.5905 27.4253 73.6257 27.2686 73.8266Z" fill="white"/>
<path d="M27.4049 77.7197C27.2235 77.8958 27.2052 78.1719 27.3652 78.338C27.5263 78.5044 27.8033 78.4949 27.9858 78.3186C28.1652 78.1437 28.1845 77.8656 28.0234 77.7004C27.8634 77.536 27.5864 77.5444 27.4049 77.7197Z" fill="white"/>
<path d="M29.1455 79.518C28.9651 79.6949 28.9458 79.971 29.1068 80.1396C29.2668 80.304 29.546 80.2943 29.7285 80.1182C29.9089 79.942 29.925 79.6672 29.7661 79.4986C29.604 79.3355 29.328 79.3426 29.1455 79.518Z" fill="white"/>
<path d="M30.8883 81.3182C30.7057 81.4934 30.6886 81.7715 30.8496 81.9368C31.0096 82.102 31.2877 82.0945 31.4692 81.9175C31.6496 81.7435 31.6678 81.4641 31.5079 81.3001C31.3468 81.1336 31.0708 81.1432 30.8883 81.3182Z" fill="white"/>
<path d="M32.631 83.1173C32.4484 83.2944 32.4302 83.5703 32.5912 83.7369C32.7501 83.9021 33.0293 83.8938 33.2097 83.7175C33.3923 83.5414 33.4094 83.2654 33.2494 83.0988C33.0873 82.9336 32.8113 82.9433 32.631 83.1173Z" fill="white"/>
<path d="M34.3715 84.9176C34.189 85.0937 34.1718 85.3685 34.3339 85.5363C34.4929 85.7003 34.7699 85.6906 34.9524 85.5157C35.1328 85.3408 35.15 85.0635 34.99 84.8983C34.8311 84.733 34.553 84.7414 34.3715 84.9176Z" fill="white"/>
<path d="M38.2403 84.366C38.0245 84.2348 37.7453 84.294 37.6143 84.5044C37.4854 84.7138 37.5574 84.9919 37.7711 85.1227C37.9847 85.2561 38.265 85.1949 38.396 84.9876C38.5238 84.7772 38.455 84.4991 38.2403 84.366Z" fill="white"/>
<path d="M39.6469 82.091C39.4322 81.9588 39.153 82.0189 39.0231 82.2273C38.8931 82.4374 38.964 82.7155 39.1777 82.8489C39.3946 82.9798 39.6727 82.9198 39.8026 82.7105C39.9325 82.4999 39.8617 82.2227 39.6469 82.091Z" fill="white"/>
<path d="M41.0547 79.8167C40.841 79.6846 40.5618 79.7467 40.4319 79.9564C40.3019 80.1657 40.3728 80.4425 40.5865 80.576C40.8012 80.708 41.0815 80.6468 41.2104 80.4363C41.3403 80.227 41.2716 79.9497 41.0547 79.8167Z" fill="white"/>
<path d="M42.4625 77.5413C42.2488 77.41 41.9696 77.4703 41.8397 77.6797C41.7098 77.889 41.7785 78.1671 41.9943 78.2992C42.2102 78.4313 42.4893 78.3713 42.6193 78.1608C42.7481 77.9523 42.6783 77.6742 42.4625 77.5413Z" fill="white"/>
<path d="M42.3893 72.9917C42.1552 73.0839 42.0414 73.3566 42.1391 73.5982C42.2357 73.8406 42.5042 73.9601 42.7393 73.8666C42.9745 73.7722 43.0861 73.5018 42.9884 73.2589C42.8918 73.0173 42.6233 72.8982 42.3893 72.9917Z" fill="white"/>
<path d="M41.3404 70.3678C41.1052 70.4593 40.9925 70.7331 41.0912 70.9736C41.1868 71.2172 41.4553 71.3342 41.6904 71.242C41.9256 71.1489 42.0372 70.8758 41.9417 70.6342C41.844 70.3926 41.5755 70.2735 41.3404 70.3678Z" fill="white"/>
<path d="M40.2913 67.7437C40.0583 67.8372 39.9445 68.1077 40.0422 68.3502C40.1388 68.5918 40.4072 68.7109 40.6413 68.6178C40.8765 68.5242 40.9882 68.2525 40.8915 68.0109C40.7949 67.7684 40.5264 67.6502 40.2913 67.7437Z" fill="white"/>
<path d="M39.2432 65.1196C39.008 65.212 38.8953 65.485 38.993 65.7266C39.0885 65.969 39.3581 66.0873 39.5932 65.9951C39.8273 65.9003 39.939 65.6288 39.8423 65.3881C39.7468 65.1456 39.4783 65.0261 39.2432 65.1196Z" fill="white"/>
<path d="M38.1942 62.4947C37.9601 62.5878 37.8463 62.8609 37.944 63.1012C38.0406 63.3437 38.308 63.462 38.5432 63.3705C38.7783 63.2761 38.8911 63.0035 38.7944 62.7619C38.6978 62.519 38.4294 62.3999 38.1942 62.4947Z" fill="white"/>
<path d="M37.7356 59.808C37.4865 59.764 37.247 59.9381 37.2041 60.1961C37.1601 60.4536 37.3265 60.6939 37.5756 60.7372C37.8237 60.7779 38.062 60.6071 38.1061 60.3495C38.1501 60.0937 37.9847 59.85 37.7356 59.808Z" fill="white"/>
<path d="M38.2113 57.0238C37.9633 56.9798 37.7249 57.1538 37.6809 57.4122C37.6368 57.6659 37.8043 57.9096 38.0524 57.9524C38.3015 57.9957 38.5409 57.8215 38.585 57.5649C38.629 57.3094 38.4604 57.0665 38.2113 57.0238Z" fill="white"/>
<path d="M38.6881 54.2376C38.44 54.1957 38.2027 54.3685 38.1587 54.6252C38.1147 54.8819 38.2801 55.1248 38.5302 55.1676C38.7783 55.2095 39.0188 55.0354 39.0607 54.7808C39.1047 54.5233 38.9383 54.2817 38.6881 54.2376Z" fill="white"/>
<path d="M39.1659 51.4534C38.9179 51.4106 38.6795 51.5842 38.6344 51.8401C38.5904 52.0956 38.759 52.3393 39.007 52.3812C39.2572 52.424 39.4945 52.2511 39.5385 51.9945C39.5826 51.7369 39.4151 51.4962 39.1659 51.4534Z" fill="white"/>
<path d="M39.6437 48.6683C39.3946 48.6256 39.1552 48.7984 39.1122 49.0538C39.0693 49.3118 39.2357 49.5542 39.4848 49.5962C39.7329 49.6382 39.9712 49.4675 40.0174 49.2087C40.0593 48.954 39.8907 48.7103 39.6437 48.6683Z" fill="white"/>
<path d="M40.1194 45.8838C39.8713 45.8405 39.633 46.0138 39.5889 46.2713C39.5449 46.5259 39.7124 46.7683 39.9615 46.8115C40.2096 46.8556 40.449 46.6823 40.493 46.4235C40.536 46.1694 40.3696 45.9278 40.1194 45.8838Z" fill="white"/>
<path d="M40.5984 43.0955C40.3493 43.0544 40.1098 43.2263 40.0668 43.4839C40.0217 43.7405 40.1914 43.9834 40.4384 44.0241C40.6885 44.0694 40.9259 43.8941 40.9699 43.6373C41.0128 43.3807 40.8464 43.1395 40.5984 43.0955Z" fill="white"/>
<path d="M41.074 40.3131C40.827 40.2691 40.5876 40.4418 40.5425 40.6973C40.4995 40.9552 40.667 41.1989 40.9151 41.2408C41.1642 41.2828 41.4036 41.1087 41.4477 40.8542C41.4917 40.5966 41.3231 40.3558 41.074 40.3131Z" fill="white"/>
<path d="M41.5517 37.5276C41.3026 37.4836 41.0653 37.6577 41.0213 37.9131C40.9762 38.1719 41.1426 38.4114 41.3907 38.4546C41.6419 38.4966 41.8792 38.3254 41.9254 38.0691C41.9684 37.8125 41.8019 37.5687 41.5517 37.5276Z" fill="white"/>
<path d="M42.0287 34.7429C41.7796 34.6988 41.5423 34.8716 41.4983 35.1304C41.4532 35.385 41.6218 35.6274 41.8687 35.6715C42.1189 35.7134 42.3573 35.5406 42.4002 35.2826C42.4443 35.0272 42.2778 34.7847 42.0287 34.7429Z" fill="white"/>
<path d="M42.5052 31.9565C42.2572 31.9145 42.0188 32.0881 41.9748 32.346C41.9319 32.6007 42.0972 32.8431 42.3463 32.8851C42.5965 32.9278 42.8349 32.7563 42.8789 32.4983C42.9219 32.2395 42.7544 32.0005 42.5052 31.9565Z" fill="white"/>
<path d="M39.9757 28.6855C39.6922 28.6372 39.4302 28.8025 39.3862 29.0517C39.3443 29.2995 39.5386 29.5411 39.821 29.5886C40.1034 29.6389 40.3654 29.4744 40.4073 29.2253C40.4503 28.9754 40.2559 28.735 39.9757 28.6855Z" fill="white"/>
<path d="M36.911 28.165C36.6297 28.1175 36.3677 28.2828 36.3236 28.5311C36.2828 28.7802 36.4772 29.0227 36.7585 29.0701C37.0409 29.1171 37.3029 28.9539 37.3448 28.7039C37.3867 28.4569 37.1934 28.2119 36.911 28.165Z" fill="white"/>
<path d="M33.8487 27.6469C33.5684 27.5999 33.3043 27.7618 33.2624 28.0144C33.2216 28.2601 33.4138 28.5038 33.6962 28.552C33.9797 28.6007 34.2406 28.4362 34.2814 28.1858C34.3254 27.9346 34.1322 27.6955 33.8487 27.6469Z" fill="white"/>
<path d="M28.7192 29.1859C28.5217 29.3759 28.5045 29.6787 28.6795 29.8582C28.8556 30.0399 29.1573 30.0353 29.3549 29.8452C29.5536 29.6531 29.5707 29.3516 29.3957 29.1699C29.2207 28.9875 28.9168 28.9938 28.7192 29.1859Z" fill="white"/>
<path d="M26.5727 31.2577C26.3762 31.4489 26.358 31.7492 26.5341 31.933C26.7091 32.1145 27.0119 32.107 27.2095 31.9169C27.406 31.727 27.4242 31.4249 27.2492 31.2425C27.0731 31.0614 26.7714 31.0664 26.5727 31.2577Z" fill="white"/>
<path d="M24.4262 33.329C24.2287 33.5198 24.2115 33.8218 24.3876 34.0035C24.5626 34.1859 24.8643 34.1792 25.063 33.9859C25.2606 33.7958 25.2777 33.4943 25.1038 33.3126C24.9277 33.1302 24.6238 33.1369 24.4262 33.329Z" fill="white"/>
<path d="M22.2799 35.4033C22.0834 35.5912 22.0662 35.8953 22.2413 36.0757C22.4163 36.2568 22.7191 36.2519 22.9188 36.0614C23.1153 35.8693 23.1325 35.5677 22.9564 35.3853C22.7814 35.2024 22.4786 35.2099 22.2799 35.4033Z" fill="white"/>
<path d="M31.1588 29.3181C30.9076 29.3416 30.7218 29.55 30.7454 29.7828C30.768 30.016 30.9913 30.1867 31.2426 30.1628C31.4928 30.136 31.6807 29.9267 31.6571 29.6927C31.6334 29.4599 31.4101 29.2921 31.1588 29.3181Z" fill="white"/>
<path d="M31.4079 31.848C31.1566 31.8722 30.9698 32.0828 30.9945 32.3169C31.0181 32.5488 31.2415 32.7174 31.4917 32.6905C31.744 32.6692 31.9298 32.4586 31.9072 32.2245C31.8836 31.9939 31.6602 31.824 31.4079 31.848Z" fill="white"/>
<path d="M31.6592 34.3785C31.4058 34.4058 31.2211 34.6151 31.2447 34.8479C31.2673 35.0831 31.4895 35.2505 31.7429 35.225C31.9931 35.2002 32.18 34.9917 32.1553 34.7589C32.1338 34.5257 31.9105 34.3571 31.6592 34.3785Z" fill="white"/>
<path d="M31.9093 36.9163C31.657 36.9411 31.4712 37.1504 31.4938 37.3823C31.5163 37.6164 31.7397 37.785 31.991 37.7615C32.2422 37.7355 32.429 37.5262 32.4065 37.2934C32.3829 37.0573 32.1585 36.8908 31.9093 36.9163Z" fill="white"/>
<path d="M34.394 37.6026C34.1964 37.8023 34.1825 38.108 34.3629 38.2842C34.5422 38.4625 34.8471 38.4444 35.0447 38.2468C35.2423 38.0468 35.2541 37.7431 35.0737 37.5636C34.8933 37.3887 34.5894 37.4038 34.394 37.6026Z" fill="white"/>
<path d="M36.5277 35.4431C36.3312 35.642 36.3172 35.9481 36.4976 36.1252C36.678 36.3021 36.9819 36.2862 37.1795 36.0887C37.376 35.8898 37.3889 35.5841 37.2085 35.4046C37.0302 35.2263 36.7242 35.2447 36.5277 35.4431Z" fill="white"/>
<path d="M38.6624 33.2858C38.4648 33.4834 38.453 33.7892 38.6334 33.9674C38.8127 34.1457 39.1177 34.1265 39.3142 33.928C39.5117 33.7313 39.5246 33.4255 39.3442 33.2473C39.1649 33.069 38.8589 33.0849 38.6624 33.2858Z" fill="white"/>
<path d="M40.7969 31.125C40.6015 31.3225 40.5875 31.6296 40.7668 31.807C40.9472 31.984 41.2522 31.9681 41.4498 31.7685C41.6452 31.5705 41.657 31.2647 41.4788 31.0877C41.2994 30.9102 40.9945 30.9253 40.7969 31.125Z" fill="white"/>
<path d="M23.7884 38.3623C23.5329 38.288 23.2698 38.4277 23.2011 38.668C23.1281 38.9109 23.2784 39.1697 23.5329 39.2436C23.7863 39.3178 24.0504 39.1802 24.1224 38.9365C24.1911 38.6962 24.044 38.4382 23.7884 38.3623Z" fill="white"/>
<path d="M26.5566 39.1698C26.3032 39.0968 26.0369 39.2323 25.9682 39.4768C25.8962 39.7176 26.0455 39.9751 26.2999 40.0502C26.5544 40.1245 26.8186 39.9868 26.8894 39.7445C26.9614 39.5036 26.8121 39.2461 26.5566 39.1698Z" fill="white"/>
<path d="M29.3249 39.9791C29.0704 39.9062 28.8052 40.0425 28.7354 40.285C28.6645 40.5266 28.8138 40.7845 29.0672 40.8575C29.3238 40.9347 29.5869 40.7963 29.6589 40.5534C29.7286 40.3089 29.5794 40.0534 29.3249 39.9791Z" fill="white"/>
<path d="M21.2286 40.0527C20.9817 40.1064 20.826 40.3639 20.884 40.631C20.9409 40.8953 21.1878 41.0673 21.4369 41.0136C21.6828 40.9599 21.8364 40.7012 21.7795 40.4348C21.7226 40.1697 21.4735 39.9999 21.2286 40.0527Z" fill="white"/>
<path d="M21.8556 42.9381C21.6065 42.9918 21.454 43.2515 21.5088 43.5166C21.5679 43.7829 21.8148 43.9549 22.0629 43.8999C22.3098 43.8462 22.4634 43.5887 22.4065 43.3223C22.3496 43.0572 22.1004 42.8845 21.8556 42.9381Z" fill="white"/>
<path d="M22.4806 45.8254C22.2326 45.8756 22.0801 46.1366 22.137 46.4017C22.195 46.6693 22.442 46.8387 22.69 46.785C22.9348 46.7326 23.0905 46.4725 23.0325 46.2062C22.9756 45.9398 22.7265 45.7704 22.4806 45.8254Z" fill="white"/>
<path d="M23.1077 48.7075C22.8597 48.7612 22.7051 49.0208 22.763 49.2859C22.821 49.5514 23.068 49.7221 23.315 49.6705C23.5608 49.6148 23.7166 49.358 23.6586 49.0929C23.6006 48.8275 23.3525 48.6538 23.1077 48.7075Z" fill="white"/>
<path d="M23.7337 51.593C23.4846 51.6466 23.3321 51.9063 23.388 52.1718C23.447 52.4369 23.694 52.6064 23.942 52.554C24.1879 52.5015 24.3426 52.2415 24.2835 51.9773C24.2277 51.7109 23.9796 51.5393 23.7337 51.593Z" fill="white"/>
<path d="M27.012 55.4944C26.7682 55.3697 26.4772 55.4537 26.3645 55.6781C26.2485 55.9037 26.3548 56.1882 26.5996 56.3114C26.8423 56.4351 27.1322 56.3492 27.2471 56.1248C27.3599 55.8982 27.2557 55.6168 27.012 55.4944Z" fill="white"/>
<path d="M29.6587 56.8297C29.4139 56.7052 29.1229 56.789 29.0112 57.0168C28.8953 57.24 29.0005 57.5235 29.2432 57.6447C29.488 57.7706 29.7779 57.6859 29.8917 57.4594C30.0045 57.235 29.9014 56.9523 29.6587 56.8297Z" fill="white"/>
<path d="M32.3034 58.1619C32.0597 58.0386 31.7687 58.1233 31.6549 58.3478C31.5421 58.5742 31.6473 58.8578 31.89 58.9802C32.1338 59.1036 32.4248 59.0196 32.5375 58.7932C32.6513 58.5679 32.5472 58.2873 32.3034 58.1619Z" fill="white"/>
<path d="M34.9492 59.499C34.7043 59.3765 34.4155 59.4591 34.3017 59.6843C34.1879 59.9092 34.292 60.1915 34.5358 60.316C34.7806 60.4406 35.0694 60.3534 35.1833 60.129C35.2971 59.9024 35.1918 59.6223 34.9492 59.499Z" fill="white"/>
<path d="M31.2416 43.3386C31.029 43.203 30.7509 43.2525 30.6242 43.4509C30.4932 43.6497 30.5651 43.9215 30.7767 44.0587C30.9893 44.195 31.2642 44.1459 31.393 43.9472C31.5208 43.7483 31.4521 43.4757 31.2416 43.3386Z" fill="white"/>
<path d="M29.8487 45.498C29.6361 45.3616 29.359 45.4098 29.2313 45.6087C29.1046 45.8083 29.1722 46.0809 29.3848 46.2186C29.5963 46.354 29.8745 46.3054 30.0022 46.1036C30.1311 45.9073 30.0602 45.6334 29.8487 45.498Z" fill="white"/>
<path d="M28.4583 47.6575C28.2457 47.5213 27.9687 47.5682 27.8409 47.7683C27.7131 47.968 27.7808 48.2419 27.9934 48.3781C28.206 48.5124 28.482 48.465 28.6108 48.2653C28.7386 48.0665 28.6699 47.7939 28.4583 47.6575Z" fill="white"/>
<path d="M27.0666 49.8145C26.8551 49.6782 26.5781 49.7277 26.4503 49.9274C26.3225 50.125 26.3902 50.398 26.6028 50.533C26.8154 50.6714 27.0913 50.6212 27.2202 50.4236C27.348 50.2239 27.2792 49.95 27.0666 49.8145Z" fill="white"/>
<path d="M25.6761 51.9729C25.4624 51.8365 25.1875 51.886 25.0576 52.0845C24.9298 52.2832 24.9996 52.555 25.2122 52.6922C25.4249 52.8298 25.7019 52.7782 25.8275 52.5818C25.9574 52.3831 25.8876 52.1104 25.6761 51.9729Z" fill="white"/>
<path d="M32.7235 43.3541C32.4787 43.4153 32.3326 43.6749 32.3971 43.9317C32.4604 44.1862 32.7127 44.344 32.9576 44.2827C33.2035 44.2215 33.3506 43.9627 33.2851 43.7052C33.2196 43.4505 32.9683 43.2916 32.7235 43.3541Z" fill="white"/>
<path d="M33.4277 46.1426C33.1818 46.2018 33.0368 46.4593 33.1002 46.7172C33.1657 46.974 33.4169 47.1329 33.6639 47.0704C33.9077 47.0071 34.0537 46.7504 33.9893 46.4928C33.9238 46.2362 33.6725 46.0793 33.4277 46.1426Z" fill="white"/>
<path d="M34.1321 48.9283C33.8872 48.9916 33.7401 49.2491 33.8046 49.505C33.8679 49.7646 34.1203 49.9195 34.3672 49.859C34.6099 49.797 34.757 49.5395 34.6926 49.2806C34.6282 49.0239 34.3758 48.8658 34.1321 48.9283Z" fill="white"/>
<path d="M34.8354 51.7175C34.5916 51.7787 34.4445 52.0342 34.5089 52.2921C34.5723 52.5497 34.8257 52.7079 35.0694 52.6441C35.3153 52.5832 35.4614 52.3244 35.3969 52.0685C35.3314 51.811 35.0802 51.6542 34.8354 51.7175Z" fill="white"/>
<path d="M35.54 54.5026C35.2941 54.5639 35.1481 54.8214 35.2125 55.0802C35.278 55.3369 35.5292 55.4947 35.7741 55.4313C36.02 55.37 36.166 55.1125 36.1005 54.8558C36.035 54.5983 35.7837 54.4401 35.54 54.5026Z" fill="white"/>
<path d="M36.2442 57.2894C35.9983 57.3515 35.8512 57.6082 35.9167 57.867C35.9811 58.1238 36.2324 58.2793 36.4794 58.2181C36.722 58.1581 36.8702 57.9002 36.8047 57.6406C36.7392 57.3847 36.4869 57.2282 36.2442 57.2894Z" fill="white"/>
<path d="M32.253 39.5189C31.3854 39.5189 30.6799 40.2232 30.6799 41.0906C30.6799 41.9617 31.3854 42.666 32.253 42.666C33.1238 42.666 33.8282 41.9617 33.8282 41.0906C33.8282 40.2232 33.1238 39.5189 32.253 39.5189Z" fill="white"/>
<path d="M21.3542 36.5557C20.4834 36.5557 19.7811 37.2613 19.7811 38.13C19.7811 38.9973 20.4834 39.7041 21.3542 39.7041C22.2218 39.7041 22.9273 38.9973 22.9273 38.13C22.9273 37.2613 22.2218 36.5557 21.3542 36.5557Z" fill="white"/>
<path d="M31.5025 26.0559C30.6338 26.0559 29.9294 26.7593 29.9294 27.6271C29.9294 28.4967 30.6338 29.2021 31.5025 29.2021C32.3723 29.2021 33.0767 28.4967 33.0767 27.6271C33.0767 26.7593 32.3723 26.0559 31.5025 26.0559Z" fill="white"/>
<path d="M43.1121 13.8253C42.2424 13.8253 41.5391 14.5308 41.5391 15.3995C41.5391 16.269 42.2424 16.9736 43.1121 16.9736C43.9808 16.9736 44.6852 16.269 44.6852 15.3995C44.6852 14.5308 43.9808 13.8253 43.1121 13.8253Z" fill="white"/>
<path d="M42.2799 28.4059C41.4112 28.4059 40.7068 29.1081 40.7068 29.978C40.7068 30.8476 41.4112 31.5518 42.2799 31.5518C43.1485 31.5518 43.8551 30.8476 43.8551 29.978C43.8551 29.1081 43.1485 28.4059 42.2799 28.4059Z" fill="white"/>
<path d="M37.4167 59.4452C36.548 59.4452 35.8436 60.1508 35.8436 61.0186C35.8436 61.8881 36.548 62.5928 37.4167 62.5928C38.2865 62.5928 38.9919 61.8881 38.9919 61.0186C38.9919 60.1508 38.2865 59.4452 37.4167 59.4452Z" fill="white"/>
<path d="M24.8548 52.559C23.9861 52.559 23.2817 53.2625 23.2817 54.1311C23.2817 55.0007 23.9861 55.7041 24.8548 55.7041C25.7235 55.7041 26.4279 55.0007 26.4279 54.1311C26.4279 53.2625 25.7235 52.559 24.8548 52.559Z" fill="white"/>
<path d="M27.0001 74.803C26.1314 74.803 25.427 75.5051 25.427 76.3751C25.427 77.2449 26.1314 77.9492 27.0001 77.9492C27.8698 77.9492 28.5742 77.2449 28.5742 76.3751C28.5742 75.5051 27.8698 74.803 27.0001 74.803Z" fill="white"/>
<path d="M36.1744 84.549C35.3046 84.549 34.6013 85.2532 34.6013 86.124C34.6013 86.9918 35.3046 87.6973 36.1744 87.6973C37.0431 87.6973 37.7485 86.9918 37.7485 86.124C37.7485 85.2532 37.0431 84.549 36.1744 84.549Z" fill="white"/>
<path d="M43.1121 74.1067C42.2424 74.1067 41.5391 74.8101 41.5391 75.6801C41.5391 76.5495 42.2424 77.2529 43.1121 77.2529C43.9808 77.2529 44.6852 76.5495 44.6852 75.6801C44.6852 74.8101 43.9808 74.1067 43.1121 74.1067Z" fill="white"/>
<path d="M26.1926 72.0309C25.9402 72.0489 25.7534 72.2808 25.7749 72.5472C25.7953 72.8128 26.0175 73.0103 26.2699 72.9897C26.5222 72.9692 26.7101 72.7352 26.6876 72.4722C26.6672 72.2071 26.4438 72.0082 26.1926 72.0309Z" fill="white"/>
<path d="M25.9553 69.1477C25.7052 69.1695 25.5173 69.4023 25.5398 69.6665C25.5613 69.9317 25.7836 70.1284 26.0348 70.109C26.2861 70.0884 26.4729 69.8565 26.4525 69.5915C26.43 69.3251 26.2088 69.1284 25.9553 69.1477Z" fill="white"/>
<path d="M25.7201 66.271C25.4689 66.2895 25.282 66.5201 25.3024 66.7865C25.3239 67.052 25.5462 67.2504 25.7974 67.2277C26.0498 67.2084 26.2388 66.9765 26.2151 66.7106C26.1947 66.4451 25.9714 66.2496 25.7201 66.271Z" fill="white"/>
<path d="M25.4828 63.386C25.2326 63.4087 25.0447 63.6393 25.0673 63.9048C25.0887 64.1691 25.311 64.3666 25.5623 64.3473C25.8146 64.3267 26.0014 64.0948 25.98 63.8297C25.9585 63.5654 25.7351 63.3667 25.4828 63.386Z" fill="white"/>
<path d="M25.2487 60.5071C24.9964 60.5276 24.8096 60.7597 24.831 61.0255C24.8525 61.2889 25.0748 61.4886 25.326 61.4672C25.5773 61.4454 25.7663 61.2134 25.7437 60.9483C25.7223 60.6841 25.4989 60.4857 25.2487 60.5071Z" fill="white"/>
<path d="M25.0115 57.6265C24.7602 57.6458 24.5734 57.8773 24.5938 58.1427C24.6164 58.4078 24.8397 58.6067 25.0899 58.5853C25.3433 58.5634 25.5291 58.3328 25.5076 58.0677C25.4861 57.8034 25.2628 57.6047 25.0115 57.6265Z" fill="white"/>
<path d="M70.534 23.6615C63.9399 21.5793 56.3194 21.8403 53.7681 24.3905C50.9022 27.2586 50.7594 31.6757 51.0966 35.8088C51.4241 39.8129 54.1332 52.5756 54.9847 57.6781C55.8341 62.7819 52.9188 73.4713 52.311 78.6942C51.7022 83.918 53.431 89.6659 62.1757 90.8823C69.8263 91.9431 74.1504 85.6145 75.2167 80.6828C76.1272 76.4745 76.7468 67.4742 77.7014 59.2569C78.2952 54.1669 81.5379 46.4056 82.5902 41.8861C83.125 39.5885 83.2345 35.0786 81.5594 32.0906C80.2548 29.7613 75.1501 25.1182 70.534 23.6615Z" fill="#FFBD95"/>
<path d="M56.3076 9.32616C53.4224 9.32616 51.0837 12.3877 51.0837 16.1605C51.0837 19.9351 53.4224 22.9961 56.3076 22.9961C59.1928 22.9961 61.5315 19.9351 61.5315 16.1605C61.5315 12.3877 59.1928 9.32616 56.3076 9.32616Z" fill="#FFBD95"/>
<path d="M64.6809 11.9073C63.0101 11.9073 61.6582 14.1223 61.6582 16.857C61.6582 19.5909 63.0101 21.8086 64.6809 21.8086C66.3516 21.8086 67.7057 19.5909 67.7057 16.857C67.7057 14.1223 66.3516 11.9073 64.6809 11.9073Z" fill="#FFBD95"/>
<path d="M70.7283 15.3995C69.3399 15.3995 68.2135 17.242 68.2135 19.515C68.2135 21.7884 69.3399 23.6318 70.7283 23.6318C72.1167 23.6318 73.2409 21.7884 73.2409 19.515C73.2409 17.242 72.1167 15.3995 70.7283 15.3995Z" fill="#FFBD95"/>
<path d="M75.7556 19.5147C74.5981 19.5147 73.6586 21.0524 73.6586 22.9499C73.6586 24.8463 74.5981 26.3848 75.7556 26.3848C76.9132 26.3848 77.8527 24.8463 77.8527 22.9499C77.8527 21.0524 76.9132 19.5147 75.7556 19.5147Z" fill="#FFBD95"/>
<path d="M80.4942 23.6322C79.3356 23.6322 78.3971 25.1698 78.3971 27.0674C78.3971 28.9624 79.3356 30.498 80.4942 30.498C81.6528 30.498 82.5902 28.9624 82.5902 27.0674C82.5902 25.1698 81.6528 23.6322 80.4942 23.6322Z" fill="#FFBD95"/>
<path d="M62.792 62.8724C62.5923 63.028 62.5568 63.3178 62.7136 63.5166C62.8704 63.7183 63.1592 63.7528 63.3589 63.5972C63.5576 63.4436 63.5919 63.1538 63.4363 62.9541C63.2795 62.7532 62.9896 62.7188 62.792 62.8724Z" fill="white"/>
<path d="M64.494 65.0467C64.2932 65.2011 64.2589 65.4922 64.4135 65.6909C64.5713 65.8927 64.8591 65.9259 65.0599 65.7715C65.2586 65.6155 65.2929 65.3298 65.1361 65.1272C64.9804 64.9263 64.6927 64.8907 64.494 65.0467Z" fill="white"/>
<path d="M66.1926 67.2215C65.994 67.3779 65.9585 67.6657 66.1153 67.8679C66.2721 68.0662 66.562 68.1018 66.7606 67.9451C66.9593 67.7894 66.9936 67.5025 66.8369 67.3028C66.6812 67.1011 66.3913 67.0646 66.1926 67.2215Z" fill="white"/>
<path d="M67.8946 69.3967C67.6948 69.5523 67.6605 69.8414 67.8162 70.0419C67.973 70.2415 68.2618 70.278 68.4615 70.1215C68.6591 69.9655 68.6956 69.677 68.5378 69.4773C68.3821 69.2751 68.0932 69.2407 67.8946 69.3967Z" fill="white"/>
<path d="M69.5954 71.5721C69.3957 71.7277 69.3603 72.0176 69.516 72.2173C69.6738 72.4169 69.9627 72.4525 70.1624 72.2957C70.3589 72.1409 70.3954 71.8531 70.2386 71.6527C70.0829 71.4531 69.793 71.4161 69.5954 71.5721Z" fill="white"/>
<path d="M71.2963 73.7443C71.0955 73.9011 71.0612 74.191 71.2169 74.3906C71.3747 74.5902 71.6635 74.6247 71.8633 74.4691C72.0608 74.3143 72.0963 74.0265 71.9384 73.8269C71.7817 73.626 71.495 73.5908 71.2963 73.7443Z" fill="white"/>
<path d="M71.1836 77.7001C71.0247 77.8654 71.0408 78.1435 71.2223 78.3205C71.4037 78.4946 71.6808 78.5042 71.8418 78.3378C72.0029 78.1716 71.9846 77.8956 71.8042 77.7195C71.6217 77.5441 71.3447 77.5358 71.1836 77.7001Z" fill="white"/>
<path d="M69.4418 79.4986C69.2819 79.6671 69.3001 79.9419 69.4805 80.1189C69.663 80.2942 69.9401 80.3039 70.1001 80.1395C70.2611 79.9709 70.2439 79.6948 70.0614 79.5179C69.8799 79.3425 69.6018 79.3355 69.4418 79.4986Z" fill="white"/>
<path d="M67.7003 81.3C67.5403 81.464 67.5575 81.7434 67.7389 81.9182C67.9204 82.0944 68.1996 82.1019 68.3585 81.9367C68.5206 81.7714 68.5013 81.4933 68.3209 81.3181C68.1384 81.1431 67.8613 81.1335 67.7003 81.3Z" fill="white"/>
<path d="M65.9586 83.0997C65.7986 83.2663 65.8168 83.5423 65.9972 83.7193C66.1787 83.8946 66.4579 83.903 66.6168 83.7378C66.7768 83.5712 66.7596 83.2953 66.5781 83.1182C66.3956 82.9441 66.1186 82.9345 65.9586 83.0997Z" fill="white"/>
<path d="M64.217 84.8982C64.0559 85.0634 64.0741 85.3407 64.2567 85.5164C64.4382 85.6905 64.7163 85.7002 64.8752 85.5362C65.0352 85.3684 65.018 85.0936 64.8365 84.9175C64.6551 84.7413 64.378 84.7329 64.217 84.8982Z" fill="white"/>
<path d="M60.9668 84.366C60.7542 84.4991 60.6833 84.7772 60.8133 84.9876C60.9432 85.1949 61.2234 85.2561 61.436 85.1227C61.6519 84.9919 61.7206 84.7138 61.5907 84.5044C61.4608 84.294 61.1837 84.2348 60.9668 84.366Z" fill="white"/>
<path d="M59.56 82.091C59.3453 82.2227 59.2755 82.4999 59.4054 82.7105C59.5353 82.9198 59.8145 82.9798 60.0282 82.8489C60.244 82.7155 60.3138 82.4374 60.1839 82.2273C60.0539 82.0189 59.7748 81.9588 59.56 82.091Z" fill="white"/>
<path d="M58.1513 79.8167C57.9376 79.9497 57.8689 80.227 57.9977 80.4363C58.1266 80.6468 58.4068 80.708 58.6216 80.576C58.8353 80.4425 58.9051 80.1657 58.7762 79.9564C58.6463 79.7467 58.365 79.6846 58.1513 79.8167Z" fill="white"/>
<path d="M56.7446 77.5427C56.5288 77.6749 56.459 77.953 56.5889 78.1614C56.7189 78.372 56.998 78.432 57.2117 78.3011C57.4286 78.1677 57.4984 77.8896 57.3685 77.6803C57.2396 77.471 56.9583 77.4106 56.7446 77.5427Z" fill="white"/>
<path d="M56.8175 72.991C56.5834 72.8988 56.3139 73.0178 56.2172 73.2594C56.1217 73.5023 56.2344 73.7728 56.4685 73.8659C56.7037 73.9607 56.9732 73.8412 57.0687 73.5988C57.1654 73.3572 57.0526 73.0845 56.8175 72.991Z" fill="white"/>
<path d="M57.8678 70.3678C57.6326 70.2735 57.3652 70.3926 57.2675 70.6342C57.1698 70.8758 57.2836 71.1489 57.5156 71.242C57.7518 71.3342 58.0213 71.2172 58.1179 70.9736C58.2146 70.7331 58.1008 70.4593 57.8678 70.3678Z" fill="white"/>
<path d="M58.9159 67.7437C58.6818 67.6502 58.4123 67.7684 58.3156 68.0109C58.219 68.2525 58.3317 68.5242 58.5658 68.6178C58.801 68.7109 59.0705 68.5918 59.1671 68.3502C59.2638 68.1077 59.1521 67.8372 58.9159 67.7437Z" fill="white"/>
<path d="M59.9638 65.1196C59.7308 65.0261 59.4624 65.1456 59.3646 65.3881C59.2669 65.6288 59.3808 65.9003 59.6159 65.9951C59.85 66.0873 60.1184 65.969 60.2151 65.7266C60.3128 65.485 60.2 65.212 59.9638 65.1196Z" fill="white"/>
<path d="M61.0129 62.4947C60.7799 62.3999 60.5104 62.519 60.4138 62.7632C60.3171 63.0035 60.4299 63.2761 60.664 63.3705C60.8991 63.462 61.1676 63.3437 61.2642 63.1012C61.363 62.8609 61.2481 62.5878 61.0129 62.4947Z" fill="white"/>
<path d="M61.4733 59.8085C61.2242 59.8517 61.0578 60.0941 61.1018 60.35C61.1437 60.6076 61.3842 60.7783 61.6322 60.7384C61.8824 60.6943 62.0489 60.454 62.0038 60.1965C61.9608 59.9385 61.7203 59.7657 61.4733 59.8085Z" fill="white"/>
<path d="M60.9967 57.0247C60.7476 57.0665 60.5801 57.3094 60.6241 57.5649C60.6681 57.8215 60.9065 57.9957 61.1545 57.9524C61.4047 57.9096 61.5722 57.6659 61.5271 57.4122C61.4842 57.1538 61.2447 56.9798 60.9967 57.0247Z" fill="white"/>
<path d="M60.5189 54.2376C60.2698 54.2817 60.1034 54.5233 60.1485 54.7808C60.1904 55.0354 60.4287 55.2095 60.6779 55.1676C60.9281 55.1248 61.0945 54.8819 61.0494 54.6252C61.0054 54.3685 60.7691 54.1957 60.5189 54.2376Z" fill="white"/>
<path d="M60.041 51.4534C59.793 51.4962 59.6255 51.7369 59.6695 51.9945C59.7135 52.2511 59.9519 52.424 60.1999 52.3812C60.4501 52.3393 60.6166 52.0964 60.5725 51.8401C60.5296 51.5842 60.2901 51.4106 60.041 51.4534Z" fill="white"/>
<path d="M59.5654 48.6683C59.3163 48.7103 59.1488 48.954 59.1928 49.2099C59.2368 49.4675 59.4752 49.6382 59.7243 49.5962C59.9724 49.5542 60.1399 49.3118 60.0959 49.0538C60.0529 48.7984 59.8135 48.6269 59.5654 48.6683Z" fill="white"/>
<path d="M59.0864 45.8831C58.8373 45.9272 58.6719 46.1688 58.716 46.4229C58.76 46.6817 58.9973 46.855 59.2464 46.8117C59.4955 46.7677 59.663 46.5253 59.619 46.2707C59.575 46.0132 59.3366 45.8399 59.0864 45.8831Z" fill="white"/>
<path d="M58.6087 43.0955C58.3618 43.1395 58.1942 43.3807 58.2372 43.6373C58.2812 43.8941 58.5207 44.0694 58.7676 44.0241C59.0178 43.9834 59.1853 43.7405 59.1413 43.4839C59.0973 43.2263 58.86 43.0544 58.6087 43.0955Z" fill="white"/>
<path d="M58.133 40.3131C57.8839 40.3558 57.7174 40.5966 57.7615 40.8542C57.8055 41.1087 58.0439 41.2828 58.2919 41.2408C58.541 41.1989 58.7074 40.9552 58.6656 40.6973C58.6205 40.4418 58.3821 40.2691 58.133 40.3131Z" fill="white"/>
<path d="M57.6551 37.5276C57.4071 37.5687 57.2417 37.8125 57.2836 38.0691C57.3276 38.3254 57.566 38.4966 57.814 38.4546C58.0631 38.4114 58.2306 38.1719 58.1866 37.9131C58.1426 37.6577 57.9042 37.4836 57.6551 37.5276Z" fill="white"/>
<path d="M57.1784 34.7429C56.9303 34.7847 56.7628 35.0285 56.8068 35.2839C56.8498 35.5406 57.0892 35.7134 57.3373 35.6715C57.5875 35.6274 57.755 35.385 57.7099 35.1304C57.6648 34.8716 57.4275 34.6996 57.1784 34.7429Z" fill="white"/>
<path d="M56.7026 31.9565C56.4524 32.0005 56.2849 32.2396 56.3289 32.4983C56.3729 32.7564 56.6113 32.9279 56.8604 32.8864C57.1106 32.8431 57.2771 32.6008 57.233 32.3461C57.189 32.0882 56.9496 31.9145 56.7026 31.9565Z" fill="white"/>
<path d="M59.2336 28.6855C58.9512 28.735 58.7579 28.9753 58.7998 29.2245C58.8427 29.4744 59.1058 29.6389 59.3871 29.5886C59.6685 29.5411 59.8639 29.2995 59.8209 29.0504C59.779 28.8025 59.516 28.6372 59.2336 28.6855Z" fill="white"/>
<path d="M62.2971 28.165C62.0147 28.2119 61.8192 28.4569 61.8611 28.7039C61.9041 28.9539 62.1682 29.1171 62.4485 29.0701C62.732 29.0227 62.9252 28.7802 62.8833 28.5311C62.8404 28.2828 62.5773 28.1175 62.2971 28.165Z" fill="white"/>
<path d="M65.3583 27.6469C65.0759 27.6956 64.8837 27.9346 64.9245 28.185C64.9675 28.4362 65.2295 28.6007 65.5108 28.552C65.7932 28.5038 65.9865 28.2601 65.9446 28.0131C65.9027 27.7618 65.6407 27.5999 65.3583 27.6469Z" fill="white"/>
<path d="M69.8123 29.1679C69.6383 29.3516 69.6544 29.6531 69.852 29.8452C70.0496 30.0353 70.3534 30.0399 70.5274 29.8582C70.7035 29.6787 70.6863 29.3759 70.4898 29.1859C70.2901 28.9938 69.9873 28.9875 69.8123 29.1679Z" fill="white"/>
<path d="M71.9589 31.2417C71.7818 31.4249 71.8011 31.727 71.9987 31.9169C72.1962 32.107 72.499 32.1145 72.6751 31.933C72.8502 31.7492 72.8319 31.4489 72.6343 31.2577C72.4368 31.0664 72.134 31.0614 71.9589 31.2417Z" fill="white"/>
<path d="M74.1051 33.3119C73.929 33.4945 73.9451 33.796 74.1449 33.986C74.3413 34.1794 74.6442 34.1861 74.8203 34.0024C74.9953 33.822 74.9781 33.52 74.7816 33.3292C74.583 33.1371 74.2801 33.1303 74.1051 33.3119Z" fill="white"/>
<path d="M76.2517 35.3853C76.0756 35.5677 76.0928 35.8693 76.2904 36.0614C76.4879 36.2519 76.7897 36.2568 76.9658 36.0757C77.1419 35.8953 77.1247 35.5912 76.926 35.4033C76.7285 35.2099 76.4257 35.2024 76.2517 35.3853Z" fill="white"/>
<path d="M68.0492 29.3181C67.7979 29.2921 67.5746 29.4599 67.5509 29.6927C67.5284 29.9267 67.7131 30.136 67.9654 30.1628C68.2156 30.1867 68.4389 30.016 68.4636 29.7828C68.4862 29.55 68.2994 29.3416 68.0492 29.3181Z" fill="white"/>
<path d="M67.8012 31.848C67.5467 31.824 67.3244 31.9939 67.3008 32.2245C67.2783 32.4586 67.464 32.6692 67.7164 32.6905C67.9665 32.7174 68.191 32.5488 68.2124 32.3169C68.2371 32.0828 68.0503 31.8722 67.8012 31.848Z" fill="white"/>
<path d="M67.5488 34.3785C67.2976 34.3571 67.0742 34.5257 67.0517 34.7589C67.0291 34.9917 67.2149 35.2002 67.4661 35.225C67.7185 35.2505 67.9407 35.0831 67.9633 34.8479C67.9848 34.6151 67.8011 34.4058 67.5488 34.3785Z" fill="white"/>
<path d="M67.2998 36.9163C67.0475 36.8908 66.8252 37.0573 66.8027 37.2934C66.7791 37.5262 66.9648 37.7355 67.2172 37.7615C67.4673 37.785 67.6896 37.6164 67.7132 37.3823C67.7358 37.1504 67.55 36.9411 67.2998 36.9163Z" fill="white"/>
<path d="M64.1332 37.5636C63.9539 37.7431 63.9657 38.0468 64.1622 38.2468C64.3608 38.4444 64.6658 38.4625 64.8451 38.2842C65.0244 38.108 65.0115 37.8023 64.814 37.6026C64.6175 37.4038 64.3147 37.3887 64.1332 37.5636Z" fill="white"/>
<path d="M61.9974 35.4066C61.8191 35.5841 61.832 35.8898 62.0285 36.0887C62.224 36.2862 62.53 36.3021 62.7093 36.1252C62.8897 35.9481 62.8779 35.642 62.6803 35.4431C62.4838 35.2447 62.1778 35.2263 61.9974 35.4066Z" fill="white"/>
<path d="M59.864 33.2481C59.6836 33.4255 59.6975 33.7313 59.894 33.928C60.0905 34.1265 60.3955 34.1457 60.5748 33.9674C60.7541 33.7892 60.7412 33.4834 60.5447 33.2858C60.3482 33.0849 60.0433 33.069 59.864 33.2481Z" fill="white"/>
<path d="M57.7281 31.0877C57.5499 31.2647 57.5617 31.5705 57.7593 31.7685C57.9547 31.9681 58.2607 31.984 58.4411 31.807C58.6204 31.6296 58.6065 31.3225 58.411 31.125C58.2145 30.9253 57.9085 30.9102 57.7281 31.0877Z" fill="white"/>
<path d="M75.4185 38.3623C75.164 38.4382 75.0147 38.6961 75.0867 38.9386C75.1565 39.1802 75.4196 39.3177 75.6762 39.2436C75.9296 39.1697 76.0788 38.9109 76.008 38.668C75.9382 38.4277 75.674 38.288 75.4185 38.3623Z" fill="white"/>
<path d="M72.6515 39.1698C72.3959 39.2461 72.2467 39.5036 72.3186 39.7452C72.3895 39.9868 72.6526 40.1245 72.907 40.0502C73.1637 39.9751 73.3097 39.7176 73.241 39.4768C73.1701 39.2323 72.906 39.0968 72.6515 39.1698Z" fill="white"/>
<path d="M69.8833 39.9791C69.6277 40.0534 69.4785 40.3089 69.5504 40.5534C69.6213 40.7963 69.8854 40.9347 70.141 40.8575C70.3955 40.7845 70.5437 40.5266 70.4739 40.285C70.403 40.0425 70.1367 39.9062 69.8833 39.9791Z" fill="white"/>
<path d="M77.9805 40.0527C77.7335 39.9999 77.4855 40.1697 77.4264 40.4348C77.3706 40.7012 77.5231 40.9599 77.7711 41.0136C78.0159 41.0673 78.2661 40.8953 78.3219 40.631C78.381 40.3639 78.2264 40.1064 77.9805 40.0527Z" fill="white"/>
<path d="M77.3534 42.9381C77.1064 42.8845 76.8584 43.0572 76.8015 43.3223C76.7435 43.5887 76.8981 43.8462 77.1462 43.8999C77.391 43.9549 77.639 43.7829 77.6959 43.5166C77.7539 43.2515 77.6014 42.9918 77.3534 42.9381Z" fill="white"/>
<path d="M76.7285 45.8254C76.4816 45.7704 76.2335 45.9398 76.1745 46.2062C76.1186 46.4725 76.2711 46.7326 76.5192 46.785C76.7661 46.8387 77.0142 46.6693 77.07 46.4017C77.1291 46.1366 76.9744 45.8756 76.7285 45.8254Z" fill="white"/>
<path d="M76.1016 48.7075C75.8567 48.6538 75.6076 48.8275 75.5497 49.0929C75.4917 49.358 75.6463 49.6148 75.8943 49.6705C76.1392 49.7221 76.3872 49.5514 76.4441 49.2859C76.5032 49.0208 76.3496 48.7612 76.1016 48.7075Z" fill="white"/>
<path d="M75.4765 51.593C75.2295 51.5393 74.9814 51.7109 74.9235 51.9773C74.8666 52.2415 75.0201 52.5003 75.2692 52.554C75.514 52.6064 75.7621 52.4369 75.8179 52.1718C75.877 51.9063 75.7234 51.6466 75.4765 51.593Z" fill="white"/>
<path d="M72.1962 55.4944C71.9535 55.6168 71.8483 55.8982 71.9642 56.1248C72.077 56.3492 72.3669 56.4351 72.6096 56.3114C72.8533 56.1882 72.9575 55.9037 72.8447 55.6815C72.7309 55.4537 72.441 55.3697 72.1962 55.4944Z" fill="white"/>
<path d="M69.5514 56.8297C69.3066 56.9523 69.2025 57.235 69.3174 57.4594C69.429 57.6859 69.72 57.7706 69.9638 57.6447C70.2064 57.5235 70.3106 57.24 70.1978 57.0168C70.0851 56.789 69.7952 56.7052 69.5514 56.8297Z" fill="white"/>
<path d="M66.9057 58.1618C66.6609 58.2872 66.5557 58.5678 66.6705 58.7952C66.7833 59.0196 67.0732 59.1035 67.318 58.9801C67.5618 58.8577 67.667 58.5742 67.5532 58.3484C67.4394 58.1233 67.1484 58.0386 66.9057 58.1618Z" fill="white"/>
<path d="M64.2599 59.499C64.015 59.6222 63.9109 59.9024 64.0247 60.1301C64.1385 60.3534 64.4284 60.4406 64.6733 60.316C64.9159 60.1935 65.0201 59.9091 64.9063 59.6843C64.7935 59.459 64.5025 59.3765 64.2599 59.499Z" fill="white"/>
<path d="M67.9667 43.3386C67.7562 43.4757 67.6854 43.7483 67.8153 43.9472C67.9431 44.1459 68.218 44.195 68.4316 44.0587C68.6442 43.9215 68.713 43.6497 68.5852 43.4509C68.4563 43.2525 68.1793 43.203 67.9667 43.3386Z" fill="white"/>
<path d="M69.3604 45.498C69.1478 45.6334 69.0769 45.9073 69.2058 46.1036C69.3336 46.3054 69.6106 46.354 69.8232 46.2186C70.0348 46.0809 70.1035 45.8083 69.9768 45.6087C69.8479 45.4098 69.5709 45.3616 69.3604 45.498Z" fill="white"/>
<path d="M70.7509 47.6575C70.5373 47.7939 70.4685 48.0665 70.5963 48.2653C70.7241 48.465 71.0022 48.5124 71.2148 48.3781C71.4274 48.2419 71.4961 47.968 71.3684 47.7683C71.2395 47.5682 70.9614 47.5213 70.7509 47.6575Z" fill="white"/>
<path d="M72.1425 49.8147C71.9277 49.9502 71.859 50.224 71.9868 50.4238C72.1146 50.6213 72.3927 50.6716 72.6053 50.5324C72.8168 50.3982 72.8855 50.1251 72.7588 49.9276C72.6289 49.7278 72.354 49.6783 72.1425 49.8147Z" fill="white"/>
<path d="M73.532 51.9729C73.3204 52.1104 73.2517 52.3831 73.3795 52.5818C73.5073 52.7782 73.7832 52.8298 73.9958 52.6922C74.2074 52.555 74.2782 52.2832 74.1494 52.0845C74.0216 51.886 73.7446 51.8365 73.532 51.9729Z" fill="white"/>
<path d="M66.4857 43.3541C66.2398 43.2916 65.9864 43.4505 65.9242 43.7052C65.8587 43.9627 66.0058 44.2215 66.2506 44.2827C66.4954 44.344 66.7467 44.1862 66.8111 43.9317C66.8755 43.6749 66.7295 43.4153 66.4857 43.3541Z" fill="white"/>
<path d="M65.7815 46.1428C65.5356 46.0795 65.2843 46.2363 65.2188 46.493C65.1544 46.7506 65.3004 47.0073 65.5453 47.0718C65.7912 47.1331 66.0435 46.9741 66.1079 46.7174C66.1713 46.4595 66.0252 46.202 65.7815 46.1428Z" fill="white"/>
<path d="M65.0758 48.9291C64.8321 48.8658 64.5798 49.0239 64.5153 49.2806C64.4498 49.5395 64.5969 49.797 64.8418 49.859C65.0866 49.9195 65.34 49.7646 65.4033 49.505C65.4688 49.2491 65.3207 48.9916 65.0758 48.9291Z" fill="white"/>
<path d="M64.3726 51.7175C64.1278 51.6542 63.8765 51.811 63.8121 52.0685C63.7444 52.3244 63.8937 52.5832 64.1385 52.6441C64.3823 52.7079 64.6335 52.5497 64.699 52.2921C64.7635 52.0342 64.6163 51.7787 64.3726 51.7175Z" fill="white"/>
<path d="M63.6693 54.5026C63.4234 54.4401 63.1722 54.5983 63.1077 54.8558C63.0412 55.1125 63.1894 55.37 63.4342 55.4313C63.6801 55.4947 63.9303 55.3369 63.9958 55.0802C64.0591 54.8214 63.9131 54.5639 63.6693 54.5026Z" fill="white"/>
<path d="M62.965 57.2894C62.7191 57.2282 62.4678 57.3847 62.4023 57.6406C62.3379 57.9002 62.4839 58.1581 62.7298 58.2181C62.9746 58.2793 63.227 58.1238 63.2914 57.867C63.3569 57.6082 63.2098 57.3515 62.965 57.2894Z" fill="white"/>
<path d="M66.9541 39.5189C66.0854 39.5189 65.381 40.2232 65.381 41.0906C65.381 41.9617 66.0854 42.666 66.9541 42.666C67.8238 42.666 68.5261 41.9617 68.5261 41.0906C68.5261 40.2232 67.8238 39.5189 66.9541 39.5189Z" fill="white"/>
<path d="M77.8526 36.5557C76.985 36.5557 76.2806 37.2613 76.2806 38.13C76.2806 38.9973 76.985 39.7041 77.8526 39.7041C78.7224 39.7041 79.4279 38.9973 79.4279 38.13C79.4279 37.2613 78.7224 36.5557 77.8526 36.5557Z" fill="white"/>
<path d="M67.7056 26.0559C66.8359 26.0559 66.1315 26.7593 66.1315 27.6271C66.1315 28.4967 66.8359 29.2021 67.7056 29.2021C68.5732 29.2021 69.2787 28.4967 69.2787 27.6271C69.2787 26.7593 68.5732 26.0559 67.7056 26.0559Z" fill="white"/>
<path d="M56.9271 28.4059C56.0584 28.4059 55.354 29.1081 55.354 29.978C55.354 30.8476 56.0584 31.5518 56.9271 31.5518C57.7968 31.5518 58.5012 30.8476 58.5012 29.978C58.5012 29.1081 57.7968 28.4059 56.9271 28.4059Z" fill="white"/>
<path d="M61.7912 59.4452C60.9214 59.4452 60.217 60.1508 60.217 61.0186C60.217 61.8881 60.9214 62.5928 61.7912 62.5928C62.6599 62.5928 63.3643 61.8881 63.3643 61.0186C63.3643 60.1508 62.6599 59.4452 61.7912 59.4452Z" fill="white"/>
<path d="M74.3522 52.559C73.4846 52.559 72.7792 53.2625 72.7792 54.1311C72.7792 55.0007 73.4846 55.7041 74.3522 55.7041C75.2231 55.7041 75.9264 55.0007 75.9264 54.1311C75.9264 53.2625 75.2231 52.559 74.3522 52.559Z" fill="white"/>
<path d="M72.2069 74.803C71.3382 74.803 70.6338 75.5051 70.6338 76.3751C70.6338 77.2449 71.3382 77.9492 72.2069 77.9492C73.0777 77.9492 73.781 77.2449 73.781 76.3751C73.781 75.5051 73.0777 74.803 72.2069 74.803Z" fill="white"/>
<path d="M63.0326 84.549C62.165 84.549 61.4585 85.2532 61.4585 86.124C61.4585 86.9918 62.165 87.6973 63.0326 87.6973C63.9024 87.6973 64.6068 86.9918 64.6068 86.124C64.6068 85.2532 63.9024 84.549 63.0326 84.549Z" fill="white"/>
<path d="M56.0949 74.1067C55.2273 74.1067 54.5229 74.8101 54.5229 75.6801C54.5229 76.5495 55.2273 77.2529 56.0949 77.2529C56.9647 77.2529 57.6691 76.5495 57.6691 75.6801C57.6691 74.8101 56.9647 74.1067 56.0949 74.1067Z" fill="white"/>
<path d="M73.0143 72.0309C72.7641 72.0082 72.5407 72.2071 72.5193 72.4722C72.4978 72.7352 72.6846 72.9692 72.9359 72.9897C73.1882 73.0103 73.4105 72.8128 73.433 72.5472C73.4534 72.2808 73.2666 72.0489 73.0143 72.0309Z" fill="white"/>
<path d="M73.2516 69.1477C72.9993 69.1284 72.777 69.3251 72.7566 69.5915C72.7341 69.8565 72.9209 70.0884 73.1732 70.109C73.4234 70.1284 73.6478 69.9317 73.6682 69.6665C73.6908 69.4023 73.5029 69.1695 73.2516 69.1477Z" fill="white"/>
<path d="M73.4878 66.271C73.2365 66.2496 73.0131 66.4451 72.9917 66.7106C72.9702 66.9765 73.157 67.2084 73.4083 67.2277C73.6617 67.2504 73.8829 67.052 73.9044 66.7865C73.9269 66.5201 73.7401 66.2895 73.4878 66.271Z" fill="white"/>
<path d="M73.723 63.386C73.4717 63.3667 73.2495 63.5654 73.228 63.8297C73.2065 64.0948 73.3944 64.3267 73.6436 64.3473C73.8959 64.3666 74.1181 64.1691 74.1407 63.9048C74.1632 63.6393 73.9753 63.4087 73.723 63.386Z" fill="white"/>
<path d="M73.9592 60.5071C73.709 60.4857 73.4868 60.6841 73.4642 60.9483C73.4427 61.2134 73.6285 61.4454 73.8808 61.4672C74.1332 61.4886 74.3554 61.2889 74.3769 61.0255C74.3984 60.7597 74.2116 60.5276 73.9592 60.5071Z" fill="white"/>
<path d="M74.1954 57.6265C73.9431 57.6047 73.7208 57.8034 73.7004 58.0677C73.6779 58.3328 73.8658 58.5634 74.116 58.5853C74.3694 58.6067 74.5917 58.4078 74.6121 58.1427C74.6357 57.8773 74.4467 57.6458 74.1954 57.6265Z" fill="white"/>
<path d="M55.6827 13.8253C54.8151 13.8253 54.1107 14.5308 54.1107 15.3995C54.1107 16.269 54.8151 16.9736 55.6827 16.9736C56.5514 16.9736 57.2558 16.269 57.2558 15.3995C57.2558 14.5308 56.5514 13.8253 55.6827 13.8253Z" fill="white"/>
</svg>
