<svg width="16" height="18" viewBox="0 0 16 18" fill="none" xmlns="http://www.w3.org/2000/svg">
<path d="M16 7.38152C14.4272 7.38522 12.893 6.90241 11.6141 6.00129V12.286C11.6137 13.45 11.2522 14.5861 10.5781 15.5425C9.90398 16.4988 8.94932 17.2298 7.84177 17.6376C6.73422 18.0455 5.52657 18.1108 4.3803 17.8248C3.23403 17.5388 2.20377 16.9152 1.4273 16.0373C0.650823 15.1594 0.165135 14.069 0.0351789 12.9121C-0.0947772 11.7551 0.137193 10.5867 0.700072 9.56304C1.26295 8.53937 2.12991 7.70924 3.18502 7.18367C4.24013 6.65809 5.4331 6.46212 6.60442 6.62195V9.78295C6.06842 9.61699 5.49286 9.62199 4.95992 9.79723C4.42698 9.97247 3.96393 10.309 3.63688 10.7587C3.30983 11.2085 3.13551 11.7484 3.13882 12.3015C3.14213 12.8546 3.32289 13.3925 3.6553 13.8384C3.98771 14.2843 4.45477 14.6155 4.98976 14.7845C5.52476 14.9536 6.10035 14.9519 6.63432 14.7797C7.16829 14.6076 7.63335 14.2737 7.96307 13.8259C8.2928 13.378 8.47033 12.8391 8.47032 12.286V0H11.6141C11.6119 0.261326 11.6341 0.522296 11.6805 0.779612C11.7898 1.35403 12.0169 1.90047 12.3481 2.38551C12.6792 2.87055 13.1074 3.284 13.6064 3.60056C14.3164 4.06266 15.1488 4.30896 16 4.30879V7.38152Z" fill="#757185"/>
</svg>
