<svg width="18" height="18" viewBox="0 0 18 18" fill="none" xmlns="http://www.w3.org/2000/svg">
<mask id="mask0_130_225" style="mask-type:luminance" maskUnits="userSpaceOnUse" x="0" y="0" width="18" height="18">
<path d="M17.5706 0.428711H0.427734V17.5716H17.5706V0.428711Z" fill="white"/>
</mask>
<g mask="url(#mask0_130_225)">
<path d="M14.6036 3.325C13.1071 1.825 11.1143 1 8.99643 1C4.625 1 1.06786 4.55714 1.06786 8.92857C1.06786 10.325 1.43214 11.6893 2.125 12.8929L1 17L5.20357 15.8964C6.36071 16.5286 7.66429 16.8607 8.99286 16.8607H8.99643C13.3643 16.8607 17 13.3036 17 8.93214C17 6.81429 16.1 4.825 14.6036 3.325ZM8.99643 15.525C7.81071 15.525 6.65 15.2071 5.63929 14.6071L5.4 14.4643L2.90714 15.1179L3.57143 12.6857L3.41429 12.4357C2.75357 11.3857 2.40714 10.175 2.40714 8.92857C2.40714 5.29643 5.36429 2.33929 9 2.33929C10.7607 2.33929 12.4143 3.025 13.6571 4.27143C14.9 5.51786 15.6643 7.17143 15.6607 8.93214C15.6607 12.5679 12.6286 15.525 8.99643 15.525ZM12.6107 10.5893C12.4143 10.4893 11.4393 10.0107 11.2571 9.94643C11.075 9.87857 10.9429 9.84643 10.8107 10.0464C10.6786 10.2464 10.3 10.6893 10.1821 10.825C10.0679 10.9571 9.95 10.975 9.75357 10.875C8.58929 10.2929 7.825 9.83571 7.05714 8.51786C6.85357 8.16786 7.26071 8.19286 7.63929 7.43571C7.70357 7.30357 7.67143 7.18929 7.62143 7.08929C7.57143 6.98929 7.175 6.01429 7.01071 5.61786C6.85 5.23214 6.68571 5.28571 6.56429 5.27857C6.45 5.27143 6.31786 5.27143 6.18571 5.27143C6.05357 5.27143 5.83929 5.32143 5.65714 5.51786C5.475 5.71786 4.96429 6.19643 4.96429 7.17143C4.96429 8.14643 5.675 9.08929 5.77143 9.22143C5.87143 9.35357 7.16786 11.3536 9.15714 12.2143C10.4143 12.7571 10.9071 12.8036 11.5357 12.7107C11.9179 12.6536 12.7071 12.2321 12.8714 11.7679C13.0357 11.3036 13.0357 10.9071 12.9857 10.825C12.9393 10.7357 12.8071 10.6857 12.6107 10.5893Z" fill="#757185"/>
</g>
</svg>
