<svg width="18" height="18" viewBox="0 0 18 18" fill="none" xmlns="http://www.w3.org/2000/svg">
<mask id="mask0_130_239" style="mask-type:luminance" maskUnits="userSpaceOnUse" x="0" y="0" width="18" height="18">
<path d="M17.5706 0.428711H0.427734V17.5716H17.5706V0.428711Z" fill="white"/>
</mask>
<g mask="url(#mask0_130_239)">
<path d="M6.1529 1.76942C5.91228 1.1882 5.27794 0.878835 4.67171 1.04445L1.92183 1.79442C1.37811 1.94441 1 2.43814 1 3.00062C1 10.7315 7.26847 17 14.9994 17C15.5619 17 16.0556 16.6219 16.2056 16.0782L16.9555 13.3283C17.1212 12.7221 16.8118 12.0877 16.2306 11.8471L13.2307 10.5972C12.7214 10.3847 12.1308 10.5315 11.7839 10.9596L10.5215 12.5002C8.32155 11.4596 6.54038 9.67845 5.4998 7.47854L7.04036 6.21923C7.46846 5.86924 7.61533 5.28177 7.40284 4.77241L6.1529 1.77255V1.76942Z" fill="#757185"/>
</g>
</svg>
