<svg width="18" height="18" viewBox="0 0 18 18" fill="none" xmlns="http://www.w3.org/2000/svg">
<mask id="mask0_130_218" style="mask-type:luminance" maskUnits="userSpaceOnUse" x="0" y="0" width="18" height="18">
<path d="M17.5706 0.428711H0.427734V17.5716H17.5706V0.428711Z" fill="white"/>
</mask>
<g mask="url(#mask0_130_218)">
<path d="M2.25 3.75C1.94062 3.75 1.6875 4.0125 1.6875 4.33333V5.13906L7.75195 10.3016C8.47969 10.9214 9.52383 10.9214 10.2516 10.3016L16.3125 5.13906V4.33333C16.3125 4.0125 16.0594 3.75 15.75 3.75H2.25ZM1.6875 7.40312V13.6667C1.6875 13.9875 1.94062 14.25 2.25 14.25H15.75C16.0594 14.25 16.3125 13.9875 16.3125 13.6667V7.40312L11.3203 11.6542C9.97031 12.8026 8.02617 12.8026 6.67969 11.6542L1.6875 7.40312ZM0 4.33333C0 3.04635 1.00898 2 2.25 2H15.75C16.991 2 18 3.04635 18 4.33333V13.6667C18 14.9536 16.991 16 15.75 16H2.25C1.00898 16 0 14.9536 0 13.6667V4.33333Z" fill="#757185"/>
</g>
</svg>
